%TF.GenerationSoftware,KiCad,Pcbnew,8.0.5*%
%TF.CreationDate,2024-12-11T00:22:58+01:00*%
%TF.ProjectId,rtc-module-kicad,7274632d-6d6f-4647-956c-652d6b696361,rev?*%
%TF.SameCoordinates,Original*%
%TF.FileFunction,Soldermask,Bot*%
%TF.FilePolarity,Negative*%
%FSLAX46Y46*%
G04 Gerber Fmt 4.6, Leading zero omitted, Abs format (unit mm)*
G04 Created by KiCad (PCBNEW 8.0.5) date 2024-12-11 00:22:58*
%MOMM*%
%LPD*%
G01*
G04 APERTURE LIST*
%ADD10R,3.000000X3.000000*%
%ADD11C,3.000000*%
%ADD12R,1.700000X1.700000*%
%ADD13O,1.700000X1.700000*%
G04 APERTURE END LIST*
D10*
%TO.C,J1*%
X95605599Y-98457601D03*
D11*
X95605599Y-77967601D03*
%TD*%
D12*
%TO.C,J2*%
X73406000Y-101142800D03*
D13*
X75946000Y-101142800D03*
X78486000Y-101142800D03*
X81026000Y-101142800D03*
%TD*%
D10*
%TO.C,J1*%
X95453199Y-59697201D03*
D11*
X95453199Y-39207201D03*
%TD*%
D12*
%TO.C,J2*%
X73253600Y-62382400D03*
D13*
X75793600Y-62382400D03*
X78333600Y-62382400D03*
X80873600Y-62382400D03*
%TD*%
D10*
%TO.C,J1*%
X143560799Y-60154401D03*
D11*
X143560799Y-39664401D03*
%TD*%
D12*
%TO.C,J2*%
X121513600Y-101600000D03*
D13*
X124053600Y-101600000D03*
X126593600Y-101600000D03*
X129133600Y-101600000D03*
%TD*%
D12*
%TO.C,J2*%
X121361200Y-62839600D03*
D13*
X123901200Y-62839600D03*
X126441200Y-62839600D03*
X128981200Y-62839600D03*
%TD*%
D10*
%TO.C,J1*%
X143713199Y-98914801D03*
D11*
X143713199Y-78424801D03*
%TD*%
D10*
%TO.C,J1*%
X95757999Y-137218001D03*
D11*
X95757999Y-116728001D03*
%TD*%
D12*
%TO.C,J2*%
X73558400Y-139903200D03*
D13*
X76098400Y-139903200D03*
X78638400Y-139903200D03*
X81178400Y-139903200D03*
%TD*%
D12*
%TO.C,J2*%
X121666000Y-140360400D03*
D13*
X124206000Y-140360400D03*
X126746000Y-140360400D03*
X129286000Y-140360400D03*
%TD*%
D10*
%TO.C,J1*%
X143865599Y-137675201D03*
D11*
X143865599Y-117185201D03*
%TD*%
D10*
%TO.C,J1*%
X144017999Y-176435601D03*
D11*
X144017999Y-155945601D03*
%TD*%
D12*
%TO.C,J2*%
X121818400Y-179120800D03*
D13*
X124358400Y-179120800D03*
X126898400Y-179120800D03*
X129438400Y-179120800D03*
%TD*%
%TO.C,J2*%
X81330800Y-178663600D03*
X78790800Y-178663600D03*
X76250800Y-178663600D03*
D12*
X73710800Y-178663600D03*
%TD*%
D11*
%TO.C,J1*%
X95910399Y-155488401D03*
D10*
X95910399Y-175978401D03*
%TD*%
M02*
