%TF.GenerationSoftware,KiCad,Pcbnew,8.0.5*%
%TF.CreationDate,2024-12-11T00:22:58+01:00*%
%TF.ProjectId,rtc-module-kicad,7274632d-6d6f-4647-956c-652d6b696361,rev?*%
%TF.SameCoordinates,Original*%
%TF.FileFunction,Copper,L2,Bot*%
%TF.FilePolarity,Positive*%
%FSLAX46Y46*%
G04 Gerber Fmt 4.6, Leading zero omitted, Abs format (unit mm)*
G04 Created by KiCad (PCBNEW 8.0.5) date 2024-12-11 00:22:58*
%MOMM*%
%LPD*%
G01*
G04 APERTURE LIST*
%TA.AperFunction,ComponentPad*%
%ADD10R,3.000000X3.000000*%
%TD*%
%TA.AperFunction,ComponentPad*%
%ADD11C,3.000000*%
%TD*%
%TA.AperFunction,ComponentPad*%
%ADD12R,1.700000X1.700000*%
%TD*%
%TA.AperFunction,ComponentPad*%
%ADD13O,1.700000X1.700000*%
%TD*%
%TA.AperFunction,ViaPad*%
%ADD14C,0.600000*%
%TD*%
%TA.AperFunction,Conductor*%
%ADD15C,0.200000*%
%TD*%
G04 APERTURE END LIST*
D10*
%TO.P,J1,1,Pin_1*%
%TO.N,Net-(D1-A)*%
X95605599Y-98457601D03*
D11*
%TO.P,J1,2,Pin_2*%
%TO.N,Net-(J1-Pin_2)*%
X95605599Y-77967601D03*
%TD*%
D12*
%TO.P,J2,1,Pin_1*%
%TO.N,Net-(D2-A)*%
X73406000Y-101142800D03*
D13*
%TO.P,J2,2,Pin_2*%
%TO.N,Net-(J1-Pin_2)*%
X75946000Y-101142800D03*
%TO.P,J2,3,Pin_3*%
%TO.N,Net-(J2-Pin_3)*%
X78486000Y-101142800D03*
%TO.P,J2,4,Pin_4*%
%TO.N,Net-(J2-Pin_4)*%
X81026000Y-101142800D03*
%TD*%
D10*
%TO.P,J1,1,Pin_1*%
%TO.N,Net-(D1-A)*%
X95453199Y-59697201D03*
D11*
%TO.P,J1,2,Pin_2*%
%TO.N,Net-(J1-Pin_2)*%
X95453199Y-39207201D03*
%TD*%
D12*
%TO.P,J2,1,Pin_1*%
%TO.N,Net-(D2-A)*%
X73253600Y-62382400D03*
D13*
%TO.P,J2,2,Pin_2*%
%TO.N,Net-(J1-Pin_2)*%
X75793600Y-62382400D03*
%TO.P,J2,3,Pin_3*%
%TO.N,Net-(J2-Pin_3)*%
X78333600Y-62382400D03*
%TO.P,J2,4,Pin_4*%
%TO.N,Net-(J2-Pin_4)*%
X80873600Y-62382400D03*
%TD*%
D10*
%TO.P,J1,1,Pin_1*%
%TO.N,Net-(D1-A)*%
X143560799Y-60154401D03*
D11*
%TO.P,J1,2,Pin_2*%
%TO.N,Net-(J1-Pin_2)*%
X143560799Y-39664401D03*
%TD*%
D12*
%TO.P,J2,1,Pin_1*%
%TO.N,Net-(D2-A)*%
X121513600Y-101600000D03*
D13*
%TO.P,J2,2,Pin_2*%
%TO.N,Net-(J1-Pin_2)*%
X124053600Y-101600000D03*
%TO.P,J2,3,Pin_3*%
%TO.N,Net-(J2-Pin_3)*%
X126593600Y-101600000D03*
%TO.P,J2,4,Pin_4*%
%TO.N,Net-(J2-Pin_4)*%
X129133600Y-101600000D03*
%TD*%
D12*
%TO.P,J2,1,Pin_1*%
%TO.N,Net-(D2-A)*%
X121361200Y-62839600D03*
D13*
%TO.P,J2,2,Pin_2*%
%TO.N,Net-(J1-Pin_2)*%
X123901200Y-62839600D03*
%TO.P,J2,3,Pin_3*%
%TO.N,Net-(J2-Pin_3)*%
X126441200Y-62839600D03*
%TO.P,J2,4,Pin_4*%
%TO.N,Net-(J2-Pin_4)*%
X128981200Y-62839600D03*
%TD*%
D10*
%TO.P,J1,1,Pin_1*%
%TO.N,Net-(D1-A)*%
X143713199Y-98914801D03*
D11*
%TO.P,J1,2,Pin_2*%
%TO.N,Net-(J1-Pin_2)*%
X143713199Y-78424801D03*
%TD*%
D10*
%TO.P,J1,1,Pin_1*%
%TO.N,Net-(D1-A)*%
X95757999Y-137218001D03*
D11*
%TO.P,J1,2,Pin_2*%
%TO.N,Net-(J1-Pin_2)*%
X95757999Y-116728001D03*
%TD*%
D12*
%TO.P,J2,1,Pin_1*%
%TO.N,Net-(D2-A)*%
X73558400Y-139903200D03*
D13*
%TO.P,J2,2,Pin_2*%
%TO.N,Net-(J1-Pin_2)*%
X76098400Y-139903200D03*
%TO.P,J2,3,Pin_3*%
%TO.N,Net-(J2-Pin_3)*%
X78638400Y-139903200D03*
%TO.P,J2,4,Pin_4*%
%TO.N,Net-(J2-Pin_4)*%
X81178400Y-139903200D03*
%TD*%
D12*
%TO.P,J2,1,Pin_1*%
%TO.N,Net-(D2-A)*%
X121666000Y-140360400D03*
D13*
%TO.P,J2,2,Pin_2*%
%TO.N,Net-(J1-Pin_2)*%
X124206000Y-140360400D03*
%TO.P,J2,3,Pin_3*%
%TO.N,Net-(J2-Pin_3)*%
X126746000Y-140360400D03*
%TO.P,J2,4,Pin_4*%
%TO.N,Net-(J2-Pin_4)*%
X129286000Y-140360400D03*
%TD*%
D10*
%TO.P,J1,1,Pin_1*%
%TO.N,Net-(D1-A)*%
X143865599Y-137675201D03*
D11*
%TO.P,J1,2,Pin_2*%
%TO.N,Net-(J1-Pin_2)*%
X143865599Y-117185201D03*
%TD*%
D10*
%TO.P,J1,1,Pin_1*%
%TO.N,Net-(D1-A)*%
X144017999Y-176435601D03*
D11*
%TO.P,J1,2,Pin_2*%
%TO.N,Net-(J1-Pin_2)*%
X144017999Y-155945601D03*
%TD*%
D12*
%TO.P,J2,1,Pin_1*%
%TO.N,Net-(D2-A)*%
X121818400Y-179120800D03*
D13*
%TO.P,J2,2,Pin_2*%
%TO.N,Net-(J1-Pin_2)*%
X124358400Y-179120800D03*
%TO.P,J2,3,Pin_3*%
%TO.N,Net-(J2-Pin_3)*%
X126898400Y-179120800D03*
%TO.P,J2,4,Pin_4*%
%TO.N,Net-(J2-Pin_4)*%
X129438400Y-179120800D03*
%TD*%
%TO.P,J2,4,Pin_4*%
%TO.N,Net-(J2-Pin_4)*%
X81330800Y-178663600D03*
%TO.P,J2,3,Pin_3*%
%TO.N,Net-(J2-Pin_3)*%
X78790800Y-178663600D03*
%TO.P,J2,2,Pin_2*%
%TO.N,Net-(J1-Pin_2)*%
X76250800Y-178663600D03*
D12*
%TO.P,J2,1,Pin_1*%
%TO.N,Net-(D2-A)*%
X73710800Y-178663600D03*
%TD*%
D11*
%TO.P,J1,2,Pin_2*%
%TO.N,Net-(J1-Pin_2)*%
X95910399Y-155488401D03*
D10*
%TO.P,J1,1,Pin_1*%
%TO.N,Net-(D1-A)*%
X95910399Y-175978401D03*
%TD*%
D14*
%TO.N,Net-(D1-K)*%
X131368800Y-44145200D03*
%TO.N,Net-(D3-K)*%
X122275600Y-35356800D03*
%TO.N,Net-(D2-A)*%
X71120000Y-57759600D03*
%TO.N,Net-(D1-K)*%
X130962400Y-38658800D03*
%TO.N,Net-(D2-A)*%
X71120000Y-50698400D03*
X119227600Y-58216800D03*
X119227600Y-51155600D03*
%TO.N,Net-(D3-K)*%
X74168000Y-34899600D03*
%TO.N,Net-(D2-A)*%
X119380000Y-96977200D03*
%TO.N,Net-(D1-K)*%
X131521200Y-82905600D03*
X83261200Y-43688000D03*
%TO.N,Net-(D3-K)*%
X79959200Y-57607200D03*
%TO.N,Net-(D1-K)*%
X82854800Y-38201600D03*
%TO.N,Net-(D3-K)*%
X122428000Y-74117200D03*
X128219200Y-96824800D03*
%TO.N,Net-(D1-K)*%
X131114800Y-77419200D03*
%TO.N,Net-(D3-K)*%
X128066800Y-58064400D03*
%TO.N,Net-(D2-A)*%
X119380000Y-89916000D03*
X71272400Y-96520000D03*
%TO.N,Net-(D1-K)*%
X83413600Y-82448400D03*
%TO.N,Net-(D3-K)*%
X74320400Y-73660000D03*
X80111600Y-96367600D03*
%TO.N,Net-(D1-K)*%
X83007200Y-76962000D03*
%TO.N,Net-(D2-A)*%
X71272400Y-89458800D03*
X119532400Y-135737600D03*
%TO.N,Net-(D1-K)*%
X131673600Y-121666000D03*
%TO.N,Net-(D3-K)*%
X122580400Y-112877600D03*
X128371600Y-135585200D03*
%TO.N,Net-(D1-K)*%
X131267200Y-116179600D03*
%TO.N,Net-(D2-A)*%
X119532400Y-128676400D03*
X71424800Y-135280400D03*
%TO.N,Net-(D1-K)*%
X83566000Y-121208800D03*
%TO.N,Net-(D3-K)*%
X74472800Y-112420400D03*
X80264000Y-135128000D03*
%TO.N,Net-(D1-K)*%
X83159600Y-115722400D03*
%TO.N,Net-(D2-A)*%
X71424800Y-128219200D03*
X119684800Y-174498000D03*
%TO.N,Net-(D1-K)*%
X131826000Y-160426400D03*
%TO.N,Net-(D3-K)*%
X122732800Y-151638000D03*
X128524000Y-174345600D03*
%TO.N,Net-(D1-K)*%
X131419600Y-154940000D03*
%TO.N,Net-(D2-A)*%
X119684800Y-167436800D03*
%TO.N,Net-(D1-K)*%
X83718400Y-159969200D03*
X83312000Y-154482800D03*
%TO.N,Net-(D2-A)*%
X71577200Y-174040800D03*
X71577200Y-166979600D03*
%TO.N,Net-(D3-K)*%
X80416400Y-173888400D03*
X74625200Y-151180800D03*
%TD*%
D15*
%TO.N,Net-(D2-A)*%
X119329200Y-51257200D02*
X119227600Y-51155600D01*
X119227600Y-58216800D02*
X119329200Y-58115200D01*
%TO.N,Net-(D3-K)*%
X128066800Y-58064400D02*
X121564400Y-58064400D01*
X121107200Y-57607200D02*
X120751600Y-57251600D01*
X120751600Y-35661600D02*
X121056400Y-35356800D01*
%TO.N,Net-(D2-A)*%
X71221600Y-57658000D02*
X71221600Y-50800000D01*
%TO.N,Net-(D1-K)*%
X83261200Y-38608000D02*
X82854800Y-38201600D01*
%TO.N,Net-(D3-K)*%
X72999600Y-57150000D02*
X72644000Y-56794400D01*
X72948800Y-34899600D02*
X74168000Y-34899600D01*
%TO.N,Net-(D2-A)*%
X71120000Y-57759600D02*
X71221600Y-57658000D01*
%TO.N,Net-(D3-K)*%
X79959200Y-57607200D02*
X73456800Y-57607200D01*
X73456800Y-57607200D02*
X72999600Y-57150000D01*
%TO.N,Net-(D1-K)*%
X83261200Y-43688000D02*
X83261200Y-38608000D01*
%TO.N,Net-(D3-K)*%
X72644000Y-35204400D02*
X72948800Y-34899600D01*
X72644000Y-56794400D02*
X72644000Y-35204400D01*
%TO.N,Net-(D2-A)*%
X119380000Y-96977200D02*
X119481600Y-96875600D01*
X119481600Y-90017600D02*
X119380000Y-89916000D01*
X119481600Y-96875600D02*
X119481600Y-90017600D01*
%TO.N,Net-(D3-K)*%
X120904000Y-96012000D02*
X120904000Y-74422000D01*
X121716800Y-96824800D02*
X121259600Y-96367600D01*
%TO.N,Net-(D1-K)*%
X131521200Y-82905600D02*
X131521200Y-77825600D01*
%TO.N,Net-(D3-K)*%
X121208800Y-74117200D02*
X122428000Y-74117200D01*
%TO.N,Net-(D1-K)*%
X131521200Y-77825600D02*
X131114800Y-77419200D01*
%TO.N,Net-(D3-K)*%
X120904000Y-74422000D02*
X121208800Y-74117200D01*
X128219200Y-96824800D02*
X121716800Y-96824800D01*
X121259600Y-96367600D02*
X120904000Y-96012000D01*
X121056400Y-35356800D02*
X122275600Y-35356800D01*
%TO.N,Net-(D1-K)*%
X131368800Y-39065200D02*
X130962400Y-38658800D01*
X131368800Y-44145200D02*
X131368800Y-39065200D01*
%TO.N,Net-(D3-K)*%
X121564400Y-58064400D02*
X121107200Y-57607200D01*
%TO.N,Net-(D2-A)*%
X71374000Y-89560400D02*
X71272400Y-89458800D01*
X71374000Y-96418400D02*
X71374000Y-89560400D01*
X71272400Y-96520000D02*
X71374000Y-96418400D01*
%TO.N,Net-(D1-K)*%
X83413600Y-77368400D02*
X83007200Y-76962000D01*
X83413600Y-82448400D02*
X83413600Y-77368400D01*
%TO.N,Net-(D3-K)*%
X73609200Y-96367600D02*
X73152000Y-95910400D01*
X72796400Y-73964800D02*
X73101200Y-73660000D01*
X80111600Y-96367600D02*
X73609200Y-96367600D01*
X72796400Y-95554800D02*
X72796400Y-73964800D01*
X73152000Y-95910400D02*
X72796400Y-95554800D01*
X73101200Y-73660000D02*
X74320400Y-73660000D01*
X120751600Y-57251600D02*
X120751600Y-35661600D01*
%TO.N,Net-(D2-A)*%
X119329200Y-58115200D02*
X119329200Y-51257200D01*
X71221600Y-50800000D02*
X71120000Y-50698400D01*
X119532400Y-135737600D02*
X119634000Y-135636000D01*
X119634000Y-128778000D02*
X119532400Y-128676400D01*
X119634000Y-135636000D02*
X119634000Y-128778000D01*
%TO.N,Net-(D3-K)*%
X121056400Y-134772400D02*
X121056400Y-113182400D01*
X121869200Y-135585200D02*
X121412000Y-135128000D01*
%TO.N,Net-(D1-K)*%
X131673600Y-121666000D02*
X131673600Y-116586000D01*
%TO.N,Net-(D3-K)*%
X121361200Y-112877600D02*
X122580400Y-112877600D01*
%TO.N,Net-(D1-K)*%
X131673600Y-116586000D02*
X131267200Y-116179600D01*
%TO.N,Net-(D3-K)*%
X121056400Y-113182400D02*
X121361200Y-112877600D01*
X128371600Y-135585200D02*
X121869200Y-135585200D01*
X121412000Y-135128000D02*
X121056400Y-134772400D01*
%TO.N,Net-(D2-A)*%
X71526400Y-128320800D02*
X71424800Y-128219200D01*
X71526400Y-135178800D02*
X71526400Y-128320800D01*
X71424800Y-135280400D02*
X71526400Y-135178800D01*
%TO.N,Net-(D1-K)*%
X83566000Y-116128800D02*
X83159600Y-115722400D01*
X83566000Y-121208800D02*
X83566000Y-116128800D01*
%TO.N,Net-(D3-K)*%
X73761600Y-135128000D02*
X73304400Y-134670800D01*
X72948800Y-112725200D02*
X73253600Y-112420400D01*
X80264000Y-135128000D02*
X73761600Y-135128000D01*
X72948800Y-134315200D02*
X72948800Y-112725200D01*
X73304400Y-134670800D02*
X72948800Y-134315200D01*
X73253600Y-112420400D02*
X74472800Y-112420400D01*
%TO.N,Net-(D2-A)*%
X119786400Y-167538400D02*
X119684800Y-167436800D01*
X119786400Y-174396400D02*
X119786400Y-167538400D01*
X119684800Y-174498000D02*
X119786400Y-174396400D01*
%TO.N,Net-(D1-K)*%
X131826000Y-155346400D02*
X131419600Y-154940000D01*
X131826000Y-160426400D02*
X131826000Y-155346400D01*
%TO.N,Net-(D3-K)*%
X122021600Y-174345600D02*
X121564400Y-173888400D01*
X121208800Y-151942800D02*
X121513600Y-151638000D01*
X128524000Y-174345600D02*
X122021600Y-174345600D01*
X121208800Y-173532800D02*
X121208800Y-151942800D01*
X121564400Y-173888400D02*
X121208800Y-173532800D01*
X121513600Y-151638000D02*
X122732800Y-151638000D01*
%TO.N,Net-(D1-K)*%
X83718400Y-159969200D02*
X83718400Y-154889200D01*
X83718400Y-154889200D02*
X83312000Y-154482800D01*
%TO.N,Net-(D2-A)*%
X71577200Y-174040800D02*
X71678800Y-173939200D01*
X71678800Y-173939200D02*
X71678800Y-167081200D01*
X71678800Y-167081200D02*
X71577200Y-166979600D01*
%TO.N,Net-(D3-K)*%
X73456800Y-173431200D02*
X73101200Y-173075600D01*
X73101200Y-173075600D02*
X73101200Y-151485600D01*
X73406000Y-151180800D02*
X74625200Y-151180800D01*
X73914000Y-173888400D02*
X73456800Y-173431200D01*
X80416400Y-173888400D02*
X73914000Y-173888400D01*
X73101200Y-151485600D02*
X73406000Y-151180800D01*
%TD*%
M02*
