%TF.GenerationSoftware,KiCad,Pcbnew,8.0.5*%
%TF.CreationDate,2024-12-11T00:22:58+01:00*%
%TF.ProjectId,rtc-module-kicad,7274632d-6d6f-4647-956c-652d6b696361,rev?*%
%TF.SameCoordinates,Original*%
%TF.FileFunction,Copper,L1,Top*%
%TF.FilePolarity,Positive*%
%FSLAX46Y46*%
G04 Gerber Fmt 4.6, Leading zero omitted, Abs format (unit mm)*
G04 Created by KiCad (PCBNEW 8.0.5) date 2024-12-11 00:22:58*
%MOMM*%
%LPD*%
G01*
G04 APERTURE LIST*
G04 Aperture macros list*
%AMRoundRect*
0 Rectangle with rounded corners*
0 $1 Rounding radius*
0 $2 $3 $4 $5 $6 $7 $8 $9 X,Y pos of 4 corners*
0 Add a 4 corners polygon primitive as box body*
4,1,4,$2,$3,$4,$5,$6,$7,$8,$9,$2,$3,0*
0 Add four circle primitives for the rounded corners*
1,1,$1+$1,$2,$3*
1,1,$1+$1,$4,$5*
1,1,$1+$1,$6,$7*
1,1,$1+$1,$8,$9*
0 Add four rect primitives between the rounded corners*
20,1,$1+$1,$2,$3,$4,$5,0*
20,1,$1+$1,$4,$5,$6,$7,0*
20,1,$1+$1,$6,$7,$8,$9,0*
20,1,$1+$1,$8,$9,$2,$3,0*%
G04 Aperture macros list end*
%TA.AperFunction,SMDPad,CuDef*%
%ADD10RoundRect,0.250000X-0.350000X-0.450000X0.350000X-0.450000X0.350000X0.450000X-0.350000X0.450000X0*%
%TD*%
%TA.AperFunction,SMDPad,CuDef*%
%ADD11RoundRect,0.150000X-0.825000X-0.150000X0.825000X-0.150000X0.825000X0.150000X-0.825000X0.150000X0*%
%TD*%
%TA.AperFunction,SMDPad,CuDef*%
%ADD12R,1.524000X1.676400*%
%TD*%
%TA.AperFunction,SMDPad,CuDef*%
%ADD13RoundRect,0.250000X-0.337500X-0.475000X0.337500X-0.475000X0.337500X0.475000X-0.337500X0.475000X0*%
%TD*%
%TA.AperFunction,ComponentPad*%
%ADD14R,3.000000X3.000000*%
%TD*%
%TA.AperFunction,ComponentPad*%
%ADD15C,3.000000*%
%TD*%
%TA.AperFunction,ComponentPad*%
%ADD16R,1.700000X1.700000*%
%TD*%
%TA.AperFunction,ComponentPad*%
%ADD17O,1.700000X1.700000*%
%TD*%
%TA.AperFunction,SMDPad,CuDef*%
%ADD18RoundRect,0.250000X-0.325000X-0.450000X0.325000X-0.450000X0.325000X0.450000X-0.325000X0.450000X0*%
%TD*%
%TA.AperFunction,SMDPad,CuDef*%
%ADD19R,4.200000X4.025000*%
%TD*%
%TA.AperFunction,ViaPad*%
%ADD20C,0.600000*%
%TD*%
%TA.AperFunction,Conductor*%
%ADD21C,0.200000*%
%TD*%
G04 APERTURE END LIST*
D10*
%TO.P,150R,1*%
%TO.N,Net-(J1-Pin_2)*%
X76740000Y-94386400D03*
%TO.P,150R,2*%
%TO.N,Net-(D3-K)*%
X78740000Y-94386400D03*
%TD*%
D11*
%TO.P,U1,1,OSCI*%
%TO.N,Net-(U1-OSCI)*%
X75364800Y-76911200D03*
%TO.P,U1,2,OSCO*%
%TO.N,Net-(U1-OSCO)*%
X75364800Y-78181200D03*
%TO.P,U1,3,~{INT}*%
%TO.N,unconnected-(U1-~{INT}-Pad3)*%
X75364800Y-79451200D03*
%TO.P,U1,4,VSS*%
%TO.N,Net-(J1-Pin_2)*%
X75364800Y-80721200D03*
%TO.P,U1,5,SDA*%
%TO.N,Net-(U1-SDA)*%
X80314800Y-80721200D03*
%TO.P,U1,6,SCL*%
%TO.N,Net-(U1-SCL)*%
X80314800Y-79451200D03*
%TO.P,U1,7,CLKO*%
%TO.N,unconnected-(U1-CLKO-Pad7)*%
X80314800Y-78181200D03*
%TO.P,U1,8,VDD*%
%TO.N,Net-(D1-K)*%
X80314800Y-76911200D03*
%TD*%
D12*
%TO.P,D2,1,K*%
%TO.N,Net-(D1-K)*%
X65887600Y-88392000D03*
%TO.P,D2,2,A*%
%TO.N,Net-(D2-A)*%
X68529200Y-88392000D03*
%TD*%
D13*
%TO.P,10uF/6.3V,1*%
%TO.N,Net-(J1-Pin_2)*%
X76665000Y-86410800D03*
%TO.P,10uF/6.3V,2*%
%TO.N,Net-(D1-K)*%
X78740000Y-86410800D03*
%TD*%
D10*
%TO.P,R2,1*%
%TO.N,Net-(J2-Pin_4)*%
X76740000Y-89001600D03*
%TO.P,R2,2*%
%TO.N,Net-(U1-SCL)*%
X78740000Y-89001600D03*
%TD*%
D12*
%TO.P,D1,1,K*%
%TO.N,Net-(D1-K)*%
X65684400Y-93065600D03*
%TO.P,D1,2,A*%
%TO.N,Net-(D1-A)*%
X68326000Y-93065600D03*
%TD*%
D14*
%TO.P,J1,1,Pin_1*%
%TO.N,Net-(D1-A)*%
X95605599Y-98457601D03*
D15*
%TO.P,J1,2,Pin_2*%
%TO.N,Net-(J1-Pin_2)*%
X95605599Y-77967601D03*
%TD*%
D16*
%TO.P,J2,1,Pin_1*%
%TO.N,Net-(D2-A)*%
X73406000Y-101142800D03*
D17*
%TO.P,J2,2,Pin_2*%
%TO.N,Net-(J1-Pin_2)*%
X75946000Y-101142800D03*
%TO.P,J2,3,Pin_3*%
%TO.N,Net-(J2-Pin_3)*%
X78486000Y-101142800D03*
%TO.P,J2,4,Pin_4*%
%TO.N,Net-(J2-Pin_4)*%
X81026000Y-101142800D03*
%TD*%
D18*
%TO.P,LED,1,K*%
%TO.N,Net-(D3-K)*%
X76385200Y-73406000D03*
%TO.P,LED,2,A*%
%TO.N,Net-(D1-K)*%
X78435200Y-73406000D03*
%TD*%
D10*
%TO.P,R1,1*%
%TO.N,Net-(J2-Pin_3)*%
X76740000Y-91592400D03*
%TO.P,R1,2*%
%TO.N,Net-(U1-SDA)*%
X78740000Y-91592400D03*
%TD*%
D19*
%TO.P,Crystal,1,1*%
%TO.N,Net-(U1-OSCI)*%
X66954400Y-74321800D03*
%TO.P,Crystal,2,2*%
%TO.N,Net-(U1-OSCO)*%
X66954400Y-82346800D03*
%TD*%
D10*
%TO.P,150R,1*%
%TO.N,Net-(J1-Pin_2)*%
X76587600Y-55626000D03*
%TO.P,150R,2*%
%TO.N,Net-(D3-K)*%
X78587600Y-55626000D03*
%TD*%
D11*
%TO.P,U1,1,OSCI*%
%TO.N,Net-(U1-OSCI)*%
X75212400Y-38150800D03*
%TO.P,U1,2,OSCO*%
%TO.N,Net-(U1-OSCO)*%
X75212400Y-39420800D03*
%TO.P,U1,3,~{INT}*%
%TO.N,unconnected-(U1-~{INT}-Pad3)*%
X75212400Y-40690800D03*
%TO.P,U1,4,VSS*%
%TO.N,Net-(J1-Pin_2)*%
X75212400Y-41960800D03*
%TO.P,U1,5,SDA*%
%TO.N,Net-(U1-SDA)*%
X80162400Y-41960800D03*
%TO.P,U1,6,SCL*%
%TO.N,Net-(U1-SCL)*%
X80162400Y-40690800D03*
%TO.P,U1,7,CLKO*%
%TO.N,unconnected-(U1-CLKO-Pad7)*%
X80162400Y-39420800D03*
%TO.P,U1,8,VDD*%
%TO.N,Net-(D1-K)*%
X80162400Y-38150800D03*
%TD*%
D12*
%TO.P,D2,1,K*%
%TO.N,Net-(D1-K)*%
X65735200Y-49631600D03*
%TO.P,D2,2,A*%
%TO.N,Net-(D2-A)*%
X68376800Y-49631600D03*
%TD*%
D18*
%TO.P,LED,1,K*%
%TO.N,Net-(D3-K)*%
X76232800Y-34645600D03*
%TO.P,LED,2,A*%
%TO.N,Net-(D1-K)*%
X78282800Y-34645600D03*
%TD*%
D19*
%TO.P,Crystal,1,1*%
%TO.N,Net-(U1-OSCI)*%
X66802000Y-35561400D03*
%TO.P,Crystal,2,2*%
%TO.N,Net-(U1-OSCO)*%
X66802000Y-43586400D03*
%TD*%
D13*
%TO.P,10uF/6.3V,1*%
%TO.N,Net-(J1-Pin_2)*%
X76512600Y-47650400D03*
%TO.P,10uF/6.3V,2*%
%TO.N,Net-(D1-K)*%
X78587600Y-47650400D03*
%TD*%
D10*
%TO.P,150R,1*%
%TO.N,Net-(J1-Pin_2)*%
X124695200Y-56083200D03*
%TO.P,150R,2*%
%TO.N,Net-(D3-K)*%
X126695200Y-56083200D03*
%TD*%
D12*
%TO.P,D1,1,K*%
%TO.N,Net-(D1-K)*%
X65532000Y-54305200D03*
%TO.P,D1,2,A*%
%TO.N,Net-(D1-A)*%
X68173600Y-54305200D03*
%TD*%
D10*
%TO.P,R1,1*%
%TO.N,Net-(J2-Pin_3)*%
X76587600Y-52832000D03*
%TO.P,R1,2*%
%TO.N,Net-(U1-SDA)*%
X78587600Y-52832000D03*
%TD*%
D12*
%TO.P,D1,1,K*%
%TO.N,Net-(D1-K)*%
X113639600Y-54762400D03*
%TO.P,D1,2,A*%
%TO.N,Net-(D1-A)*%
X116281200Y-54762400D03*
%TD*%
D10*
%TO.P,R2,1*%
%TO.N,Net-(J2-Pin_4)*%
X124695200Y-50698400D03*
%TO.P,R2,2*%
%TO.N,Net-(U1-SCL)*%
X126695200Y-50698400D03*
%TD*%
D14*
%TO.P,J1,1,Pin_1*%
%TO.N,Net-(D1-A)*%
X95453199Y-59697201D03*
D15*
%TO.P,J1,2,Pin_2*%
%TO.N,Net-(J1-Pin_2)*%
X95453199Y-39207201D03*
%TD*%
D19*
%TO.P,Crystal,1,1*%
%TO.N,Net-(U1-OSCI)*%
X114909600Y-36018600D03*
%TO.P,Crystal,2,2*%
%TO.N,Net-(U1-OSCO)*%
X114909600Y-44043600D03*
%TD*%
D16*
%TO.P,J2,1,Pin_1*%
%TO.N,Net-(D2-A)*%
X73253600Y-62382400D03*
D17*
%TO.P,J2,2,Pin_2*%
%TO.N,Net-(J1-Pin_2)*%
X75793600Y-62382400D03*
%TO.P,J2,3,Pin_3*%
%TO.N,Net-(J2-Pin_3)*%
X78333600Y-62382400D03*
%TO.P,J2,4,Pin_4*%
%TO.N,Net-(J2-Pin_4)*%
X80873600Y-62382400D03*
%TD*%
D18*
%TO.P,LED,1,K*%
%TO.N,Net-(D3-K)*%
X124340400Y-35102800D03*
%TO.P,LED,2,A*%
%TO.N,Net-(D1-K)*%
X126390400Y-35102800D03*
%TD*%
D13*
%TO.P,10uF/6.3V,1*%
%TO.N,Net-(J1-Pin_2)*%
X124620200Y-48107600D03*
%TO.P,10uF/6.3V,2*%
%TO.N,Net-(D1-K)*%
X126695200Y-48107600D03*
%TD*%
D11*
%TO.P,U1,1,OSCI*%
%TO.N,Net-(U1-OSCI)*%
X123320000Y-38608000D03*
%TO.P,U1,2,OSCO*%
%TO.N,Net-(U1-OSCO)*%
X123320000Y-39878000D03*
%TO.P,U1,3,~{INT}*%
%TO.N,unconnected-(U1-~{INT}-Pad3)*%
X123320000Y-41148000D03*
%TO.P,U1,4,VSS*%
%TO.N,Net-(J1-Pin_2)*%
X123320000Y-42418000D03*
%TO.P,U1,5,SDA*%
%TO.N,Net-(U1-SDA)*%
X128270000Y-42418000D03*
%TO.P,U1,6,SCL*%
%TO.N,Net-(U1-SCL)*%
X128270000Y-41148000D03*
%TO.P,U1,7,CLKO*%
%TO.N,unconnected-(U1-CLKO-Pad7)*%
X128270000Y-39878000D03*
%TO.P,U1,8,VDD*%
%TO.N,Net-(D1-K)*%
X128270000Y-38608000D03*
%TD*%
D12*
%TO.P,D2,1,K*%
%TO.N,Net-(D1-K)*%
X113842800Y-50088800D03*
%TO.P,D2,2,A*%
%TO.N,Net-(D2-A)*%
X116484400Y-50088800D03*
%TD*%
D10*
%TO.P,R1,1*%
%TO.N,Net-(J2-Pin_3)*%
X124695200Y-53289200D03*
%TO.P,R1,2*%
%TO.N,Net-(U1-SDA)*%
X126695200Y-53289200D03*
%TD*%
%TO.P,R2,1*%
%TO.N,Net-(J2-Pin_4)*%
X76587600Y-50241200D03*
%TO.P,R2,2*%
%TO.N,Net-(U1-SCL)*%
X78587600Y-50241200D03*
%TD*%
D14*
%TO.P,J1,1,Pin_1*%
%TO.N,Net-(D1-A)*%
X143560799Y-60154401D03*
D15*
%TO.P,J1,2,Pin_2*%
%TO.N,Net-(J1-Pin_2)*%
X143560799Y-39664401D03*
%TD*%
D19*
%TO.P,Crystal,1,1*%
%TO.N,Net-(U1-OSCI)*%
X115062000Y-74779000D03*
%TO.P,Crystal,2,2*%
%TO.N,Net-(U1-OSCO)*%
X115062000Y-82804000D03*
%TD*%
D10*
%TO.P,150R,1*%
%TO.N,Net-(J1-Pin_2)*%
X124847600Y-94843600D03*
%TO.P,150R,2*%
%TO.N,Net-(D3-K)*%
X126847600Y-94843600D03*
%TD*%
D18*
%TO.P,LED,1,K*%
%TO.N,Net-(D3-K)*%
X124492800Y-73863200D03*
%TO.P,LED,2,A*%
%TO.N,Net-(D1-K)*%
X126542800Y-73863200D03*
%TD*%
D11*
%TO.P,U1,1,OSCI*%
%TO.N,Net-(U1-OSCI)*%
X123472400Y-77368400D03*
%TO.P,U1,2,OSCO*%
%TO.N,Net-(U1-OSCO)*%
X123472400Y-78638400D03*
%TO.P,U1,3,~{INT}*%
%TO.N,unconnected-(U1-~{INT}-Pad3)*%
X123472400Y-79908400D03*
%TO.P,U1,4,VSS*%
%TO.N,Net-(J1-Pin_2)*%
X123472400Y-81178400D03*
%TO.P,U1,5,SDA*%
%TO.N,Net-(U1-SDA)*%
X128422400Y-81178400D03*
%TO.P,U1,6,SCL*%
%TO.N,Net-(U1-SCL)*%
X128422400Y-79908400D03*
%TO.P,U1,7,CLKO*%
%TO.N,unconnected-(U1-CLKO-Pad7)*%
X128422400Y-78638400D03*
%TO.P,U1,8,VDD*%
%TO.N,Net-(D1-K)*%
X128422400Y-77368400D03*
%TD*%
D12*
%TO.P,D2,1,K*%
%TO.N,Net-(D1-K)*%
X113995200Y-88849200D03*
%TO.P,D2,2,A*%
%TO.N,Net-(D2-A)*%
X116636800Y-88849200D03*
%TD*%
%TO.P,D1,1,K*%
%TO.N,Net-(D1-K)*%
X113792000Y-93522800D03*
%TO.P,D1,2,A*%
%TO.N,Net-(D1-A)*%
X116433600Y-93522800D03*
%TD*%
D10*
%TO.P,R1,1*%
%TO.N,Net-(J2-Pin_3)*%
X124847600Y-92049600D03*
%TO.P,R1,2*%
%TO.N,Net-(U1-SDA)*%
X126847600Y-92049600D03*
%TD*%
D13*
%TO.P,10uF/6.3V,1*%
%TO.N,Net-(J1-Pin_2)*%
X124772600Y-86868000D03*
%TO.P,10uF/6.3V,2*%
%TO.N,Net-(D1-K)*%
X126847600Y-86868000D03*
%TD*%
D10*
%TO.P,R2,1*%
%TO.N,Net-(J2-Pin_4)*%
X124847600Y-89458800D03*
%TO.P,R2,2*%
%TO.N,Net-(U1-SCL)*%
X126847600Y-89458800D03*
%TD*%
D16*
%TO.P,J2,1,Pin_1*%
%TO.N,Net-(D2-A)*%
X121513600Y-101600000D03*
D17*
%TO.P,J2,2,Pin_2*%
%TO.N,Net-(J1-Pin_2)*%
X124053600Y-101600000D03*
%TO.P,J2,3,Pin_3*%
%TO.N,Net-(J2-Pin_3)*%
X126593600Y-101600000D03*
%TO.P,J2,4,Pin_4*%
%TO.N,Net-(J2-Pin_4)*%
X129133600Y-101600000D03*
%TD*%
D16*
%TO.P,J2,1,Pin_1*%
%TO.N,Net-(D2-A)*%
X121361200Y-62839600D03*
D17*
%TO.P,J2,2,Pin_2*%
%TO.N,Net-(J1-Pin_2)*%
X123901200Y-62839600D03*
%TO.P,J2,3,Pin_3*%
%TO.N,Net-(J2-Pin_3)*%
X126441200Y-62839600D03*
%TO.P,J2,4,Pin_4*%
%TO.N,Net-(J2-Pin_4)*%
X128981200Y-62839600D03*
%TD*%
D14*
%TO.P,J1,1,Pin_1*%
%TO.N,Net-(D1-A)*%
X143713199Y-98914801D03*
D15*
%TO.P,J1,2,Pin_2*%
%TO.N,Net-(J1-Pin_2)*%
X143713199Y-78424801D03*
%TD*%
D10*
%TO.P,150R,1*%
%TO.N,Net-(J1-Pin_2)*%
X76892400Y-133146800D03*
%TO.P,150R,2*%
%TO.N,Net-(D3-K)*%
X78892400Y-133146800D03*
%TD*%
D11*
%TO.P,U1,1,OSCI*%
%TO.N,Net-(U1-OSCI)*%
X75517200Y-115671600D03*
%TO.P,U1,2,OSCO*%
%TO.N,Net-(U1-OSCO)*%
X75517200Y-116941600D03*
%TO.P,U1,3,~{INT}*%
%TO.N,unconnected-(U1-~{INT}-Pad3)*%
X75517200Y-118211600D03*
%TO.P,U1,4,VSS*%
%TO.N,Net-(J1-Pin_2)*%
X75517200Y-119481600D03*
%TO.P,U1,5,SDA*%
%TO.N,Net-(U1-SDA)*%
X80467200Y-119481600D03*
%TO.P,U1,6,SCL*%
%TO.N,Net-(U1-SCL)*%
X80467200Y-118211600D03*
%TO.P,U1,7,CLKO*%
%TO.N,unconnected-(U1-CLKO-Pad7)*%
X80467200Y-116941600D03*
%TO.P,U1,8,VDD*%
%TO.N,Net-(D1-K)*%
X80467200Y-115671600D03*
%TD*%
D12*
%TO.P,D2,1,K*%
%TO.N,Net-(D1-K)*%
X66040000Y-127152400D03*
%TO.P,D2,2,A*%
%TO.N,Net-(D2-A)*%
X68681600Y-127152400D03*
%TD*%
D13*
%TO.P,10uF/6.3V,1*%
%TO.N,Net-(J1-Pin_2)*%
X76817400Y-125171200D03*
%TO.P,10uF/6.3V,2*%
%TO.N,Net-(D1-K)*%
X78892400Y-125171200D03*
%TD*%
D10*
%TO.P,R2,1*%
%TO.N,Net-(J2-Pin_4)*%
X76892400Y-127762000D03*
%TO.P,R2,2*%
%TO.N,Net-(U1-SCL)*%
X78892400Y-127762000D03*
%TD*%
D12*
%TO.P,D1,1,K*%
%TO.N,Net-(D1-K)*%
X65836800Y-131826000D03*
%TO.P,D1,2,A*%
%TO.N,Net-(D1-A)*%
X68478400Y-131826000D03*
%TD*%
D14*
%TO.P,J1,1,Pin_1*%
%TO.N,Net-(D1-A)*%
X95757999Y-137218001D03*
D15*
%TO.P,J1,2,Pin_2*%
%TO.N,Net-(J1-Pin_2)*%
X95757999Y-116728001D03*
%TD*%
D16*
%TO.P,J2,1,Pin_1*%
%TO.N,Net-(D2-A)*%
X73558400Y-139903200D03*
D17*
%TO.P,J2,2,Pin_2*%
%TO.N,Net-(J1-Pin_2)*%
X76098400Y-139903200D03*
%TO.P,J2,3,Pin_3*%
%TO.N,Net-(J2-Pin_3)*%
X78638400Y-139903200D03*
%TO.P,J2,4,Pin_4*%
%TO.N,Net-(J2-Pin_4)*%
X81178400Y-139903200D03*
%TD*%
D18*
%TO.P,LED,1,K*%
%TO.N,Net-(D3-K)*%
X76537600Y-112166400D03*
%TO.P,LED,2,A*%
%TO.N,Net-(D1-K)*%
X78587600Y-112166400D03*
%TD*%
D10*
%TO.P,R1,1*%
%TO.N,Net-(J2-Pin_3)*%
X76892400Y-130352800D03*
%TO.P,R1,2*%
%TO.N,Net-(U1-SDA)*%
X78892400Y-130352800D03*
%TD*%
D19*
%TO.P,Crystal,1,1*%
%TO.N,Net-(U1-OSCI)*%
X67106800Y-113082200D03*
%TO.P,Crystal,2,2*%
%TO.N,Net-(U1-OSCO)*%
X67106800Y-121107200D03*
%TD*%
%TO.P,Crystal,1,1*%
%TO.N,Net-(U1-OSCI)*%
X115214400Y-113539400D03*
%TO.P,Crystal,2,2*%
%TO.N,Net-(U1-OSCO)*%
X115214400Y-121564400D03*
%TD*%
D10*
%TO.P,150R,1*%
%TO.N,Net-(J1-Pin_2)*%
X125000000Y-133604000D03*
%TO.P,150R,2*%
%TO.N,Net-(D3-K)*%
X127000000Y-133604000D03*
%TD*%
D18*
%TO.P,LED,1,K*%
%TO.N,Net-(D3-K)*%
X124645200Y-112623600D03*
%TO.P,LED,2,A*%
%TO.N,Net-(D1-K)*%
X126695200Y-112623600D03*
%TD*%
D11*
%TO.P,U1,1,OSCI*%
%TO.N,Net-(U1-OSCI)*%
X123624800Y-116128800D03*
%TO.P,U1,2,OSCO*%
%TO.N,Net-(U1-OSCO)*%
X123624800Y-117398800D03*
%TO.P,U1,3,~{INT}*%
%TO.N,unconnected-(U1-~{INT}-Pad3)*%
X123624800Y-118668800D03*
%TO.P,U1,4,VSS*%
%TO.N,Net-(J1-Pin_2)*%
X123624800Y-119938800D03*
%TO.P,U1,5,SDA*%
%TO.N,Net-(U1-SDA)*%
X128574800Y-119938800D03*
%TO.P,U1,6,SCL*%
%TO.N,Net-(U1-SCL)*%
X128574800Y-118668800D03*
%TO.P,U1,7,CLKO*%
%TO.N,unconnected-(U1-CLKO-Pad7)*%
X128574800Y-117398800D03*
%TO.P,U1,8,VDD*%
%TO.N,Net-(D1-K)*%
X128574800Y-116128800D03*
%TD*%
D12*
%TO.P,D2,1,K*%
%TO.N,Net-(D1-K)*%
X114147600Y-127609600D03*
%TO.P,D2,2,A*%
%TO.N,Net-(D2-A)*%
X116789200Y-127609600D03*
%TD*%
%TO.P,D1,1,K*%
%TO.N,Net-(D1-K)*%
X113944400Y-132283200D03*
%TO.P,D1,2,A*%
%TO.N,Net-(D1-A)*%
X116586000Y-132283200D03*
%TD*%
D10*
%TO.P,R1,1*%
%TO.N,Net-(J2-Pin_3)*%
X125000000Y-130810000D03*
%TO.P,R1,2*%
%TO.N,Net-(U1-SDA)*%
X127000000Y-130810000D03*
%TD*%
D13*
%TO.P,10uF/6.3V,1*%
%TO.N,Net-(J1-Pin_2)*%
X124925000Y-125628400D03*
%TO.P,10uF/6.3V,2*%
%TO.N,Net-(D1-K)*%
X127000000Y-125628400D03*
%TD*%
D10*
%TO.P,R2,1*%
%TO.N,Net-(J2-Pin_4)*%
X125000000Y-128219200D03*
%TO.P,R2,2*%
%TO.N,Net-(U1-SCL)*%
X127000000Y-128219200D03*
%TD*%
D16*
%TO.P,J2,1,Pin_1*%
%TO.N,Net-(D2-A)*%
X121666000Y-140360400D03*
D17*
%TO.P,J2,2,Pin_2*%
%TO.N,Net-(J1-Pin_2)*%
X124206000Y-140360400D03*
%TO.P,J2,3,Pin_3*%
%TO.N,Net-(J2-Pin_3)*%
X126746000Y-140360400D03*
%TO.P,J2,4,Pin_4*%
%TO.N,Net-(J2-Pin_4)*%
X129286000Y-140360400D03*
%TD*%
D14*
%TO.P,J1,1,Pin_1*%
%TO.N,Net-(D1-A)*%
X143865599Y-137675201D03*
D15*
%TO.P,J1,2,Pin_2*%
%TO.N,Net-(J1-Pin_2)*%
X143865599Y-117185201D03*
%TD*%
D10*
%TO.P,150R,1*%
%TO.N,Net-(J1-Pin_2)*%
X125152400Y-172364400D03*
%TO.P,150R,2*%
%TO.N,Net-(D3-K)*%
X127152400Y-172364400D03*
%TD*%
D11*
%TO.P,U1,1,OSCI*%
%TO.N,Net-(U1-OSCI)*%
X123777200Y-154889200D03*
%TO.P,U1,2,OSCO*%
%TO.N,Net-(U1-OSCO)*%
X123777200Y-156159200D03*
%TO.P,U1,3,~{INT}*%
%TO.N,unconnected-(U1-~{INT}-Pad3)*%
X123777200Y-157429200D03*
%TO.P,U1,4,VSS*%
%TO.N,Net-(J1-Pin_2)*%
X123777200Y-158699200D03*
%TO.P,U1,5,SDA*%
%TO.N,Net-(U1-SDA)*%
X128727200Y-158699200D03*
%TO.P,U1,6,SCL*%
%TO.N,Net-(U1-SCL)*%
X128727200Y-157429200D03*
%TO.P,U1,7,CLKO*%
%TO.N,unconnected-(U1-CLKO-Pad7)*%
X128727200Y-156159200D03*
%TO.P,U1,8,VDD*%
%TO.N,Net-(D1-K)*%
X128727200Y-154889200D03*
%TD*%
D12*
%TO.P,D2,1,K*%
%TO.N,Net-(D1-K)*%
X114300000Y-166370000D03*
%TO.P,D2,2,A*%
%TO.N,Net-(D2-A)*%
X116941600Y-166370000D03*
%TD*%
D13*
%TO.P,10uF/6.3V,1*%
%TO.N,Net-(J1-Pin_2)*%
X125077400Y-164388800D03*
%TO.P,10uF/6.3V,2*%
%TO.N,Net-(D1-K)*%
X127152400Y-164388800D03*
%TD*%
D10*
%TO.P,R2,1*%
%TO.N,Net-(J2-Pin_4)*%
X125152400Y-166979600D03*
%TO.P,R2,2*%
%TO.N,Net-(U1-SCL)*%
X127152400Y-166979600D03*
%TD*%
D12*
%TO.P,D1,1,K*%
%TO.N,Net-(D1-K)*%
X114096800Y-171043600D03*
%TO.P,D1,2,A*%
%TO.N,Net-(D1-A)*%
X116738400Y-171043600D03*
%TD*%
D14*
%TO.P,J1,1,Pin_1*%
%TO.N,Net-(D1-A)*%
X144017999Y-176435601D03*
D15*
%TO.P,J1,2,Pin_2*%
%TO.N,Net-(J1-Pin_2)*%
X144017999Y-155945601D03*
%TD*%
D16*
%TO.P,J2,1,Pin_1*%
%TO.N,Net-(D2-A)*%
X121818400Y-179120800D03*
D17*
%TO.P,J2,2,Pin_2*%
%TO.N,Net-(J1-Pin_2)*%
X124358400Y-179120800D03*
%TO.P,J2,3,Pin_3*%
%TO.N,Net-(J2-Pin_3)*%
X126898400Y-179120800D03*
%TO.P,J2,4,Pin_4*%
%TO.N,Net-(J2-Pin_4)*%
X129438400Y-179120800D03*
%TD*%
D18*
%TO.P,LED,1,K*%
%TO.N,Net-(D3-K)*%
X124797600Y-151384000D03*
%TO.P,LED,2,A*%
%TO.N,Net-(D1-K)*%
X126847600Y-151384000D03*
%TD*%
D10*
%TO.P,R1,1*%
%TO.N,Net-(J2-Pin_3)*%
X125152400Y-169570400D03*
%TO.P,R1,2*%
%TO.N,Net-(U1-SDA)*%
X127152400Y-169570400D03*
%TD*%
D19*
%TO.P,Crystal,1,1*%
%TO.N,Net-(U1-OSCI)*%
X115366800Y-152299800D03*
%TO.P,Crystal,2,2*%
%TO.N,Net-(U1-OSCO)*%
X115366800Y-160324800D03*
%TD*%
D18*
%TO.P,LED,2,A*%
%TO.N,Net-(D1-K)*%
X78740000Y-150926800D03*
%TO.P,LED,1,K*%
%TO.N,Net-(D3-K)*%
X76690000Y-150926800D03*
%TD*%
D17*
%TO.P,J2,4,Pin_4*%
%TO.N,Net-(J2-Pin_4)*%
X81330800Y-178663600D03*
%TO.P,J2,3,Pin_3*%
%TO.N,Net-(J2-Pin_3)*%
X78790800Y-178663600D03*
%TO.P,J2,2,Pin_2*%
%TO.N,Net-(J1-Pin_2)*%
X76250800Y-178663600D03*
D16*
%TO.P,J2,1,Pin_1*%
%TO.N,Net-(D2-A)*%
X73710800Y-178663600D03*
%TD*%
D15*
%TO.P,J1,2,Pin_2*%
%TO.N,Net-(J1-Pin_2)*%
X95910399Y-155488401D03*
D14*
%TO.P,J1,1,Pin_1*%
%TO.N,Net-(D1-A)*%
X95910399Y-175978401D03*
%TD*%
D12*
%TO.P,D1,2,A*%
%TO.N,Net-(D1-A)*%
X68630800Y-170586400D03*
%TO.P,D1,1,K*%
%TO.N,Net-(D1-K)*%
X65989200Y-170586400D03*
%TD*%
D19*
%TO.P,Crystal,2,2*%
%TO.N,Net-(U1-OSCO)*%
X67259200Y-159867600D03*
%TO.P,Crystal,1,1*%
%TO.N,Net-(U1-OSCI)*%
X67259200Y-151842600D03*
%TD*%
D10*
%TO.P,R2,2*%
%TO.N,Net-(U1-SCL)*%
X79044800Y-166522400D03*
%TO.P,R2,1*%
%TO.N,Net-(J2-Pin_4)*%
X77044800Y-166522400D03*
%TD*%
%TO.P,R1,2*%
%TO.N,Net-(U1-SDA)*%
X79044800Y-169113200D03*
%TO.P,R1,1*%
%TO.N,Net-(J2-Pin_3)*%
X77044800Y-169113200D03*
%TD*%
D13*
%TO.P,10uF/6.3V,2*%
%TO.N,Net-(D1-K)*%
X79044800Y-163931600D03*
%TO.P,10uF/6.3V,1*%
%TO.N,Net-(J1-Pin_2)*%
X76969800Y-163931600D03*
%TD*%
D12*
%TO.P,D2,2,A*%
%TO.N,Net-(D2-A)*%
X68834000Y-165912800D03*
%TO.P,D2,1,K*%
%TO.N,Net-(D1-K)*%
X66192400Y-165912800D03*
%TD*%
D11*
%TO.P,U1,8,VDD*%
%TO.N,Net-(D1-K)*%
X80619600Y-154432000D03*
%TO.P,U1,7,CLKO*%
%TO.N,unconnected-(U1-CLKO-Pad7)*%
X80619600Y-155702000D03*
%TO.P,U1,6,SCL*%
%TO.N,Net-(U1-SCL)*%
X80619600Y-156972000D03*
%TO.P,U1,5,SDA*%
%TO.N,Net-(U1-SDA)*%
X80619600Y-158242000D03*
%TO.P,U1,4,VSS*%
%TO.N,Net-(J1-Pin_2)*%
X75669600Y-158242000D03*
%TO.P,U1,3,~{INT}*%
%TO.N,unconnected-(U1-~{INT}-Pad3)*%
X75669600Y-156972000D03*
%TO.P,U1,2,OSCO*%
%TO.N,Net-(U1-OSCO)*%
X75669600Y-155702000D03*
%TO.P,U1,1,OSCI*%
%TO.N,Net-(U1-OSCI)*%
X75669600Y-154432000D03*
%TD*%
D10*
%TO.P,150R,2*%
%TO.N,Net-(D3-K)*%
X79044800Y-171907200D03*
%TO.P,150R,1*%
%TO.N,Net-(J1-Pin_2)*%
X77044800Y-171907200D03*
%TD*%
D20*
%TO.N,Net-(D1-K)*%
X131368800Y-44145200D03*
%TO.N,Net-(D3-K)*%
X122275600Y-35356800D03*
%TO.N,Net-(D2-A)*%
X71120000Y-57759600D03*
%TO.N,Net-(D1-K)*%
X130962400Y-38658800D03*
%TO.N,Net-(D2-A)*%
X71120000Y-50698400D03*
X119227600Y-58216800D03*
X119227600Y-51155600D03*
%TO.N,Net-(D3-K)*%
X74168000Y-34899600D03*
%TO.N,Net-(D2-A)*%
X119380000Y-96977200D03*
%TO.N,Net-(D1-K)*%
X131521200Y-82905600D03*
X83261200Y-43688000D03*
%TO.N,Net-(D3-K)*%
X79959200Y-57607200D03*
%TO.N,Net-(D1-K)*%
X82854800Y-38201600D03*
%TO.N,Net-(D3-K)*%
X122428000Y-74117200D03*
X128219200Y-96824800D03*
%TO.N,Net-(D1-K)*%
X131114800Y-77419200D03*
%TO.N,Net-(D3-K)*%
X128066800Y-58064400D03*
%TO.N,Net-(D2-A)*%
X119380000Y-89916000D03*
X71272400Y-96520000D03*
%TO.N,Net-(D1-K)*%
X83413600Y-82448400D03*
%TO.N,Net-(D3-K)*%
X74320400Y-73660000D03*
X80111600Y-96367600D03*
%TO.N,Net-(D1-K)*%
X83007200Y-76962000D03*
%TO.N,Net-(D2-A)*%
X71272400Y-89458800D03*
X119532400Y-135737600D03*
%TO.N,Net-(D1-K)*%
X131673600Y-121666000D03*
%TO.N,Net-(D3-K)*%
X122580400Y-112877600D03*
X128371600Y-135585200D03*
%TO.N,Net-(D1-K)*%
X131267200Y-116179600D03*
%TO.N,Net-(D2-A)*%
X119532400Y-128676400D03*
X71424800Y-135280400D03*
%TO.N,Net-(D1-K)*%
X83566000Y-121208800D03*
%TO.N,Net-(D3-K)*%
X74472800Y-112420400D03*
X80264000Y-135128000D03*
%TO.N,Net-(D1-K)*%
X83159600Y-115722400D03*
%TO.N,Net-(D2-A)*%
X71424800Y-128219200D03*
X119684800Y-174498000D03*
%TO.N,Net-(D1-K)*%
X131826000Y-160426400D03*
%TO.N,Net-(D3-K)*%
X122732800Y-151638000D03*
X128524000Y-174345600D03*
%TO.N,Net-(D1-K)*%
X131419600Y-154940000D03*
%TO.N,Net-(D2-A)*%
X119684800Y-167436800D03*
%TO.N,Net-(D1-K)*%
X83718400Y-159969200D03*
X83312000Y-154482800D03*
%TO.N,Net-(D2-A)*%
X71577200Y-174040800D03*
X71577200Y-166979600D03*
%TO.N,Net-(D3-K)*%
X80416400Y-173888400D03*
X74625200Y-151180800D03*
%TD*%
D21*
%TO.N,Net-(D2-A)*%
X121361200Y-60350400D02*
X119227600Y-58216800D01*
%TO.N,Net-(D1-K)*%
X112880800Y-50088800D02*
X112866500Y-50074500D01*
%TO.N,Net-(D1-A)*%
X139325600Y-64389600D02*
X123824854Y-64389600D01*
%TO.N,Net-(D1-K)*%
X120802400Y-42722800D02*
X120802400Y-41980048D01*
X124595000Y-38267448D02*
X124335552Y-38008000D01*
%TO.N,Net-(D3-K)*%
X128066800Y-57454800D02*
X128066800Y-58064400D01*
X122275600Y-35356800D02*
X122682000Y-35356800D01*
%TO.N,Net-(D1-K)*%
X121675600Y-35042400D02*
X122615200Y-34102800D01*
%TO.N,Net-(J1-Pin_2)*%
X123901200Y-62839600D02*
X123320000Y-62258400D01*
%TO.N,Net-(D2-A)*%
X121361200Y-62839600D02*
X121361200Y-60350400D01*
%TO.N,Net-(D1-K)*%
X120802400Y-41980048D02*
X122304448Y-40478000D01*
X125390400Y-34102800D02*
X126390400Y-35102800D01*
X112677600Y-54762400D02*
X112663300Y-54748100D01*
X123707600Y-38008000D02*
X121675600Y-35976000D01*
X124595000Y-40218552D02*
X124595000Y-38267448D01*
X112866500Y-48701178D02*
X115085678Y-46482000D01*
X124335552Y-38008000D02*
X123707600Y-38008000D01*
%TO.N,Net-(D1-A)*%
X122682000Y-63246746D02*
X122682000Y-60201200D01*
X143560799Y-60154401D02*
X139325600Y-64389600D01*
%TO.N,Net-(D2-A)*%
X119227600Y-51155600D02*
X118160800Y-50088800D01*
X118160800Y-50088800D02*
X116484400Y-50088800D01*
%TO.N,Net-(D1-K)*%
X124335552Y-40478000D02*
X124595000Y-40218552D01*
%TO.N,Net-(D1-A)*%
X117243200Y-54762400D02*
X116281200Y-54762400D01*
%TO.N,Net-(J2-Pin_4)*%
X126888456Y-55067200D02*
X127263944Y-55067200D01*
%TO.N,Net-(U1-SDA)*%
X133502400Y-53289200D02*
X126695200Y-53289200D01*
%TO.N,Net-(J1-Pin_2)*%
X124620200Y-43718200D02*
X123320000Y-42418000D01*
%TO.N,Net-(U1-SDA)*%
X142697200Y-37388800D02*
X144396469Y-37388800D01*
%TO.N,Net-(U1-OSCI)*%
X117499000Y-38608000D02*
X114909600Y-36018600D01*
%TO.N,Net-(D1-K)*%
X112509600Y-33706100D02*
X114008500Y-32207200D01*
%TO.N,Net-(J1-Pin_2)*%
X126917546Y-63989600D02*
X125051200Y-63989600D01*
X143560799Y-39664401D02*
X140207200Y-43018000D01*
%TO.N,Net-(D1-K)*%
X112509600Y-54594400D02*
X112509600Y-33706100D01*
%TO.N,Net-(J2-Pin_3)*%
X123720000Y-60118400D02*
X126441200Y-62839600D01*
%TO.N,Net-(D1-K)*%
X130962400Y-38658800D02*
X130911600Y-38608000D01*
%TO.N,Net-(U1-OSCO)*%
X119075200Y-39878000D02*
X114909600Y-44043600D01*
%TO.N,Net-(U1-SDA)*%
X128270000Y-42418000D02*
X127295001Y-42418000D01*
%TO.N,Net-(J2-Pin_4)*%
X125795200Y-52604456D02*
X125795200Y-53973944D01*
%TO.N,Net-(U1-SDA)*%
X126542800Y-41665799D02*
X126542800Y-41259648D01*
%TO.N,Net-(J1-Pin_2)*%
X127591200Y-63315946D02*
X126917546Y-63989600D01*
%TO.N,Net-(J2-Pin_4)*%
X127263944Y-55067200D02*
X128981200Y-56784456D01*
%TO.N,Net-(J1-Pin_2)*%
X127591200Y-58979200D02*
X127591200Y-63315946D01*
%TO.N,Net-(U1-SCL)*%
X145389600Y-38947617D02*
X145389600Y-40381185D01*
%TO.N,Net-(D1-K)*%
X129336800Y-37541200D02*
X128270000Y-38608000D01*
%TO.N,Net-(U1-OSCI)*%
X75212400Y-38150800D02*
X69391400Y-38150800D01*
%TO.N,Net-(J2-Pin_4)*%
X77687600Y-53516744D02*
X78780856Y-54610000D01*
X76587600Y-50241200D02*
X78178400Y-51832000D01*
%TO.N,Net-(U1-SCL)*%
X91424015Y-40690800D02*
X94776815Y-37338000D01*
%TO.N,Net-(D1-K)*%
X64555700Y-49849100D02*
X64773200Y-49631600D01*
%TO.N,Net-(J1-Pin_2)*%
X92099600Y-42560800D02*
X75812400Y-42560800D01*
%TO.N,Net-(D1-K)*%
X82854800Y-38201600D02*
X82804000Y-38150800D01*
%TO.N,Net-(J2-Pin_4)*%
X78002856Y-51832000D02*
X77687600Y-52147256D01*
%TO.N,Net-(J1-Pin_2)*%
X75793600Y-62382400D02*
X75212400Y-61801200D01*
%TO.N,Net-(J2-Pin_4)*%
X79156344Y-54610000D02*
X80873600Y-56327256D01*
%TO.N,Net-(J1-Pin_2)*%
X76943600Y-63532400D02*
X75793600Y-62382400D01*
%TO.N,Net-(D1-A)*%
X74574400Y-59744000D02*
X69135600Y-54305200D01*
%TO.N,Net-(J1-Pin_2)*%
X76512600Y-47650400D02*
X76512600Y-43261000D01*
%TO.N,Net-(D1-K)*%
X82804000Y-38150800D02*
X80162400Y-38150800D01*
%TO.N,Net-(U1-SDA)*%
X96288869Y-36931600D02*
X97688400Y-38331131D01*
%TO.N,Net-(J2-Pin_4)*%
X77687600Y-52147256D02*
X77687600Y-53516744D01*
%TO.N,Net-(J2-Pin_3)*%
X75612400Y-53807200D02*
X75612400Y-59661200D01*
%TO.N,Net-(U1-OSCI)*%
X69391400Y-38150800D02*
X66802000Y-35561400D01*
%TO.N,Net-(J2-Pin_4)*%
X78178400Y-51832000D02*
X78002856Y-51832000D01*
%TO.N,Net-(J2-Pin_3)*%
X76587600Y-52832000D02*
X75612400Y-53807200D01*
%TO.N,Net-(D1-K)*%
X78587600Y-47650400D02*
X79298800Y-47650400D01*
%TO.N,Net-(U1-SCL)*%
X94776815Y-37338000D02*
X96129583Y-37338000D01*
%TO.N,Net-(U1-SDA)*%
X79216848Y-40020800D02*
X91500400Y-40020800D01*
%TO.N,Net-(U1-OSCO)*%
X70967600Y-39420800D02*
X66802000Y-43586400D01*
%TO.N,Net-(U1-SCL)*%
X96129583Y-37338000D02*
X97282000Y-38490417D01*
%TO.N,Net-(U1-SDA)*%
X79187401Y-41960800D02*
X78435200Y-41208599D01*
%TO.N,Net-(J1-Pin_2)*%
X79483600Y-58522000D02*
X79483600Y-62858746D01*
%TO.N,Net-(U1-SDA)*%
X78435200Y-40802448D02*
X79216848Y-40020800D01*
%TO.N,Net-(U1-SCL)*%
X97282000Y-38490417D02*
X97282000Y-39923985D01*
%TO.N,Net-(U1-SDA)*%
X80162400Y-41960800D02*
X79187401Y-41960800D01*
X97688400Y-38331131D02*
X97688400Y-40538400D01*
X78435200Y-41208599D02*
X78435200Y-40802448D01*
%TO.N,Net-(U1-SCL)*%
X80162400Y-40690800D02*
X91424015Y-40690800D01*
X97282000Y-39923985D02*
X86964785Y-50241200D01*
%TO.N,Net-(J1-Pin_2)*%
X75212400Y-61801200D02*
X75212400Y-41960800D01*
X95453199Y-39207201D02*
X92099600Y-42560800D01*
%TO.N,Net-(U1-SDA)*%
X97688400Y-40538400D02*
X85394800Y-52832000D01*
%TO.N,Net-(D1-K)*%
X68935600Y-46024800D02*
X72694800Y-42265600D01*
%TO.N,Net-(U1-SDA)*%
X91500400Y-40020800D02*
X94589600Y-36931600D01*
%TO.N,Net-(U1-OSCO)*%
X75212400Y-39420800D02*
X70967600Y-39420800D01*
%TO.N,Net-(D1-A)*%
X74574400Y-62789546D02*
X74574400Y-59744000D01*
%TO.N,Net-(J1-Pin_2)*%
X76587600Y-55626000D02*
X79483600Y-58522000D01*
X76512600Y-43261000D02*
X75212400Y-41960800D01*
%TO.N,Net-(U1-SDA)*%
X94589600Y-36931600D02*
X96288869Y-36931600D01*
%TO.N,Net-(J1-Pin_2)*%
X75812400Y-42560800D02*
X75212400Y-41960800D01*
%TO.N,Net-(D1-A)*%
X91218000Y-63932400D02*
X75717254Y-63932400D01*
X95453199Y-59697201D02*
X91218000Y-63932400D01*
%TO.N,Net-(J1-Pin_2)*%
X79483600Y-62858746D02*
X78809946Y-63532400D01*
X78809946Y-63532400D02*
X76943600Y-63532400D01*
%TO.N,Net-(U1-SCL)*%
X86964785Y-50241200D02*
X78587600Y-50241200D01*
%TO.N,Net-(D1-K)*%
X81229200Y-37084000D02*
X80162400Y-38150800D01*
X66978078Y-46024800D02*
X68935600Y-46024800D01*
X64402000Y-33248900D02*
X65900900Y-31750000D01*
%TO.N,Net-(U1-SDA)*%
X85394800Y-52832000D02*
X78587600Y-52832000D01*
%TO.N,Net-(D1-K)*%
X73568000Y-35518800D02*
X73568000Y-34585200D01*
X65900900Y-31750000D02*
X81229200Y-31750000D01*
X64402000Y-54137200D02*
X64402000Y-33248900D01*
X113018900Y-87461578D02*
X115238078Y-85242400D01*
X112830000Y-93522800D02*
X112815700Y-93508500D01*
X64773200Y-49631600D02*
X65735200Y-49631600D01*
%TO.N,Net-(J2-Pin_4)*%
X78780856Y-54610000D02*
X79156344Y-54610000D01*
X80873600Y-56327256D02*
X80873600Y-62382400D01*
%TO.N,Net-(J2-Pin_3)*%
X75612400Y-59661200D02*
X78333600Y-62382400D01*
%TO.N,Net-(D3-K)*%
X128219200Y-96215200D02*
X128219200Y-96824800D01*
%TO.N,Net-(D1-K)*%
X124487952Y-79238400D02*
X124747400Y-78978952D01*
X124487952Y-76768400D02*
X123860000Y-76768400D01*
X113033200Y-88849200D02*
X113018900Y-88834900D01*
%TO.N,Net-(D2-A)*%
X121513600Y-99110800D02*
X119380000Y-96977200D01*
%TO.N,Net-(D1-A)*%
X117395600Y-93522800D02*
X116433600Y-93522800D01*
X122834400Y-102007146D02*
X122834400Y-98961600D01*
%TO.N,Net-(D1-K)*%
X124747400Y-78978952D02*
X124747400Y-77027848D01*
X125542800Y-72863200D02*
X126542800Y-73863200D01*
X120954800Y-81483200D02*
X120954800Y-80740448D01*
%TO.N,Net-(D2-A)*%
X121513600Y-101600000D02*
X121513600Y-99110800D01*
%TO.N,Net-(D1-A)*%
X143713199Y-98914801D02*
X139478000Y-103150000D01*
%TO.N,Net-(D1-K)*%
X124747400Y-77027848D02*
X124487952Y-76768400D01*
%TO.N,Net-(D1-A)*%
X139478000Y-103150000D02*
X123977254Y-103150000D01*
%TO.N,Net-(D2-A)*%
X118313200Y-88849200D02*
X116636800Y-88849200D01*
%TO.N,Net-(J1-Pin_2)*%
X124053600Y-101600000D02*
X123472400Y-101018800D01*
%TO.N,Net-(D1-K)*%
X123860000Y-76768400D02*
X121828000Y-74736400D01*
%TO.N,Net-(D3-K)*%
X122428000Y-74117200D02*
X122834400Y-74117200D01*
%TO.N,Net-(D1-K)*%
X120954800Y-80740448D02*
X122456848Y-79238400D01*
X121828000Y-73802800D02*
X122767600Y-72863200D01*
%TO.N,Net-(D2-A)*%
X119380000Y-89916000D02*
X118313200Y-88849200D01*
%TO.N,Net-(D1-A)*%
X123977254Y-103150000D02*
X122834400Y-102007146D01*
%TO.N,Net-(D3-K)*%
X123088400Y-73863200D02*
X124492800Y-73863200D01*
X126847600Y-94843600D02*
X128219200Y-96215200D01*
X122834400Y-74117200D02*
X123088400Y-73863200D01*
%TO.N,Net-(D1-A)*%
X122834400Y-98961600D02*
X117395600Y-93522800D01*
%TO.N,Net-(D1-K)*%
X129489200Y-70967600D02*
X129489200Y-76301600D01*
X127558800Y-86868000D02*
X131521200Y-82905600D01*
X112830000Y-93522800D02*
X112662000Y-93354800D01*
X122456848Y-79238400D02*
X124487952Y-79238400D01*
X122767600Y-72863200D02*
X125542800Y-72863200D01*
X112815700Y-93508500D02*
X112815700Y-89066700D01*
X113792000Y-93522800D02*
X112830000Y-93522800D01*
X113018900Y-88834900D02*
X113018900Y-87461578D01*
%TO.N,Net-(U1-OSCO)*%
X123472400Y-78638400D02*
X119227600Y-78638400D01*
%TO.N,Net-(D1-K)*%
X126847600Y-86868000D02*
X127558800Y-86868000D01*
X117195600Y-85242400D02*
X120954800Y-81483200D01*
%TO.N,Net-(J1-Pin_2)*%
X123472400Y-101018800D02*
X123472400Y-81178400D01*
%TO.N,Net-(J2-Pin_4)*%
X124847600Y-89458800D02*
X126438400Y-91049600D01*
%TO.N,Net-(U1-SCL)*%
X143036815Y-76555600D02*
X144389583Y-76555600D01*
%TO.N,Net-(U1-OSCI)*%
X123472400Y-77368400D02*
X117651400Y-77368400D01*
%TO.N,Net-(U1-SCL)*%
X144389583Y-76555600D02*
X145542000Y-77708017D01*
%TO.N,Net-(U1-SDA)*%
X144548869Y-76149200D02*
X145948400Y-77548731D01*
X145948400Y-79756000D02*
X133654800Y-92049600D01*
%TO.N,Net-(J2-Pin_4)*%
X129133600Y-95544856D02*
X129133600Y-101600000D01*
%TO.N,Net-(D1-K)*%
X114160900Y-70967600D02*
X129489200Y-70967600D01*
%TO.N,Net-(J2-Pin_4)*%
X126438400Y-91049600D02*
X126262856Y-91049600D01*
%TO.N,Net-(J2-Pin_3)*%
X124847600Y-92049600D02*
X123872400Y-93024800D01*
%TO.N,Net-(D1-K)*%
X112815700Y-89066700D02*
X113033200Y-88849200D01*
%TO.N,Net-(J1-Pin_2)*%
X124772600Y-86868000D02*
X124772600Y-82478600D01*
X124072400Y-81778400D02*
X123472400Y-81178400D01*
%TO.N,Net-(D1-K)*%
X131064000Y-77368400D02*
X128422400Y-77368400D01*
X113033200Y-88849200D02*
X113995200Y-88849200D01*
%TO.N,Net-(U1-SCL)*%
X145542000Y-79141585D02*
X135224785Y-89458800D01*
%TO.N,Net-(U1-SDA)*%
X127447401Y-81178400D02*
X126695200Y-80426199D01*
%TO.N,Net-(U1-SCL)*%
X139684015Y-79908400D02*
X143036815Y-76555600D01*
%TO.N,Net-(J1-Pin_2)*%
X125203600Y-102750000D02*
X124053600Y-101600000D01*
%TO.N,Net-(U1-SCL)*%
X135224785Y-89458800D02*
X126847600Y-89458800D01*
%TO.N,Net-(U1-SDA)*%
X145948400Y-77548731D02*
X145948400Y-79756000D01*
%TO.N,Net-(D1-K)*%
X121828000Y-74736400D02*
X121828000Y-73802800D01*
%TO.N,Net-(J2-Pin_4)*%
X126262856Y-91049600D02*
X125947600Y-91364856D01*
%TO.N,Net-(U1-SDA)*%
X127476848Y-79238400D02*
X139760400Y-79238400D01*
%TO.N,Net-(J1-Pin_2)*%
X124847600Y-94843600D02*
X127743600Y-97739600D01*
%TO.N,Net-(U1-SDA)*%
X126695200Y-80020048D02*
X127476848Y-79238400D01*
%TO.N,Net-(J2-Pin_3)*%
X123872400Y-93024800D02*
X123872400Y-98878800D01*
%TO.N,Net-(U1-SDA)*%
X133654800Y-92049600D02*
X126847600Y-92049600D01*
%TO.N,Net-(U1-OSCI)*%
X117651400Y-77368400D02*
X115062000Y-74779000D01*
%TO.N,Net-(D1-K)*%
X112662000Y-72466500D02*
X114160900Y-70967600D01*
%TO.N,Net-(J1-Pin_2)*%
X143713199Y-78424801D02*
X140359600Y-81778400D01*
%TO.N,Net-(J2-Pin_4)*%
X127040856Y-93827600D02*
X127416344Y-93827600D01*
%TO.N,Net-(J1-Pin_2)*%
X127069946Y-102750000D02*
X125203600Y-102750000D01*
X124772600Y-82478600D02*
X123472400Y-81178400D01*
%TO.N,Net-(U1-SDA)*%
X142849600Y-76149200D02*
X144548869Y-76149200D01*
%TO.N,Net-(D1-K)*%
X112662000Y-93354800D02*
X112662000Y-72466500D01*
%TO.N,Net-(U1-SDA)*%
X128422400Y-81178400D02*
X127447401Y-81178400D01*
%TO.N,Net-(J2-Pin_3)*%
X123872400Y-98878800D02*
X126593600Y-101600000D01*
%TO.N,Net-(D1-K)*%
X131114800Y-77419200D02*
X131064000Y-77368400D01*
%TO.N,Net-(U1-OSCO)*%
X119227600Y-78638400D02*
X115062000Y-82804000D01*
%TO.N,Net-(U1-SCL)*%
X145542000Y-77708017D02*
X145542000Y-79141585D01*
%TO.N,Net-(J2-Pin_4)*%
X125947600Y-91364856D02*
X125947600Y-92734344D01*
%TO.N,Net-(J1-Pin_2)*%
X127743600Y-102076346D02*
X127069946Y-102750000D01*
%TO.N,Net-(D1-K)*%
X129489200Y-76301600D02*
X128422400Y-77368400D01*
%TO.N,Net-(J1-Pin_2)*%
X127743600Y-97739600D02*
X127743600Y-102076346D01*
%TO.N,Net-(J2-Pin_4)*%
X127416344Y-93827600D02*
X129133600Y-95544856D01*
%TO.N,Net-(U1-SDA)*%
X126695200Y-80426199D02*
X126695200Y-80020048D01*
%TO.N,Net-(D1-K)*%
X115238078Y-85242400D02*
X117195600Y-85242400D01*
%TO.N,Net-(J1-Pin_2)*%
X140359600Y-81778400D02*
X124072400Y-81778400D01*
%TO.N,Net-(J2-Pin_4)*%
X125947600Y-92734344D02*
X127040856Y-93827600D01*
%TO.N,Net-(U1-SDA)*%
X139760400Y-79238400D02*
X142849600Y-76149200D01*
%TO.N,Net-(U1-SCL)*%
X128422400Y-79908400D02*
X139684015Y-79908400D01*
%TO.N,Net-(D1-K)*%
X121675600Y-35976000D02*
X121675600Y-35042400D01*
%TO.N,Net-(J1-Pin_2)*%
X125051200Y-63989600D02*
X123901200Y-62839600D01*
%TO.N,Net-(J2-Pin_4)*%
X126110456Y-52289200D02*
X125795200Y-52604456D01*
%TO.N,Net-(U1-SCL)*%
X135072385Y-50698400D02*
X126695200Y-50698400D01*
%TO.N,Net-(U1-SDA)*%
X145796000Y-38788331D02*
X145796000Y-40995600D01*
X127324448Y-40478000D02*
X139608000Y-40478000D01*
%TO.N,Net-(U1-SCL)*%
X139531615Y-41148000D02*
X142884415Y-37795200D01*
%TO.N,Net-(D1-K)*%
X130911600Y-38608000D02*
X128270000Y-38608000D01*
%TO.N,Net-(U1-SCL)*%
X145389600Y-40381185D02*
X135072385Y-50698400D01*
%TO.N,Net-(D1-K)*%
X112880800Y-50088800D02*
X113842800Y-50088800D01*
%TO.N,Net-(U1-SDA)*%
X127295001Y-42418000D02*
X126542800Y-41665799D01*
%TO.N,Net-(J2-Pin_3)*%
X123720000Y-54264400D02*
X123720000Y-60118400D01*
%TO.N,Net-(J1-Pin_2)*%
X124695200Y-56083200D02*
X127591200Y-58979200D01*
%TO.N,Net-(U1-SDA)*%
X126542800Y-41259648D02*
X127324448Y-40478000D01*
%TO.N,Net-(D1-K)*%
X64911300Y-87004378D02*
X67130478Y-84785200D01*
X64722400Y-93065600D02*
X64708100Y-93051300D01*
X64722400Y-93065600D02*
X64554400Y-92897600D01*
X74349248Y-78781200D02*
X76380352Y-78781200D01*
X74660000Y-72406000D02*
X77435200Y-72406000D01*
X76639800Y-78521752D02*
X76639800Y-76570648D01*
X75752400Y-76311200D02*
X73720400Y-74279200D01*
X77435200Y-72406000D02*
X78435200Y-73406000D01*
X64708100Y-93051300D02*
X64708100Y-88609500D01*
X65684400Y-93065600D02*
X64722400Y-93065600D01*
X72847200Y-81026000D02*
X72847200Y-80283248D01*
X64911300Y-88377700D02*
X64911300Y-87004378D01*
X81381600Y-70510400D02*
X81381600Y-75844400D01*
X76380352Y-78781200D02*
X76639800Y-78521752D01*
X76380352Y-76311200D02*
X75752400Y-76311200D01*
X79451200Y-86410800D02*
X83413600Y-82448400D01*
X72847200Y-80283248D02*
X74349248Y-78781200D01*
X64925600Y-88392000D02*
X64911300Y-88377700D01*
X73720400Y-73345600D02*
X74660000Y-72406000D01*
X76639800Y-76570648D02*
X76380352Y-76311200D01*
X114008500Y-32207200D02*
X129336800Y-32207200D01*
%TO.N,Net-(J2-Pin_3)*%
X124695200Y-53289200D02*
X123720000Y-54264400D01*
%TO.N,Net-(J2-Pin_4)*%
X126286000Y-52289200D02*
X126110456Y-52289200D01*
%TO.N,Net-(J1-Pin_2)*%
X124620200Y-48107600D02*
X124620200Y-43718200D01*
X123920000Y-43018000D02*
X123320000Y-42418000D01*
%TO.N,Net-(U1-SDA)*%
X145796000Y-40995600D02*
X133502400Y-53289200D01*
%TO.N,Net-(J2-Pin_4)*%
X128981200Y-56784456D02*
X128981200Y-62839600D01*
%TO.N,Net-(D1-K)*%
X112663300Y-50306300D02*
X112880800Y-50088800D01*
%TO.N,Net-(D3-K)*%
X74320400Y-73660000D02*
X74726800Y-73660000D01*
%TO.N,Net-(D2-A)*%
X71272400Y-89458800D02*
X70205600Y-88392000D01*
%TO.N,Net-(D3-K)*%
X74980800Y-73406000D02*
X76385200Y-73406000D01*
X78740000Y-94386400D02*
X80111600Y-95758000D01*
X80111600Y-95758000D02*
X80111600Y-96367600D01*
%TO.N,Net-(D2-A)*%
X73406000Y-101142800D02*
X73406000Y-98653600D01*
X73406000Y-98653600D02*
X71272400Y-96520000D01*
%TO.N,Net-(D1-A)*%
X75869654Y-102692800D02*
X74726800Y-101549946D01*
X69288000Y-93065600D02*
X68326000Y-93065600D01*
%TO.N,Net-(D2-A)*%
X70205600Y-88392000D02*
X68529200Y-88392000D01*
%TO.N,Net-(D3-K)*%
X74726800Y-73660000D02*
X74980800Y-73406000D01*
%TO.N,Net-(D1-A)*%
X74726800Y-98504400D02*
X69288000Y-93065600D01*
X74726800Y-101549946D02*
X74726800Y-98504400D01*
X91370400Y-102692800D02*
X75869654Y-102692800D01*
X95605599Y-98457601D02*
X91370400Y-102692800D01*
%TO.N,Net-(J1-Pin_2)*%
X75946000Y-101142800D02*
X75364800Y-100561600D01*
X76665000Y-86410800D02*
X76665000Y-82021400D01*
X79636000Y-101619146D02*
X78962346Y-102292800D01*
X75964800Y-81321200D02*
X75364800Y-80721200D01*
%TO.N,Net-(D1-K)*%
X81381600Y-75844400D02*
X80314800Y-76911200D01*
X64554400Y-72009300D02*
X66053300Y-70510400D01*
X67130478Y-84785200D02*
X69088000Y-84785200D01*
%TO.N,Net-(J1-Pin_2)*%
X76740000Y-94386400D02*
X79636000Y-97282400D01*
%TO.N,Net-(D1-K)*%
X78740000Y-86410800D02*
X79451200Y-86410800D01*
X64708100Y-88609500D02*
X64925600Y-88392000D01*
%TO.N,Net-(J1-Pin_2)*%
X76665000Y-82021400D02*
X75364800Y-80721200D01*
%TO.N,Net-(D1-K)*%
X82956400Y-76911200D02*
X80314800Y-76911200D01*
%TO.N,Net-(J1-Pin_2)*%
X92252000Y-81321200D02*
X75964800Y-81321200D01*
%TO.N,Net-(D1-K)*%
X83007200Y-76962000D02*
X82956400Y-76911200D01*
%TO.N,Net-(J1-Pin_2)*%
X78962346Y-102292800D02*
X77096000Y-102292800D01*
%TO.N,Net-(D1-K)*%
X69088000Y-84785200D02*
X72847200Y-81026000D01*
%TO.N,Net-(J1-Pin_2)*%
X75364800Y-100561600D02*
X75364800Y-80721200D01*
X77096000Y-102292800D02*
X75946000Y-101142800D01*
X79636000Y-97282400D02*
X79636000Y-101619146D01*
X95605599Y-77967601D02*
X92252000Y-81321200D01*
%TO.N,Net-(U1-SCL)*%
X97434400Y-78684385D02*
X87117185Y-89001600D01*
X94929215Y-76098400D02*
X96281983Y-76098400D01*
X97434400Y-77250817D02*
X97434400Y-78684385D01*
%TO.N,Net-(U1-SDA)*%
X80314800Y-80721200D02*
X79339801Y-80721200D01*
X79369248Y-78781200D02*
X91652800Y-78781200D01*
X85547200Y-91592400D02*
X78740000Y-91592400D01*
%TO.N,Net-(U1-OSCI)*%
X75364800Y-76911200D02*
X69543800Y-76911200D01*
%TO.N,Net-(U1-OSCO)*%
X71120000Y-78181200D02*
X66954400Y-82346800D01*
%TO.N,Net-(U1-SCL)*%
X91576415Y-79451200D02*
X94929215Y-76098400D01*
X96281983Y-76098400D02*
X97434400Y-77250817D01*
%TO.N,Net-(U1-SDA)*%
X96441269Y-75692000D02*
X97840800Y-77091531D01*
%TO.N,Net-(U1-SCL)*%
X80314800Y-79451200D02*
X91576415Y-79451200D01*
%TO.N,Net-(U1-SDA)*%
X97840800Y-79298800D02*
X85547200Y-91592400D01*
X91652800Y-78781200D02*
X94742000Y-75692000D01*
X78587600Y-79562848D02*
X79369248Y-78781200D01*
%TO.N,Net-(U1-OSCI)*%
X69543800Y-76911200D02*
X66954400Y-74321800D01*
%TO.N,Net-(U1-OSCO)*%
X75364800Y-78181200D02*
X71120000Y-78181200D01*
%TO.N,Net-(U1-SDA)*%
X94742000Y-75692000D02*
X96441269Y-75692000D01*
%TO.N,Net-(U1-SCL)*%
X87117185Y-89001600D02*
X78740000Y-89001600D01*
X144237183Y-37795200D02*
X145389600Y-38947617D01*
%TO.N,Net-(U1-OSCI)*%
X123320000Y-38608000D02*
X117499000Y-38608000D01*
%TO.N,Net-(D1-K)*%
X126695200Y-48107600D02*
X127406400Y-48107600D01*
%TO.N,Net-(J2-Pin_4)*%
X124695200Y-50698400D02*
X126286000Y-52289200D01*
%TO.N,Net-(U1-SDA)*%
X144396469Y-37388800D02*
X145796000Y-38788331D01*
%TO.N,Net-(D1-K)*%
X117043200Y-46482000D02*
X120802400Y-42722800D01*
%TO.N,Net-(J1-Pin_2)*%
X123320000Y-62258400D02*
X123320000Y-42418000D01*
%TO.N,Net-(U1-SCL)*%
X142884415Y-37795200D02*
X144237183Y-37795200D01*
%TO.N,Net-(J2-Pin_4)*%
X77840000Y-92277144D02*
X78933256Y-93370400D01*
%TO.N,Net-(J2-Pin_3)*%
X75764800Y-92567600D02*
X75764800Y-98421600D01*
%TO.N,Net-(J2-Pin_4)*%
X79308744Y-93370400D02*
X81026000Y-95087656D01*
X77840000Y-90907656D02*
X77840000Y-92277144D01*
%TO.N,Net-(U1-SDA)*%
X79339801Y-80721200D02*
X78587600Y-79968999D01*
%TO.N,Net-(J2-Pin_4)*%
X78330800Y-90592400D02*
X78155256Y-90592400D01*
X76740000Y-89001600D02*
X78330800Y-90592400D01*
%TO.N,Net-(U1-SDA)*%
X97840800Y-77091531D02*
X97840800Y-79298800D01*
X78587600Y-79968999D02*
X78587600Y-79562848D01*
%TO.N,Net-(J2-Pin_3)*%
X76740000Y-91592400D02*
X75764800Y-92567600D01*
%TO.N,Net-(J2-Pin_4)*%
X78155256Y-90592400D02*
X77840000Y-90907656D01*
X78933256Y-93370400D02*
X79308744Y-93370400D01*
X81026000Y-95087656D02*
X81026000Y-101142800D01*
%TO.N,Net-(J2-Pin_3)*%
X75764800Y-98421600D02*
X78486000Y-101142800D01*
%TO.N,Net-(D1-K)*%
X113639600Y-54762400D02*
X112677600Y-54762400D01*
%TO.N,Net-(U1-OSCO)*%
X123320000Y-39878000D02*
X119075200Y-39878000D01*
%TO.N,Net-(D1-K)*%
X112866500Y-50074500D02*
X112866500Y-48701178D01*
X122615200Y-34102800D02*
X125390400Y-34102800D01*
X112663300Y-54748100D02*
X112663300Y-50306300D01*
X73720400Y-74279200D02*
X73720400Y-73345600D01*
X66053300Y-70510400D02*
X81381600Y-70510400D01*
X64925600Y-88392000D02*
X65887600Y-88392000D01*
X64554400Y-92897600D02*
X64554400Y-72009300D01*
%TO.N,Net-(D1-A)*%
X123824854Y-64389600D02*
X122682000Y-63246746D01*
%TO.N,Net-(D3-K)*%
X122936000Y-35102800D02*
X124340400Y-35102800D01*
%TO.N,Net-(D1-K)*%
X112677600Y-54762400D02*
X112509600Y-54594400D01*
X127406400Y-48107600D02*
X131368800Y-44145200D01*
%TO.N,Net-(D3-K)*%
X126695200Y-56083200D02*
X128066800Y-57454800D01*
%TO.N,Net-(D1-A)*%
X122682000Y-60201200D02*
X117243200Y-54762400D01*
%TO.N,Net-(D3-K)*%
X122682000Y-35356800D02*
X122936000Y-35102800D01*
%TO.N,Net-(D1-K)*%
X129336800Y-32207200D02*
X129336800Y-37541200D01*
X122304448Y-40478000D02*
X124335552Y-40478000D01*
%TO.N,Net-(U1-SDA)*%
X139608000Y-40478000D02*
X142697200Y-37388800D01*
%TO.N,Net-(D1-K)*%
X76487400Y-39761352D02*
X76487400Y-37810248D01*
X64555700Y-54290900D02*
X64555700Y-49849100D01*
X65532000Y-54305200D02*
X64570000Y-54305200D01*
X76487400Y-37810248D02*
X76227952Y-37550800D01*
X76227952Y-40020800D02*
X76487400Y-39761352D01*
%TO.N,Net-(D2-A)*%
X70053200Y-49631600D02*
X68376800Y-49631600D01*
%TO.N,Net-(D3-K)*%
X74828400Y-34645600D02*
X76232800Y-34645600D01*
%TO.N,Net-(D1-A)*%
X75717254Y-63932400D02*
X74574400Y-62789546D01*
%TO.N,Net-(D1-K)*%
X77282800Y-33645600D02*
X78282800Y-34645600D01*
X115085678Y-46482000D02*
X117043200Y-46482000D01*
%TO.N,Net-(D1-A)*%
X69135600Y-54305200D02*
X68173600Y-54305200D01*
%TO.N,Net-(D2-A)*%
X73253600Y-59893200D02*
X71120000Y-57759600D01*
%TO.N,Net-(J1-Pin_2)*%
X140207200Y-43018000D02*
X123920000Y-43018000D01*
%TO.N,Net-(J2-Pin_4)*%
X125795200Y-53973944D02*
X126888456Y-55067200D01*
%TO.N,Net-(D3-K)*%
X74574400Y-34899600D02*
X74828400Y-34645600D01*
%TO.N,Net-(U1-SCL)*%
X128270000Y-41148000D02*
X139531615Y-41148000D01*
%TO.N,Net-(D1-K)*%
X64570000Y-54305200D02*
X64402000Y-54137200D01*
X74196848Y-40020800D02*
X76227952Y-40020800D01*
X74507600Y-33645600D02*
X77282800Y-33645600D01*
X76227952Y-37550800D02*
X75600000Y-37550800D01*
X75600000Y-37550800D02*
X73568000Y-35518800D01*
%TO.N,Net-(D3-K)*%
X79959200Y-56997600D02*
X79959200Y-57607200D01*
%TO.N,Net-(D1-K)*%
X64758900Y-49617300D02*
X64758900Y-48243978D01*
X81229200Y-31750000D02*
X81229200Y-37084000D01*
X79298800Y-47650400D02*
X83261200Y-43688000D01*
X64773200Y-49631600D02*
X64758900Y-49617300D01*
X72694800Y-41522848D02*
X74196848Y-40020800D01*
%TO.N,Net-(D3-K)*%
X78587600Y-55626000D02*
X79959200Y-56997600D01*
%TO.N,Net-(D2-A)*%
X73253600Y-62382400D02*
X73253600Y-59893200D01*
%TO.N,Net-(D1-K)*%
X72694800Y-42265600D02*
X72694800Y-41522848D01*
%TO.N,Net-(D3-K)*%
X74168000Y-34899600D02*
X74574400Y-34899600D01*
%TO.N,Net-(D1-K)*%
X64570000Y-54305200D02*
X64555700Y-54290900D01*
X73568000Y-34585200D02*
X74507600Y-33645600D01*
X64758900Y-48243978D02*
X66978078Y-46024800D01*
%TO.N,Net-(D2-A)*%
X71120000Y-50698400D02*
X70053200Y-49631600D01*
%TO.N,Net-(D1-K)*%
X113171300Y-126221978D02*
X115390478Y-124002800D01*
X112982400Y-132283200D02*
X112968100Y-132268900D01*
%TO.N,Net-(D3-K)*%
X128371600Y-134975600D02*
X128371600Y-135585200D01*
%TO.N,Net-(D1-K)*%
X124640352Y-117998800D02*
X124899800Y-117739352D01*
X124640352Y-115528800D02*
X124012400Y-115528800D01*
X113185600Y-127609600D02*
X113171300Y-127595300D01*
%TO.N,Net-(D2-A)*%
X121666000Y-137871200D02*
X119532400Y-135737600D01*
%TO.N,Net-(D1-A)*%
X117548000Y-132283200D02*
X116586000Y-132283200D01*
X122986800Y-140767546D02*
X122986800Y-137722000D01*
%TO.N,Net-(D1-K)*%
X124899800Y-117739352D02*
X124899800Y-115788248D01*
X125695200Y-111623600D02*
X126695200Y-112623600D01*
X121107200Y-120243600D02*
X121107200Y-119500848D01*
%TO.N,Net-(D2-A)*%
X121666000Y-140360400D02*
X121666000Y-137871200D01*
%TO.N,Net-(D1-A)*%
X143865599Y-137675201D02*
X139630400Y-141910400D01*
%TO.N,Net-(D1-K)*%
X124899800Y-115788248D02*
X124640352Y-115528800D01*
%TO.N,Net-(D1-A)*%
X139630400Y-141910400D02*
X124129654Y-141910400D01*
%TO.N,Net-(D2-A)*%
X118465600Y-127609600D02*
X116789200Y-127609600D01*
%TO.N,Net-(J1-Pin_2)*%
X124206000Y-140360400D02*
X123624800Y-139779200D01*
%TO.N,Net-(D1-K)*%
X124012400Y-115528800D02*
X121980400Y-113496800D01*
%TO.N,Net-(D3-K)*%
X122580400Y-112877600D02*
X122986800Y-112877600D01*
%TO.N,Net-(D1-K)*%
X121107200Y-119500848D02*
X122609248Y-117998800D01*
X121980400Y-112563200D02*
X122920000Y-111623600D01*
%TO.N,Net-(D2-A)*%
X119532400Y-128676400D02*
X118465600Y-127609600D01*
%TO.N,Net-(D1-A)*%
X124129654Y-141910400D02*
X122986800Y-140767546D01*
%TO.N,Net-(D3-K)*%
X123240800Y-112623600D02*
X124645200Y-112623600D01*
X127000000Y-133604000D02*
X128371600Y-134975600D01*
X122986800Y-112877600D02*
X123240800Y-112623600D01*
%TO.N,Net-(D1-A)*%
X122986800Y-137722000D02*
X117548000Y-132283200D01*
%TO.N,Net-(D1-K)*%
X129641600Y-109728000D02*
X129641600Y-115062000D01*
X127711200Y-125628400D02*
X131673600Y-121666000D01*
X112982400Y-132283200D02*
X112814400Y-132115200D01*
X122609248Y-117998800D02*
X124640352Y-117998800D01*
X122920000Y-111623600D02*
X125695200Y-111623600D01*
X112968100Y-132268900D02*
X112968100Y-127827100D01*
X113944400Y-132283200D02*
X112982400Y-132283200D01*
X113171300Y-127595300D02*
X113171300Y-126221978D01*
%TO.N,Net-(U1-OSCO)*%
X123624800Y-117398800D02*
X119380000Y-117398800D01*
%TO.N,Net-(D1-K)*%
X127000000Y-125628400D02*
X127711200Y-125628400D01*
X117348000Y-124002800D02*
X121107200Y-120243600D01*
%TO.N,Net-(J1-Pin_2)*%
X123624800Y-139779200D02*
X123624800Y-119938800D01*
%TO.N,Net-(J2-Pin_4)*%
X125000000Y-128219200D02*
X126590800Y-129810000D01*
%TO.N,Net-(U1-SCL)*%
X143189215Y-115316000D02*
X144541983Y-115316000D01*
%TO.N,Net-(U1-OSCI)*%
X123624800Y-116128800D02*
X117803800Y-116128800D01*
%TO.N,Net-(U1-SCL)*%
X144541983Y-115316000D02*
X145694400Y-116468417D01*
%TO.N,Net-(U1-SDA)*%
X144701269Y-114909600D02*
X146100800Y-116309131D01*
X146100800Y-118516400D02*
X133807200Y-130810000D01*
%TO.N,Net-(J2-Pin_4)*%
X129286000Y-134305256D02*
X129286000Y-140360400D01*
%TO.N,Net-(D1-K)*%
X114313300Y-109728000D02*
X129641600Y-109728000D01*
%TO.N,Net-(J2-Pin_4)*%
X126590800Y-129810000D02*
X126415256Y-129810000D01*
%TO.N,Net-(J2-Pin_3)*%
X125000000Y-130810000D02*
X124024800Y-131785200D01*
%TO.N,Net-(D1-K)*%
X112968100Y-127827100D02*
X113185600Y-127609600D01*
%TO.N,Net-(J1-Pin_2)*%
X124925000Y-125628400D02*
X124925000Y-121239000D01*
X124224800Y-120538800D02*
X123624800Y-119938800D01*
%TO.N,Net-(D1-K)*%
X131216400Y-116128800D02*
X128574800Y-116128800D01*
X113185600Y-127609600D02*
X114147600Y-127609600D01*
%TO.N,Net-(U1-SCL)*%
X145694400Y-117901985D02*
X135377185Y-128219200D01*
%TO.N,Net-(U1-SDA)*%
X127599801Y-119938800D02*
X126847600Y-119186599D01*
%TO.N,Net-(U1-SCL)*%
X139836415Y-118668800D02*
X143189215Y-115316000D01*
%TO.N,Net-(J1-Pin_2)*%
X125356000Y-141510400D02*
X124206000Y-140360400D01*
%TO.N,Net-(U1-SCL)*%
X135377185Y-128219200D02*
X127000000Y-128219200D01*
%TO.N,Net-(U1-SDA)*%
X146100800Y-116309131D02*
X146100800Y-118516400D01*
%TO.N,Net-(D1-K)*%
X121980400Y-113496800D02*
X121980400Y-112563200D01*
%TO.N,Net-(J2-Pin_4)*%
X126415256Y-129810000D02*
X126100000Y-130125256D01*
%TO.N,Net-(U1-SDA)*%
X127629248Y-117998800D02*
X139912800Y-117998800D01*
%TO.N,Net-(J1-Pin_2)*%
X125000000Y-133604000D02*
X127896000Y-136500000D01*
%TO.N,Net-(U1-SDA)*%
X126847600Y-118780448D02*
X127629248Y-117998800D01*
%TO.N,Net-(J2-Pin_3)*%
X124024800Y-131785200D02*
X124024800Y-137639200D01*
%TO.N,Net-(U1-SDA)*%
X133807200Y-130810000D02*
X127000000Y-130810000D01*
%TO.N,Net-(U1-OSCI)*%
X117803800Y-116128800D02*
X115214400Y-113539400D01*
%TO.N,Net-(D1-K)*%
X112814400Y-111226900D02*
X114313300Y-109728000D01*
%TO.N,Net-(J1-Pin_2)*%
X143865599Y-117185201D02*
X140512000Y-120538800D01*
%TO.N,Net-(J2-Pin_4)*%
X127193256Y-132588000D02*
X127568744Y-132588000D01*
%TO.N,Net-(J1-Pin_2)*%
X127222346Y-141510400D02*
X125356000Y-141510400D01*
X124925000Y-121239000D02*
X123624800Y-119938800D01*
%TO.N,Net-(U1-SDA)*%
X143002000Y-114909600D02*
X144701269Y-114909600D01*
%TO.N,Net-(D1-K)*%
X112814400Y-132115200D02*
X112814400Y-111226900D01*
%TO.N,Net-(U1-SDA)*%
X128574800Y-119938800D02*
X127599801Y-119938800D01*
%TO.N,Net-(J2-Pin_3)*%
X124024800Y-137639200D02*
X126746000Y-140360400D01*
%TO.N,Net-(D1-K)*%
X131267200Y-116179600D02*
X131216400Y-116128800D01*
%TO.N,Net-(U1-OSCO)*%
X119380000Y-117398800D02*
X115214400Y-121564400D01*
%TO.N,Net-(U1-SCL)*%
X145694400Y-116468417D02*
X145694400Y-117901985D01*
%TO.N,Net-(J2-Pin_4)*%
X126100000Y-130125256D02*
X126100000Y-131494744D01*
%TO.N,Net-(J1-Pin_2)*%
X127896000Y-140836746D02*
X127222346Y-141510400D01*
%TO.N,Net-(D1-K)*%
X129641600Y-115062000D02*
X128574800Y-116128800D01*
%TO.N,Net-(J1-Pin_2)*%
X127896000Y-136500000D02*
X127896000Y-140836746D01*
%TO.N,Net-(J2-Pin_4)*%
X127568744Y-132588000D02*
X129286000Y-134305256D01*
%TO.N,Net-(U1-SDA)*%
X126847600Y-119186599D02*
X126847600Y-118780448D01*
%TO.N,Net-(D1-K)*%
X115390478Y-124002800D02*
X117348000Y-124002800D01*
%TO.N,Net-(J1-Pin_2)*%
X140512000Y-120538800D02*
X124224800Y-120538800D01*
%TO.N,Net-(J2-Pin_4)*%
X126100000Y-131494744D02*
X127193256Y-132588000D01*
%TO.N,Net-(U1-SDA)*%
X139912800Y-117998800D02*
X143002000Y-114909600D01*
%TO.N,Net-(U1-SCL)*%
X128574800Y-118668800D02*
X139836415Y-118668800D01*
%TO.N,Net-(D1-K)*%
X65063700Y-125764778D02*
X67282878Y-123545600D01*
X64874800Y-131826000D02*
X64860500Y-131811700D01*
X64874800Y-131826000D02*
X64706800Y-131658000D01*
X74501648Y-117541600D02*
X76532752Y-117541600D01*
X74812400Y-111166400D02*
X77587600Y-111166400D01*
X76792200Y-117282152D02*
X76792200Y-115331048D01*
X75904800Y-115071600D02*
X73872800Y-113039600D01*
X77587600Y-111166400D02*
X78587600Y-112166400D01*
X64860500Y-131811700D02*
X64860500Y-127369900D01*
X65836800Y-131826000D02*
X64874800Y-131826000D01*
X72999600Y-119786400D02*
X72999600Y-119043648D01*
X65063700Y-127138100D02*
X65063700Y-125764778D01*
X81534000Y-109270800D02*
X81534000Y-114604800D01*
X76532752Y-117541600D02*
X76792200Y-117282152D01*
X76532752Y-115071600D02*
X75904800Y-115071600D01*
X79603600Y-125171200D02*
X83566000Y-121208800D01*
X72999600Y-119043648D02*
X74501648Y-117541600D01*
X65078000Y-127152400D02*
X65063700Y-127138100D01*
X73872800Y-112106000D02*
X74812400Y-111166400D01*
X76792200Y-115331048D02*
X76532752Y-115071600D01*
%TO.N,Net-(D3-K)*%
X74472800Y-112420400D02*
X74879200Y-112420400D01*
%TO.N,Net-(D2-A)*%
X71424800Y-128219200D02*
X70358000Y-127152400D01*
%TO.N,Net-(D3-K)*%
X75133200Y-112166400D02*
X76537600Y-112166400D01*
X78892400Y-133146800D02*
X80264000Y-134518400D01*
X80264000Y-134518400D02*
X80264000Y-135128000D01*
%TO.N,Net-(D2-A)*%
X73558400Y-139903200D02*
X73558400Y-137414000D01*
X73558400Y-137414000D02*
X71424800Y-135280400D01*
%TO.N,Net-(D1-A)*%
X76022054Y-141453200D02*
X74879200Y-140310346D01*
X69440400Y-131826000D02*
X68478400Y-131826000D01*
%TO.N,Net-(D2-A)*%
X70358000Y-127152400D02*
X68681600Y-127152400D01*
%TO.N,Net-(D3-K)*%
X74879200Y-112420400D02*
X75133200Y-112166400D01*
%TO.N,Net-(D1-A)*%
X74879200Y-137264800D02*
X69440400Y-131826000D01*
X74879200Y-140310346D02*
X74879200Y-137264800D01*
X91522800Y-141453200D02*
X76022054Y-141453200D01*
X95757999Y-137218001D02*
X91522800Y-141453200D01*
%TO.N,Net-(J1-Pin_2)*%
X76098400Y-139903200D02*
X75517200Y-139322000D01*
X76817400Y-125171200D02*
X76817400Y-120781800D01*
X79788400Y-140379546D02*
X79114746Y-141053200D01*
X76117200Y-120081600D02*
X75517200Y-119481600D01*
%TO.N,Net-(D1-K)*%
X81534000Y-114604800D02*
X80467200Y-115671600D01*
X64706800Y-110769700D02*
X66205700Y-109270800D01*
X67282878Y-123545600D02*
X69240400Y-123545600D01*
%TO.N,Net-(J1-Pin_2)*%
X76892400Y-133146800D02*
X79788400Y-136042800D01*
%TO.N,Net-(D1-K)*%
X78892400Y-125171200D02*
X79603600Y-125171200D01*
X64860500Y-127369900D02*
X65078000Y-127152400D01*
%TO.N,Net-(J1-Pin_2)*%
X76817400Y-120781800D02*
X75517200Y-119481600D01*
%TO.N,Net-(D1-K)*%
X83108800Y-115671600D02*
X80467200Y-115671600D01*
%TO.N,Net-(J1-Pin_2)*%
X92404400Y-120081600D02*
X76117200Y-120081600D01*
%TO.N,Net-(D1-K)*%
X83159600Y-115722400D02*
X83108800Y-115671600D01*
%TO.N,Net-(J1-Pin_2)*%
X79114746Y-141053200D02*
X77248400Y-141053200D01*
%TO.N,Net-(D1-K)*%
X69240400Y-123545600D02*
X72999600Y-119786400D01*
%TO.N,Net-(J1-Pin_2)*%
X75517200Y-139322000D02*
X75517200Y-119481600D01*
X77248400Y-141053200D02*
X76098400Y-139903200D01*
X79788400Y-136042800D02*
X79788400Y-140379546D01*
X95757999Y-116728001D02*
X92404400Y-120081600D01*
%TO.N,Net-(U1-SCL)*%
X97586800Y-117444785D02*
X87269585Y-127762000D01*
X95081615Y-114858800D02*
X96434383Y-114858800D01*
X97586800Y-116011217D02*
X97586800Y-117444785D01*
%TO.N,Net-(U1-SDA)*%
X80467200Y-119481600D02*
X79492201Y-119481600D01*
X79521648Y-117541600D02*
X91805200Y-117541600D01*
X85699600Y-130352800D02*
X78892400Y-130352800D01*
%TO.N,Net-(U1-OSCI)*%
X75517200Y-115671600D02*
X69696200Y-115671600D01*
%TO.N,Net-(U1-OSCO)*%
X71272400Y-116941600D02*
X67106800Y-121107200D01*
%TO.N,Net-(U1-SCL)*%
X91728815Y-118211600D02*
X95081615Y-114858800D01*
X96434383Y-114858800D02*
X97586800Y-116011217D01*
%TO.N,Net-(U1-SDA)*%
X96593669Y-114452400D02*
X97993200Y-115851931D01*
%TO.N,Net-(U1-SCL)*%
X80467200Y-118211600D02*
X91728815Y-118211600D01*
%TO.N,Net-(U1-SDA)*%
X97993200Y-118059200D02*
X85699600Y-130352800D01*
X91805200Y-117541600D02*
X94894400Y-114452400D01*
X78740000Y-118323248D02*
X79521648Y-117541600D01*
%TO.N,Net-(U1-OSCI)*%
X69696200Y-115671600D02*
X67106800Y-113082200D01*
%TO.N,Net-(U1-OSCO)*%
X75517200Y-116941600D02*
X71272400Y-116941600D01*
%TO.N,Net-(U1-SDA)*%
X94894400Y-114452400D02*
X96593669Y-114452400D01*
%TO.N,Net-(U1-SCL)*%
X87269585Y-127762000D02*
X78892400Y-127762000D01*
%TO.N,Net-(J2-Pin_4)*%
X77992400Y-131037544D02*
X79085656Y-132130800D01*
%TO.N,Net-(J2-Pin_3)*%
X75917200Y-131328000D02*
X75917200Y-137182000D01*
%TO.N,Net-(J2-Pin_4)*%
X79461144Y-132130800D02*
X81178400Y-133848056D01*
X77992400Y-129668056D02*
X77992400Y-131037544D01*
%TO.N,Net-(U1-SDA)*%
X79492201Y-119481600D02*
X78740000Y-118729399D01*
%TO.N,Net-(J2-Pin_4)*%
X78483200Y-129352800D02*
X78307656Y-129352800D01*
X76892400Y-127762000D02*
X78483200Y-129352800D01*
%TO.N,Net-(U1-SDA)*%
X97993200Y-115851931D02*
X97993200Y-118059200D01*
X78740000Y-118729399D02*
X78740000Y-118323248D01*
%TO.N,Net-(J2-Pin_3)*%
X76892400Y-130352800D02*
X75917200Y-131328000D01*
%TO.N,Net-(J2-Pin_4)*%
X78307656Y-129352800D02*
X77992400Y-129668056D01*
X79085656Y-132130800D02*
X79461144Y-132130800D01*
X81178400Y-133848056D02*
X81178400Y-139903200D01*
%TO.N,Net-(J2-Pin_3)*%
X75917200Y-137182000D02*
X78638400Y-139903200D01*
%TO.N,Net-(D1-K)*%
X73872800Y-113039600D02*
X73872800Y-112106000D01*
X66205700Y-109270800D02*
X81534000Y-109270800D01*
X65078000Y-127152400D02*
X66040000Y-127152400D01*
X64706800Y-131658000D02*
X64706800Y-110769700D01*
X113323700Y-164982378D02*
X115542878Y-162763200D01*
X113134800Y-171043600D02*
X113120500Y-171029300D01*
X113134800Y-171043600D02*
X112966800Y-170875600D01*
X122761648Y-156759200D02*
X124792752Y-156759200D01*
X123072400Y-150384000D02*
X125847600Y-150384000D01*
X125052200Y-156499752D02*
X125052200Y-154548648D01*
X124164800Y-154289200D02*
X122132800Y-152257200D01*
X125847600Y-150384000D02*
X126847600Y-151384000D01*
X113120500Y-171029300D02*
X113120500Y-166587500D01*
X114096800Y-171043600D02*
X113134800Y-171043600D01*
X121259600Y-159004000D02*
X121259600Y-158261248D01*
X113323700Y-166355700D02*
X113323700Y-164982378D01*
X129794000Y-148488400D02*
X129794000Y-153822400D01*
X124792752Y-156759200D02*
X125052200Y-156499752D01*
X124792752Y-154289200D02*
X124164800Y-154289200D01*
X127863600Y-164388800D02*
X131826000Y-160426400D01*
X121259600Y-158261248D02*
X122761648Y-156759200D01*
X113338000Y-166370000D02*
X113323700Y-166355700D01*
X122132800Y-151323600D02*
X123072400Y-150384000D01*
X125052200Y-154548648D02*
X124792752Y-154289200D01*
%TO.N,Net-(D3-K)*%
X122732800Y-151638000D02*
X123139200Y-151638000D01*
%TO.N,Net-(D2-A)*%
X119684800Y-167436800D02*
X118618000Y-166370000D01*
%TO.N,Net-(D3-K)*%
X123393200Y-151384000D02*
X124797600Y-151384000D01*
X127152400Y-172364400D02*
X128524000Y-173736000D01*
X128524000Y-173736000D02*
X128524000Y-174345600D01*
%TO.N,Net-(D2-A)*%
X121818400Y-179120800D02*
X121818400Y-176631600D01*
X121818400Y-176631600D02*
X119684800Y-174498000D01*
%TO.N,Net-(D1-A)*%
X124282054Y-180670800D02*
X123139200Y-179527946D01*
X117700400Y-171043600D02*
X116738400Y-171043600D01*
%TO.N,Net-(D2-A)*%
X118618000Y-166370000D02*
X116941600Y-166370000D01*
%TO.N,Net-(D3-K)*%
X123139200Y-151638000D02*
X123393200Y-151384000D01*
%TO.N,Net-(D1-A)*%
X123139200Y-176482400D02*
X117700400Y-171043600D01*
X123139200Y-179527946D02*
X123139200Y-176482400D01*
X139782800Y-180670800D02*
X124282054Y-180670800D01*
X144017999Y-176435601D02*
X139782800Y-180670800D01*
%TO.N,Net-(J1-Pin_2)*%
X124358400Y-179120800D02*
X123777200Y-178539600D01*
X125077400Y-164388800D02*
X125077400Y-159999400D01*
X128048400Y-179597146D02*
X127374746Y-180270800D01*
X124377200Y-159299200D02*
X123777200Y-158699200D01*
%TO.N,Net-(D1-K)*%
X129794000Y-153822400D02*
X128727200Y-154889200D01*
X112966800Y-149987300D02*
X114465700Y-148488400D01*
X115542878Y-162763200D02*
X117500400Y-162763200D01*
%TO.N,Net-(J1-Pin_2)*%
X125152400Y-172364400D02*
X128048400Y-175260400D01*
%TO.N,Net-(D1-K)*%
X127152400Y-164388800D02*
X127863600Y-164388800D01*
X113120500Y-166587500D02*
X113338000Y-166370000D01*
%TO.N,Net-(J1-Pin_2)*%
X125077400Y-159999400D02*
X123777200Y-158699200D01*
%TO.N,Net-(D1-K)*%
X131368800Y-154889200D02*
X128727200Y-154889200D01*
%TO.N,Net-(J1-Pin_2)*%
X140664400Y-159299200D02*
X124377200Y-159299200D01*
%TO.N,Net-(D1-K)*%
X131419600Y-154940000D02*
X131368800Y-154889200D01*
%TO.N,Net-(J1-Pin_2)*%
X127374746Y-180270800D02*
X125508400Y-180270800D01*
%TO.N,Net-(D1-K)*%
X117500400Y-162763200D02*
X121259600Y-159004000D01*
%TO.N,Net-(J1-Pin_2)*%
X123777200Y-178539600D02*
X123777200Y-158699200D01*
X125508400Y-180270800D02*
X124358400Y-179120800D01*
X128048400Y-175260400D02*
X128048400Y-179597146D01*
X144017999Y-155945601D02*
X140664400Y-159299200D01*
%TO.N,Net-(U1-SCL)*%
X145846800Y-156662385D02*
X135529585Y-166979600D01*
X143341615Y-154076400D02*
X144694383Y-154076400D01*
X145846800Y-155228817D02*
X145846800Y-156662385D01*
%TO.N,Net-(U1-SDA)*%
X128727200Y-158699200D02*
X127752201Y-158699200D01*
X127781648Y-156759200D02*
X140065200Y-156759200D01*
X133959600Y-169570400D02*
X127152400Y-169570400D01*
%TO.N,Net-(U1-OSCI)*%
X123777200Y-154889200D02*
X117956200Y-154889200D01*
%TO.N,Net-(U1-OSCO)*%
X119532400Y-156159200D02*
X115366800Y-160324800D01*
%TO.N,Net-(U1-SCL)*%
X139988815Y-157429200D02*
X143341615Y-154076400D01*
X144694383Y-154076400D02*
X145846800Y-155228817D01*
%TO.N,Net-(U1-SDA)*%
X144853669Y-153670000D02*
X146253200Y-155069531D01*
%TO.N,Net-(U1-SCL)*%
X128727200Y-157429200D02*
X139988815Y-157429200D01*
%TO.N,Net-(U1-SDA)*%
X146253200Y-157276800D02*
X133959600Y-169570400D01*
X140065200Y-156759200D02*
X143154400Y-153670000D01*
X127000000Y-157540848D02*
X127781648Y-156759200D01*
%TO.N,Net-(U1-OSCI)*%
X117956200Y-154889200D02*
X115366800Y-152299800D01*
%TO.N,Net-(U1-OSCO)*%
X123777200Y-156159200D02*
X119532400Y-156159200D01*
%TO.N,Net-(U1-SDA)*%
X143154400Y-153670000D02*
X144853669Y-153670000D01*
%TO.N,Net-(U1-SCL)*%
X135529585Y-166979600D02*
X127152400Y-166979600D01*
%TO.N,Net-(J2-Pin_4)*%
X126252400Y-170255144D02*
X127345656Y-171348400D01*
%TO.N,Net-(J2-Pin_3)*%
X124177200Y-170545600D02*
X124177200Y-176399600D01*
%TO.N,Net-(J2-Pin_4)*%
X127721144Y-171348400D02*
X129438400Y-173065656D01*
X126252400Y-168885656D02*
X126252400Y-170255144D01*
%TO.N,Net-(U1-SDA)*%
X127752201Y-158699200D02*
X127000000Y-157946999D01*
%TO.N,Net-(J2-Pin_4)*%
X126743200Y-168570400D02*
X126567656Y-168570400D01*
X125152400Y-166979600D02*
X126743200Y-168570400D01*
%TO.N,Net-(U1-SDA)*%
X146253200Y-155069531D02*
X146253200Y-157276800D01*
X127000000Y-157946999D02*
X127000000Y-157540848D01*
%TO.N,Net-(J2-Pin_3)*%
X125152400Y-169570400D02*
X124177200Y-170545600D01*
%TO.N,Net-(J2-Pin_4)*%
X126567656Y-168570400D02*
X126252400Y-168885656D01*
X127345656Y-171348400D02*
X127721144Y-171348400D01*
X129438400Y-173065656D02*
X129438400Y-179120800D01*
%TO.N,Net-(J2-Pin_3)*%
X124177200Y-176399600D02*
X126898400Y-179120800D01*
%TO.N,Net-(D1-K)*%
X122132800Y-152257200D02*
X122132800Y-151323600D01*
X114465700Y-148488400D02*
X129794000Y-148488400D01*
X113338000Y-166370000D02*
X114300000Y-166370000D01*
X112966800Y-170875600D02*
X112966800Y-149987300D01*
X64859200Y-170418400D02*
X64859200Y-149530100D01*
X74025200Y-151800000D02*
X74025200Y-150866400D01*
X65230400Y-165912800D02*
X66192400Y-165912800D01*
X66358100Y-148031200D02*
X81686400Y-148031200D01*
X77740000Y-149926800D02*
X78740000Y-150926800D01*
X65012900Y-170572100D02*
X65012900Y-166130300D01*
X74025200Y-150866400D02*
X74964800Y-149926800D01*
X76057200Y-153832000D02*
X74025200Y-151800000D01*
X65230400Y-165912800D02*
X65216100Y-165898500D01*
X73152000Y-157804048D02*
X74654048Y-156302000D01*
X76944600Y-156042552D02*
X76944600Y-154091448D01*
X65027200Y-170586400D02*
X65012900Y-170572100D01*
X79756000Y-163931600D02*
X83718400Y-159969200D01*
X73152000Y-158546800D02*
X73152000Y-157804048D01*
X76685152Y-153832000D02*
X76057200Y-153832000D01*
X81686400Y-148031200D02*
X81686400Y-153365200D01*
X76685152Y-156302000D02*
X76944600Y-156042552D01*
X74964800Y-149926800D02*
X77740000Y-149926800D01*
X74654048Y-156302000D02*
X76685152Y-156302000D01*
X65216100Y-164525178D02*
X67435278Y-162306000D01*
X65027200Y-170586400D02*
X64859200Y-170418400D01*
X76944600Y-154091448D02*
X76685152Y-153832000D01*
X65216100Y-165898500D02*
X65216100Y-164525178D01*
X65989200Y-170586400D02*
X65027200Y-170586400D01*
X69392800Y-162306000D02*
X73152000Y-158546800D01*
X83261200Y-154432000D02*
X80619600Y-154432000D01*
X83312000Y-154482800D02*
X83261200Y-154432000D01*
X79044800Y-163931600D02*
X79756000Y-163931600D01*
X65012900Y-166130300D02*
X65230400Y-165912800D01*
X64859200Y-149530100D02*
X66358100Y-148031200D01*
X67435278Y-162306000D02*
X69392800Y-162306000D01*
X81686400Y-153365200D02*
X80619600Y-154432000D01*
%TO.N,Net-(J1-Pin_2)*%
X76969800Y-159542200D02*
X75669600Y-158242000D01*
X76269600Y-158842000D02*
X75669600Y-158242000D01*
X77400800Y-179813600D02*
X76250800Y-178663600D01*
X79940800Y-179139946D02*
X79267146Y-179813600D01*
X95910399Y-155488401D02*
X92556800Y-158842000D01*
X79940800Y-174803200D02*
X79940800Y-179139946D01*
X79267146Y-179813600D02*
X77400800Y-179813600D01*
X75669600Y-178082400D02*
X75669600Y-158242000D01*
X92556800Y-158842000D02*
X76269600Y-158842000D01*
X77044800Y-171907200D02*
X79940800Y-174803200D01*
X76250800Y-178663600D02*
X75669600Y-178082400D01*
X76969800Y-163931600D02*
X76969800Y-159542200D01*
%TO.N,Net-(D1-A)*%
X69592800Y-170586400D02*
X68630800Y-170586400D01*
X95910399Y-175978401D02*
X91675200Y-180213600D01*
X91675200Y-180213600D02*
X76174454Y-180213600D01*
X75031600Y-179070746D02*
X75031600Y-176025200D01*
X75031600Y-176025200D02*
X69592800Y-170586400D01*
X76174454Y-180213600D02*
X75031600Y-179070746D01*
%TO.N,Net-(D2-A)*%
X71577200Y-166979600D02*
X70510400Y-165912800D01*
X70510400Y-165912800D02*
X68834000Y-165912800D01*
X73710800Y-178663600D02*
X73710800Y-176174400D01*
X73710800Y-176174400D02*
X71577200Y-174040800D01*
%TO.N,Net-(D3-K)*%
X75031600Y-151180800D02*
X75285600Y-150926800D01*
X80416400Y-173278800D02*
X80416400Y-173888400D01*
X79044800Y-171907200D02*
X80416400Y-173278800D01*
X75285600Y-150926800D02*
X76690000Y-150926800D01*
X74625200Y-151180800D02*
X75031600Y-151180800D01*
%TO.N,Net-(J2-Pin_4)*%
X78144800Y-169797944D02*
X79238056Y-170891200D01*
X81330800Y-172608456D02*
X81330800Y-178663600D01*
X78144800Y-168428456D02*
X78144800Y-169797944D01*
X79238056Y-170891200D02*
X79613544Y-170891200D01*
X77044800Y-166522400D02*
X78635600Y-168113200D01*
X79613544Y-170891200D02*
X81330800Y-172608456D01*
X78635600Y-168113200D02*
X78460056Y-168113200D01*
X78460056Y-168113200D02*
X78144800Y-168428456D01*
%TO.N,Net-(J2-Pin_3)*%
X76069600Y-170088400D02*
X76069600Y-175942400D01*
X77044800Y-169113200D02*
X76069600Y-170088400D01*
X76069600Y-175942400D02*
X78790800Y-178663600D01*
%TO.N,Net-(U1-SDA)*%
X78892400Y-157489799D02*
X78892400Y-157083648D01*
X98145600Y-154612331D02*
X98145600Y-156819600D01*
X79644601Y-158242000D02*
X78892400Y-157489799D01*
X79674048Y-156302000D02*
X91957600Y-156302000D01*
X95046800Y-153212800D02*
X96746069Y-153212800D01*
X91957600Y-156302000D02*
X95046800Y-153212800D01*
X80619600Y-158242000D02*
X79644601Y-158242000D01*
X85852000Y-169113200D02*
X79044800Y-169113200D01*
X96746069Y-153212800D02*
X98145600Y-154612331D01*
X78892400Y-157083648D02*
X79674048Y-156302000D01*
X98145600Y-156819600D02*
X85852000Y-169113200D01*
%TO.N,Net-(U1-SCL)*%
X97739200Y-156205185D02*
X87421985Y-166522400D01*
X97739200Y-154771617D02*
X97739200Y-156205185D01*
X80619600Y-156972000D02*
X91881215Y-156972000D01*
X96586783Y-153619200D02*
X97739200Y-154771617D01*
X91881215Y-156972000D02*
X95234015Y-153619200D01*
X87421985Y-166522400D02*
X79044800Y-166522400D01*
X95234015Y-153619200D02*
X96586783Y-153619200D01*
%TO.N,Net-(U1-OSCO)*%
X75669600Y-155702000D02*
X71424800Y-155702000D01*
X71424800Y-155702000D02*
X67259200Y-159867600D01*
%TO.N,Net-(U1-OSCI)*%
X69848600Y-154432000D02*
X67259200Y-151842600D01*
X75669600Y-154432000D02*
X69848600Y-154432000D01*
%TD*%
M02*
