%TF.GenerationSoftware,KiCad,Pcbnew,8.0.5*%
%TF.CreationDate,2024-12-11T00:22:58+01:00*%
%TF.ProjectId,rtc-module-kicad,7274632d-6d6f-4647-956c-652d6b696361,rev?*%
%TF.SameCoordinates,Original*%
%TF.FileFunction,Legend,Bot*%
%TF.FilePolarity,Positive*%
%FSLAX46Y46*%
G04 Gerber Fmt 4.6, Leading zero omitted, Abs format (unit mm)*
G04 Created by KiCad (PCBNEW 8.0.5) date 2024-12-11 00:22:58*
%MOMM*%
%LPD*%
G01*
G04 APERTURE LIST*
%ADD10C,0.300000*%
G04 APERTURE END LIST*
D10*
X148753146Y-32820828D02*
X149253146Y-32106542D01*
X149610289Y-32820828D02*
X149610289Y-31320828D01*
X149610289Y-31320828D02*
X149038860Y-31320828D01*
X149038860Y-31320828D02*
X148896003Y-31392257D01*
X148896003Y-31392257D02*
X148824574Y-31463685D01*
X148824574Y-31463685D02*
X148753146Y-31606542D01*
X148753146Y-31606542D02*
X148753146Y-31820828D01*
X148753146Y-31820828D02*
X148824574Y-31963685D01*
X148824574Y-31963685D02*
X148896003Y-32035114D01*
X148896003Y-32035114D02*
X149038860Y-32106542D01*
X149038860Y-32106542D02*
X149610289Y-32106542D01*
X148324574Y-31320828D02*
X147467432Y-31320828D01*
X147896003Y-32820828D02*
X147896003Y-31320828D01*
X146110289Y-32677971D02*
X146181717Y-32749400D01*
X146181717Y-32749400D02*
X146396003Y-32820828D01*
X146396003Y-32820828D02*
X146538860Y-32820828D01*
X146538860Y-32820828D02*
X146753146Y-32749400D01*
X146753146Y-32749400D02*
X146896003Y-32606542D01*
X146896003Y-32606542D02*
X146967432Y-32463685D01*
X146967432Y-32463685D02*
X147038860Y-32177971D01*
X147038860Y-32177971D02*
X147038860Y-31963685D01*
X147038860Y-31963685D02*
X146967432Y-31677971D01*
X146967432Y-31677971D02*
X146896003Y-31535114D01*
X146896003Y-31535114D02*
X146753146Y-31392257D01*
X146753146Y-31392257D02*
X146538860Y-31320828D01*
X146538860Y-31320828D02*
X146396003Y-31320828D01*
X146396003Y-31320828D02*
X146181717Y-31392257D01*
X146181717Y-31392257D02*
X146110289Y-31463685D01*
X145467432Y-32249400D02*
X144324575Y-32249400D01*
X143610289Y-32820828D02*
X143610289Y-31820828D01*
X143610289Y-31963685D02*
X143538860Y-31892257D01*
X143538860Y-31892257D02*
X143396003Y-31820828D01*
X143396003Y-31820828D02*
X143181717Y-31820828D01*
X143181717Y-31820828D02*
X143038860Y-31892257D01*
X143038860Y-31892257D02*
X142967432Y-32035114D01*
X142967432Y-32035114D02*
X142967432Y-32820828D01*
X142967432Y-32035114D02*
X142896003Y-31892257D01*
X142896003Y-31892257D02*
X142753146Y-31820828D01*
X142753146Y-31820828D02*
X142538860Y-31820828D01*
X142538860Y-31820828D02*
X142396003Y-31892257D01*
X142396003Y-31892257D02*
X142324574Y-32035114D01*
X142324574Y-32035114D02*
X142324574Y-32820828D01*
X141396003Y-32820828D02*
X141538860Y-32749400D01*
X141538860Y-32749400D02*
X141610289Y-32677971D01*
X141610289Y-32677971D02*
X141681717Y-32535114D01*
X141681717Y-32535114D02*
X141681717Y-32106542D01*
X141681717Y-32106542D02*
X141610289Y-31963685D01*
X141610289Y-31963685D02*
X141538860Y-31892257D01*
X141538860Y-31892257D02*
X141396003Y-31820828D01*
X141396003Y-31820828D02*
X141181717Y-31820828D01*
X141181717Y-31820828D02*
X141038860Y-31892257D01*
X141038860Y-31892257D02*
X140967432Y-31963685D01*
X140967432Y-31963685D02*
X140896003Y-32106542D01*
X140896003Y-32106542D02*
X140896003Y-32535114D01*
X140896003Y-32535114D02*
X140967432Y-32677971D01*
X140967432Y-32677971D02*
X141038860Y-32749400D01*
X141038860Y-32749400D02*
X141181717Y-32820828D01*
X141181717Y-32820828D02*
X141396003Y-32820828D01*
X139610289Y-32820828D02*
X139610289Y-31320828D01*
X139610289Y-32749400D02*
X139753146Y-32820828D01*
X139753146Y-32820828D02*
X140038860Y-32820828D01*
X140038860Y-32820828D02*
X140181717Y-32749400D01*
X140181717Y-32749400D02*
X140253146Y-32677971D01*
X140253146Y-32677971D02*
X140324574Y-32535114D01*
X140324574Y-32535114D02*
X140324574Y-32106542D01*
X140324574Y-32106542D02*
X140253146Y-31963685D01*
X140253146Y-31963685D02*
X140181717Y-31892257D01*
X140181717Y-31892257D02*
X140038860Y-31820828D01*
X140038860Y-31820828D02*
X139753146Y-31820828D01*
X139753146Y-31820828D02*
X139610289Y-31892257D01*
X138253146Y-31820828D02*
X138253146Y-32820828D01*
X138896003Y-31820828D02*
X138896003Y-32606542D01*
X138896003Y-32606542D02*
X138824574Y-32749400D01*
X138824574Y-32749400D02*
X138681717Y-32820828D01*
X138681717Y-32820828D02*
X138467431Y-32820828D01*
X138467431Y-32820828D02*
X138324574Y-32749400D01*
X138324574Y-32749400D02*
X138253146Y-32677971D01*
X137324574Y-32820828D02*
X137467431Y-32749400D01*
X137467431Y-32749400D02*
X137538860Y-32606542D01*
X137538860Y-32606542D02*
X137538860Y-31320828D01*
X136181717Y-32749400D02*
X136324574Y-32820828D01*
X136324574Y-32820828D02*
X136610289Y-32820828D01*
X136610289Y-32820828D02*
X136753146Y-32749400D01*
X136753146Y-32749400D02*
X136824574Y-32606542D01*
X136824574Y-32606542D02*
X136824574Y-32035114D01*
X136824574Y-32035114D02*
X136753146Y-31892257D01*
X136753146Y-31892257D02*
X136610289Y-31820828D01*
X136610289Y-31820828D02*
X136324574Y-31820828D01*
X136324574Y-31820828D02*
X136181717Y-31892257D01*
X136181717Y-31892257D02*
X136110289Y-32035114D01*
X136110289Y-32035114D02*
X136110289Y-32177971D01*
X136110289Y-32177971D02*
X136824574Y-32320828D01*
X102671089Y-64520028D02*
X102671089Y-63020028D01*
X102671089Y-63020028D02*
X102099660Y-63020028D01*
X102099660Y-63020028D02*
X101956803Y-63091457D01*
X101956803Y-63091457D02*
X101885374Y-63162885D01*
X101885374Y-63162885D02*
X101813946Y-63305742D01*
X101813946Y-63305742D02*
X101813946Y-63520028D01*
X101813946Y-63520028D02*
X101885374Y-63662885D01*
X101885374Y-63662885D02*
X101956803Y-63734314D01*
X101956803Y-63734314D02*
X102099660Y-63805742D01*
X102099660Y-63805742D02*
X102671089Y-63805742D01*
X100528232Y-64520028D02*
X100528232Y-63734314D01*
X100528232Y-63734314D02*
X100599660Y-63591457D01*
X100599660Y-63591457D02*
X100742517Y-63520028D01*
X100742517Y-63520028D02*
X101028232Y-63520028D01*
X101028232Y-63520028D02*
X101171089Y-63591457D01*
X100528232Y-64448600D02*
X100671089Y-64520028D01*
X100671089Y-64520028D02*
X101028232Y-64520028D01*
X101028232Y-64520028D02*
X101171089Y-64448600D01*
X101171089Y-64448600D02*
X101242517Y-64305742D01*
X101242517Y-64305742D02*
X101242517Y-64162885D01*
X101242517Y-64162885D02*
X101171089Y-64020028D01*
X101171089Y-64020028D02*
X101028232Y-63948600D01*
X101028232Y-63948600D02*
X100671089Y-63948600D01*
X100671089Y-63948600D02*
X100528232Y-63877171D01*
X99171089Y-64448600D02*
X99313946Y-64520028D01*
X99313946Y-64520028D02*
X99599660Y-64520028D01*
X99599660Y-64520028D02*
X99742517Y-64448600D01*
X99742517Y-64448600D02*
X99813946Y-64377171D01*
X99813946Y-64377171D02*
X99885374Y-64234314D01*
X99885374Y-64234314D02*
X99885374Y-63805742D01*
X99885374Y-63805742D02*
X99813946Y-63662885D01*
X99813946Y-63662885D02*
X99742517Y-63591457D01*
X99742517Y-63591457D02*
X99599660Y-63520028D01*
X99599660Y-63520028D02*
X99313946Y-63520028D01*
X99313946Y-63520028D02*
X99171089Y-63591457D01*
X98313946Y-64520028D02*
X98456803Y-64448600D01*
X98456803Y-64448600D02*
X98528232Y-64377171D01*
X98528232Y-64377171D02*
X98599660Y-64234314D01*
X98599660Y-64234314D02*
X98599660Y-63805742D01*
X98599660Y-63805742D02*
X98528232Y-63662885D01*
X98528232Y-63662885D02*
X98456803Y-63591457D01*
X98456803Y-63591457D02*
X98313946Y-63520028D01*
X98313946Y-63520028D02*
X98099660Y-63520028D01*
X98099660Y-63520028D02*
X97956803Y-63591457D01*
X97956803Y-63591457D02*
X97885375Y-63662885D01*
X97885375Y-63662885D02*
X97813946Y-63805742D01*
X97813946Y-63805742D02*
X97813946Y-64234314D01*
X97813946Y-64234314D02*
X97885375Y-64377171D01*
X97885375Y-64377171D02*
X97956803Y-64448600D01*
X97956803Y-64448600D02*
X98099660Y-64520028D01*
X98099660Y-64520028D02*
X98313946Y-64520028D01*
X96028232Y-64377171D02*
X95956803Y-64448600D01*
X95956803Y-64448600D02*
X96028232Y-64520028D01*
X96028232Y-64520028D02*
X96099660Y-64448600D01*
X96099660Y-64448600D02*
X96028232Y-64377171D01*
X96028232Y-64377171D02*
X96028232Y-64520028D01*
X96028232Y-63591457D02*
X95956803Y-63662885D01*
X95956803Y-63662885D02*
X96028232Y-63734314D01*
X96028232Y-63734314D02*
X96099660Y-63662885D01*
X96099660Y-63662885D02*
X96028232Y-63591457D01*
X96028232Y-63591457D02*
X96028232Y-63734314D01*
X95456803Y-63020028D02*
X94528231Y-63020028D01*
X94528231Y-63020028D02*
X95028231Y-63591457D01*
X95028231Y-63591457D02*
X94813946Y-63591457D01*
X94813946Y-63591457D02*
X94671089Y-63662885D01*
X94671089Y-63662885D02*
X94599660Y-63734314D01*
X94599660Y-63734314D02*
X94528231Y-63877171D01*
X94528231Y-63877171D02*
X94528231Y-64234314D01*
X94528231Y-64234314D02*
X94599660Y-64377171D01*
X94599660Y-64377171D02*
X94671089Y-64448600D01*
X94671089Y-64448600D02*
X94813946Y-64520028D01*
X94813946Y-64520028D02*
X95242517Y-64520028D01*
X95242517Y-64520028D02*
X95385374Y-64448600D01*
X95385374Y-64448600D02*
X95456803Y-64377171D01*
X148905546Y-71581228D02*
X149405546Y-70866942D01*
X149762689Y-71581228D02*
X149762689Y-70081228D01*
X149762689Y-70081228D02*
X149191260Y-70081228D01*
X149191260Y-70081228D02*
X149048403Y-70152657D01*
X149048403Y-70152657D02*
X148976974Y-70224085D01*
X148976974Y-70224085D02*
X148905546Y-70366942D01*
X148905546Y-70366942D02*
X148905546Y-70581228D01*
X148905546Y-70581228D02*
X148976974Y-70724085D01*
X148976974Y-70724085D02*
X149048403Y-70795514D01*
X149048403Y-70795514D02*
X149191260Y-70866942D01*
X149191260Y-70866942D02*
X149762689Y-70866942D01*
X148476974Y-70081228D02*
X147619832Y-70081228D01*
X148048403Y-71581228D02*
X148048403Y-70081228D01*
X146262689Y-71438371D02*
X146334117Y-71509800D01*
X146334117Y-71509800D02*
X146548403Y-71581228D01*
X146548403Y-71581228D02*
X146691260Y-71581228D01*
X146691260Y-71581228D02*
X146905546Y-71509800D01*
X146905546Y-71509800D02*
X147048403Y-71366942D01*
X147048403Y-71366942D02*
X147119832Y-71224085D01*
X147119832Y-71224085D02*
X147191260Y-70938371D01*
X147191260Y-70938371D02*
X147191260Y-70724085D01*
X147191260Y-70724085D02*
X147119832Y-70438371D01*
X147119832Y-70438371D02*
X147048403Y-70295514D01*
X147048403Y-70295514D02*
X146905546Y-70152657D01*
X146905546Y-70152657D02*
X146691260Y-70081228D01*
X146691260Y-70081228D02*
X146548403Y-70081228D01*
X146548403Y-70081228D02*
X146334117Y-70152657D01*
X146334117Y-70152657D02*
X146262689Y-70224085D01*
X145619832Y-71009800D02*
X144476975Y-71009800D01*
X143762689Y-71581228D02*
X143762689Y-70581228D01*
X143762689Y-70724085D02*
X143691260Y-70652657D01*
X143691260Y-70652657D02*
X143548403Y-70581228D01*
X143548403Y-70581228D02*
X143334117Y-70581228D01*
X143334117Y-70581228D02*
X143191260Y-70652657D01*
X143191260Y-70652657D02*
X143119832Y-70795514D01*
X143119832Y-70795514D02*
X143119832Y-71581228D01*
X143119832Y-70795514D02*
X143048403Y-70652657D01*
X143048403Y-70652657D02*
X142905546Y-70581228D01*
X142905546Y-70581228D02*
X142691260Y-70581228D01*
X142691260Y-70581228D02*
X142548403Y-70652657D01*
X142548403Y-70652657D02*
X142476974Y-70795514D01*
X142476974Y-70795514D02*
X142476974Y-71581228D01*
X141548403Y-71581228D02*
X141691260Y-71509800D01*
X141691260Y-71509800D02*
X141762689Y-71438371D01*
X141762689Y-71438371D02*
X141834117Y-71295514D01*
X141834117Y-71295514D02*
X141834117Y-70866942D01*
X141834117Y-70866942D02*
X141762689Y-70724085D01*
X141762689Y-70724085D02*
X141691260Y-70652657D01*
X141691260Y-70652657D02*
X141548403Y-70581228D01*
X141548403Y-70581228D02*
X141334117Y-70581228D01*
X141334117Y-70581228D02*
X141191260Y-70652657D01*
X141191260Y-70652657D02*
X141119832Y-70724085D01*
X141119832Y-70724085D02*
X141048403Y-70866942D01*
X141048403Y-70866942D02*
X141048403Y-71295514D01*
X141048403Y-71295514D02*
X141119832Y-71438371D01*
X141119832Y-71438371D02*
X141191260Y-71509800D01*
X141191260Y-71509800D02*
X141334117Y-71581228D01*
X141334117Y-71581228D02*
X141548403Y-71581228D01*
X139762689Y-71581228D02*
X139762689Y-70081228D01*
X139762689Y-71509800D02*
X139905546Y-71581228D01*
X139905546Y-71581228D02*
X140191260Y-71581228D01*
X140191260Y-71581228D02*
X140334117Y-71509800D01*
X140334117Y-71509800D02*
X140405546Y-71438371D01*
X140405546Y-71438371D02*
X140476974Y-71295514D01*
X140476974Y-71295514D02*
X140476974Y-70866942D01*
X140476974Y-70866942D02*
X140405546Y-70724085D01*
X140405546Y-70724085D02*
X140334117Y-70652657D01*
X140334117Y-70652657D02*
X140191260Y-70581228D01*
X140191260Y-70581228D02*
X139905546Y-70581228D01*
X139905546Y-70581228D02*
X139762689Y-70652657D01*
X138405546Y-70581228D02*
X138405546Y-71581228D01*
X139048403Y-70581228D02*
X139048403Y-71366942D01*
X139048403Y-71366942D02*
X138976974Y-71509800D01*
X138976974Y-71509800D02*
X138834117Y-71581228D01*
X138834117Y-71581228D02*
X138619831Y-71581228D01*
X138619831Y-71581228D02*
X138476974Y-71509800D01*
X138476974Y-71509800D02*
X138405546Y-71438371D01*
X137476974Y-71581228D02*
X137619831Y-71509800D01*
X137619831Y-71509800D02*
X137691260Y-71366942D01*
X137691260Y-71366942D02*
X137691260Y-70081228D01*
X136334117Y-71509800D02*
X136476974Y-71581228D01*
X136476974Y-71581228D02*
X136762689Y-71581228D01*
X136762689Y-71581228D02*
X136905546Y-71509800D01*
X136905546Y-71509800D02*
X136976974Y-71366942D01*
X136976974Y-71366942D02*
X136976974Y-70795514D01*
X136976974Y-70795514D02*
X136905546Y-70652657D01*
X136905546Y-70652657D02*
X136762689Y-70581228D01*
X136762689Y-70581228D02*
X136476974Y-70581228D01*
X136476974Y-70581228D02*
X136334117Y-70652657D01*
X136334117Y-70652657D02*
X136262689Y-70795514D01*
X136262689Y-70795514D02*
X136262689Y-70938371D01*
X136262689Y-70938371D02*
X136976974Y-71081228D01*
X150931089Y-103737628D02*
X150931089Y-102237628D01*
X150931089Y-102237628D02*
X150359660Y-102237628D01*
X150359660Y-102237628D02*
X150216803Y-102309057D01*
X150216803Y-102309057D02*
X150145374Y-102380485D01*
X150145374Y-102380485D02*
X150073946Y-102523342D01*
X150073946Y-102523342D02*
X150073946Y-102737628D01*
X150073946Y-102737628D02*
X150145374Y-102880485D01*
X150145374Y-102880485D02*
X150216803Y-102951914D01*
X150216803Y-102951914D02*
X150359660Y-103023342D01*
X150359660Y-103023342D02*
X150931089Y-103023342D01*
X148788232Y-103737628D02*
X148788232Y-102951914D01*
X148788232Y-102951914D02*
X148859660Y-102809057D01*
X148859660Y-102809057D02*
X149002517Y-102737628D01*
X149002517Y-102737628D02*
X149288232Y-102737628D01*
X149288232Y-102737628D02*
X149431089Y-102809057D01*
X148788232Y-103666200D02*
X148931089Y-103737628D01*
X148931089Y-103737628D02*
X149288232Y-103737628D01*
X149288232Y-103737628D02*
X149431089Y-103666200D01*
X149431089Y-103666200D02*
X149502517Y-103523342D01*
X149502517Y-103523342D02*
X149502517Y-103380485D01*
X149502517Y-103380485D02*
X149431089Y-103237628D01*
X149431089Y-103237628D02*
X149288232Y-103166200D01*
X149288232Y-103166200D02*
X148931089Y-103166200D01*
X148931089Y-103166200D02*
X148788232Y-103094771D01*
X147431089Y-103666200D02*
X147573946Y-103737628D01*
X147573946Y-103737628D02*
X147859660Y-103737628D01*
X147859660Y-103737628D02*
X148002517Y-103666200D01*
X148002517Y-103666200D02*
X148073946Y-103594771D01*
X148073946Y-103594771D02*
X148145374Y-103451914D01*
X148145374Y-103451914D02*
X148145374Y-103023342D01*
X148145374Y-103023342D02*
X148073946Y-102880485D01*
X148073946Y-102880485D02*
X148002517Y-102809057D01*
X148002517Y-102809057D02*
X147859660Y-102737628D01*
X147859660Y-102737628D02*
X147573946Y-102737628D01*
X147573946Y-102737628D02*
X147431089Y-102809057D01*
X146573946Y-103737628D02*
X146716803Y-103666200D01*
X146716803Y-103666200D02*
X146788232Y-103594771D01*
X146788232Y-103594771D02*
X146859660Y-103451914D01*
X146859660Y-103451914D02*
X146859660Y-103023342D01*
X146859660Y-103023342D02*
X146788232Y-102880485D01*
X146788232Y-102880485D02*
X146716803Y-102809057D01*
X146716803Y-102809057D02*
X146573946Y-102737628D01*
X146573946Y-102737628D02*
X146359660Y-102737628D01*
X146359660Y-102737628D02*
X146216803Y-102809057D01*
X146216803Y-102809057D02*
X146145375Y-102880485D01*
X146145375Y-102880485D02*
X146073946Y-103023342D01*
X146073946Y-103023342D02*
X146073946Y-103451914D01*
X146073946Y-103451914D02*
X146145375Y-103594771D01*
X146145375Y-103594771D02*
X146216803Y-103666200D01*
X146216803Y-103666200D02*
X146359660Y-103737628D01*
X146359660Y-103737628D02*
X146573946Y-103737628D01*
X144288232Y-103594771D02*
X144216803Y-103666200D01*
X144216803Y-103666200D02*
X144288232Y-103737628D01*
X144288232Y-103737628D02*
X144359660Y-103666200D01*
X144359660Y-103666200D02*
X144288232Y-103594771D01*
X144288232Y-103594771D02*
X144288232Y-103737628D01*
X144288232Y-102809057D02*
X144216803Y-102880485D01*
X144216803Y-102880485D02*
X144288232Y-102951914D01*
X144288232Y-102951914D02*
X144359660Y-102880485D01*
X144359660Y-102880485D02*
X144288232Y-102809057D01*
X144288232Y-102809057D02*
X144288232Y-102951914D01*
X143716803Y-102237628D02*
X142788231Y-102237628D01*
X142788231Y-102237628D02*
X143288231Y-102809057D01*
X143288231Y-102809057D02*
X143073946Y-102809057D01*
X143073946Y-102809057D02*
X142931089Y-102880485D01*
X142931089Y-102880485D02*
X142859660Y-102951914D01*
X142859660Y-102951914D02*
X142788231Y-103094771D01*
X142788231Y-103094771D02*
X142788231Y-103451914D01*
X142788231Y-103451914D02*
X142859660Y-103594771D01*
X142859660Y-103594771D02*
X142931089Y-103666200D01*
X142931089Y-103666200D02*
X143073946Y-103737628D01*
X143073946Y-103737628D02*
X143502517Y-103737628D01*
X143502517Y-103737628D02*
X143645374Y-103666200D01*
X143645374Y-103666200D02*
X143716803Y-103594771D01*
X100645546Y-32363628D02*
X101145546Y-31649342D01*
X101502689Y-32363628D02*
X101502689Y-30863628D01*
X101502689Y-30863628D02*
X100931260Y-30863628D01*
X100931260Y-30863628D02*
X100788403Y-30935057D01*
X100788403Y-30935057D02*
X100716974Y-31006485D01*
X100716974Y-31006485D02*
X100645546Y-31149342D01*
X100645546Y-31149342D02*
X100645546Y-31363628D01*
X100645546Y-31363628D02*
X100716974Y-31506485D01*
X100716974Y-31506485D02*
X100788403Y-31577914D01*
X100788403Y-31577914D02*
X100931260Y-31649342D01*
X100931260Y-31649342D02*
X101502689Y-31649342D01*
X100216974Y-30863628D02*
X99359832Y-30863628D01*
X99788403Y-32363628D02*
X99788403Y-30863628D01*
X98002689Y-32220771D02*
X98074117Y-32292200D01*
X98074117Y-32292200D02*
X98288403Y-32363628D01*
X98288403Y-32363628D02*
X98431260Y-32363628D01*
X98431260Y-32363628D02*
X98645546Y-32292200D01*
X98645546Y-32292200D02*
X98788403Y-32149342D01*
X98788403Y-32149342D02*
X98859832Y-32006485D01*
X98859832Y-32006485D02*
X98931260Y-31720771D01*
X98931260Y-31720771D02*
X98931260Y-31506485D01*
X98931260Y-31506485D02*
X98859832Y-31220771D01*
X98859832Y-31220771D02*
X98788403Y-31077914D01*
X98788403Y-31077914D02*
X98645546Y-30935057D01*
X98645546Y-30935057D02*
X98431260Y-30863628D01*
X98431260Y-30863628D02*
X98288403Y-30863628D01*
X98288403Y-30863628D02*
X98074117Y-30935057D01*
X98074117Y-30935057D02*
X98002689Y-31006485D01*
X97359832Y-31792200D02*
X96216975Y-31792200D01*
X95502689Y-32363628D02*
X95502689Y-31363628D01*
X95502689Y-31506485D02*
X95431260Y-31435057D01*
X95431260Y-31435057D02*
X95288403Y-31363628D01*
X95288403Y-31363628D02*
X95074117Y-31363628D01*
X95074117Y-31363628D02*
X94931260Y-31435057D01*
X94931260Y-31435057D02*
X94859832Y-31577914D01*
X94859832Y-31577914D02*
X94859832Y-32363628D01*
X94859832Y-31577914D02*
X94788403Y-31435057D01*
X94788403Y-31435057D02*
X94645546Y-31363628D01*
X94645546Y-31363628D02*
X94431260Y-31363628D01*
X94431260Y-31363628D02*
X94288403Y-31435057D01*
X94288403Y-31435057D02*
X94216974Y-31577914D01*
X94216974Y-31577914D02*
X94216974Y-32363628D01*
X93288403Y-32363628D02*
X93431260Y-32292200D01*
X93431260Y-32292200D02*
X93502689Y-32220771D01*
X93502689Y-32220771D02*
X93574117Y-32077914D01*
X93574117Y-32077914D02*
X93574117Y-31649342D01*
X93574117Y-31649342D02*
X93502689Y-31506485D01*
X93502689Y-31506485D02*
X93431260Y-31435057D01*
X93431260Y-31435057D02*
X93288403Y-31363628D01*
X93288403Y-31363628D02*
X93074117Y-31363628D01*
X93074117Y-31363628D02*
X92931260Y-31435057D01*
X92931260Y-31435057D02*
X92859832Y-31506485D01*
X92859832Y-31506485D02*
X92788403Y-31649342D01*
X92788403Y-31649342D02*
X92788403Y-32077914D01*
X92788403Y-32077914D02*
X92859832Y-32220771D01*
X92859832Y-32220771D02*
X92931260Y-32292200D01*
X92931260Y-32292200D02*
X93074117Y-32363628D01*
X93074117Y-32363628D02*
X93288403Y-32363628D01*
X91502689Y-32363628D02*
X91502689Y-30863628D01*
X91502689Y-32292200D02*
X91645546Y-32363628D01*
X91645546Y-32363628D02*
X91931260Y-32363628D01*
X91931260Y-32363628D02*
X92074117Y-32292200D01*
X92074117Y-32292200D02*
X92145546Y-32220771D01*
X92145546Y-32220771D02*
X92216974Y-32077914D01*
X92216974Y-32077914D02*
X92216974Y-31649342D01*
X92216974Y-31649342D02*
X92145546Y-31506485D01*
X92145546Y-31506485D02*
X92074117Y-31435057D01*
X92074117Y-31435057D02*
X91931260Y-31363628D01*
X91931260Y-31363628D02*
X91645546Y-31363628D01*
X91645546Y-31363628D02*
X91502689Y-31435057D01*
X90145546Y-31363628D02*
X90145546Y-32363628D01*
X90788403Y-31363628D02*
X90788403Y-32149342D01*
X90788403Y-32149342D02*
X90716974Y-32292200D01*
X90716974Y-32292200D02*
X90574117Y-32363628D01*
X90574117Y-32363628D02*
X90359831Y-32363628D01*
X90359831Y-32363628D02*
X90216974Y-32292200D01*
X90216974Y-32292200D02*
X90145546Y-32220771D01*
X89216974Y-32363628D02*
X89359831Y-32292200D01*
X89359831Y-32292200D02*
X89431260Y-32149342D01*
X89431260Y-32149342D02*
X89431260Y-30863628D01*
X88074117Y-32292200D02*
X88216974Y-32363628D01*
X88216974Y-32363628D02*
X88502689Y-32363628D01*
X88502689Y-32363628D02*
X88645546Y-32292200D01*
X88645546Y-32292200D02*
X88716974Y-32149342D01*
X88716974Y-32149342D02*
X88716974Y-31577914D01*
X88716974Y-31577914D02*
X88645546Y-31435057D01*
X88645546Y-31435057D02*
X88502689Y-31363628D01*
X88502689Y-31363628D02*
X88216974Y-31363628D01*
X88216974Y-31363628D02*
X88074117Y-31435057D01*
X88074117Y-31435057D02*
X88002689Y-31577914D01*
X88002689Y-31577914D02*
X88002689Y-31720771D01*
X88002689Y-31720771D02*
X88716974Y-31863628D01*
X150778689Y-64977228D02*
X150778689Y-63477228D01*
X150778689Y-63477228D02*
X150207260Y-63477228D01*
X150207260Y-63477228D02*
X150064403Y-63548657D01*
X150064403Y-63548657D02*
X149992974Y-63620085D01*
X149992974Y-63620085D02*
X149921546Y-63762942D01*
X149921546Y-63762942D02*
X149921546Y-63977228D01*
X149921546Y-63977228D02*
X149992974Y-64120085D01*
X149992974Y-64120085D02*
X150064403Y-64191514D01*
X150064403Y-64191514D02*
X150207260Y-64262942D01*
X150207260Y-64262942D02*
X150778689Y-64262942D01*
X148635832Y-64977228D02*
X148635832Y-64191514D01*
X148635832Y-64191514D02*
X148707260Y-64048657D01*
X148707260Y-64048657D02*
X148850117Y-63977228D01*
X148850117Y-63977228D02*
X149135832Y-63977228D01*
X149135832Y-63977228D02*
X149278689Y-64048657D01*
X148635832Y-64905800D02*
X148778689Y-64977228D01*
X148778689Y-64977228D02*
X149135832Y-64977228D01*
X149135832Y-64977228D02*
X149278689Y-64905800D01*
X149278689Y-64905800D02*
X149350117Y-64762942D01*
X149350117Y-64762942D02*
X149350117Y-64620085D01*
X149350117Y-64620085D02*
X149278689Y-64477228D01*
X149278689Y-64477228D02*
X149135832Y-64405800D01*
X149135832Y-64405800D02*
X148778689Y-64405800D01*
X148778689Y-64405800D02*
X148635832Y-64334371D01*
X147278689Y-64905800D02*
X147421546Y-64977228D01*
X147421546Y-64977228D02*
X147707260Y-64977228D01*
X147707260Y-64977228D02*
X147850117Y-64905800D01*
X147850117Y-64905800D02*
X147921546Y-64834371D01*
X147921546Y-64834371D02*
X147992974Y-64691514D01*
X147992974Y-64691514D02*
X147992974Y-64262942D01*
X147992974Y-64262942D02*
X147921546Y-64120085D01*
X147921546Y-64120085D02*
X147850117Y-64048657D01*
X147850117Y-64048657D02*
X147707260Y-63977228D01*
X147707260Y-63977228D02*
X147421546Y-63977228D01*
X147421546Y-63977228D02*
X147278689Y-64048657D01*
X146421546Y-64977228D02*
X146564403Y-64905800D01*
X146564403Y-64905800D02*
X146635832Y-64834371D01*
X146635832Y-64834371D02*
X146707260Y-64691514D01*
X146707260Y-64691514D02*
X146707260Y-64262942D01*
X146707260Y-64262942D02*
X146635832Y-64120085D01*
X146635832Y-64120085D02*
X146564403Y-64048657D01*
X146564403Y-64048657D02*
X146421546Y-63977228D01*
X146421546Y-63977228D02*
X146207260Y-63977228D01*
X146207260Y-63977228D02*
X146064403Y-64048657D01*
X146064403Y-64048657D02*
X145992975Y-64120085D01*
X145992975Y-64120085D02*
X145921546Y-64262942D01*
X145921546Y-64262942D02*
X145921546Y-64691514D01*
X145921546Y-64691514D02*
X145992975Y-64834371D01*
X145992975Y-64834371D02*
X146064403Y-64905800D01*
X146064403Y-64905800D02*
X146207260Y-64977228D01*
X146207260Y-64977228D02*
X146421546Y-64977228D01*
X144135832Y-64834371D02*
X144064403Y-64905800D01*
X144064403Y-64905800D02*
X144135832Y-64977228D01*
X144135832Y-64977228D02*
X144207260Y-64905800D01*
X144207260Y-64905800D02*
X144135832Y-64834371D01*
X144135832Y-64834371D02*
X144135832Y-64977228D01*
X144135832Y-64048657D02*
X144064403Y-64120085D01*
X144064403Y-64120085D02*
X144135832Y-64191514D01*
X144135832Y-64191514D02*
X144207260Y-64120085D01*
X144207260Y-64120085D02*
X144135832Y-64048657D01*
X144135832Y-64048657D02*
X144135832Y-64191514D01*
X143564403Y-63477228D02*
X142635831Y-63477228D01*
X142635831Y-63477228D02*
X143135831Y-64048657D01*
X143135831Y-64048657D02*
X142921546Y-64048657D01*
X142921546Y-64048657D02*
X142778689Y-64120085D01*
X142778689Y-64120085D02*
X142707260Y-64191514D01*
X142707260Y-64191514D02*
X142635831Y-64334371D01*
X142635831Y-64334371D02*
X142635831Y-64691514D01*
X142635831Y-64691514D02*
X142707260Y-64834371D01*
X142707260Y-64834371D02*
X142778689Y-64905800D01*
X142778689Y-64905800D02*
X142921546Y-64977228D01*
X142921546Y-64977228D02*
X143350117Y-64977228D01*
X143350117Y-64977228D02*
X143492974Y-64905800D01*
X143492974Y-64905800D02*
X143564403Y-64834371D01*
X100797946Y-71124028D02*
X101297946Y-70409742D01*
X101655089Y-71124028D02*
X101655089Y-69624028D01*
X101655089Y-69624028D02*
X101083660Y-69624028D01*
X101083660Y-69624028D02*
X100940803Y-69695457D01*
X100940803Y-69695457D02*
X100869374Y-69766885D01*
X100869374Y-69766885D02*
X100797946Y-69909742D01*
X100797946Y-69909742D02*
X100797946Y-70124028D01*
X100797946Y-70124028D02*
X100869374Y-70266885D01*
X100869374Y-70266885D02*
X100940803Y-70338314D01*
X100940803Y-70338314D02*
X101083660Y-70409742D01*
X101083660Y-70409742D02*
X101655089Y-70409742D01*
X100369374Y-69624028D02*
X99512232Y-69624028D01*
X99940803Y-71124028D02*
X99940803Y-69624028D01*
X98155089Y-70981171D02*
X98226517Y-71052600D01*
X98226517Y-71052600D02*
X98440803Y-71124028D01*
X98440803Y-71124028D02*
X98583660Y-71124028D01*
X98583660Y-71124028D02*
X98797946Y-71052600D01*
X98797946Y-71052600D02*
X98940803Y-70909742D01*
X98940803Y-70909742D02*
X99012232Y-70766885D01*
X99012232Y-70766885D02*
X99083660Y-70481171D01*
X99083660Y-70481171D02*
X99083660Y-70266885D01*
X99083660Y-70266885D02*
X99012232Y-69981171D01*
X99012232Y-69981171D02*
X98940803Y-69838314D01*
X98940803Y-69838314D02*
X98797946Y-69695457D01*
X98797946Y-69695457D02*
X98583660Y-69624028D01*
X98583660Y-69624028D02*
X98440803Y-69624028D01*
X98440803Y-69624028D02*
X98226517Y-69695457D01*
X98226517Y-69695457D02*
X98155089Y-69766885D01*
X97512232Y-70552600D02*
X96369375Y-70552600D01*
X95655089Y-71124028D02*
X95655089Y-70124028D01*
X95655089Y-70266885D02*
X95583660Y-70195457D01*
X95583660Y-70195457D02*
X95440803Y-70124028D01*
X95440803Y-70124028D02*
X95226517Y-70124028D01*
X95226517Y-70124028D02*
X95083660Y-70195457D01*
X95083660Y-70195457D02*
X95012232Y-70338314D01*
X95012232Y-70338314D02*
X95012232Y-71124028D01*
X95012232Y-70338314D02*
X94940803Y-70195457D01*
X94940803Y-70195457D02*
X94797946Y-70124028D01*
X94797946Y-70124028D02*
X94583660Y-70124028D01*
X94583660Y-70124028D02*
X94440803Y-70195457D01*
X94440803Y-70195457D02*
X94369374Y-70338314D01*
X94369374Y-70338314D02*
X94369374Y-71124028D01*
X93440803Y-71124028D02*
X93583660Y-71052600D01*
X93583660Y-71052600D02*
X93655089Y-70981171D01*
X93655089Y-70981171D02*
X93726517Y-70838314D01*
X93726517Y-70838314D02*
X93726517Y-70409742D01*
X93726517Y-70409742D02*
X93655089Y-70266885D01*
X93655089Y-70266885D02*
X93583660Y-70195457D01*
X93583660Y-70195457D02*
X93440803Y-70124028D01*
X93440803Y-70124028D02*
X93226517Y-70124028D01*
X93226517Y-70124028D02*
X93083660Y-70195457D01*
X93083660Y-70195457D02*
X93012232Y-70266885D01*
X93012232Y-70266885D02*
X92940803Y-70409742D01*
X92940803Y-70409742D02*
X92940803Y-70838314D01*
X92940803Y-70838314D02*
X93012232Y-70981171D01*
X93012232Y-70981171D02*
X93083660Y-71052600D01*
X93083660Y-71052600D02*
X93226517Y-71124028D01*
X93226517Y-71124028D02*
X93440803Y-71124028D01*
X91655089Y-71124028D02*
X91655089Y-69624028D01*
X91655089Y-71052600D02*
X91797946Y-71124028D01*
X91797946Y-71124028D02*
X92083660Y-71124028D01*
X92083660Y-71124028D02*
X92226517Y-71052600D01*
X92226517Y-71052600D02*
X92297946Y-70981171D01*
X92297946Y-70981171D02*
X92369374Y-70838314D01*
X92369374Y-70838314D02*
X92369374Y-70409742D01*
X92369374Y-70409742D02*
X92297946Y-70266885D01*
X92297946Y-70266885D02*
X92226517Y-70195457D01*
X92226517Y-70195457D02*
X92083660Y-70124028D01*
X92083660Y-70124028D02*
X91797946Y-70124028D01*
X91797946Y-70124028D02*
X91655089Y-70195457D01*
X90297946Y-70124028D02*
X90297946Y-71124028D01*
X90940803Y-70124028D02*
X90940803Y-70909742D01*
X90940803Y-70909742D02*
X90869374Y-71052600D01*
X90869374Y-71052600D02*
X90726517Y-71124028D01*
X90726517Y-71124028D02*
X90512231Y-71124028D01*
X90512231Y-71124028D02*
X90369374Y-71052600D01*
X90369374Y-71052600D02*
X90297946Y-70981171D01*
X89369374Y-71124028D02*
X89512231Y-71052600D01*
X89512231Y-71052600D02*
X89583660Y-70909742D01*
X89583660Y-70909742D02*
X89583660Y-69624028D01*
X88226517Y-71052600D02*
X88369374Y-71124028D01*
X88369374Y-71124028D02*
X88655089Y-71124028D01*
X88655089Y-71124028D02*
X88797946Y-71052600D01*
X88797946Y-71052600D02*
X88869374Y-70909742D01*
X88869374Y-70909742D02*
X88869374Y-70338314D01*
X88869374Y-70338314D02*
X88797946Y-70195457D01*
X88797946Y-70195457D02*
X88655089Y-70124028D01*
X88655089Y-70124028D02*
X88369374Y-70124028D01*
X88369374Y-70124028D02*
X88226517Y-70195457D01*
X88226517Y-70195457D02*
X88155089Y-70338314D01*
X88155089Y-70338314D02*
X88155089Y-70481171D01*
X88155089Y-70481171D02*
X88869374Y-70624028D01*
X102823489Y-103280428D02*
X102823489Y-101780428D01*
X102823489Y-101780428D02*
X102252060Y-101780428D01*
X102252060Y-101780428D02*
X102109203Y-101851857D01*
X102109203Y-101851857D02*
X102037774Y-101923285D01*
X102037774Y-101923285D02*
X101966346Y-102066142D01*
X101966346Y-102066142D02*
X101966346Y-102280428D01*
X101966346Y-102280428D02*
X102037774Y-102423285D01*
X102037774Y-102423285D02*
X102109203Y-102494714D01*
X102109203Y-102494714D02*
X102252060Y-102566142D01*
X102252060Y-102566142D02*
X102823489Y-102566142D01*
X100680632Y-103280428D02*
X100680632Y-102494714D01*
X100680632Y-102494714D02*
X100752060Y-102351857D01*
X100752060Y-102351857D02*
X100894917Y-102280428D01*
X100894917Y-102280428D02*
X101180632Y-102280428D01*
X101180632Y-102280428D02*
X101323489Y-102351857D01*
X100680632Y-103209000D02*
X100823489Y-103280428D01*
X100823489Y-103280428D02*
X101180632Y-103280428D01*
X101180632Y-103280428D02*
X101323489Y-103209000D01*
X101323489Y-103209000D02*
X101394917Y-103066142D01*
X101394917Y-103066142D02*
X101394917Y-102923285D01*
X101394917Y-102923285D02*
X101323489Y-102780428D01*
X101323489Y-102780428D02*
X101180632Y-102709000D01*
X101180632Y-102709000D02*
X100823489Y-102709000D01*
X100823489Y-102709000D02*
X100680632Y-102637571D01*
X99323489Y-103209000D02*
X99466346Y-103280428D01*
X99466346Y-103280428D02*
X99752060Y-103280428D01*
X99752060Y-103280428D02*
X99894917Y-103209000D01*
X99894917Y-103209000D02*
X99966346Y-103137571D01*
X99966346Y-103137571D02*
X100037774Y-102994714D01*
X100037774Y-102994714D02*
X100037774Y-102566142D01*
X100037774Y-102566142D02*
X99966346Y-102423285D01*
X99966346Y-102423285D02*
X99894917Y-102351857D01*
X99894917Y-102351857D02*
X99752060Y-102280428D01*
X99752060Y-102280428D02*
X99466346Y-102280428D01*
X99466346Y-102280428D02*
X99323489Y-102351857D01*
X98466346Y-103280428D02*
X98609203Y-103209000D01*
X98609203Y-103209000D02*
X98680632Y-103137571D01*
X98680632Y-103137571D02*
X98752060Y-102994714D01*
X98752060Y-102994714D02*
X98752060Y-102566142D01*
X98752060Y-102566142D02*
X98680632Y-102423285D01*
X98680632Y-102423285D02*
X98609203Y-102351857D01*
X98609203Y-102351857D02*
X98466346Y-102280428D01*
X98466346Y-102280428D02*
X98252060Y-102280428D01*
X98252060Y-102280428D02*
X98109203Y-102351857D01*
X98109203Y-102351857D02*
X98037775Y-102423285D01*
X98037775Y-102423285D02*
X97966346Y-102566142D01*
X97966346Y-102566142D02*
X97966346Y-102994714D01*
X97966346Y-102994714D02*
X98037775Y-103137571D01*
X98037775Y-103137571D02*
X98109203Y-103209000D01*
X98109203Y-103209000D02*
X98252060Y-103280428D01*
X98252060Y-103280428D02*
X98466346Y-103280428D01*
X96180632Y-103137571D02*
X96109203Y-103209000D01*
X96109203Y-103209000D02*
X96180632Y-103280428D01*
X96180632Y-103280428D02*
X96252060Y-103209000D01*
X96252060Y-103209000D02*
X96180632Y-103137571D01*
X96180632Y-103137571D02*
X96180632Y-103280428D01*
X96180632Y-102351857D02*
X96109203Y-102423285D01*
X96109203Y-102423285D02*
X96180632Y-102494714D01*
X96180632Y-102494714D02*
X96252060Y-102423285D01*
X96252060Y-102423285D02*
X96180632Y-102351857D01*
X96180632Y-102351857D02*
X96180632Y-102494714D01*
X95609203Y-101780428D02*
X94680631Y-101780428D01*
X94680631Y-101780428D02*
X95180631Y-102351857D01*
X95180631Y-102351857D02*
X94966346Y-102351857D01*
X94966346Y-102351857D02*
X94823489Y-102423285D01*
X94823489Y-102423285D02*
X94752060Y-102494714D01*
X94752060Y-102494714D02*
X94680631Y-102637571D01*
X94680631Y-102637571D02*
X94680631Y-102994714D01*
X94680631Y-102994714D02*
X94752060Y-103137571D01*
X94752060Y-103137571D02*
X94823489Y-103209000D01*
X94823489Y-103209000D02*
X94966346Y-103280428D01*
X94966346Y-103280428D02*
X95394917Y-103280428D01*
X95394917Y-103280428D02*
X95537774Y-103209000D01*
X95537774Y-103209000D02*
X95609203Y-103137571D01*
X149057946Y-110341628D02*
X149557946Y-109627342D01*
X149915089Y-110341628D02*
X149915089Y-108841628D01*
X149915089Y-108841628D02*
X149343660Y-108841628D01*
X149343660Y-108841628D02*
X149200803Y-108913057D01*
X149200803Y-108913057D02*
X149129374Y-108984485D01*
X149129374Y-108984485D02*
X149057946Y-109127342D01*
X149057946Y-109127342D02*
X149057946Y-109341628D01*
X149057946Y-109341628D02*
X149129374Y-109484485D01*
X149129374Y-109484485D02*
X149200803Y-109555914D01*
X149200803Y-109555914D02*
X149343660Y-109627342D01*
X149343660Y-109627342D02*
X149915089Y-109627342D01*
X148629374Y-108841628D02*
X147772232Y-108841628D01*
X148200803Y-110341628D02*
X148200803Y-108841628D01*
X146415089Y-110198771D02*
X146486517Y-110270200D01*
X146486517Y-110270200D02*
X146700803Y-110341628D01*
X146700803Y-110341628D02*
X146843660Y-110341628D01*
X146843660Y-110341628D02*
X147057946Y-110270200D01*
X147057946Y-110270200D02*
X147200803Y-110127342D01*
X147200803Y-110127342D02*
X147272232Y-109984485D01*
X147272232Y-109984485D02*
X147343660Y-109698771D01*
X147343660Y-109698771D02*
X147343660Y-109484485D01*
X147343660Y-109484485D02*
X147272232Y-109198771D01*
X147272232Y-109198771D02*
X147200803Y-109055914D01*
X147200803Y-109055914D02*
X147057946Y-108913057D01*
X147057946Y-108913057D02*
X146843660Y-108841628D01*
X146843660Y-108841628D02*
X146700803Y-108841628D01*
X146700803Y-108841628D02*
X146486517Y-108913057D01*
X146486517Y-108913057D02*
X146415089Y-108984485D01*
X145772232Y-109770200D02*
X144629375Y-109770200D01*
X143915089Y-110341628D02*
X143915089Y-109341628D01*
X143915089Y-109484485D02*
X143843660Y-109413057D01*
X143843660Y-109413057D02*
X143700803Y-109341628D01*
X143700803Y-109341628D02*
X143486517Y-109341628D01*
X143486517Y-109341628D02*
X143343660Y-109413057D01*
X143343660Y-109413057D02*
X143272232Y-109555914D01*
X143272232Y-109555914D02*
X143272232Y-110341628D01*
X143272232Y-109555914D02*
X143200803Y-109413057D01*
X143200803Y-109413057D02*
X143057946Y-109341628D01*
X143057946Y-109341628D02*
X142843660Y-109341628D01*
X142843660Y-109341628D02*
X142700803Y-109413057D01*
X142700803Y-109413057D02*
X142629374Y-109555914D01*
X142629374Y-109555914D02*
X142629374Y-110341628D01*
X141700803Y-110341628D02*
X141843660Y-110270200D01*
X141843660Y-110270200D02*
X141915089Y-110198771D01*
X141915089Y-110198771D02*
X141986517Y-110055914D01*
X141986517Y-110055914D02*
X141986517Y-109627342D01*
X141986517Y-109627342D02*
X141915089Y-109484485D01*
X141915089Y-109484485D02*
X141843660Y-109413057D01*
X141843660Y-109413057D02*
X141700803Y-109341628D01*
X141700803Y-109341628D02*
X141486517Y-109341628D01*
X141486517Y-109341628D02*
X141343660Y-109413057D01*
X141343660Y-109413057D02*
X141272232Y-109484485D01*
X141272232Y-109484485D02*
X141200803Y-109627342D01*
X141200803Y-109627342D02*
X141200803Y-110055914D01*
X141200803Y-110055914D02*
X141272232Y-110198771D01*
X141272232Y-110198771D02*
X141343660Y-110270200D01*
X141343660Y-110270200D02*
X141486517Y-110341628D01*
X141486517Y-110341628D02*
X141700803Y-110341628D01*
X139915089Y-110341628D02*
X139915089Y-108841628D01*
X139915089Y-110270200D02*
X140057946Y-110341628D01*
X140057946Y-110341628D02*
X140343660Y-110341628D01*
X140343660Y-110341628D02*
X140486517Y-110270200D01*
X140486517Y-110270200D02*
X140557946Y-110198771D01*
X140557946Y-110198771D02*
X140629374Y-110055914D01*
X140629374Y-110055914D02*
X140629374Y-109627342D01*
X140629374Y-109627342D02*
X140557946Y-109484485D01*
X140557946Y-109484485D02*
X140486517Y-109413057D01*
X140486517Y-109413057D02*
X140343660Y-109341628D01*
X140343660Y-109341628D02*
X140057946Y-109341628D01*
X140057946Y-109341628D02*
X139915089Y-109413057D01*
X138557946Y-109341628D02*
X138557946Y-110341628D01*
X139200803Y-109341628D02*
X139200803Y-110127342D01*
X139200803Y-110127342D02*
X139129374Y-110270200D01*
X139129374Y-110270200D02*
X138986517Y-110341628D01*
X138986517Y-110341628D02*
X138772231Y-110341628D01*
X138772231Y-110341628D02*
X138629374Y-110270200D01*
X138629374Y-110270200D02*
X138557946Y-110198771D01*
X137629374Y-110341628D02*
X137772231Y-110270200D01*
X137772231Y-110270200D02*
X137843660Y-110127342D01*
X137843660Y-110127342D02*
X137843660Y-108841628D01*
X136486517Y-110270200D02*
X136629374Y-110341628D01*
X136629374Y-110341628D02*
X136915089Y-110341628D01*
X136915089Y-110341628D02*
X137057946Y-110270200D01*
X137057946Y-110270200D02*
X137129374Y-110127342D01*
X137129374Y-110127342D02*
X137129374Y-109555914D01*
X137129374Y-109555914D02*
X137057946Y-109413057D01*
X137057946Y-109413057D02*
X136915089Y-109341628D01*
X136915089Y-109341628D02*
X136629374Y-109341628D01*
X136629374Y-109341628D02*
X136486517Y-109413057D01*
X136486517Y-109413057D02*
X136415089Y-109555914D01*
X136415089Y-109555914D02*
X136415089Y-109698771D01*
X136415089Y-109698771D02*
X137129374Y-109841628D01*
X151083489Y-142498028D02*
X151083489Y-140998028D01*
X151083489Y-140998028D02*
X150512060Y-140998028D01*
X150512060Y-140998028D02*
X150369203Y-141069457D01*
X150369203Y-141069457D02*
X150297774Y-141140885D01*
X150297774Y-141140885D02*
X150226346Y-141283742D01*
X150226346Y-141283742D02*
X150226346Y-141498028D01*
X150226346Y-141498028D02*
X150297774Y-141640885D01*
X150297774Y-141640885D02*
X150369203Y-141712314D01*
X150369203Y-141712314D02*
X150512060Y-141783742D01*
X150512060Y-141783742D02*
X151083489Y-141783742D01*
X148940632Y-142498028D02*
X148940632Y-141712314D01*
X148940632Y-141712314D02*
X149012060Y-141569457D01*
X149012060Y-141569457D02*
X149154917Y-141498028D01*
X149154917Y-141498028D02*
X149440632Y-141498028D01*
X149440632Y-141498028D02*
X149583489Y-141569457D01*
X148940632Y-142426600D02*
X149083489Y-142498028D01*
X149083489Y-142498028D02*
X149440632Y-142498028D01*
X149440632Y-142498028D02*
X149583489Y-142426600D01*
X149583489Y-142426600D02*
X149654917Y-142283742D01*
X149654917Y-142283742D02*
X149654917Y-142140885D01*
X149654917Y-142140885D02*
X149583489Y-141998028D01*
X149583489Y-141998028D02*
X149440632Y-141926600D01*
X149440632Y-141926600D02*
X149083489Y-141926600D01*
X149083489Y-141926600D02*
X148940632Y-141855171D01*
X147583489Y-142426600D02*
X147726346Y-142498028D01*
X147726346Y-142498028D02*
X148012060Y-142498028D01*
X148012060Y-142498028D02*
X148154917Y-142426600D01*
X148154917Y-142426600D02*
X148226346Y-142355171D01*
X148226346Y-142355171D02*
X148297774Y-142212314D01*
X148297774Y-142212314D02*
X148297774Y-141783742D01*
X148297774Y-141783742D02*
X148226346Y-141640885D01*
X148226346Y-141640885D02*
X148154917Y-141569457D01*
X148154917Y-141569457D02*
X148012060Y-141498028D01*
X148012060Y-141498028D02*
X147726346Y-141498028D01*
X147726346Y-141498028D02*
X147583489Y-141569457D01*
X146726346Y-142498028D02*
X146869203Y-142426600D01*
X146869203Y-142426600D02*
X146940632Y-142355171D01*
X146940632Y-142355171D02*
X147012060Y-142212314D01*
X147012060Y-142212314D02*
X147012060Y-141783742D01*
X147012060Y-141783742D02*
X146940632Y-141640885D01*
X146940632Y-141640885D02*
X146869203Y-141569457D01*
X146869203Y-141569457D02*
X146726346Y-141498028D01*
X146726346Y-141498028D02*
X146512060Y-141498028D01*
X146512060Y-141498028D02*
X146369203Y-141569457D01*
X146369203Y-141569457D02*
X146297775Y-141640885D01*
X146297775Y-141640885D02*
X146226346Y-141783742D01*
X146226346Y-141783742D02*
X146226346Y-142212314D01*
X146226346Y-142212314D02*
X146297775Y-142355171D01*
X146297775Y-142355171D02*
X146369203Y-142426600D01*
X146369203Y-142426600D02*
X146512060Y-142498028D01*
X146512060Y-142498028D02*
X146726346Y-142498028D01*
X144440632Y-142355171D02*
X144369203Y-142426600D01*
X144369203Y-142426600D02*
X144440632Y-142498028D01*
X144440632Y-142498028D02*
X144512060Y-142426600D01*
X144512060Y-142426600D02*
X144440632Y-142355171D01*
X144440632Y-142355171D02*
X144440632Y-142498028D01*
X144440632Y-141569457D02*
X144369203Y-141640885D01*
X144369203Y-141640885D02*
X144440632Y-141712314D01*
X144440632Y-141712314D02*
X144512060Y-141640885D01*
X144512060Y-141640885D02*
X144440632Y-141569457D01*
X144440632Y-141569457D02*
X144440632Y-141712314D01*
X143869203Y-140998028D02*
X142940631Y-140998028D01*
X142940631Y-140998028D02*
X143440631Y-141569457D01*
X143440631Y-141569457D02*
X143226346Y-141569457D01*
X143226346Y-141569457D02*
X143083489Y-141640885D01*
X143083489Y-141640885D02*
X143012060Y-141712314D01*
X143012060Y-141712314D02*
X142940631Y-141855171D01*
X142940631Y-141855171D02*
X142940631Y-142212314D01*
X142940631Y-142212314D02*
X143012060Y-142355171D01*
X143012060Y-142355171D02*
X143083489Y-142426600D01*
X143083489Y-142426600D02*
X143226346Y-142498028D01*
X143226346Y-142498028D02*
X143654917Y-142498028D01*
X143654917Y-142498028D02*
X143797774Y-142426600D01*
X143797774Y-142426600D02*
X143869203Y-142355171D01*
X100950346Y-109884428D02*
X101450346Y-109170142D01*
X101807489Y-109884428D02*
X101807489Y-108384428D01*
X101807489Y-108384428D02*
X101236060Y-108384428D01*
X101236060Y-108384428D02*
X101093203Y-108455857D01*
X101093203Y-108455857D02*
X101021774Y-108527285D01*
X101021774Y-108527285D02*
X100950346Y-108670142D01*
X100950346Y-108670142D02*
X100950346Y-108884428D01*
X100950346Y-108884428D02*
X101021774Y-109027285D01*
X101021774Y-109027285D02*
X101093203Y-109098714D01*
X101093203Y-109098714D02*
X101236060Y-109170142D01*
X101236060Y-109170142D02*
X101807489Y-109170142D01*
X100521774Y-108384428D02*
X99664632Y-108384428D01*
X100093203Y-109884428D02*
X100093203Y-108384428D01*
X98307489Y-109741571D02*
X98378917Y-109813000D01*
X98378917Y-109813000D02*
X98593203Y-109884428D01*
X98593203Y-109884428D02*
X98736060Y-109884428D01*
X98736060Y-109884428D02*
X98950346Y-109813000D01*
X98950346Y-109813000D02*
X99093203Y-109670142D01*
X99093203Y-109670142D02*
X99164632Y-109527285D01*
X99164632Y-109527285D02*
X99236060Y-109241571D01*
X99236060Y-109241571D02*
X99236060Y-109027285D01*
X99236060Y-109027285D02*
X99164632Y-108741571D01*
X99164632Y-108741571D02*
X99093203Y-108598714D01*
X99093203Y-108598714D02*
X98950346Y-108455857D01*
X98950346Y-108455857D02*
X98736060Y-108384428D01*
X98736060Y-108384428D02*
X98593203Y-108384428D01*
X98593203Y-108384428D02*
X98378917Y-108455857D01*
X98378917Y-108455857D02*
X98307489Y-108527285D01*
X97664632Y-109313000D02*
X96521775Y-109313000D01*
X95807489Y-109884428D02*
X95807489Y-108884428D01*
X95807489Y-109027285D02*
X95736060Y-108955857D01*
X95736060Y-108955857D02*
X95593203Y-108884428D01*
X95593203Y-108884428D02*
X95378917Y-108884428D01*
X95378917Y-108884428D02*
X95236060Y-108955857D01*
X95236060Y-108955857D02*
X95164632Y-109098714D01*
X95164632Y-109098714D02*
X95164632Y-109884428D01*
X95164632Y-109098714D02*
X95093203Y-108955857D01*
X95093203Y-108955857D02*
X94950346Y-108884428D01*
X94950346Y-108884428D02*
X94736060Y-108884428D01*
X94736060Y-108884428D02*
X94593203Y-108955857D01*
X94593203Y-108955857D02*
X94521774Y-109098714D01*
X94521774Y-109098714D02*
X94521774Y-109884428D01*
X93593203Y-109884428D02*
X93736060Y-109813000D01*
X93736060Y-109813000D02*
X93807489Y-109741571D01*
X93807489Y-109741571D02*
X93878917Y-109598714D01*
X93878917Y-109598714D02*
X93878917Y-109170142D01*
X93878917Y-109170142D02*
X93807489Y-109027285D01*
X93807489Y-109027285D02*
X93736060Y-108955857D01*
X93736060Y-108955857D02*
X93593203Y-108884428D01*
X93593203Y-108884428D02*
X93378917Y-108884428D01*
X93378917Y-108884428D02*
X93236060Y-108955857D01*
X93236060Y-108955857D02*
X93164632Y-109027285D01*
X93164632Y-109027285D02*
X93093203Y-109170142D01*
X93093203Y-109170142D02*
X93093203Y-109598714D01*
X93093203Y-109598714D02*
X93164632Y-109741571D01*
X93164632Y-109741571D02*
X93236060Y-109813000D01*
X93236060Y-109813000D02*
X93378917Y-109884428D01*
X93378917Y-109884428D02*
X93593203Y-109884428D01*
X91807489Y-109884428D02*
X91807489Y-108384428D01*
X91807489Y-109813000D02*
X91950346Y-109884428D01*
X91950346Y-109884428D02*
X92236060Y-109884428D01*
X92236060Y-109884428D02*
X92378917Y-109813000D01*
X92378917Y-109813000D02*
X92450346Y-109741571D01*
X92450346Y-109741571D02*
X92521774Y-109598714D01*
X92521774Y-109598714D02*
X92521774Y-109170142D01*
X92521774Y-109170142D02*
X92450346Y-109027285D01*
X92450346Y-109027285D02*
X92378917Y-108955857D01*
X92378917Y-108955857D02*
X92236060Y-108884428D01*
X92236060Y-108884428D02*
X91950346Y-108884428D01*
X91950346Y-108884428D02*
X91807489Y-108955857D01*
X90450346Y-108884428D02*
X90450346Y-109884428D01*
X91093203Y-108884428D02*
X91093203Y-109670142D01*
X91093203Y-109670142D02*
X91021774Y-109813000D01*
X91021774Y-109813000D02*
X90878917Y-109884428D01*
X90878917Y-109884428D02*
X90664631Y-109884428D01*
X90664631Y-109884428D02*
X90521774Y-109813000D01*
X90521774Y-109813000D02*
X90450346Y-109741571D01*
X89521774Y-109884428D02*
X89664631Y-109813000D01*
X89664631Y-109813000D02*
X89736060Y-109670142D01*
X89736060Y-109670142D02*
X89736060Y-108384428D01*
X88378917Y-109813000D02*
X88521774Y-109884428D01*
X88521774Y-109884428D02*
X88807489Y-109884428D01*
X88807489Y-109884428D02*
X88950346Y-109813000D01*
X88950346Y-109813000D02*
X89021774Y-109670142D01*
X89021774Y-109670142D02*
X89021774Y-109098714D01*
X89021774Y-109098714D02*
X88950346Y-108955857D01*
X88950346Y-108955857D02*
X88807489Y-108884428D01*
X88807489Y-108884428D02*
X88521774Y-108884428D01*
X88521774Y-108884428D02*
X88378917Y-108955857D01*
X88378917Y-108955857D02*
X88307489Y-109098714D01*
X88307489Y-109098714D02*
X88307489Y-109241571D01*
X88307489Y-109241571D02*
X89021774Y-109384428D01*
X102975889Y-142040828D02*
X102975889Y-140540828D01*
X102975889Y-140540828D02*
X102404460Y-140540828D01*
X102404460Y-140540828D02*
X102261603Y-140612257D01*
X102261603Y-140612257D02*
X102190174Y-140683685D01*
X102190174Y-140683685D02*
X102118746Y-140826542D01*
X102118746Y-140826542D02*
X102118746Y-141040828D01*
X102118746Y-141040828D02*
X102190174Y-141183685D01*
X102190174Y-141183685D02*
X102261603Y-141255114D01*
X102261603Y-141255114D02*
X102404460Y-141326542D01*
X102404460Y-141326542D02*
X102975889Y-141326542D01*
X100833032Y-142040828D02*
X100833032Y-141255114D01*
X100833032Y-141255114D02*
X100904460Y-141112257D01*
X100904460Y-141112257D02*
X101047317Y-141040828D01*
X101047317Y-141040828D02*
X101333032Y-141040828D01*
X101333032Y-141040828D02*
X101475889Y-141112257D01*
X100833032Y-141969400D02*
X100975889Y-142040828D01*
X100975889Y-142040828D02*
X101333032Y-142040828D01*
X101333032Y-142040828D02*
X101475889Y-141969400D01*
X101475889Y-141969400D02*
X101547317Y-141826542D01*
X101547317Y-141826542D02*
X101547317Y-141683685D01*
X101547317Y-141683685D02*
X101475889Y-141540828D01*
X101475889Y-141540828D02*
X101333032Y-141469400D01*
X101333032Y-141469400D02*
X100975889Y-141469400D01*
X100975889Y-141469400D02*
X100833032Y-141397971D01*
X99475889Y-141969400D02*
X99618746Y-142040828D01*
X99618746Y-142040828D02*
X99904460Y-142040828D01*
X99904460Y-142040828D02*
X100047317Y-141969400D01*
X100047317Y-141969400D02*
X100118746Y-141897971D01*
X100118746Y-141897971D02*
X100190174Y-141755114D01*
X100190174Y-141755114D02*
X100190174Y-141326542D01*
X100190174Y-141326542D02*
X100118746Y-141183685D01*
X100118746Y-141183685D02*
X100047317Y-141112257D01*
X100047317Y-141112257D02*
X99904460Y-141040828D01*
X99904460Y-141040828D02*
X99618746Y-141040828D01*
X99618746Y-141040828D02*
X99475889Y-141112257D01*
X98618746Y-142040828D02*
X98761603Y-141969400D01*
X98761603Y-141969400D02*
X98833032Y-141897971D01*
X98833032Y-141897971D02*
X98904460Y-141755114D01*
X98904460Y-141755114D02*
X98904460Y-141326542D01*
X98904460Y-141326542D02*
X98833032Y-141183685D01*
X98833032Y-141183685D02*
X98761603Y-141112257D01*
X98761603Y-141112257D02*
X98618746Y-141040828D01*
X98618746Y-141040828D02*
X98404460Y-141040828D01*
X98404460Y-141040828D02*
X98261603Y-141112257D01*
X98261603Y-141112257D02*
X98190175Y-141183685D01*
X98190175Y-141183685D02*
X98118746Y-141326542D01*
X98118746Y-141326542D02*
X98118746Y-141755114D01*
X98118746Y-141755114D02*
X98190175Y-141897971D01*
X98190175Y-141897971D02*
X98261603Y-141969400D01*
X98261603Y-141969400D02*
X98404460Y-142040828D01*
X98404460Y-142040828D02*
X98618746Y-142040828D01*
X96333032Y-141897971D02*
X96261603Y-141969400D01*
X96261603Y-141969400D02*
X96333032Y-142040828D01*
X96333032Y-142040828D02*
X96404460Y-141969400D01*
X96404460Y-141969400D02*
X96333032Y-141897971D01*
X96333032Y-141897971D02*
X96333032Y-142040828D01*
X96333032Y-141112257D02*
X96261603Y-141183685D01*
X96261603Y-141183685D02*
X96333032Y-141255114D01*
X96333032Y-141255114D02*
X96404460Y-141183685D01*
X96404460Y-141183685D02*
X96333032Y-141112257D01*
X96333032Y-141112257D02*
X96333032Y-141255114D01*
X95761603Y-140540828D02*
X94833031Y-140540828D01*
X94833031Y-140540828D02*
X95333031Y-141112257D01*
X95333031Y-141112257D02*
X95118746Y-141112257D01*
X95118746Y-141112257D02*
X94975889Y-141183685D01*
X94975889Y-141183685D02*
X94904460Y-141255114D01*
X94904460Y-141255114D02*
X94833031Y-141397971D01*
X94833031Y-141397971D02*
X94833031Y-141755114D01*
X94833031Y-141755114D02*
X94904460Y-141897971D01*
X94904460Y-141897971D02*
X94975889Y-141969400D01*
X94975889Y-141969400D02*
X95118746Y-142040828D01*
X95118746Y-142040828D02*
X95547317Y-142040828D01*
X95547317Y-142040828D02*
X95690174Y-141969400D01*
X95690174Y-141969400D02*
X95761603Y-141897971D01*
X149210346Y-149102028D02*
X149710346Y-148387742D01*
X150067489Y-149102028D02*
X150067489Y-147602028D01*
X150067489Y-147602028D02*
X149496060Y-147602028D01*
X149496060Y-147602028D02*
X149353203Y-147673457D01*
X149353203Y-147673457D02*
X149281774Y-147744885D01*
X149281774Y-147744885D02*
X149210346Y-147887742D01*
X149210346Y-147887742D02*
X149210346Y-148102028D01*
X149210346Y-148102028D02*
X149281774Y-148244885D01*
X149281774Y-148244885D02*
X149353203Y-148316314D01*
X149353203Y-148316314D02*
X149496060Y-148387742D01*
X149496060Y-148387742D02*
X150067489Y-148387742D01*
X148781774Y-147602028D02*
X147924632Y-147602028D01*
X148353203Y-149102028D02*
X148353203Y-147602028D01*
X146567489Y-148959171D02*
X146638917Y-149030600D01*
X146638917Y-149030600D02*
X146853203Y-149102028D01*
X146853203Y-149102028D02*
X146996060Y-149102028D01*
X146996060Y-149102028D02*
X147210346Y-149030600D01*
X147210346Y-149030600D02*
X147353203Y-148887742D01*
X147353203Y-148887742D02*
X147424632Y-148744885D01*
X147424632Y-148744885D02*
X147496060Y-148459171D01*
X147496060Y-148459171D02*
X147496060Y-148244885D01*
X147496060Y-148244885D02*
X147424632Y-147959171D01*
X147424632Y-147959171D02*
X147353203Y-147816314D01*
X147353203Y-147816314D02*
X147210346Y-147673457D01*
X147210346Y-147673457D02*
X146996060Y-147602028D01*
X146996060Y-147602028D02*
X146853203Y-147602028D01*
X146853203Y-147602028D02*
X146638917Y-147673457D01*
X146638917Y-147673457D02*
X146567489Y-147744885D01*
X145924632Y-148530600D02*
X144781775Y-148530600D01*
X144067489Y-149102028D02*
X144067489Y-148102028D01*
X144067489Y-148244885D02*
X143996060Y-148173457D01*
X143996060Y-148173457D02*
X143853203Y-148102028D01*
X143853203Y-148102028D02*
X143638917Y-148102028D01*
X143638917Y-148102028D02*
X143496060Y-148173457D01*
X143496060Y-148173457D02*
X143424632Y-148316314D01*
X143424632Y-148316314D02*
X143424632Y-149102028D01*
X143424632Y-148316314D02*
X143353203Y-148173457D01*
X143353203Y-148173457D02*
X143210346Y-148102028D01*
X143210346Y-148102028D02*
X142996060Y-148102028D01*
X142996060Y-148102028D02*
X142853203Y-148173457D01*
X142853203Y-148173457D02*
X142781774Y-148316314D01*
X142781774Y-148316314D02*
X142781774Y-149102028D01*
X141853203Y-149102028D02*
X141996060Y-149030600D01*
X141996060Y-149030600D02*
X142067489Y-148959171D01*
X142067489Y-148959171D02*
X142138917Y-148816314D01*
X142138917Y-148816314D02*
X142138917Y-148387742D01*
X142138917Y-148387742D02*
X142067489Y-148244885D01*
X142067489Y-148244885D02*
X141996060Y-148173457D01*
X141996060Y-148173457D02*
X141853203Y-148102028D01*
X141853203Y-148102028D02*
X141638917Y-148102028D01*
X141638917Y-148102028D02*
X141496060Y-148173457D01*
X141496060Y-148173457D02*
X141424632Y-148244885D01*
X141424632Y-148244885D02*
X141353203Y-148387742D01*
X141353203Y-148387742D02*
X141353203Y-148816314D01*
X141353203Y-148816314D02*
X141424632Y-148959171D01*
X141424632Y-148959171D02*
X141496060Y-149030600D01*
X141496060Y-149030600D02*
X141638917Y-149102028D01*
X141638917Y-149102028D02*
X141853203Y-149102028D01*
X140067489Y-149102028D02*
X140067489Y-147602028D01*
X140067489Y-149030600D02*
X140210346Y-149102028D01*
X140210346Y-149102028D02*
X140496060Y-149102028D01*
X140496060Y-149102028D02*
X140638917Y-149030600D01*
X140638917Y-149030600D02*
X140710346Y-148959171D01*
X140710346Y-148959171D02*
X140781774Y-148816314D01*
X140781774Y-148816314D02*
X140781774Y-148387742D01*
X140781774Y-148387742D02*
X140710346Y-148244885D01*
X140710346Y-148244885D02*
X140638917Y-148173457D01*
X140638917Y-148173457D02*
X140496060Y-148102028D01*
X140496060Y-148102028D02*
X140210346Y-148102028D01*
X140210346Y-148102028D02*
X140067489Y-148173457D01*
X138710346Y-148102028D02*
X138710346Y-149102028D01*
X139353203Y-148102028D02*
X139353203Y-148887742D01*
X139353203Y-148887742D02*
X139281774Y-149030600D01*
X139281774Y-149030600D02*
X139138917Y-149102028D01*
X139138917Y-149102028D02*
X138924631Y-149102028D01*
X138924631Y-149102028D02*
X138781774Y-149030600D01*
X138781774Y-149030600D02*
X138710346Y-148959171D01*
X137781774Y-149102028D02*
X137924631Y-149030600D01*
X137924631Y-149030600D02*
X137996060Y-148887742D01*
X137996060Y-148887742D02*
X137996060Y-147602028D01*
X136638917Y-149030600D02*
X136781774Y-149102028D01*
X136781774Y-149102028D02*
X137067489Y-149102028D01*
X137067489Y-149102028D02*
X137210346Y-149030600D01*
X137210346Y-149030600D02*
X137281774Y-148887742D01*
X137281774Y-148887742D02*
X137281774Y-148316314D01*
X137281774Y-148316314D02*
X137210346Y-148173457D01*
X137210346Y-148173457D02*
X137067489Y-148102028D01*
X137067489Y-148102028D02*
X136781774Y-148102028D01*
X136781774Y-148102028D02*
X136638917Y-148173457D01*
X136638917Y-148173457D02*
X136567489Y-148316314D01*
X136567489Y-148316314D02*
X136567489Y-148459171D01*
X136567489Y-148459171D02*
X137281774Y-148602028D01*
X151235889Y-181258428D02*
X151235889Y-179758428D01*
X151235889Y-179758428D02*
X150664460Y-179758428D01*
X150664460Y-179758428D02*
X150521603Y-179829857D01*
X150521603Y-179829857D02*
X150450174Y-179901285D01*
X150450174Y-179901285D02*
X150378746Y-180044142D01*
X150378746Y-180044142D02*
X150378746Y-180258428D01*
X150378746Y-180258428D02*
X150450174Y-180401285D01*
X150450174Y-180401285D02*
X150521603Y-180472714D01*
X150521603Y-180472714D02*
X150664460Y-180544142D01*
X150664460Y-180544142D02*
X151235889Y-180544142D01*
X149093032Y-181258428D02*
X149093032Y-180472714D01*
X149093032Y-180472714D02*
X149164460Y-180329857D01*
X149164460Y-180329857D02*
X149307317Y-180258428D01*
X149307317Y-180258428D02*
X149593032Y-180258428D01*
X149593032Y-180258428D02*
X149735889Y-180329857D01*
X149093032Y-181187000D02*
X149235889Y-181258428D01*
X149235889Y-181258428D02*
X149593032Y-181258428D01*
X149593032Y-181258428D02*
X149735889Y-181187000D01*
X149735889Y-181187000D02*
X149807317Y-181044142D01*
X149807317Y-181044142D02*
X149807317Y-180901285D01*
X149807317Y-180901285D02*
X149735889Y-180758428D01*
X149735889Y-180758428D02*
X149593032Y-180687000D01*
X149593032Y-180687000D02*
X149235889Y-180687000D01*
X149235889Y-180687000D02*
X149093032Y-180615571D01*
X147735889Y-181187000D02*
X147878746Y-181258428D01*
X147878746Y-181258428D02*
X148164460Y-181258428D01*
X148164460Y-181258428D02*
X148307317Y-181187000D01*
X148307317Y-181187000D02*
X148378746Y-181115571D01*
X148378746Y-181115571D02*
X148450174Y-180972714D01*
X148450174Y-180972714D02*
X148450174Y-180544142D01*
X148450174Y-180544142D02*
X148378746Y-180401285D01*
X148378746Y-180401285D02*
X148307317Y-180329857D01*
X148307317Y-180329857D02*
X148164460Y-180258428D01*
X148164460Y-180258428D02*
X147878746Y-180258428D01*
X147878746Y-180258428D02*
X147735889Y-180329857D01*
X146878746Y-181258428D02*
X147021603Y-181187000D01*
X147021603Y-181187000D02*
X147093032Y-181115571D01*
X147093032Y-181115571D02*
X147164460Y-180972714D01*
X147164460Y-180972714D02*
X147164460Y-180544142D01*
X147164460Y-180544142D02*
X147093032Y-180401285D01*
X147093032Y-180401285D02*
X147021603Y-180329857D01*
X147021603Y-180329857D02*
X146878746Y-180258428D01*
X146878746Y-180258428D02*
X146664460Y-180258428D01*
X146664460Y-180258428D02*
X146521603Y-180329857D01*
X146521603Y-180329857D02*
X146450175Y-180401285D01*
X146450175Y-180401285D02*
X146378746Y-180544142D01*
X146378746Y-180544142D02*
X146378746Y-180972714D01*
X146378746Y-180972714D02*
X146450175Y-181115571D01*
X146450175Y-181115571D02*
X146521603Y-181187000D01*
X146521603Y-181187000D02*
X146664460Y-181258428D01*
X146664460Y-181258428D02*
X146878746Y-181258428D01*
X144593032Y-181115571D02*
X144521603Y-181187000D01*
X144521603Y-181187000D02*
X144593032Y-181258428D01*
X144593032Y-181258428D02*
X144664460Y-181187000D01*
X144664460Y-181187000D02*
X144593032Y-181115571D01*
X144593032Y-181115571D02*
X144593032Y-181258428D01*
X144593032Y-180329857D02*
X144521603Y-180401285D01*
X144521603Y-180401285D02*
X144593032Y-180472714D01*
X144593032Y-180472714D02*
X144664460Y-180401285D01*
X144664460Y-180401285D02*
X144593032Y-180329857D01*
X144593032Y-180329857D02*
X144593032Y-180472714D01*
X144021603Y-179758428D02*
X143093031Y-179758428D01*
X143093031Y-179758428D02*
X143593031Y-180329857D01*
X143593031Y-180329857D02*
X143378746Y-180329857D01*
X143378746Y-180329857D02*
X143235889Y-180401285D01*
X143235889Y-180401285D02*
X143164460Y-180472714D01*
X143164460Y-180472714D02*
X143093031Y-180615571D01*
X143093031Y-180615571D02*
X143093031Y-180972714D01*
X143093031Y-180972714D02*
X143164460Y-181115571D01*
X143164460Y-181115571D02*
X143235889Y-181187000D01*
X143235889Y-181187000D02*
X143378746Y-181258428D01*
X143378746Y-181258428D02*
X143807317Y-181258428D01*
X143807317Y-181258428D02*
X143950174Y-181187000D01*
X143950174Y-181187000D02*
X144021603Y-181115571D01*
X103128289Y-180801228D02*
X103128289Y-179301228D01*
X103128289Y-179301228D02*
X102556860Y-179301228D01*
X102556860Y-179301228D02*
X102414003Y-179372657D01*
X102414003Y-179372657D02*
X102342574Y-179444085D01*
X102342574Y-179444085D02*
X102271146Y-179586942D01*
X102271146Y-179586942D02*
X102271146Y-179801228D01*
X102271146Y-179801228D02*
X102342574Y-179944085D01*
X102342574Y-179944085D02*
X102414003Y-180015514D01*
X102414003Y-180015514D02*
X102556860Y-180086942D01*
X102556860Y-180086942D02*
X103128289Y-180086942D01*
X100985432Y-180801228D02*
X100985432Y-180015514D01*
X100985432Y-180015514D02*
X101056860Y-179872657D01*
X101056860Y-179872657D02*
X101199717Y-179801228D01*
X101199717Y-179801228D02*
X101485432Y-179801228D01*
X101485432Y-179801228D02*
X101628289Y-179872657D01*
X100985432Y-180729800D02*
X101128289Y-180801228D01*
X101128289Y-180801228D02*
X101485432Y-180801228D01*
X101485432Y-180801228D02*
X101628289Y-180729800D01*
X101628289Y-180729800D02*
X101699717Y-180586942D01*
X101699717Y-180586942D02*
X101699717Y-180444085D01*
X101699717Y-180444085D02*
X101628289Y-180301228D01*
X101628289Y-180301228D02*
X101485432Y-180229800D01*
X101485432Y-180229800D02*
X101128289Y-180229800D01*
X101128289Y-180229800D02*
X100985432Y-180158371D01*
X99628289Y-180729800D02*
X99771146Y-180801228D01*
X99771146Y-180801228D02*
X100056860Y-180801228D01*
X100056860Y-180801228D02*
X100199717Y-180729800D01*
X100199717Y-180729800D02*
X100271146Y-180658371D01*
X100271146Y-180658371D02*
X100342574Y-180515514D01*
X100342574Y-180515514D02*
X100342574Y-180086942D01*
X100342574Y-180086942D02*
X100271146Y-179944085D01*
X100271146Y-179944085D02*
X100199717Y-179872657D01*
X100199717Y-179872657D02*
X100056860Y-179801228D01*
X100056860Y-179801228D02*
X99771146Y-179801228D01*
X99771146Y-179801228D02*
X99628289Y-179872657D01*
X98771146Y-180801228D02*
X98914003Y-180729800D01*
X98914003Y-180729800D02*
X98985432Y-180658371D01*
X98985432Y-180658371D02*
X99056860Y-180515514D01*
X99056860Y-180515514D02*
X99056860Y-180086942D01*
X99056860Y-180086942D02*
X98985432Y-179944085D01*
X98985432Y-179944085D02*
X98914003Y-179872657D01*
X98914003Y-179872657D02*
X98771146Y-179801228D01*
X98771146Y-179801228D02*
X98556860Y-179801228D01*
X98556860Y-179801228D02*
X98414003Y-179872657D01*
X98414003Y-179872657D02*
X98342575Y-179944085D01*
X98342575Y-179944085D02*
X98271146Y-180086942D01*
X98271146Y-180086942D02*
X98271146Y-180515514D01*
X98271146Y-180515514D02*
X98342575Y-180658371D01*
X98342575Y-180658371D02*
X98414003Y-180729800D01*
X98414003Y-180729800D02*
X98556860Y-180801228D01*
X98556860Y-180801228D02*
X98771146Y-180801228D01*
X96485432Y-180658371D02*
X96414003Y-180729800D01*
X96414003Y-180729800D02*
X96485432Y-180801228D01*
X96485432Y-180801228D02*
X96556860Y-180729800D01*
X96556860Y-180729800D02*
X96485432Y-180658371D01*
X96485432Y-180658371D02*
X96485432Y-180801228D01*
X96485432Y-179872657D02*
X96414003Y-179944085D01*
X96414003Y-179944085D02*
X96485432Y-180015514D01*
X96485432Y-180015514D02*
X96556860Y-179944085D01*
X96556860Y-179944085D02*
X96485432Y-179872657D01*
X96485432Y-179872657D02*
X96485432Y-180015514D01*
X95914003Y-179301228D02*
X94985431Y-179301228D01*
X94985431Y-179301228D02*
X95485431Y-179872657D01*
X95485431Y-179872657D02*
X95271146Y-179872657D01*
X95271146Y-179872657D02*
X95128289Y-179944085D01*
X95128289Y-179944085D02*
X95056860Y-180015514D01*
X95056860Y-180015514D02*
X94985431Y-180158371D01*
X94985431Y-180158371D02*
X94985431Y-180515514D01*
X94985431Y-180515514D02*
X95056860Y-180658371D01*
X95056860Y-180658371D02*
X95128289Y-180729800D01*
X95128289Y-180729800D02*
X95271146Y-180801228D01*
X95271146Y-180801228D02*
X95699717Y-180801228D01*
X95699717Y-180801228D02*
X95842574Y-180729800D01*
X95842574Y-180729800D02*
X95914003Y-180658371D01*
X101102746Y-148644828D02*
X101602746Y-147930542D01*
X101959889Y-148644828D02*
X101959889Y-147144828D01*
X101959889Y-147144828D02*
X101388460Y-147144828D01*
X101388460Y-147144828D02*
X101245603Y-147216257D01*
X101245603Y-147216257D02*
X101174174Y-147287685D01*
X101174174Y-147287685D02*
X101102746Y-147430542D01*
X101102746Y-147430542D02*
X101102746Y-147644828D01*
X101102746Y-147644828D02*
X101174174Y-147787685D01*
X101174174Y-147787685D02*
X101245603Y-147859114D01*
X101245603Y-147859114D02*
X101388460Y-147930542D01*
X101388460Y-147930542D02*
X101959889Y-147930542D01*
X100674174Y-147144828D02*
X99817032Y-147144828D01*
X100245603Y-148644828D02*
X100245603Y-147144828D01*
X98459889Y-148501971D02*
X98531317Y-148573400D01*
X98531317Y-148573400D02*
X98745603Y-148644828D01*
X98745603Y-148644828D02*
X98888460Y-148644828D01*
X98888460Y-148644828D02*
X99102746Y-148573400D01*
X99102746Y-148573400D02*
X99245603Y-148430542D01*
X99245603Y-148430542D02*
X99317032Y-148287685D01*
X99317032Y-148287685D02*
X99388460Y-148001971D01*
X99388460Y-148001971D02*
X99388460Y-147787685D01*
X99388460Y-147787685D02*
X99317032Y-147501971D01*
X99317032Y-147501971D02*
X99245603Y-147359114D01*
X99245603Y-147359114D02*
X99102746Y-147216257D01*
X99102746Y-147216257D02*
X98888460Y-147144828D01*
X98888460Y-147144828D02*
X98745603Y-147144828D01*
X98745603Y-147144828D02*
X98531317Y-147216257D01*
X98531317Y-147216257D02*
X98459889Y-147287685D01*
X97817032Y-148073400D02*
X96674175Y-148073400D01*
X95959889Y-148644828D02*
X95959889Y-147644828D01*
X95959889Y-147787685D02*
X95888460Y-147716257D01*
X95888460Y-147716257D02*
X95745603Y-147644828D01*
X95745603Y-147644828D02*
X95531317Y-147644828D01*
X95531317Y-147644828D02*
X95388460Y-147716257D01*
X95388460Y-147716257D02*
X95317032Y-147859114D01*
X95317032Y-147859114D02*
X95317032Y-148644828D01*
X95317032Y-147859114D02*
X95245603Y-147716257D01*
X95245603Y-147716257D02*
X95102746Y-147644828D01*
X95102746Y-147644828D02*
X94888460Y-147644828D01*
X94888460Y-147644828D02*
X94745603Y-147716257D01*
X94745603Y-147716257D02*
X94674174Y-147859114D01*
X94674174Y-147859114D02*
X94674174Y-148644828D01*
X93745603Y-148644828D02*
X93888460Y-148573400D01*
X93888460Y-148573400D02*
X93959889Y-148501971D01*
X93959889Y-148501971D02*
X94031317Y-148359114D01*
X94031317Y-148359114D02*
X94031317Y-147930542D01*
X94031317Y-147930542D02*
X93959889Y-147787685D01*
X93959889Y-147787685D02*
X93888460Y-147716257D01*
X93888460Y-147716257D02*
X93745603Y-147644828D01*
X93745603Y-147644828D02*
X93531317Y-147644828D01*
X93531317Y-147644828D02*
X93388460Y-147716257D01*
X93388460Y-147716257D02*
X93317032Y-147787685D01*
X93317032Y-147787685D02*
X93245603Y-147930542D01*
X93245603Y-147930542D02*
X93245603Y-148359114D01*
X93245603Y-148359114D02*
X93317032Y-148501971D01*
X93317032Y-148501971D02*
X93388460Y-148573400D01*
X93388460Y-148573400D02*
X93531317Y-148644828D01*
X93531317Y-148644828D02*
X93745603Y-148644828D01*
X91959889Y-148644828D02*
X91959889Y-147144828D01*
X91959889Y-148573400D02*
X92102746Y-148644828D01*
X92102746Y-148644828D02*
X92388460Y-148644828D01*
X92388460Y-148644828D02*
X92531317Y-148573400D01*
X92531317Y-148573400D02*
X92602746Y-148501971D01*
X92602746Y-148501971D02*
X92674174Y-148359114D01*
X92674174Y-148359114D02*
X92674174Y-147930542D01*
X92674174Y-147930542D02*
X92602746Y-147787685D01*
X92602746Y-147787685D02*
X92531317Y-147716257D01*
X92531317Y-147716257D02*
X92388460Y-147644828D01*
X92388460Y-147644828D02*
X92102746Y-147644828D01*
X92102746Y-147644828D02*
X91959889Y-147716257D01*
X90602746Y-147644828D02*
X90602746Y-148644828D01*
X91245603Y-147644828D02*
X91245603Y-148430542D01*
X91245603Y-148430542D02*
X91174174Y-148573400D01*
X91174174Y-148573400D02*
X91031317Y-148644828D01*
X91031317Y-148644828D02*
X90817031Y-148644828D01*
X90817031Y-148644828D02*
X90674174Y-148573400D01*
X90674174Y-148573400D02*
X90602746Y-148501971D01*
X89674174Y-148644828D02*
X89817031Y-148573400D01*
X89817031Y-148573400D02*
X89888460Y-148430542D01*
X89888460Y-148430542D02*
X89888460Y-147144828D01*
X88531317Y-148573400D02*
X88674174Y-148644828D01*
X88674174Y-148644828D02*
X88959889Y-148644828D01*
X88959889Y-148644828D02*
X89102746Y-148573400D01*
X89102746Y-148573400D02*
X89174174Y-148430542D01*
X89174174Y-148430542D02*
X89174174Y-147859114D01*
X89174174Y-147859114D02*
X89102746Y-147716257D01*
X89102746Y-147716257D02*
X88959889Y-147644828D01*
X88959889Y-147644828D02*
X88674174Y-147644828D01*
X88674174Y-147644828D02*
X88531317Y-147716257D01*
X88531317Y-147716257D02*
X88459889Y-147859114D01*
X88459889Y-147859114D02*
X88459889Y-148001971D01*
X88459889Y-148001971D02*
X89174174Y-148144828D01*
M02*
