%TF.GenerationSoftware,KiCad,Pcbnew,8.0.5*%
%TF.CreationDate,2024-12-11T00:22:58+01:00*%
%TF.ProjectId,rtc-module-kicad,7274632d-6d6f-4647-956c-652d6b696361,rev?*%
%TF.SameCoordinates,Original*%
%TF.FileFunction,Profile,NP*%
%FSLAX46Y46*%
G04 Gerber Fmt 4.6, Leading zero omitted, Abs format (unit mm)*
G04 Created by KiCad (PCBNEW 8.0.5) date 2024-12-11 00:22:58*
%MOMM*%
%LPD*%
G01*
G04 APERTURE LIST*
%TA.AperFunction,Profile*%
%ADD10C,0.050000*%
%TD*%
%TA.AperFunction,Profile*%
%ADD11C,0.200000*%
%TD*%
G04 APERTURE END LIST*
D10*
X116535200Y-66649600D02*
X150012400Y-66649600D01*
X150012400Y-69037200D01*
X116535200Y-69037200D01*
X116535200Y-66649600D01*
X68427600Y-66192400D02*
X101904800Y-66192400D01*
X101904800Y-68580000D01*
X68427600Y-68580000D01*
X68427600Y-66192400D01*
X108102400Y-69443600D02*
X110490000Y-69443600D01*
X110490000Y-102920800D01*
X108102400Y-102920800D01*
X108102400Y-69443600D01*
X107950000Y-30683200D02*
X110337600Y-30683200D01*
X110337600Y-64160400D01*
X107950000Y-64160400D01*
X107950000Y-30683200D01*
X116687600Y-105410000D02*
X150164800Y-105410000D01*
X150164800Y-107797600D01*
X116687600Y-107797600D01*
X116687600Y-105410000D01*
X68580000Y-104952800D02*
X102057200Y-104952800D01*
X102057200Y-107340400D01*
X68580000Y-107340400D01*
X68580000Y-104952800D01*
X108254800Y-108204000D02*
X110642400Y-108204000D01*
X110642400Y-141681200D01*
X108254800Y-141681200D01*
X108254800Y-108204000D01*
X116840000Y-144170400D02*
X150317200Y-144170400D01*
X150317200Y-146558000D01*
X116840000Y-146558000D01*
X116840000Y-144170400D01*
X108407200Y-146964400D02*
X110794800Y-146964400D01*
X110794800Y-180441600D01*
X108407200Y-180441600D01*
X108407200Y-146964400D01*
X68732400Y-143713200D02*
X102209600Y-143713200D01*
X102209600Y-146100800D01*
X68732400Y-146100800D01*
X68732400Y-143713200D01*
D11*
X62738000Y-30276800D02*
X155905200Y-30276800D01*
X155905200Y-182473600D01*
X62738000Y-182473600D01*
X62738000Y-30276800D01*
M02*
