M48
; DRILL file {KiCad 8.0.5} date 2024-12-11T00:22:56+0100
; FORMAT={-:-/ absolute / inch / decimal}
; #@! TF.CreationDate,2024-12-11T00:22:56+01:00
; #@! TF.GenerationSoftware,Kicad,Pcbnew,8.0.5
; #@! TF.FileFunction,Plated,1,2,PTH
FMAT,2
INCH
; #@! TA.AperFunction,Plated,PTH,ViaDrill
T1C0.0118
; #@! TA.AperFunction,Plated,PTH,ComponentDrill
T2C0.0394
; #@! TA.AperFunction,Plated,PTH,ComponentDrill
T3C0.0591
%
G90
G05
T1
X2.8Y-1.996
X2.8Y-2.274
X2.806Y-3.522
X2.806Y-3.8
X2.812Y-5.048
X2.812Y-5.326
X2.818Y-6.574
X2.818Y-6.852
X2.92Y-1.374
X2.926Y-2.9
X2.932Y-4.426
X2.938Y-5.952
X3.148Y-2.268
X3.154Y-3.794
X3.16Y-5.32
X3.166Y-6.846
X3.262Y-1.504
X3.268Y-3.03
X3.274Y-4.556
X3.278Y-1.72
X3.28Y-6.082
X3.284Y-3.246
X3.29Y-4.772
X3.296Y-6.298
X4.694Y-2.014
X4.694Y-2.292
X4.7Y-3.54
X4.7Y-3.818
X4.706Y-5.066
X4.706Y-5.344
X4.712Y-6.592
X4.712Y-6.87
X4.814Y-1.392
X4.82Y-2.918
X4.826Y-4.444
X4.832Y-5.97
X5.042Y-2.286
X5.048Y-3.812
X5.054Y-5.338
X5.06Y-6.864
X5.156Y-1.522
X5.162Y-3.048
X5.168Y-4.574
X5.172Y-1.738
X5.174Y-6.1
X5.178Y-3.264
X5.184Y-4.79
X5.19Y-6.316
T2
X2.884Y-2.456
X2.89Y-3.982
X2.896Y-5.508
X2.902Y-7.034
X2.984Y-2.456
X2.99Y-3.982
X2.996Y-5.508
X3.002Y-7.034
X3.084Y-2.456
X3.09Y-3.982
X3.096Y-5.508
X3.102Y-7.034
X3.184Y-2.456
X3.19Y-3.982
X3.196Y-5.508
X3.202Y-7.034
X4.778Y-2.474
X4.784Y-4.0
X4.79Y-5.526
X4.796Y-7.052
X4.878Y-2.474
X4.884Y-4.0
X4.89Y-5.526
X4.896Y-7.052
X4.978Y-2.474
X4.984Y-4.0
X4.99Y-5.526
X4.996Y-7.052
X5.078Y-2.474
X5.084Y-4.0
X5.09Y-5.526
X5.096Y-7.052
T3
X3.758Y-1.5436
X3.758Y-2.3503
X3.764Y-3.0696
X3.764Y-3.8763
X3.77Y-4.5956
X3.77Y-5.4023
X3.776Y-6.1216
X3.776Y-6.9283
X5.652Y-1.5616
X5.652Y-2.3683
X5.658Y-3.0876
X5.658Y-3.8943
X5.664Y-4.6136
X5.664Y-5.4203
X5.67Y-6.1396
X5.67Y-6.9463
M30
