%TF.GenerationSoftware,KiCad,Pcbnew,8.0.5*%
%TF.CreationDate,2024-12-11T00:22:58+01:00*%
%TF.ProjectId,rtc-module-kicad,7274632d-6d6f-4647-956c-652d6b696361,rev?*%
%TF.SameCoordinates,Original*%
%TF.FileFunction,Paste,Top*%
%TF.FilePolarity,Positive*%
%FSLAX46Y46*%
G04 Gerber Fmt 4.6, Leading zero omitted, Abs format (unit mm)*
G04 Created by KiCad (PCBNEW 8.0.5) date 2024-12-11 00:22:58*
%MOMM*%
%LPD*%
G01*
G04 APERTURE LIST*
G04 Aperture macros list*
%AMRoundRect*
0 Rectangle with rounded corners*
0 $1 Rounding radius*
0 $2 $3 $4 $5 $6 $7 $8 $9 X,Y pos of 4 corners*
0 Add a 4 corners polygon primitive as box body*
4,1,4,$2,$3,$4,$5,$6,$7,$8,$9,$2,$3,0*
0 Add four circle primitives for the rounded corners*
1,1,$1+$1,$2,$3*
1,1,$1+$1,$4,$5*
1,1,$1+$1,$6,$7*
1,1,$1+$1,$8,$9*
0 Add four rect primitives between the rounded corners*
20,1,$1+$1,$2,$3,$4,$5,0*
20,1,$1+$1,$4,$5,$6,$7,0*
20,1,$1+$1,$6,$7,$8,$9,0*
20,1,$1+$1,$8,$9,$2,$3,0*%
G04 Aperture macros list end*
%ADD10RoundRect,0.250000X-0.350000X-0.450000X0.350000X-0.450000X0.350000X0.450000X-0.350000X0.450000X0*%
%ADD11RoundRect,0.150000X-0.825000X-0.150000X0.825000X-0.150000X0.825000X0.150000X-0.825000X0.150000X0*%
%ADD12R,1.524000X1.676400*%
%ADD13RoundRect,0.250000X-0.337500X-0.475000X0.337500X-0.475000X0.337500X0.475000X-0.337500X0.475000X0*%
%ADD14RoundRect,0.250000X-0.325000X-0.450000X0.325000X-0.450000X0.325000X0.450000X-0.325000X0.450000X0*%
%ADD15R,4.200000X4.025000*%
G04 APERTURE END LIST*
D10*
%TO.C,150R*%
X76740000Y-94386400D03*
X78740000Y-94386400D03*
%TD*%
D11*
%TO.C,U1*%
X75364800Y-76911200D03*
X75364800Y-78181200D03*
X75364800Y-79451200D03*
X75364800Y-80721200D03*
X80314800Y-80721200D03*
X80314800Y-79451200D03*
X80314800Y-78181200D03*
X80314800Y-76911200D03*
%TD*%
D12*
%TO.C,D2*%
X65887600Y-88392000D03*
X68529200Y-88392000D03*
%TD*%
D13*
%TO.C,10uF/6.3V*%
X76665000Y-86410800D03*
X78740000Y-86410800D03*
%TD*%
D10*
%TO.C,R2*%
X76740000Y-89001600D03*
X78740000Y-89001600D03*
%TD*%
D12*
%TO.C,D1*%
X65684400Y-93065600D03*
X68326000Y-93065600D03*
%TD*%
D14*
%TO.C,LED*%
X76385200Y-73406000D03*
X78435200Y-73406000D03*
%TD*%
D10*
%TO.C,R1*%
X76740000Y-91592400D03*
X78740000Y-91592400D03*
%TD*%
D15*
%TO.C,Crystal*%
X66954400Y-74321800D03*
X66954400Y-82346800D03*
%TD*%
D10*
%TO.C,150R*%
X76587600Y-55626000D03*
X78587600Y-55626000D03*
%TD*%
D11*
%TO.C,U1*%
X75212400Y-38150800D03*
X75212400Y-39420800D03*
X75212400Y-40690800D03*
X75212400Y-41960800D03*
X80162400Y-41960800D03*
X80162400Y-40690800D03*
X80162400Y-39420800D03*
X80162400Y-38150800D03*
%TD*%
D12*
%TO.C,D2*%
X65735200Y-49631600D03*
X68376800Y-49631600D03*
%TD*%
D14*
%TO.C,LED*%
X76232800Y-34645600D03*
X78282800Y-34645600D03*
%TD*%
D15*
%TO.C,Crystal*%
X66802000Y-35561400D03*
X66802000Y-43586400D03*
%TD*%
D13*
%TO.C,10uF/6.3V*%
X76512600Y-47650400D03*
X78587600Y-47650400D03*
%TD*%
D10*
%TO.C,150R*%
X124695200Y-56083200D03*
X126695200Y-56083200D03*
%TD*%
D12*
%TO.C,D1*%
X65532000Y-54305200D03*
X68173600Y-54305200D03*
%TD*%
D10*
%TO.C,R1*%
X76587600Y-52832000D03*
X78587600Y-52832000D03*
%TD*%
D12*
%TO.C,D1*%
X113639600Y-54762400D03*
X116281200Y-54762400D03*
%TD*%
D10*
%TO.C,R2*%
X124695200Y-50698400D03*
X126695200Y-50698400D03*
%TD*%
D15*
%TO.C,Crystal*%
X114909600Y-36018600D03*
X114909600Y-44043600D03*
%TD*%
D14*
%TO.C,LED*%
X124340400Y-35102800D03*
X126390400Y-35102800D03*
%TD*%
D13*
%TO.C,10uF/6.3V*%
X124620200Y-48107600D03*
X126695200Y-48107600D03*
%TD*%
D11*
%TO.C,U1*%
X123320000Y-38608000D03*
X123320000Y-39878000D03*
X123320000Y-41148000D03*
X123320000Y-42418000D03*
X128270000Y-42418000D03*
X128270000Y-41148000D03*
X128270000Y-39878000D03*
X128270000Y-38608000D03*
%TD*%
D12*
%TO.C,D2*%
X113842800Y-50088800D03*
X116484400Y-50088800D03*
%TD*%
D10*
%TO.C,R1*%
X124695200Y-53289200D03*
X126695200Y-53289200D03*
%TD*%
%TO.C,R2*%
X76587600Y-50241200D03*
X78587600Y-50241200D03*
%TD*%
D15*
%TO.C,Crystal*%
X115062000Y-74779000D03*
X115062000Y-82804000D03*
%TD*%
D10*
%TO.C,150R*%
X124847600Y-94843600D03*
X126847600Y-94843600D03*
%TD*%
D14*
%TO.C,LED*%
X124492800Y-73863200D03*
X126542800Y-73863200D03*
%TD*%
D11*
%TO.C,U1*%
X123472400Y-77368400D03*
X123472400Y-78638400D03*
X123472400Y-79908400D03*
X123472400Y-81178400D03*
X128422400Y-81178400D03*
X128422400Y-79908400D03*
X128422400Y-78638400D03*
X128422400Y-77368400D03*
%TD*%
D12*
%TO.C,D2*%
X113995200Y-88849200D03*
X116636800Y-88849200D03*
%TD*%
%TO.C,D1*%
X113792000Y-93522800D03*
X116433600Y-93522800D03*
%TD*%
D10*
%TO.C,R1*%
X124847600Y-92049600D03*
X126847600Y-92049600D03*
%TD*%
D13*
%TO.C,10uF/6.3V*%
X124772600Y-86868000D03*
X126847600Y-86868000D03*
%TD*%
D10*
%TO.C,R2*%
X124847600Y-89458800D03*
X126847600Y-89458800D03*
%TD*%
%TO.C,150R*%
X76892400Y-133146800D03*
X78892400Y-133146800D03*
%TD*%
D11*
%TO.C,U1*%
X75517200Y-115671600D03*
X75517200Y-116941600D03*
X75517200Y-118211600D03*
X75517200Y-119481600D03*
X80467200Y-119481600D03*
X80467200Y-118211600D03*
X80467200Y-116941600D03*
X80467200Y-115671600D03*
%TD*%
D12*
%TO.C,D2*%
X66040000Y-127152400D03*
X68681600Y-127152400D03*
%TD*%
D13*
%TO.C,10uF/6.3V*%
X76817400Y-125171200D03*
X78892400Y-125171200D03*
%TD*%
D10*
%TO.C,R2*%
X76892400Y-127762000D03*
X78892400Y-127762000D03*
%TD*%
D12*
%TO.C,D1*%
X65836800Y-131826000D03*
X68478400Y-131826000D03*
%TD*%
D14*
%TO.C,LED*%
X76537600Y-112166400D03*
X78587600Y-112166400D03*
%TD*%
D10*
%TO.C,R1*%
X76892400Y-130352800D03*
X78892400Y-130352800D03*
%TD*%
D15*
%TO.C,Crystal*%
X67106800Y-113082200D03*
X67106800Y-121107200D03*
%TD*%
%TO.C,Crystal*%
X115214400Y-113539400D03*
X115214400Y-121564400D03*
%TD*%
D10*
%TO.C,150R*%
X125000000Y-133604000D03*
X127000000Y-133604000D03*
%TD*%
D14*
%TO.C,LED*%
X124645200Y-112623600D03*
X126695200Y-112623600D03*
%TD*%
D11*
%TO.C,U1*%
X123624800Y-116128800D03*
X123624800Y-117398800D03*
X123624800Y-118668800D03*
X123624800Y-119938800D03*
X128574800Y-119938800D03*
X128574800Y-118668800D03*
X128574800Y-117398800D03*
X128574800Y-116128800D03*
%TD*%
D12*
%TO.C,D2*%
X114147600Y-127609600D03*
X116789200Y-127609600D03*
%TD*%
%TO.C,D1*%
X113944400Y-132283200D03*
X116586000Y-132283200D03*
%TD*%
D10*
%TO.C,R1*%
X125000000Y-130810000D03*
X127000000Y-130810000D03*
%TD*%
D13*
%TO.C,10uF/6.3V*%
X124925000Y-125628400D03*
X127000000Y-125628400D03*
%TD*%
D10*
%TO.C,R2*%
X125000000Y-128219200D03*
X127000000Y-128219200D03*
%TD*%
%TO.C,150R*%
X125152400Y-172364400D03*
X127152400Y-172364400D03*
%TD*%
D11*
%TO.C,U1*%
X123777200Y-154889200D03*
X123777200Y-156159200D03*
X123777200Y-157429200D03*
X123777200Y-158699200D03*
X128727200Y-158699200D03*
X128727200Y-157429200D03*
X128727200Y-156159200D03*
X128727200Y-154889200D03*
%TD*%
D12*
%TO.C,D2*%
X114300000Y-166370000D03*
X116941600Y-166370000D03*
%TD*%
D13*
%TO.C,10uF/6.3V*%
X125077400Y-164388800D03*
X127152400Y-164388800D03*
%TD*%
D10*
%TO.C,R2*%
X125152400Y-166979600D03*
X127152400Y-166979600D03*
%TD*%
D12*
%TO.C,D1*%
X114096800Y-171043600D03*
X116738400Y-171043600D03*
%TD*%
D14*
%TO.C,LED*%
X124797600Y-151384000D03*
X126847600Y-151384000D03*
%TD*%
D10*
%TO.C,R1*%
X125152400Y-169570400D03*
X127152400Y-169570400D03*
%TD*%
D15*
%TO.C,Crystal*%
X115366800Y-152299800D03*
X115366800Y-160324800D03*
%TD*%
D14*
%TO.C,LED*%
X78740000Y-150926800D03*
X76690000Y-150926800D03*
%TD*%
D12*
%TO.C,D1*%
X68630800Y-170586400D03*
X65989200Y-170586400D03*
%TD*%
D15*
%TO.C,Crystal*%
X67259200Y-159867600D03*
X67259200Y-151842600D03*
%TD*%
D10*
%TO.C,R2*%
X79044800Y-166522400D03*
X77044800Y-166522400D03*
%TD*%
%TO.C,R1*%
X79044800Y-169113200D03*
X77044800Y-169113200D03*
%TD*%
D13*
%TO.C,10uF/6.3V*%
X79044800Y-163931600D03*
X76969800Y-163931600D03*
%TD*%
D12*
%TO.C,D2*%
X68834000Y-165912800D03*
X66192400Y-165912800D03*
%TD*%
D11*
%TO.C,U1*%
X80619600Y-154432000D03*
X80619600Y-155702000D03*
X80619600Y-156972000D03*
X80619600Y-158242000D03*
X75669600Y-158242000D03*
X75669600Y-156972000D03*
X75669600Y-155702000D03*
X75669600Y-154432000D03*
%TD*%
D10*
%TO.C,150R*%
X79044800Y-171907200D03*
X77044800Y-171907200D03*
%TD*%
M02*
