%TF.GenerationSoftware,KiCad,Pcbnew,8.0.5*%
%TF.CreationDate,2024-12-11T00:13:19+01:00*%
%TF.ProjectId,battery-lvl-indicator-kicad.kicad_pcb-copy,62617474-6572-4792-9d6c-766c2d696e64,rev?*%
%TF.SameCoordinates,Original*%
%TF.FileFunction,Legend,Bot*%
%TF.FilePolarity,Positive*%
%FSLAX46Y46*%
G04 Gerber Fmt 4.6, Leading zero omitted, Abs format (unit mm)*
G04 Created by KiCad (PCBNEW 8.0.5) date 2024-12-11 00:13:19*
%MOMM*%
%LPD*%
G01*
G04 APERTURE LIST*
%ADD10C,0.300000*%
G04 APERTURE END LIST*
D10*
X104931689Y-144961828D02*
X104931689Y-143461828D01*
X104931689Y-143461828D02*
X104360260Y-143461828D01*
X104360260Y-143461828D02*
X104217403Y-143533257D01*
X104217403Y-143533257D02*
X104145974Y-143604685D01*
X104145974Y-143604685D02*
X104074546Y-143747542D01*
X104074546Y-143747542D02*
X104074546Y-143961828D01*
X104074546Y-143961828D02*
X104145974Y-144104685D01*
X104145974Y-144104685D02*
X104217403Y-144176114D01*
X104217403Y-144176114D02*
X104360260Y-144247542D01*
X104360260Y-144247542D02*
X104931689Y-144247542D01*
X102788832Y-144961828D02*
X102788832Y-144176114D01*
X102788832Y-144176114D02*
X102860260Y-144033257D01*
X102860260Y-144033257D02*
X103003117Y-143961828D01*
X103003117Y-143961828D02*
X103288832Y-143961828D01*
X103288832Y-143961828D02*
X103431689Y-144033257D01*
X102788832Y-144890400D02*
X102931689Y-144961828D01*
X102931689Y-144961828D02*
X103288832Y-144961828D01*
X103288832Y-144961828D02*
X103431689Y-144890400D01*
X103431689Y-144890400D02*
X103503117Y-144747542D01*
X103503117Y-144747542D02*
X103503117Y-144604685D01*
X103503117Y-144604685D02*
X103431689Y-144461828D01*
X103431689Y-144461828D02*
X103288832Y-144390400D01*
X103288832Y-144390400D02*
X102931689Y-144390400D01*
X102931689Y-144390400D02*
X102788832Y-144318971D01*
X101431689Y-144890400D02*
X101574546Y-144961828D01*
X101574546Y-144961828D02*
X101860260Y-144961828D01*
X101860260Y-144961828D02*
X102003117Y-144890400D01*
X102003117Y-144890400D02*
X102074546Y-144818971D01*
X102074546Y-144818971D02*
X102145974Y-144676114D01*
X102145974Y-144676114D02*
X102145974Y-144247542D01*
X102145974Y-144247542D02*
X102074546Y-144104685D01*
X102074546Y-144104685D02*
X102003117Y-144033257D01*
X102003117Y-144033257D02*
X101860260Y-143961828D01*
X101860260Y-143961828D02*
X101574546Y-143961828D01*
X101574546Y-143961828D02*
X101431689Y-144033257D01*
X100574546Y-144961828D02*
X100717403Y-144890400D01*
X100717403Y-144890400D02*
X100788832Y-144818971D01*
X100788832Y-144818971D02*
X100860260Y-144676114D01*
X100860260Y-144676114D02*
X100860260Y-144247542D01*
X100860260Y-144247542D02*
X100788832Y-144104685D01*
X100788832Y-144104685D02*
X100717403Y-144033257D01*
X100717403Y-144033257D02*
X100574546Y-143961828D01*
X100574546Y-143961828D02*
X100360260Y-143961828D01*
X100360260Y-143961828D02*
X100217403Y-144033257D01*
X100217403Y-144033257D02*
X100145975Y-144104685D01*
X100145975Y-144104685D02*
X100074546Y-144247542D01*
X100074546Y-144247542D02*
X100074546Y-144676114D01*
X100074546Y-144676114D02*
X100145975Y-144818971D01*
X100145975Y-144818971D02*
X100217403Y-144890400D01*
X100217403Y-144890400D02*
X100360260Y-144961828D01*
X100360260Y-144961828D02*
X100574546Y-144961828D01*
X98288832Y-144818971D02*
X98217403Y-144890400D01*
X98217403Y-144890400D02*
X98288832Y-144961828D01*
X98288832Y-144961828D02*
X98360260Y-144890400D01*
X98360260Y-144890400D02*
X98288832Y-144818971D01*
X98288832Y-144818971D02*
X98288832Y-144961828D01*
X98288832Y-144033257D02*
X98217403Y-144104685D01*
X98217403Y-144104685D02*
X98288832Y-144176114D01*
X98288832Y-144176114D02*
X98360260Y-144104685D01*
X98360260Y-144104685D02*
X98288832Y-144033257D01*
X98288832Y-144033257D02*
X98288832Y-144176114D01*
X97717403Y-143461828D02*
X96788831Y-143461828D01*
X96788831Y-143461828D02*
X97288831Y-144033257D01*
X97288831Y-144033257D02*
X97074546Y-144033257D01*
X97074546Y-144033257D02*
X96931689Y-144104685D01*
X96931689Y-144104685D02*
X96860260Y-144176114D01*
X96860260Y-144176114D02*
X96788831Y-144318971D01*
X96788831Y-144318971D02*
X96788831Y-144676114D01*
X96788831Y-144676114D02*
X96860260Y-144818971D01*
X96860260Y-144818971D02*
X96931689Y-144890400D01*
X96931689Y-144890400D02*
X97074546Y-144961828D01*
X97074546Y-144961828D02*
X97503117Y-144961828D01*
X97503117Y-144961828D02*
X97645974Y-144890400D01*
X97645974Y-144890400D02*
X97717403Y-144818971D01*
X130720689Y-19460198D02*
X130506403Y-19531626D01*
X130506403Y-19531626D02*
X130434974Y-19603055D01*
X130434974Y-19603055D02*
X130363546Y-19745912D01*
X130363546Y-19745912D02*
X130363546Y-19960198D01*
X130363546Y-19960198D02*
X130434974Y-20103055D01*
X130434974Y-20103055D02*
X130506403Y-20174484D01*
X130506403Y-20174484D02*
X130649260Y-20245912D01*
X130649260Y-20245912D02*
X131220689Y-20245912D01*
X131220689Y-20245912D02*
X131220689Y-18745912D01*
X131220689Y-18745912D02*
X130720689Y-18745912D01*
X130720689Y-18745912D02*
X130577832Y-18817341D01*
X130577832Y-18817341D02*
X130506403Y-18888769D01*
X130506403Y-18888769D02*
X130434974Y-19031626D01*
X130434974Y-19031626D02*
X130434974Y-19174484D01*
X130434974Y-19174484D02*
X130506403Y-19317341D01*
X130506403Y-19317341D02*
X130577832Y-19388769D01*
X130577832Y-19388769D02*
X130720689Y-19460198D01*
X130720689Y-19460198D02*
X131220689Y-19460198D01*
X129077832Y-20245912D02*
X129077832Y-19460198D01*
X129077832Y-19460198D02*
X129149260Y-19317341D01*
X129149260Y-19317341D02*
X129292117Y-19245912D01*
X129292117Y-19245912D02*
X129577832Y-19245912D01*
X129577832Y-19245912D02*
X129720689Y-19317341D01*
X129077832Y-20174484D02*
X129220689Y-20245912D01*
X129220689Y-20245912D02*
X129577832Y-20245912D01*
X129577832Y-20245912D02*
X129720689Y-20174484D01*
X129720689Y-20174484D02*
X129792117Y-20031626D01*
X129792117Y-20031626D02*
X129792117Y-19888769D01*
X129792117Y-19888769D02*
X129720689Y-19745912D01*
X129720689Y-19745912D02*
X129577832Y-19674484D01*
X129577832Y-19674484D02*
X129220689Y-19674484D01*
X129220689Y-19674484D02*
X129077832Y-19603055D01*
X128577831Y-19245912D02*
X128006403Y-19245912D01*
X128363546Y-18745912D02*
X128363546Y-20031626D01*
X128363546Y-20031626D02*
X128292117Y-20174484D01*
X128292117Y-20174484D02*
X128149260Y-20245912D01*
X128149260Y-20245912D02*
X128006403Y-20245912D01*
X127720688Y-19245912D02*
X127149260Y-19245912D01*
X127506403Y-18745912D02*
X127506403Y-20031626D01*
X127506403Y-20031626D02*
X127434974Y-20174484D01*
X127434974Y-20174484D02*
X127292117Y-20245912D01*
X127292117Y-20245912D02*
X127149260Y-20245912D01*
X126077831Y-20174484D02*
X126220688Y-20245912D01*
X126220688Y-20245912D02*
X126506403Y-20245912D01*
X126506403Y-20245912D02*
X126649260Y-20174484D01*
X126649260Y-20174484D02*
X126720688Y-20031626D01*
X126720688Y-20031626D02*
X126720688Y-19460198D01*
X126720688Y-19460198D02*
X126649260Y-19317341D01*
X126649260Y-19317341D02*
X126506403Y-19245912D01*
X126506403Y-19245912D02*
X126220688Y-19245912D01*
X126220688Y-19245912D02*
X126077831Y-19317341D01*
X126077831Y-19317341D02*
X126006403Y-19460198D01*
X126006403Y-19460198D02*
X126006403Y-19603055D01*
X126006403Y-19603055D02*
X126720688Y-19745912D01*
X125363546Y-20245912D02*
X125363546Y-19245912D01*
X125363546Y-19531626D02*
X125292117Y-19388769D01*
X125292117Y-19388769D02*
X125220689Y-19317341D01*
X125220689Y-19317341D02*
X125077831Y-19245912D01*
X125077831Y-19245912D02*
X124934974Y-19245912D01*
X124577832Y-19245912D02*
X124220689Y-20245912D01*
X123863546Y-19245912D02*
X124220689Y-20245912D01*
X124220689Y-20245912D02*
X124363546Y-20603055D01*
X124363546Y-20603055D02*
X124434975Y-20674484D01*
X124434975Y-20674484D02*
X124577832Y-20745912D01*
X121934975Y-20245912D02*
X122077832Y-20174484D01*
X122077832Y-20174484D02*
X122149261Y-20031626D01*
X122149261Y-20031626D02*
X122149261Y-18745912D01*
X120792118Y-20174484D02*
X120934975Y-20245912D01*
X120934975Y-20245912D02*
X121220690Y-20245912D01*
X121220690Y-20245912D02*
X121363547Y-20174484D01*
X121363547Y-20174484D02*
X121434975Y-20031626D01*
X121434975Y-20031626D02*
X121434975Y-19460198D01*
X121434975Y-19460198D02*
X121363547Y-19317341D01*
X121363547Y-19317341D02*
X121220690Y-19245912D01*
X121220690Y-19245912D02*
X120934975Y-19245912D01*
X120934975Y-19245912D02*
X120792118Y-19317341D01*
X120792118Y-19317341D02*
X120720690Y-19460198D01*
X120720690Y-19460198D02*
X120720690Y-19603055D01*
X120720690Y-19603055D02*
X121434975Y-19745912D01*
X120220690Y-19245912D02*
X119863547Y-20245912D01*
X119863547Y-20245912D02*
X119506404Y-19245912D01*
X118363547Y-20174484D02*
X118506404Y-20245912D01*
X118506404Y-20245912D02*
X118792119Y-20245912D01*
X118792119Y-20245912D02*
X118934976Y-20174484D01*
X118934976Y-20174484D02*
X119006404Y-20031626D01*
X119006404Y-20031626D02*
X119006404Y-19460198D01*
X119006404Y-19460198D02*
X118934976Y-19317341D01*
X118934976Y-19317341D02*
X118792119Y-19245912D01*
X118792119Y-19245912D02*
X118506404Y-19245912D01*
X118506404Y-19245912D02*
X118363547Y-19317341D01*
X118363547Y-19317341D02*
X118292119Y-19460198D01*
X118292119Y-19460198D02*
X118292119Y-19603055D01*
X118292119Y-19603055D02*
X119006404Y-19745912D01*
X117434976Y-20245912D02*
X117577833Y-20174484D01*
X117577833Y-20174484D02*
X117649262Y-20031626D01*
X117649262Y-20031626D02*
X117649262Y-18745912D01*
X131220689Y-22660828D02*
X131220689Y-21660828D01*
X131220689Y-21160828D02*
X131292117Y-21232257D01*
X131292117Y-21232257D02*
X131220689Y-21303685D01*
X131220689Y-21303685D02*
X131149260Y-21232257D01*
X131149260Y-21232257D02*
X131220689Y-21160828D01*
X131220689Y-21160828D02*
X131220689Y-21303685D01*
X130506403Y-21660828D02*
X130506403Y-22660828D01*
X130506403Y-21803685D02*
X130434974Y-21732257D01*
X130434974Y-21732257D02*
X130292117Y-21660828D01*
X130292117Y-21660828D02*
X130077831Y-21660828D01*
X130077831Y-21660828D02*
X129934974Y-21732257D01*
X129934974Y-21732257D02*
X129863546Y-21875114D01*
X129863546Y-21875114D02*
X129863546Y-22660828D01*
X128506403Y-22660828D02*
X128506403Y-21160828D01*
X128506403Y-22589400D02*
X128649260Y-22660828D01*
X128649260Y-22660828D02*
X128934974Y-22660828D01*
X128934974Y-22660828D02*
X129077831Y-22589400D01*
X129077831Y-22589400D02*
X129149260Y-22517971D01*
X129149260Y-22517971D02*
X129220688Y-22375114D01*
X129220688Y-22375114D02*
X129220688Y-21946542D01*
X129220688Y-21946542D02*
X129149260Y-21803685D01*
X129149260Y-21803685D02*
X129077831Y-21732257D01*
X129077831Y-21732257D02*
X128934974Y-21660828D01*
X128934974Y-21660828D02*
X128649260Y-21660828D01*
X128649260Y-21660828D02*
X128506403Y-21732257D01*
X127792117Y-22660828D02*
X127792117Y-21660828D01*
X127792117Y-21160828D02*
X127863545Y-21232257D01*
X127863545Y-21232257D02*
X127792117Y-21303685D01*
X127792117Y-21303685D02*
X127720688Y-21232257D01*
X127720688Y-21232257D02*
X127792117Y-21160828D01*
X127792117Y-21160828D02*
X127792117Y-21303685D01*
X126434974Y-22589400D02*
X126577831Y-22660828D01*
X126577831Y-22660828D02*
X126863545Y-22660828D01*
X126863545Y-22660828D02*
X127006402Y-22589400D01*
X127006402Y-22589400D02*
X127077831Y-22517971D01*
X127077831Y-22517971D02*
X127149259Y-22375114D01*
X127149259Y-22375114D02*
X127149259Y-21946542D01*
X127149259Y-21946542D02*
X127077831Y-21803685D01*
X127077831Y-21803685D02*
X127006402Y-21732257D01*
X127006402Y-21732257D02*
X126863545Y-21660828D01*
X126863545Y-21660828D02*
X126577831Y-21660828D01*
X126577831Y-21660828D02*
X126434974Y-21732257D01*
X125149260Y-22660828D02*
X125149260Y-21875114D01*
X125149260Y-21875114D02*
X125220688Y-21732257D01*
X125220688Y-21732257D02*
X125363545Y-21660828D01*
X125363545Y-21660828D02*
X125649260Y-21660828D01*
X125649260Y-21660828D02*
X125792117Y-21732257D01*
X125149260Y-22589400D02*
X125292117Y-22660828D01*
X125292117Y-22660828D02*
X125649260Y-22660828D01*
X125649260Y-22660828D02*
X125792117Y-22589400D01*
X125792117Y-22589400D02*
X125863545Y-22446542D01*
X125863545Y-22446542D02*
X125863545Y-22303685D01*
X125863545Y-22303685D02*
X125792117Y-22160828D01*
X125792117Y-22160828D02*
X125649260Y-22089400D01*
X125649260Y-22089400D02*
X125292117Y-22089400D01*
X125292117Y-22089400D02*
X125149260Y-22017971D01*
X124649259Y-21660828D02*
X124077831Y-21660828D01*
X124434974Y-21160828D02*
X124434974Y-22446542D01*
X124434974Y-22446542D02*
X124363545Y-22589400D01*
X124363545Y-22589400D02*
X124220688Y-22660828D01*
X124220688Y-22660828D02*
X124077831Y-22660828D01*
X123363545Y-22660828D02*
X123506402Y-22589400D01*
X123506402Y-22589400D02*
X123577831Y-22517971D01*
X123577831Y-22517971D02*
X123649259Y-22375114D01*
X123649259Y-22375114D02*
X123649259Y-21946542D01*
X123649259Y-21946542D02*
X123577831Y-21803685D01*
X123577831Y-21803685D02*
X123506402Y-21732257D01*
X123506402Y-21732257D02*
X123363545Y-21660828D01*
X123363545Y-21660828D02*
X123149259Y-21660828D01*
X123149259Y-21660828D02*
X123006402Y-21732257D01*
X123006402Y-21732257D02*
X122934974Y-21803685D01*
X122934974Y-21803685D02*
X122863545Y-21946542D01*
X122863545Y-21946542D02*
X122863545Y-22375114D01*
X122863545Y-22375114D02*
X122934974Y-22517971D01*
X122934974Y-22517971D02*
X123006402Y-22589400D01*
X123006402Y-22589400D02*
X123149259Y-22660828D01*
X123149259Y-22660828D02*
X123363545Y-22660828D01*
X122220688Y-22660828D02*
X122220688Y-21660828D01*
X122220688Y-21946542D02*
X122149259Y-21803685D01*
X122149259Y-21803685D02*
X122077831Y-21732257D01*
X122077831Y-21732257D02*
X121934973Y-21660828D01*
X121934973Y-21660828D02*
X121792116Y-21660828D01*
X129671289Y-145012628D02*
X129671289Y-143512628D01*
X129671289Y-143512628D02*
X129099860Y-143512628D01*
X129099860Y-143512628D02*
X128957003Y-143584057D01*
X128957003Y-143584057D02*
X128885574Y-143655485D01*
X128885574Y-143655485D02*
X128814146Y-143798342D01*
X128814146Y-143798342D02*
X128814146Y-144012628D01*
X128814146Y-144012628D02*
X128885574Y-144155485D01*
X128885574Y-144155485D02*
X128957003Y-144226914D01*
X128957003Y-144226914D02*
X129099860Y-144298342D01*
X129099860Y-144298342D02*
X129671289Y-144298342D01*
X127528432Y-145012628D02*
X127528432Y-144226914D01*
X127528432Y-144226914D02*
X127599860Y-144084057D01*
X127599860Y-144084057D02*
X127742717Y-144012628D01*
X127742717Y-144012628D02*
X128028432Y-144012628D01*
X128028432Y-144012628D02*
X128171289Y-144084057D01*
X127528432Y-144941200D02*
X127671289Y-145012628D01*
X127671289Y-145012628D02*
X128028432Y-145012628D01*
X128028432Y-145012628D02*
X128171289Y-144941200D01*
X128171289Y-144941200D02*
X128242717Y-144798342D01*
X128242717Y-144798342D02*
X128242717Y-144655485D01*
X128242717Y-144655485D02*
X128171289Y-144512628D01*
X128171289Y-144512628D02*
X128028432Y-144441200D01*
X128028432Y-144441200D02*
X127671289Y-144441200D01*
X127671289Y-144441200D02*
X127528432Y-144369771D01*
X126171289Y-144941200D02*
X126314146Y-145012628D01*
X126314146Y-145012628D02*
X126599860Y-145012628D01*
X126599860Y-145012628D02*
X126742717Y-144941200D01*
X126742717Y-144941200D02*
X126814146Y-144869771D01*
X126814146Y-144869771D02*
X126885574Y-144726914D01*
X126885574Y-144726914D02*
X126885574Y-144298342D01*
X126885574Y-144298342D02*
X126814146Y-144155485D01*
X126814146Y-144155485D02*
X126742717Y-144084057D01*
X126742717Y-144084057D02*
X126599860Y-144012628D01*
X126599860Y-144012628D02*
X126314146Y-144012628D01*
X126314146Y-144012628D02*
X126171289Y-144084057D01*
X125314146Y-145012628D02*
X125457003Y-144941200D01*
X125457003Y-144941200D02*
X125528432Y-144869771D01*
X125528432Y-144869771D02*
X125599860Y-144726914D01*
X125599860Y-144726914D02*
X125599860Y-144298342D01*
X125599860Y-144298342D02*
X125528432Y-144155485D01*
X125528432Y-144155485D02*
X125457003Y-144084057D01*
X125457003Y-144084057D02*
X125314146Y-144012628D01*
X125314146Y-144012628D02*
X125099860Y-144012628D01*
X125099860Y-144012628D02*
X124957003Y-144084057D01*
X124957003Y-144084057D02*
X124885575Y-144155485D01*
X124885575Y-144155485D02*
X124814146Y-144298342D01*
X124814146Y-144298342D02*
X124814146Y-144726914D01*
X124814146Y-144726914D02*
X124885575Y-144869771D01*
X124885575Y-144869771D02*
X124957003Y-144941200D01*
X124957003Y-144941200D02*
X125099860Y-145012628D01*
X125099860Y-145012628D02*
X125314146Y-145012628D01*
X123028432Y-144869771D02*
X122957003Y-144941200D01*
X122957003Y-144941200D02*
X123028432Y-145012628D01*
X123028432Y-145012628D02*
X123099860Y-144941200D01*
X123099860Y-144941200D02*
X123028432Y-144869771D01*
X123028432Y-144869771D02*
X123028432Y-145012628D01*
X123028432Y-144084057D02*
X122957003Y-144155485D01*
X122957003Y-144155485D02*
X123028432Y-144226914D01*
X123028432Y-144226914D02*
X123099860Y-144155485D01*
X123099860Y-144155485D02*
X123028432Y-144084057D01*
X123028432Y-144084057D02*
X123028432Y-144226914D01*
X122457003Y-143512628D02*
X121528431Y-143512628D01*
X121528431Y-143512628D02*
X122028431Y-144084057D01*
X122028431Y-144084057D02*
X121814146Y-144084057D01*
X121814146Y-144084057D02*
X121671289Y-144155485D01*
X121671289Y-144155485D02*
X121599860Y-144226914D01*
X121599860Y-144226914D02*
X121528431Y-144369771D01*
X121528431Y-144369771D02*
X121528431Y-144726914D01*
X121528431Y-144726914D02*
X121599860Y-144869771D01*
X121599860Y-144869771D02*
X121671289Y-144941200D01*
X121671289Y-144941200D02*
X121814146Y-145012628D01*
X121814146Y-145012628D02*
X122242717Y-145012628D01*
X122242717Y-145012628D02*
X122385574Y-144941200D01*
X122385574Y-144941200D02*
X122457003Y-144869771D01*
X129036289Y-53344028D02*
X129036289Y-51844028D01*
X129036289Y-51844028D02*
X128464860Y-51844028D01*
X128464860Y-51844028D02*
X128322003Y-51915457D01*
X128322003Y-51915457D02*
X128250574Y-51986885D01*
X128250574Y-51986885D02*
X128179146Y-52129742D01*
X128179146Y-52129742D02*
X128179146Y-52344028D01*
X128179146Y-52344028D02*
X128250574Y-52486885D01*
X128250574Y-52486885D02*
X128322003Y-52558314D01*
X128322003Y-52558314D02*
X128464860Y-52629742D01*
X128464860Y-52629742D02*
X129036289Y-52629742D01*
X126893432Y-53344028D02*
X126893432Y-52558314D01*
X126893432Y-52558314D02*
X126964860Y-52415457D01*
X126964860Y-52415457D02*
X127107717Y-52344028D01*
X127107717Y-52344028D02*
X127393432Y-52344028D01*
X127393432Y-52344028D02*
X127536289Y-52415457D01*
X126893432Y-53272600D02*
X127036289Y-53344028D01*
X127036289Y-53344028D02*
X127393432Y-53344028D01*
X127393432Y-53344028D02*
X127536289Y-53272600D01*
X127536289Y-53272600D02*
X127607717Y-53129742D01*
X127607717Y-53129742D02*
X127607717Y-52986885D01*
X127607717Y-52986885D02*
X127536289Y-52844028D01*
X127536289Y-52844028D02*
X127393432Y-52772600D01*
X127393432Y-52772600D02*
X127036289Y-52772600D01*
X127036289Y-52772600D02*
X126893432Y-52701171D01*
X125536289Y-53272600D02*
X125679146Y-53344028D01*
X125679146Y-53344028D02*
X125964860Y-53344028D01*
X125964860Y-53344028D02*
X126107717Y-53272600D01*
X126107717Y-53272600D02*
X126179146Y-53201171D01*
X126179146Y-53201171D02*
X126250574Y-53058314D01*
X126250574Y-53058314D02*
X126250574Y-52629742D01*
X126250574Y-52629742D02*
X126179146Y-52486885D01*
X126179146Y-52486885D02*
X126107717Y-52415457D01*
X126107717Y-52415457D02*
X125964860Y-52344028D01*
X125964860Y-52344028D02*
X125679146Y-52344028D01*
X125679146Y-52344028D02*
X125536289Y-52415457D01*
X124679146Y-53344028D02*
X124822003Y-53272600D01*
X124822003Y-53272600D02*
X124893432Y-53201171D01*
X124893432Y-53201171D02*
X124964860Y-53058314D01*
X124964860Y-53058314D02*
X124964860Y-52629742D01*
X124964860Y-52629742D02*
X124893432Y-52486885D01*
X124893432Y-52486885D02*
X124822003Y-52415457D01*
X124822003Y-52415457D02*
X124679146Y-52344028D01*
X124679146Y-52344028D02*
X124464860Y-52344028D01*
X124464860Y-52344028D02*
X124322003Y-52415457D01*
X124322003Y-52415457D02*
X124250575Y-52486885D01*
X124250575Y-52486885D02*
X124179146Y-52629742D01*
X124179146Y-52629742D02*
X124179146Y-53058314D01*
X124179146Y-53058314D02*
X124250575Y-53201171D01*
X124250575Y-53201171D02*
X124322003Y-53272600D01*
X124322003Y-53272600D02*
X124464860Y-53344028D01*
X124464860Y-53344028D02*
X124679146Y-53344028D01*
X122393432Y-53201171D02*
X122322003Y-53272600D01*
X122322003Y-53272600D02*
X122393432Y-53344028D01*
X122393432Y-53344028D02*
X122464860Y-53272600D01*
X122464860Y-53272600D02*
X122393432Y-53201171D01*
X122393432Y-53201171D02*
X122393432Y-53344028D01*
X122393432Y-52415457D02*
X122322003Y-52486885D01*
X122322003Y-52486885D02*
X122393432Y-52558314D01*
X122393432Y-52558314D02*
X122464860Y-52486885D01*
X122464860Y-52486885D02*
X122393432Y-52415457D01*
X122393432Y-52415457D02*
X122393432Y-52558314D01*
X121822003Y-51844028D02*
X120893431Y-51844028D01*
X120893431Y-51844028D02*
X121393431Y-52415457D01*
X121393431Y-52415457D02*
X121179146Y-52415457D01*
X121179146Y-52415457D02*
X121036289Y-52486885D01*
X121036289Y-52486885D02*
X120964860Y-52558314D01*
X120964860Y-52558314D02*
X120893431Y-52701171D01*
X120893431Y-52701171D02*
X120893431Y-53058314D01*
X120893431Y-53058314D02*
X120964860Y-53201171D01*
X120964860Y-53201171D02*
X121036289Y-53272600D01*
X121036289Y-53272600D02*
X121179146Y-53344028D01*
X121179146Y-53344028D02*
X121607717Y-53344028D01*
X121607717Y-53344028D02*
X121750574Y-53272600D01*
X121750574Y-53272600D02*
X121822003Y-53201171D01*
X131279489Y-88294198D02*
X131065203Y-88365626D01*
X131065203Y-88365626D02*
X130993774Y-88437055D01*
X130993774Y-88437055D02*
X130922346Y-88579912D01*
X130922346Y-88579912D02*
X130922346Y-88794198D01*
X130922346Y-88794198D02*
X130993774Y-88937055D01*
X130993774Y-88937055D02*
X131065203Y-89008484D01*
X131065203Y-89008484D02*
X131208060Y-89079912D01*
X131208060Y-89079912D02*
X131779489Y-89079912D01*
X131779489Y-89079912D02*
X131779489Y-87579912D01*
X131779489Y-87579912D02*
X131279489Y-87579912D01*
X131279489Y-87579912D02*
X131136632Y-87651341D01*
X131136632Y-87651341D02*
X131065203Y-87722769D01*
X131065203Y-87722769D02*
X130993774Y-87865626D01*
X130993774Y-87865626D02*
X130993774Y-88008484D01*
X130993774Y-88008484D02*
X131065203Y-88151341D01*
X131065203Y-88151341D02*
X131136632Y-88222769D01*
X131136632Y-88222769D02*
X131279489Y-88294198D01*
X131279489Y-88294198D02*
X131779489Y-88294198D01*
X129636632Y-89079912D02*
X129636632Y-88294198D01*
X129636632Y-88294198D02*
X129708060Y-88151341D01*
X129708060Y-88151341D02*
X129850917Y-88079912D01*
X129850917Y-88079912D02*
X130136632Y-88079912D01*
X130136632Y-88079912D02*
X130279489Y-88151341D01*
X129636632Y-89008484D02*
X129779489Y-89079912D01*
X129779489Y-89079912D02*
X130136632Y-89079912D01*
X130136632Y-89079912D02*
X130279489Y-89008484D01*
X130279489Y-89008484D02*
X130350917Y-88865626D01*
X130350917Y-88865626D02*
X130350917Y-88722769D01*
X130350917Y-88722769D02*
X130279489Y-88579912D01*
X130279489Y-88579912D02*
X130136632Y-88508484D01*
X130136632Y-88508484D02*
X129779489Y-88508484D01*
X129779489Y-88508484D02*
X129636632Y-88437055D01*
X129136631Y-88079912D02*
X128565203Y-88079912D01*
X128922346Y-87579912D02*
X128922346Y-88865626D01*
X128922346Y-88865626D02*
X128850917Y-89008484D01*
X128850917Y-89008484D02*
X128708060Y-89079912D01*
X128708060Y-89079912D02*
X128565203Y-89079912D01*
X128279488Y-88079912D02*
X127708060Y-88079912D01*
X128065203Y-87579912D02*
X128065203Y-88865626D01*
X128065203Y-88865626D02*
X127993774Y-89008484D01*
X127993774Y-89008484D02*
X127850917Y-89079912D01*
X127850917Y-89079912D02*
X127708060Y-89079912D01*
X126636631Y-89008484D02*
X126779488Y-89079912D01*
X126779488Y-89079912D02*
X127065203Y-89079912D01*
X127065203Y-89079912D02*
X127208060Y-89008484D01*
X127208060Y-89008484D02*
X127279488Y-88865626D01*
X127279488Y-88865626D02*
X127279488Y-88294198D01*
X127279488Y-88294198D02*
X127208060Y-88151341D01*
X127208060Y-88151341D02*
X127065203Y-88079912D01*
X127065203Y-88079912D02*
X126779488Y-88079912D01*
X126779488Y-88079912D02*
X126636631Y-88151341D01*
X126636631Y-88151341D02*
X126565203Y-88294198D01*
X126565203Y-88294198D02*
X126565203Y-88437055D01*
X126565203Y-88437055D02*
X127279488Y-88579912D01*
X125922346Y-89079912D02*
X125922346Y-88079912D01*
X125922346Y-88365626D02*
X125850917Y-88222769D01*
X125850917Y-88222769D02*
X125779489Y-88151341D01*
X125779489Y-88151341D02*
X125636631Y-88079912D01*
X125636631Y-88079912D02*
X125493774Y-88079912D01*
X125136632Y-88079912D02*
X124779489Y-89079912D01*
X124422346Y-88079912D02*
X124779489Y-89079912D01*
X124779489Y-89079912D02*
X124922346Y-89437055D01*
X124922346Y-89437055D02*
X124993775Y-89508484D01*
X124993775Y-89508484D02*
X125136632Y-89579912D01*
X122493775Y-89079912D02*
X122636632Y-89008484D01*
X122636632Y-89008484D02*
X122708061Y-88865626D01*
X122708061Y-88865626D02*
X122708061Y-87579912D01*
X121350918Y-89008484D02*
X121493775Y-89079912D01*
X121493775Y-89079912D02*
X121779490Y-89079912D01*
X121779490Y-89079912D02*
X121922347Y-89008484D01*
X121922347Y-89008484D02*
X121993775Y-88865626D01*
X121993775Y-88865626D02*
X121993775Y-88294198D01*
X121993775Y-88294198D02*
X121922347Y-88151341D01*
X121922347Y-88151341D02*
X121779490Y-88079912D01*
X121779490Y-88079912D02*
X121493775Y-88079912D01*
X121493775Y-88079912D02*
X121350918Y-88151341D01*
X121350918Y-88151341D02*
X121279490Y-88294198D01*
X121279490Y-88294198D02*
X121279490Y-88437055D01*
X121279490Y-88437055D02*
X121993775Y-88579912D01*
X120779490Y-88079912D02*
X120422347Y-89079912D01*
X120422347Y-89079912D02*
X120065204Y-88079912D01*
X118922347Y-89008484D02*
X119065204Y-89079912D01*
X119065204Y-89079912D02*
X119350919Y-89079912D01*
X119350919Y-89079912D02*
X119493776Y-89008484D01*
X119493776Y-89008484D02*
X119565204Y-88865626D01*
X119565204Y-88865626D02*
X119565204Y-88294198D01*
X119565204Y-88294198D02*
X119493776Y-88151341D01*
X119493776Y-88151341D02*
X119350919Y-88079912D01*
X119350919Y-88079912D02*
X119065204Y-88079912D01*
X119065204Y-88079912D02*
X118922347Y-88151341D01*
X118922347Y-88151341D02*
X118850919Y-88294198D01*
X118850919Y-88294198D02*
X118850919Y-88437055D01*
X118850919Y-88437055D02*
X119565204Y-88579912D01*
X117993776Y-89079912D02*
X118136633Y-89008484D01*
X118136633Y-89008484D02*
X118208062Y-88865626D01*
X118208062Y-88865626D02*
X118208062Y-87579912D01*
X131779489Y-91494828D02*
X131779489Y-90494828D01*
X131779489Y-89994828D02*
X131850917Y-90066257D01*
X131850917Y-90066257D02*
X131779489Y-90137685D01*
X131779489Y-90137685D02*
X131708060Y-90066257D01*
X131708060Y-90066257D02*
X131779489Y-89994828D01*
X131779489Y-89994828D02*
X131779489Y-90137685D01*
X131065203Y-90494828D02*
X131065203Y-91494828D01*
X131065203Y-90637685D02*
X130993774Y-90566257D01*
X130993774Y-90566257D02*
X130850917Y-90494828D01*
X130850917Y-90494828D02*
X130636631Y-90494828D01*
X130636631Y-90494828D02*
X130493774Y-90566257D01*
X130493774Y-90566257D02*
X130422346Y-90709114D01*
X130422346Y-90709114D02*
X130422346Y-91494828D01*
X129065203Y-91494828D02*
X129065203Y-89994828D01*
X129065203Y-91423400D02*
X129208060Y-91494828D01*
X129208060Y-91494828D02*
X129493774Y-91494828D01*
X129493774Y-91494828D02*
X129636631Y-91423400D01*
X129636631Y-91423400D02*
X129708060Y-91351971D01*
X129708060Y-91351971D02*
X129779488Y-91209114D01*
X129779488Y-91209114D02*
X129779488Y-90780542D01*
X129779488Y-90780542D02*
X129708060Y-90637685D01*
X129708060Y-90637685D02*
X129636631Y-90566257D01*
X129636631Y-90566257D02*
X129493774Y-90494828D01*
X129493774Y-90494828D02*
X129208060Y-90494828D01*
X129208060Y-90494828D02*
X129065203Y-90566257D01*
X128350917Y-91494828D02*
X128350917Y-90494828D01*
X128350917Y-89994828D02*
X128422345Y-90066257D01*
X128422345Y-90066257D02*
X128350917Y-90137685D01*
X128350917Y-90137685D02*
X128279488Y-90066257D01*
X128279488Y-90066257D02*
X128350917Y-89994828D01*
X128350917Y-89994828D02*
X128350917Y-90137685D01*
X126993774Y-91423400D02*
X127136631Y-91494828D01*
X127136631Y-91494828D02*
X127422345Y-91494828D01*
X127422345Y-91494828D02*
X127565202Y-91423400D01*
X127565202Y-91423400D02*
X127636631Y-91351971D01*
X127636631Y-91351971D02*
X127708059Y-91209114D01*
X127708059Y-91209114D02*
X127708059Y-90780542D01*
X127708059Y-90780542D02*
X127636631Y-90637685D01*
X127636631Y-90637685D02*
X127565202Y-90566257D01*
X127565202Y-90566257D02*
X127422345Y-90494828D01*
X127422345Y-90494828D02*
X127136631Y-90494828D01*
X127136631Y-90494828D02*
X126993774Y-90566257D01*
X125708060Y-91494828D02*
X125708060Y-90709114D01*
X125708060Y-90709114D02*
X125779488Y-90566257D01*
X125779488Y-90566257D02*
X125922345Y-90494828D01*
X125922345Y-90494828D02*
X126208060Y-90494828D01*
X126208060Y-90494828D02*
X126350917Y-90566257D01*
X125708060Y-91423400D02*
X125850917Y-91494828D01*
X125850917Y-91494828D02*
X126208060Y-91494828D01*
X126208060Y-91494828D02*
X126350917Y-91423400D01*
X126350917Y-91423400D02*
X126422345Y-91280542D01*
X126422345Y-91280542D02*
X126422345Y-91137685D01*
X126422345Y-91137685D02*
X126350917Y-90994828D01*
X126350917Y-90994828D02*
X126208060Y-90923400D01*
X126208060Y-90923400D02*
X125850917Y-90923400D01*
X125850917Y-90923400D02*
X125708060Y-90851971D01*
X125208059Y-90494828D02*
X124636631Y-90494828D01*
X124993774Y-89994828D02*
X124993774Y-91280542D01*
X124993774Y-91280542D02*
X124922345Y-91423400D01*
X124922345Y-91423400D02*
X124779488Y-91494828D01*
X124779488Y-91494828D02*
X124636631Y-91494828D01*
X123922345Y-91494828D02*
X124065202Y-91423400D01*
X124065202Y-91423400D02*
X124136631Y-91351971D01*
X124136631Y-91351971D02*
X124208059Y-91209114D01*
X124208059Y-91209114D02*
X124208059Y-90780542D01*
X124208059Y-90780542D02*
X124136631Y-90637685D01*
X124136631Y-90637685D02*
X124065202Y-90566257D01*
X124065202Y-90566257D02*
X123922345Y-90494828D01*
X123922345Y-90494828D02*
X123708059Y-90494828D01*
X123708059Y-90494828D02*
X123565202Y-90566257D01*
X123565202Y-90566257D02*
X123493774Y-90637685D01*
X123493774Y-90637685D02*
X123422345Y-90780542D01*
X123422345Y-90780542D02*
X123422345Y-91209114D01*
X123422345Y-91209114D02*
X123493774Y-91351971D01*
X123493774Y-91351971D02*
X123565202Y-91423400D01*
X123565202Y-91423400D02*
X123708059Y-91494828D01*
X123708059Y-91494828D02*
X123922345Y-91494828D01*
X122779488Y-91494828D02*
X122779488Y-90494828D01*
X122779488Y-90780542D02*
X122708059Y-90637685D01*
X122708059Y-90637685D02*
X122636631Y-90566257D01*
X122636631Y-90566257D02*
X122493773Y-90494828D01*
X122493773Y-90494828D02*
X122350916Y-90494828D01*
X131076289Y-65383398D02*
X130862003Y-65454826D01*
X130862003Y-65454826D02*
X130790574Y-65526255D01*
X130790574Y-65526255D02*
X130719146Y-65669112D01*
X130719146Y-65669112D02*
X130719146Y-65883398D01*
X130719146Y-65883398D02*
X130790574Y-66026255D01*
X130790574Y-66026255D02*
X130862003Y-66097684D01*
X130862003Y-66097684D02*
X131004860Y-66169112D01*
X131004860Y-66169112D02*
X131576289Y-66169112D01*
X131576289Y-66169112D02*
X131576289Y-64669112D01*
X131576289Y-64669112D02*
X131076289Y-64669112D01*
X131076289Y-64669112D02*
X130933432Y-64740541D01*
X130933432Y-64740541D02*
X130862003Y-64811969D01*
X130862003Y-64811969D02*
X130790574Y-64954826D01*
X130790574Y-64954826D02*
X130790574Y-65097684D01*
X130790574Y-65097684D02*
X130862003Y-65240541D01*
X130862003Y-65240541D02*
X130933432Y-65311969D01*
X130933432Y-65311969D02*
X131076289Y-65383398D01*
X131076289Y-65383398D02*
X131576289Y-65383398D01*
X129433432Y-66169112D02*
X129433432Y-65383398D01*
X129433432Y-65383398D02*
X129504860Y-65240541D01*
X129504860Y-65240541D02*
X129647717Y-65169112D01*
X129647717Y-65169112D02*
X129933432Y-65169112D01*
X129933432Y-65169112D02*
X130076289Y-65240541D01*
X129433432Y-66097684D02*
X129576289Y-66169112D01*
X129576289Y-66169112D02*
X129933432Y-66169112D01*
X129933432Y-66169112D02*
X130076289Y-66097684D01*
X130076289Y-66097684D02*
X130147717Y-65954826D01*
X130147717Y-65954826D02*
X130147717Y-65811969D01*
X130147717Y-65811969D02*
X130076289Y-65669112D01*
X130076289Y-65669112D02*
X129933432Y-65597684D01*
X129933432Y-65597684D02*
X129576289Y-65597684D01*
X129576289Y-65597684D02*
X129433432Y-65526255D01*
X128933431Y-65169112D02*
X128362003Y-65169112D01*
X128719146Y-64669112D02*
X128719146Y-65954826D01*
X128719146Y-65954826D02*
X128647717Y-66097684D01*
X128647717Y-66097684D02*
X128504860Y-66169112D01*
X128504860Y-66169112D02*
X128362003Y-66169112D01*
X128076288Y-65169112D02*
X127504860Y-65169112D01*
X127862003Y-64669112D02*
X127862003Y-65954826D01*
X127862003Y-65954826D02*
X127790574Y-66097684D01*
X127790574Y-66097684D02*
X127647717Y-66169112D01*
X127647717Y-66169112D02*
X127504860Y-66169112D01*
X126433431Y-66097684D02*
X126576288Y-66169112D01*
X126576288Y-66169112D02*
X126862003Y-66169112D01*
X126862003Y-66169112D02*
X127004860Y-66097684D01*
X127004860Y-66097684D02*
X127076288Y-65954826D01*
X127076288Y-65954826D02*
X127076288Y-65383398D01*
X127076288Y-65383398D02*
X127004860Y-65240541D01*
X127004860Y-65240541D02*
X126862003Y-65169112D01*
X126862003Y-65169112D02*
X126576288Y-65169112D01*
X126576288Y-65169112D02*
X126433431Y-65240541D01*
X126433431Y-65240541D02*
X126362003Y-65383398D01*
X126362003Y-65383398D02*
X126362003Y-65526255D01*
X126362003Y-65526255D02*
X127076288Y-65669112D01*
X125719146Y-66169112D02*
X125719146Y-65169112D01*
X125719146Y-65454826D02*
X125647717Y-65311969D01*
X125647717Y-65311969D02*
X125576289Y-65240541D01*
X125576289Y-65240541D02*
X125433431Y-65169112D01*
X125433431Y-65169112D02*
X125290574Y-65169112D01*
X124933432Y-65169112D02*
X124576289Y-66169112D01*
X124219146Y-65169112D02*
X124576289Y-66169112D01*
X124576289Y-66169112D02*
X124719146Y-66526255D01*
X124719146Y-66526255D02*
X124790575Y-66597684D01*
X124790575Y-66597684D02*
X124933432Y-66669112D01*
X122290575Y-66169112D02*
X122433432Y-66097684D01*
X122433432Y-66097684D02*
X122504861Y-65954826D01*
X122504861Y-65954826D02*
X122504861Y-64669112D01*
X121147718Y-66097684D02*
X121290575Y-66169112D01*
X121290575Y-66169112D02*
X121576290Y-66169112D01*
X121576290Y-66169112D02*
X121719147Y-66097684D01*
X121719147Y-66097684D02*
X121790575Y-65954826D01*
X121790575Y-65954826D02*
X121790575Y-65383398D01*
X121790575Y-65383398D02*
X121719147Y-65240541D01*
X121719147Y-65240541D02*
X121576290Y-65169112D01*
X121576290Y-65169112D02*
X121290575Y-65169112D01*
X121290575Y-65169112D02*
X121147718Y-65240541D01*
X121147718Y-65240541D02*
X121076290Y-65383398D01*
X121076290Y-65383398D02*
X121076290Y-65526255D01*
X121076290Y-65526255D02*
X121790575Y-65669112D01*
X120576290Y-65169112D02*
X120219147Y-66169112D01*
X120219147Y-66169112D02*
X119862004Y-65169112D01*
X118719147Y-66097684D02*
X118862004Y-66169112D01*
X118862004Y-66169112D02*
X119147719Y-66169112D01*
X119147719Y-66169112D02*
X119290576Y-66097684D01*
X119290576Y-66097684D02*
X119362004Y-65954826D01*
X119362004Y-65954826D02*
X119362004Y-65383398D01*
X119362004Y-65383398D02*
X119290576Y-65240541D01*
X119290576Y-65240541D02*
X119147719Y-65169112D01*
X119147719Y-65169112D02*
X118862004Y-65169112D01*
X118862004Y-65169112D02*
X118719147Y-65240541D01*
X118719147Y-65240541D02*
X118647719Y-65383398D01*
X118647719Y-65383398D02*
X118647719Y-65526255D01*
X118647719Y-65526255D02*
X119362004Y-65669112D01*
X117790576Y-66169112D02*
X117933433Y-66097684D01*
X117933433Y-66097684D02*
X118004862Y-65954826D01*
X118004862Y-65954826D02*
X118004862Y-64669112D01*
X131576289Y-68584028D02*
X131576289Y-67584028D01*
X131576289Y-67084028D02*
X131647717Y-67155457D01*
X131647717Y-67155457D02*
X131576289Y-67226885D01*
X131576289Y-67226885D02*
X131504860Y-67155457D01*
X131504860Y-67155457D02*
X131576289Y-67084028D01*
X131576289Y-67084028D02*
X131576289Y-67226885D01*
X130862003Y-67584028D02*
X130862003Y-68584028D01*
X130862003Y-67726885D02*
X130790574Y-67655457D01*
X130790574Y-67655457D02*
X130647717Y-67584028D01*
X130647717Y-67584028D02*
X130433431Y-67584028D01*
X130433431Y-67584028D02*
X130290574Y-67655457D01*
X130290574Y-67655457D02*
X130219146Y-67798314D01*
X130219146Y-67798314D02*
X130219146Y-68584028D01*
X128862003Y-68584028D02*
X128862003Y-67084028D01*
X128862003Y-68512600D02*
X129004860Y-68584028D01*
X129004860Y-68584028D02*
X129290574Y-68584028D01*
X129290574Y-68584028D02*
X129433431Y-68512600D01*
X129433431Y-68512600D02*
X129504860Y-68441171D01*
X129504860Y-68441171D02*
X129576288Y-68298314D01*
X129576288Y-68298314D02*
X129576288Y-67869742D01*
X129576288Y-67869742D02*
X129504860Y-67726885D01*
X129504860Y-67726885D02*
X129433431Y-67655457D01*
X129433431Y-67655457D02*
X129290574Y-67584028D01*
X129290574Y-67584028D02*
X129004860Y-67584028D01*
X129004860Y-67584028D02*
X128862003Y-67655457D01*
X128147717Y-68584028D02*
X128147717Y-67584028D01*
X128147717Y-67084028D02*
X128219145Y-67155457D01*
X128219145Y-67155457D02*
X128147717Y-67226885D01*
X128147717Y-67226885D02*
X128076288Y-67155457D01*
X128076288Y-67155457D02*
X128147717Y-67084028D01*
X128147717Y-67084028D02*
X128147717Y-67226885D01*
X126790574Y-68512600D02*
X126933431Y-68584028D01*
X126933431Y-68584028D02*
X127219145Y-68584028D01*
X127219145Y-68584028D02*
X127362002Y-68512600D01*
X127362002Y-68512600D02*
X127433431Y-68441171D01*
X127433431Y-68441171D02*
X127504859Y-68298314D01*
X127504859Y-68298314D02*
X127504859Y-67869742D01*
X127504859Y-67869742D02*
X127433431Y-67726885D01*
X127433431Y-67726885D02*
X127362002Y-67655457D01*
X127362002Y-67655457D02*
X127219145Y-67584028D01*
X127219145Y-67584028D02*
X126933431Y-67584028D01*
X126933431Y-67584028D02*
X126790574Y-67655457D01*
X125504860Y-68584028D02*
X125504860Y-67798314D01*
X125504860Y-67798314D02*
X125576288Y-67655457D01*
X125576288Y-67655457D02*
X125719145Y-67584028D01*
X125719145Y-67584028D02*
X126004860Y-67584028D01*
X126004860Y-67584028D02*
X126147717Y-67655457D01*
X125504860Y-68512600D02*
X125647717Y-68584028D01*
X125647717Y-68584028D02*
X126004860Y-68584028D01*
X126004860Y-68584028D02*
X126147717Y-68512600D01*
X126147717Y-68512600D02*
X126219145Y-68369742D01*
X126219145Y-68369742D02*
X126219145Y-68226885D01*
X126219145Y-68226885D02*
X126147717Y-68084028D01*
X126147717Y-68084028D02*
X126004860Y-68012600D01*
X126004860Y-68012600D02*
X125647717Y-68012600D01*
X125647717Y-68012600D02*
X125504860Y-67941171D01*
X125004859Y-67584028D02*
X124433431Y-67584028D01*
X124790574Y-67084028D02*
X124790574Y-68369742D01*
X124790574Y-68369742D02*
X124719145Y-68512600D01*
X124719145Y-68512600D02*
X124576288Y-68584028D01*
X124576288Y-68584028D02*
X124433431Y-68584028D01*
X123719145Y-68584028D02*
X123862002Y-68512600D01*
X123862002Y-68512600D02*
X123933431Y-68441171D01*
X123933431Y-68441171D02*
X124004859Y-68298314D01*
X124004859Y-68298314D02*
X124004859Y-67869742D01*
X124004859Y-67869742D02*
X123933431Y-67726885D01*
X123933431Y-67726885D02*
X123862002Y-67655457D01*
X123862002Y-67655457D02*
X123719145Y-67584028D01*
X123719145Y-67584028D02*
X123504859Y-67584028D01*
X123504859Y-67584028D02*
X123362002Y-67655457D01*
X123362002Y-67655457D02*
X123290574Y-67726885D01*
X123290574Y-67726885D02*
X123219145Y-67869742D01*
X123219145Y-67869742D02*
X123219145Y-68298314D01*
X123219145Y-68298314D02*
X123290574Y-68441171D01*
X123290574Y-68441171D02*
X123362002Y-68512600D01*
X123362002Y-68512600D02*
X123504859Y-68584028D01*
X123504859Y-68584028D02*
X123719145Y-68584028D01*
X122576288Y-68584028D02*
X122576288Y-67584028D01*
X122576288Y-67869742D02*
X122504859Y-67726885D01*
X122504859Y-67726885D02*
X122433431Y-67655457D01*
X122433431Y-67655457D02*
X122290573Y-67584028D01*
X122290573Y-67584028D02*
X122147716Y-67584028D01*
X105084089Y-167974228D02*
X105084089Y-166474228D01*
X105084089Y-166474228D02*
X104512660Y-166474228D01*
X104512660Y-166474228D02*
X104369803Y-166545657D01*
X104369803Y-166545657D02*
X104298374Y-166617085D01*
X104298374Y-166617085D02*
X104226946Y-166759942D01*
X104226946Y-166759942D02*
X104226946Y-166974228D01*
X104226946Y-166974228D02*
X104298374Y-167117085D01*
X104298374Y-167117085D02*
X104369803Y-167188514D01*
X104369803Y-167188514D02*
X104512660Y-167259942D01*
X104512660Y-167259942D02*
X105084089Y-167259942D01*
X102941232Y-167974228D02*
X102941232Y-167188514D01*
X102941232Y-167188514D02*
X103012660Y-167045657D01*
X103012660Y-167045657D02*
X103155517Y-166974228D01*
X103155517Y-166974228D02*
X103441232Y-166974228D01*
X103441232Y-166974228D02*
X103584089Y-167045657D01*
X102941232Y-167902800D02*
X103084089Y-167974228D01*
X103084089Y-167974228D02*
X103441232Y-167974228D01*
X103441232Y-167974228D02*
X103584089Y-167902800D01*
X103584089Y-167902800D02*
X103655517Y-167759942D01*
X103655517Y-167759942D02*
X103655517Y-167617085D01*
X103655517Y-167617085D02*
X103584089Y-167474228D01*
X103584089Y-167474228D02*
X103441232Y-167402800D01*
X103441232Y-167402800D02*
X103084089Y-167402800D01*
X103084089Y-167402800D02*
X102941232Y-167331371D01*
X101584089Y-167902800D02*
X101726946Y-167974228D01*
X101726946Y-167974228D02*
X102012660Y-167974228D01*
X102012660Y-167974228D02*
X102155517Y-167902800D01*
X102155517Y-167902800D02*
X102226946Y-167831371D01*
X102226946Y-167831371D02*
X102298374Y-167688514D01*
X102298374Y-167688514D02*
X102298374Y-167259942D01*
X102298374Y-167259942D02*
X102226946Y-167117085D01*
X102226946Y-167117085D02*
X102155517Y-167045657D01*
X102155517Y-167045657D02*
X102012660Y-166974228D01*
X102012660Y-166974228D02*
X101726946Y-166974228D01*
X101726946Y-166974228D02*
X101584089Y-167045657D01*
X100726946Y-167974228D02*
X100869803Y-167902800D01*
X100869803Y-167902800D02*
X100941232Y-167831371D01*
X100941232Y-167831371D02*
X101012660Y-167688514D01*
X101012660Y-167688514D02*
X101012660Y-167259942D01*
X101012660Y-167259942D02*
X100941232Y-167117085D01*
X100941232Y-167117085D02*
X100869803Y-167045657D01*
X100869803Y-167045657D02*
X100726946Y-166974228D01*
X100726946Y-166974228D02*
X100512660Y-166974228D01*
X100512660Y-166974228D02*
X100369803Y-167045657D01*
X100369803Y-167045657D02*
X100298375Y-167117085D01*
X100298375Y-167117085D02*
X100226946Y-167259942D01*
X100226946Y-167259942D02*
X100226946Y-167688514D01*
X100226946Y-167688514D02*
X100298375Y-167831371D01*
X100298375Y-167831371D02*
X100369803Y-167902800D01*
X100369803Y-167902800D02*
X100512660Y-167974228D01*
X100512660Y-167974228D02*
X100726946Y-167974228D01*
X98441232Y-167831371D02*
X98369803Y-167902800D01*
X98369803Y-167902800D02*
X98441232Y-167974228D01*
X98441232Y-167974228D02*
X98512660Y-167902800D01*
X98512660Y-167902800D02*
X98441232Y-167831371D01*
X98441232Y-167831371D02*
X98441232Y-167974228D01*
X98441232Y-167045657D02*
X98369803Y-167117085D01*
X98369803Y-167117085D02*
X98441232Y-167188514D01*
X98441232Y-167188514D02*
X98512660Y-167117085D01*
X98512660Y-167117085D02*
X98441232Y-167045657D01*
X98441232Y-167045657D02*
X98441232Y-167188514D01*
X97869803Y-166474228D02*
X96941231Y-166474228D01*
X96941231Y-166474228D02*
X97441231Y-167045657D01*
X97441231Y-167045657D02*
X97226946Y-167045657D01*
X97226946Y-167045657D02*
X97084089Y-167117085D01*
X97084089Y-167117085D02*
X97012660Y-167188514D01*
X97012660Y-167188514D02*
X96941231Y-167331371D01*
X96941231Y-167331371D02*
X96941231Y-167688514D01*
X96941231Y-167688514D02*
X97012660Y-167831371D01*
X97012660Y-167831371D02*
X97084089Y-167902800D01*
X97084089Y-167902800D02*
X97226946Y-167974228D01*
X97226946Y-167974228D02*
X97655517Y-167974228D01*
X97655517Y-167974228D02*
X97798374Y-167902800D01*
X97798374Y-167902800D02*
X97869803Y-167831371D01*
X129468089Y-122101828D02*
X129468089Y-120601828D01*
X129468089Y-120601828D02*
X128896660Y-120601828D01*
X128896660Y-120601828D02*
X128753803Y-120673257D01*
X128753803Y-120673257D02*
X128682374Y-120744685D01*
X128682374Y-120744685D02*
X128610946Y-120887542D01*
X128610946Y-120887542D02*
X128610946Y-121101828D01*
X128610946Y-121101828D02*
X128682374Y-121244685D01*
X128682374Y-121244685D02*
X128753803Y-121316114D01*
X128753803Y-121316114D02*
X128896660Y-121387542D01*
X128896660Y-121387542D02*
X129468089Y-121387542D01*
X127325232Y-122101828D02*
X127325232Y-121316114D01*
X127325232Y-121316114D02*
X127396660Y-121173257D01*
X127396660Y-121173257D02*
X127539517Y-121101828D01*
X127539517Y-121101828D02*
X127825232Y-121101828D01*
X127825232Y-121101828D02*
X127968089Y-121173257D01*
X127325232Y-122030400D02*
X127468089Y-122101828D01*
X127468089Y-122101828D02*
X127825232Y-122101828D01*
X127825232Y-122101828D02*
X127968089Y-122030400D01*
X127968089Y-122030400D02*
X128039517Y-121887542D01*
X128039517Y-121887542D02*
X128039517Y-121744685D01*
X128039517Y-121744685D02*
X127968089Y-121601828D01*
X127968089Y-121601828D02*
X127825232Y-121530400D01*
X127825232Y-121530400D02*
X127468089Y-121530400D01*
X127468089Y-121530400D02*
X127325232Y-121458971D01*
X125968089Y-122030400D02*
X126110946Y-122101828D01*
X126110946Y-122101828D02*
X126396660Y-122101828D01*
X126396660Y-122101828D02*
X126539517Y-122030400D01*
X126539517Y-122030400D02*
X126610946Y-121958971D01*
X126610946Y-121958971D02*
X126682374Y-121816114D01*
X126682374Y-121816114D02*
X126682374Y-121387542D01*
X126682374Y-121387542D02*
X126610946Y-121244685D01*
X126610946Y-121244685D02*
X126539517Y-121173257D01*
X126539517Y-121173257D02*
X126396660Y-121101828D01*
X126396660Y-121101828D02*
X126110946Y-121101828D01*
X126110946Y-121101828D02*
X125968089Y-121173257D01*
X125110946Y-122101828D02*
X125253803Y-122030400D01*
X125253803Y-122030400D02*
X125325232Y-121958971D01*
X125325232Y-121958971D02*
X125396660Y-121816114D01*
X125396660Y-121816114D02*
X125396660Y-121387542D01*
X125396660Y-121387542D02*
X125325232Y-121244685D01*
X125325232Y-121244685D02*
X125253803Y-121173257D01*
X125253803Y-121173257D02*
X125110946Y-121101828D01*
X125110946Y-121101828D02*
X124896660Y-121101828D01*
X124896660Y-121101828D02*
X124753803Y-121173257D01*
X124753803Y-121173257D02*
X124682375Y-121244685D01*
X124682375Y-121244685D02*
X124610946Y-121387542D01*
X124610946Y-121387542D02*
X124610946Y-121816114D01*
X124610946Y-121816114D02*
X124682375Y-121958971D01*
X124682375Y-121958971D02*
X124753803Y-122030400D01*
X124753803Y-122030400D02*
X124896660Y-122101828D01*
X124896660Y-122101828D02*
X125110946Y-122101828D01*
X122825232Y-121958971D02*
X122753803Y-122030400D01*
X122753803Y-122030400D02*
X122825232Y-122101828D01*
X122825232Y-122101828D02*
X122896660Y-122030400D01*
X122896660Y-122030400D02*
X122825232Y-121958971D01*
X122825232Y-121958971D02*
X122825232Y-122101828D01*
X122825232Y-121173257D02*
X122753803Y-121244685D01*
X122753803Y-121244685D02*
X122825232Y-121316114D01*
X122825232Y-121316114D02*
X122896660Y-121244685D01*
X122896660Y-121244685D02*
X122825232Y-121173257D01*
X122825232Y-121173257D02*
X122825232Y-121316114D01*
X122253803Y-120601828D02*
X121325231Y-120601828D01*
X121325231Y-120601828D02*
X121825231Y-121173257D01*
X121825231Y-121173257D02*
X121610946Y-121173257D01*
X121610946Y-121173257D02*
X121468089Y-121244685D01*
X121468089Y-121244685D02*
X121396660Y-121316114D01*
X121396660Y-121316114D02*
X121325231Y-121458971D01*
X121325231Y-121458971D02*
X121325231Y-121816114D01*
X121325231Y-121816114D02*
X121396660Y-121958971D01*
X121396660Y-121958971D02*
X121468089Y-122030400D01*
X121468089Y-122030400D02*
X121610946Y-122101828D01*
X121610946Y-122101828D02*
X122039517Y-122101828D01*
X122039517Y-122101828D02*
X122182374Y-122030400D01*
X122182374Y-122030400D02*
X122253803Y-121958971D01*
X106184289Y-42320198D02*
X105970003Y-42391626D01*
X105970003Y-42391626D02*
X105898574Y-42463055D01*
X105898574Y-42463055D02*
X105827146Y-42605912D01*
X105827146Y-42605912D02*
X105827146Y-42820198D01*
X105827146Y-42820198D02*
X105898574Y-42963055D01*
X105898574Y-42963055D02*
X105970003Y-43034484D01*
X105970003Y-43034484D02*
X106112860Y-43105912D01*
X106112860Y-43105912D02*
X106684289Y-43105912D01*
X106684289Y-43105912D02*
X106684289Y-41605912D01*
X106684289Y-41605912D02*
X106184289Y-41605912D01*
X106184289Y-41605912D02*
X106041432Y-41677341D01*
X106041432Y-41677341D02*
X105970003Y-41748769D01*
X105970003Y-41748769D02*
X105898574Y-41891626D01*
X105898574Y-41891626D02*
X105898574Y-42034484D01*
X105898574Y-42034484D02*
X105970003Y-42177341D01*
X105970003Y-42177341D02*
X106041432Y-42248769D01*
X106041432Y-42248769D02*
X106184289Y-42320198D01*
X106184289Y-42320198D02*
X106684289Y-42320198D01*
X104541432Y-43105912D02*
X104541432Y-42320198D01*
X104541432Y-42320198D02*
X104612860Y-42177341D01*
X104612860Y-42177341D02*
X104755717Y-42105912D01*
X104755717Y-42105912D02*
X105041432Y-42105912D01*
X105041432Y-42105912D02*
X105184289Y-42177341D01*
X104541432Y-43034484D02*
X104684289Y-43105912D01*
X104684289Y-43105912D02*
X105041432Y-43105912D01*
X105041432Y-43105912D02*
X105184289Y-43034484D01*
X105184289Y-43034484D02*
X105255717Y-42891626D01*
X105255717Y-42891626D02*
X105255717Y-42748769D01*
X105255717Y-42748769D02*
X105184289Y-42605912D01*
X105184289Y-42605912D02*
X105041432Y-42534484D01*
X105041432Y-42534484D02*
X104684289Y-42534484D01*
X104684289Y-42534484D02*
X104541432Y-42463055D01*
X104041431Y-42105912D02*
X103470003Y-42105912D01*
X103827146Y-41605912D02*
X103827146Y-42891626D01*
X103827146Y-42891626D02*
X103755717Y-43034484D01*
X103755717Y-43034484D02*
X103612860Y-43105912D01*
X103612860Y-43105912D02*
X103470003Y-43105912D01*
X103184288Y-42105912D02*
X102612860Y-42105912D01*
X102970003Y-41605912D02*
X102970003Y-42891626D01*
X102970003Y-42891626D02*
X102898574Y-43034484D01*
X102898574Y-43034484D02*
X102755717Y-43105912D01*
X102755717Y-43105912D02*
X102612860Y-43105912D01*
X101541431Y-43034484D02*
X101684288Y-43105912D01*
X101684288Y-43105912D02*
X101970003Y-43105912D01*
X101970003Y-43105912D02*
X102112860Y-43034484D01*
X102112860Y-43034484D02*
X102184288Y-42891626D01*
X102184288Y-42891626D02*
X102184288Y-42320198D01*
X102184288Y-42320198D02*
X102112860Y-42177341D01*
X102112860Y-42177341D02*
X101970003Y-42105912D01*
X101970003Y-42105912D02*
X101684288Y-42105912D01*
X101684288Y-42105912D02*
X101541431Y-42177341D01*
X101541431Y-42177341D02*
X101470003Y-42320198D01*
X101470003Y-42320198D02*
X101470003Y-42463055D01*
X101470003Y-42463055D02*
X102184288Y-42605912D01*
X100827146Y-43105912D02*
X100827146Y-42105912D01*
X100827146Y-42391626D02*
X100755717Y-42248769D01*
X100755717Y-42248769D02*
X100684289Y-42177341D01*
X100684289Y-42177341D02*
X100541431Y-42105912D01*
X100541431Y-42105912D02*
X100398574Y-42105912D01*
X100041432Y-42105912D02*
X99684289Y-43105912D01*
X99327146Y-42105912D02*
X99684289Y-43105912D01*
X99684289Y-43105912D02*
X99827146Y-43463055D01*
X99827146Y-43463055D02*
X99898575Y-43534484D01*
X99898575Y-43534484D02*
X100041432Y-43605912D01*
X97398575Y-43105912D02*
X97541432Y-43034484D01*
X97541432Y-43034484D02*
X97612861Y-42891626D01*
X97612861Y-42891626D02*
X97612861Y-41605912D01*
X96255718Y-43034484D02*
X96398575Y-43105912D01*
X96398575Y-43105912D02*
X96684290Y-43105912D01*
X96684290Y-43105912D02*
X96827147Y-43034484D01*
X96827147Y-43034484D02*
X96898575Y-42891626D01*
X96898575Y-42891626D02*
X96898575Y-42320198D01*
X96898575Y-42320198D02*
X96827147Y-42177341D01*
X96827147Y-42177341D02*
X96684290Y-42105912D01*
X96684290Y-42105912D02*
X96398575Y-42105912D01*
X96398575Y-42105912D02*
X96255718Y-42177341D01*
X96255718Y-42177341D02*
X96184290Y-42320198D01*
X96184290Y-42320198D02*
X96184290Y-42463055D01*
X96184290Y-42463055D02*
X96898575Y-42605912D01*
X95684290Y-42105912D02*
X95327147Y-43105912D01*
X95327147Y-43105912D02*
X94970004Y-42105912D01*
X93827147Y-43034484D02*
X93970004Y-43105912D01*
X93970004Y-43105912D02*
X94255719Y-43105912D01*
X94255719Y-43105912D02*
X94398576Y-43034484D01*
X94398576Y-43034484D02*
X94470004Y-42891626D01*
X94470004Y-42891626D02*
X94470004Y-42320198D01*
X94470004Y-42320198D02*
X94398576Y-42177341D01*
X94398576Y-42177341D02*
X94255719Y-42105912D01*
X94255719Y-42105912D02*
X93970004Y-42105912D01*
X93970004Y-42105912D02*
X93827147Y-42177341D01*
X93827147Y-42177341D02*
X93755719Y-42320198D01*
X93755719Y-42320198D02*
X93755719Y-42463055D01*
X93755719Y-42463055D02*
X94470004Y-42605912D01*
X92898576Y-43105912D02*
X93041433Y-43034484D01*
X93041433Y-43034484D02*
X93112862Y-42891626D01*
X93112862Y-42891626D02*
X93112862Y-41605912D01*
X106684289Y-45520828D02*
X106684289Y-44520828D01*
X106684289Y-44020828D02*
X106755717Y-44092257D01*
X106755717Y-44092257D02*
X106684289Y-44163685D01*
X106684289Y-44163685D02*
X106612860Y-44092257D01*
X106612860Y-44092257D02*
X106684289Y-44020828D01*
X106684289Y-44020828D02*
X106684289Y-44163685D01*
X105970003Y-44520828D02*
X105970003Y-45520828D01*
X105970003Y-44663685D02*
X105898574Y-44592257D01*
X105898574Y-44592257D02*
X105755717Y-44520828D01*
X105755717Y-44520828D02*
X105541431Y-44520828D01*
X105541431Y-44520828D02*
X105398574Y-44592257D01*
X105398574Y-44592257D02*
X105327146Y-44735114D01*
X105327146Y-44735114D02*
X105327146Y-45520828D01*
X103970003Y-45520828D02*
X103970003Y-44020828D01*
X103970003Y-45449400D02*
X104112860Y-45520828D01*
X104112860Y-45520828D02*
X104398574Y-45520828D01*
X104398574Y-45520828D02*
X104541431Y-45449400D01*
X104541431Y-45449400D02*
X104612860Y-45377971D01*
X104612860Y-45377971D02*
X104684288Y-45235114D01*
X104684288Y-45235114D02*
X104684288Y-44806542D01*
X104684288Y-44806542D02*
X104612860Y-44663685D01*
X104612860Y-44663685D02*
X104541431Y-44592257D01*
X104541431Y-44592257D02*
X104398574Y-44520828D01*
X104398574Y-44520828D02*
X104112860Y-44520828D01*
X104112860Y-44520828D02*
X103970003Y-44592257D01*
X103255717Y-45520828D02*
X103255717Y-44520828D01*
X103255717Y-44020828D02*
X103327145Y-44092257D01*
X103327145Y-44092257D02*
X103255717Y-44163685D01*
X103255717Y-44163685D02*
X103184288Y-44092257D01*
X103184288Y-44092257D02*
X103255717Y-44020828D01*
X103255717Y-44020828D02*
X103255717Y-44163685D01*
X101898574Y-45449400D02*
X102041431Y-45520828D01*
X102041431Y-45520828D02*
X102327145Y-45520828D01*
X102327145Y-45520828D02*
X102470002Y-45449400D01*
X102470002Y-45449400D02*
X102541431Y-45377971D01*
X102541431Y-45377971D02*
X102612859Y-45235114D01*
X102612859Y-45235114D02*
X102612859Y-44806542D01*
X102612859Y-44806542D02*
X102541431Y-44663685D01*
X102541431Y-44663685D02*
X102470002Y-44592257D01*
X102470002Y-44592257D02*
X102327145Y-44520828D01*
X102327145Y-44520828D02*
X102041431Y-44520828D01*
X102041431Y-44520828D02*
X101898574Y-44592257D01*
X100612860Y-45520828D02*
X100612860Y-44735114D01*
X100612860Y-44735114D02*
X100684288Y-44592257D01*
X100684288Y-44592257D02*
X100827145Y-44520828D01*
X100827145Y-44520828D02*
X101112860Y-44520828D01*
X101112860Y-44520828D02*
X101255717Y-44592257D01*
X100612860Y-45449400D02*
X100755717Y-45520828D01*
X100755717Y-45520828D02*
X101112860Y-45520828D01*
X101112860Y-45520828D02*
X101255717Y-45449400D01*
X101255717Y-45449400D02*
X101327145Y-45306542D01*
X101327145Y-45306542D02*
X101327145Y-45163685D01*
X101327145Y-45163685D02*
X101255717Y-45020828D01*
X101255717Y-45020828D02*
X101112860Y-44949400D01*
X101112860Y-44949400D02*
X100755717Y-44949400D01*
X100755717Y-44949400D02*
X100612860Y-44877971D01*
X100112859Y-44520828D02*
X99541431Y-44520828D01*
X99898574Y-44020828D02*
X99898574Y-45306542D01*
X99898574Y-45306542D02*
X99827145Y-45449400D01*
X99827145Y-45449400D02*
X99684288Y-45520828D01*
X99684288Y-45520828D02*
X99541431Y-45520828D01*
X98827145Y-45520828D02*
X98970002Y-45449400D01*
X98970002Y-45449400D02*
X99041431Y-45377971D01*
X99041431Y-45377971D02*
X99112859Y-45235114D01*
X99112859Y-45235114D02*
X99112859Y-44806542D01*
X99112859Y-44806542D02*
X99041431Y-44663685D01*
X99041431Y-44663685D02*
X98970002Y-44592257D01*
X98970002Y-44592257D02*
X98827145Y-44520828D01*
X98827145Y-44520828D02*
X98612859Y-44520828D01*
X98612859Y-44520828D02*
X98470002Y-44592257D01*
X98470002Y-44592257D02*
X98398574Y-44663685D01*
X98398574Y-44663685D02*
X98327145Y-44806542D01*
X98327145Y-44806542D02*
X98327145Y-45235114D01*
X98327145Y-45235114D02*
X98398574Y-45377971D01*
X98398574Y-45377971D02*
X98470002Y-45449400D01*
X98470002Y-45449400D02*
X98612859Y-45520828D01*
X98612859Y-45520828D02*
X98827145Y-45520828D01*
X97684288Y-45520828D02*
X97684288Y-44520828D01*
X97684288Y-44806542D02*
X97612859Y-44663685D01*
X97612859Y-44663685D02*
X97541431Y-44592257D01*
X97541431Y-44592257D02*
X97398573Y-44520828D01*
X97398573Y-44520828D02*
X97255716Y-44520828D01*
X131711289Y-157051998D02*
X131497003Y-157123426D01*
X131497003Y-157123426D02*
X131425574Y-157194855D01*
X131425574Y-157194855D02*
X131354146Y-157337712D01*
X131354146Y-157337712D02*
X131354146Y-157551998D01*
X131354146Y-157551998D02*
X131425574Y-157694855D01*
X131425574Y-157694855D02*
X131497003Y-157766284D01*
X131497003Y-157766284D02*
X131639860Y-157837712D01*
X131639860Y-157837712D02*
X132211289Y-157837712D01*
X132211289Y-157837712D02*
X132211289Y-156337712D01*
X132211289Y-156337712D02*
X131711289Y-156337712D01*
X131711289Y-156337712D02*
X131568432Y-156409141D01*
X131568432Y-156409141D02*
X131497003Y-156480569D01*
X131497003Y-156480569D02*
X131425574Y-156623426D01*
X131425574Y-156623426D02*
X131425574Y-156766284D01*
X131425574Y-156766284D02*
X131497003Y-156909141D01*
X131497003Y-156909141D02*
X131568432Y-156980569D01*
X131568432Y-156980569D02*
X131711289Y-157051998D01*
X131711289Y-157051998D02*
X132211289Y-157051998D01*
X130068432Y-157837712D02*
X130068432Y-157051998D01*
X130068432Y-157051998D02*
X130139860Y-156909141D01*
X130139860Y-156909141D02*
X130282717Y-156837712D01*
X130282717Y-156837712D02*
X130568432Y-156837712D01*
X130568432Y-156837712D02*
X130711289Y-156909141D01*
X130068432Y-157766284D02*
X130211289Y-157837712D01*
X130211289Y-157837712D02*
X130568432Y-157837712D01*
X130568432Y-157837712D02*
X130711289Y-157766284D01*
X130711289Y-157766284D02*
X130782717Y-157623426D01*
X130782717Y-157623426D02*
X130782717Y-157480569D01*
X130782717Y-157480569D02*
X130711289Y-157337712D01*
X130711289Y-157337712D02*
X130568432Y-157266284D01*
X130568432Y-157266284D02*
X130211289Y-157266284D01*
X130211289Y-157266284D02*
X130068432Y-157194855D01*
X129568431Y-156837712D02*
X128997003Y-156837712D01*
X129354146Y-156337712D02*
X129354146Y-157623426D01*
X129354146Y-157623426D02*
X129282717Y-157766284D01*
X129282717Y-157766284D02*
X129139860Y-157837712D01*
X129139860Y-157837712D02*
X128997003Y-157837712D01*
X128711288Y-156837712D02*
X128139860Y-156837712D01*
X128497003Y-156337712D02*
X128497003Y-157623426D01*
X128497003Y-157623426D02*
X128425574Y-157766284D01*
X128425574Y-157766284D02*
X128282717Y-157837712D01*
X128282717Y-157837712D02*
X128139860Y-157837712D01*
X127068431Y-157766284D02*
X127211288Y-157837712D01*
X127211288Y-157837712D02*
X127497003Y-157837712D01*
X127497003Y-157837712D02*
X127639860Y-157766284D01*
X127639860Y-157766284D02*
X127711288Y-157623426D01*
X127711288Y-157623426D02*
X127711288Y-157051998D01*
X127711288Y-157051998D02*
X127639860Y-156909141D01*
X127639860Y-156909141D02*
X127497003Y-156837712D01*
X127497003Y-156837712D02*
X127211288Y-156837712D01*
X127211288Y-156837712D02*
X127068431Y-156909141D01*
X127068431Y-156909141D02*
X126997003Y-157051998D01*
X126997003Y-157051998D02*
X126997003Y-157194855D01*
X126997003Y-157194855D02*
X127711288Y-157337712D01*
X126354146Y-157837712D02*
X126354146Y-156837712D01*
X126354146Y-157123426D02*
X126282717Y-156980569D01*
X126282717Y-156980569D02*
X126211289Y-156909141D01*
X126211289Y-156909141D02*
X126068431Y-156837712D01*
X126068431Y-156837712D02*
X125925574Y-156837712D01*
X125568432Y-156837712D02*
X125211289Y-157837712D01*
X124854146Y-156837712D02*
X125211289Y-157837712D01*
X125211289Y-157837712D02*
X125354146Y-158194855D01*
X125354146Y-158194855D02*
X125425575Y-158266284D01*
X125425575Y-158266284D02*
X125568432Y-158337712D01*
X122925575Y-157837712D02*
X123068432Y-157766284D01*
X123068432Y-157766284D02*
X123139861Y-157623426D01*
X123139861Y-157623426D02*
X123139861Y-156337712D01*
X121782718Y-157766284D02*
X121925575Y-157837712D01*
X121925575Y-157837712D02*
X122211290Y-157837712D01*
X122211290Y-157837712D02*
X122354147Y-157766284D01*
X122354147Y-157766284D02*
X122425575Y-157623426D01*
X122425575Y-157623426D02*
X122425575Y-157051998D01*
X122425575Y-157051998D02*
X122354147Y-156909141D01*
X122354147Y-156909141D02*
X122211290Y-156837712D01*
X122211290Y-156837712D02*
X121925575Y-156837712D01*
X121925575Y-156837712D02*
X121782718Y-156909141D01*
X121782718Y-156909141D02*
X121711290Y-157051998D01*
X121711290Y-157051998D02*
X121711290Y-157194855D01*
X121711290Y-157194855D02*
X122425575Y-157337712D01*
X121211290Y-156837712D02*
X120854147Y-157837712D01*
X120854147Y-157837712D02*
X120497004Y-156837712D01*
X119354147Y-157766284D02*
X119497004Y-157837712D01*
X119497004Y-157837712D02*
X119782719Y-157837712D01*
X119782719Y-157837712D02*
X119925576Y-157766284D01*
X119925576Y-157766284D02*
X119997004Y-157623426D01*
X119997004Y-157623426D02*
X119997004Y-157051998D01*
X119997004Y-157051998D02*
X119925576Y-156909141D01*
X119925576Y-156909141D02*
X119782719Y-156837712D01*
X119782719Y-156837712D02*
X119497004Y-156837712D01*
X119497004Y-156837712D02*
X119354147Y-156909141D01*
X119354147Y-156909141D02*
X119282719Y-157051998D01*
X119282719Y-157051998D02*
X119282719Y-157194855D01*
X119282719Y-157194855D02*
X119997004Y-157337712D01*
X118425576Y-157837712D02*
X118568433Y-157766284D01*
X118568433Y-157766284D02*
X118639862Y-157623426D01*
X118639862Y-157623426D02*
X118639862Y-156337712D01*
X132211289Y-160252628D02*
X132211289Y-159252628D01*
X132211289Y-158752628D02*
X132282717Y-158824057D01*
X132282717Y-158824057D02*
X132211289Y-158895485D01*
X132211289Y-158895485D02*
X132139860Y-158824057D01*
X132139860Y-158824057D02*
X132211289Y-158752628D01*
X132211289Y-158752628D02*
X132211289Y-158895485D01*
X131497003Y-159252628D02*
X131497003Y-160252628D01*
X131497003Y-159395485D02*
X131425574Y-159324057D01*
X131425574Y-159324057D02*
X131282717Y-159252628D01*
X131282717Y-159252628D02*
X131068431Y-159252628D01*
X131068431Y-159252628D02*
X130925574Y-159324057D01*
X130925574Y-159324057D02*
X130854146Y-159466914D01*
X130854146Y-159466914D02*
X130854146Y-160252628D01*
X129497003Y-160252628D02*
X129497003Y-158752628D01*
X129497003Y-160181200D02*
X129639860Y-160252628D01*
X129639860Y-160252628D02*
X129925574Y-160252628D01*
X129925574Y-160252628D02*
X130068431Y-160181200D01*
X130068431Y-160181200D02*
X130139860Y-160109771D01*
X130139860Y-160109771D02*
X130211288Y-159966914D01*
X130211288Y-159966914D02*
X130211288Y-159538342D01*
X130211288Y-159538342D02*
X130139860Y-159395485D01*
X130139860Y-159395485D02*
X130068431Y-159324057D01*
X130068431Y-159324057D02*
X129925574Y-159252628D01*
X129925574Y-159252628D02*
X129639860Y-159252628D01*
X129639860Y-159252628D02*
X129497003Y-159324057D01*
X128782717Y-160252628D02*
X128782717Y-159252628D01*
X128782717Y-158752628D02*
X128854145Y-158824057D01*
X128854145Y-158824057D02*
X128782717Y-158895485D01*
X128782717Y-158895485D02*
X128711288Y-158824057D01*
X128711288Y-158824057D02*
X128782717Y-158752628D01*
X128782717Y-158752628D02*
X128782717Y-158895485D01*
X127425574Y-160181200D02*
X127568431Y-160252628D01*
X127568431Y-160252628D02*
X127854145Y-160252628D01*
X127854145Y-160252628D02*
X127997002Y-160181200D01*
X127997002Y-160181200D02*
X128068431Y-160109771D01*
X128068431Y-160109771D02*
X128139859Y-159966914D01*
X128139859Y-159966914D02*
X128139859Y-159538342D01*
X128139859Y-159538342D02*
X128068431Y-159395485D01*
X128068431Y-159395485D02*
X127997002Y-159324057D01*
X127997002Y-159324057D02*
X127854145Y-159252628D01*
X127854145Y-159252628D02*
X127568431Y-159252628D01*
X127568431Y-159252628D02*
X127425574Y-159324057D01*
X126139860Y-160252628D02*
X126139860Y-159466914D01*
X126139860Y-159466914D02*
X126211288Y-159324057D01*
X126211288Y-159324057D02*
X126354145Y-159252628D01*
X126354145Y-159252628D02*
X126639860Y-159252628D01*
X126639860Y-159252628D02*
X126782717Y-159324057D01*
X126139860Y-160181200D02*
X126282717Y-160252628D01*
X126282717Y-160252628D02*
X126639860Y-160252628D01*
X126639860Y-160252628D02*
X126782717Y-160181200D01*
X126782717Y-160181200D02*
X126854145Y-160038342D01*
X126854145Y-160038342D02*
X126854145Y-159895485D01*
X126854145Y-159895485D02*
X126782717Y-159752628D01*
X126782717Y-159752628D02*
X126639860Y-159681200D01*
X126639860Y-159681200D02*
X126282717Y-159681200D01*
X126282717Y-159681200D02*
X126139860Y-159609771D01*
X125639859Y-159252628D02*
X125068431Y-159252628D01*
X125425574Y-158752628D02*
X125425574Y-160038342D01*
X125425574Y-160038342D02*
X125354145Y-160181200D01*
X125354145Y-160181200D02*
X125211288Y-160252628D01*
X125211288Y-160252628D02*
X125068431Y-160252628D01*
X124354145Y-160252628D02*
X124497002Y-160181200D01*
X124497002Y-160181200D02*
X124568431Y-160109771D01*
X124568431Y-160109771D02*
X124639859Y-159966914D01*
X124639859Y-159966914D02*
X124639859Y-159538342D01*
X124639859Y-159538342D02*
X124568431Y-159395485D01*
X124568431Y-159395485D02*
X124497002Y-159324057D01*
X124497002Y-159324057D02*
X124354145Y-159252628D01*
X124354145Y-159252628D02*
X124139859Y-159252628D01*
X124139859Y-159252628D02*
X123997002Y-159324057D01*
X123997002Y-159324057D02*
X123925574Y-159395485D01*
X123925574Y-159395485D02*
X123854145Y-159538342D01*
X123854145Y-159538342D02*
X123854145Y-159966914D01*
X123854145Y-159966914D02*
X123925574Y-160109771D01*
X123925574Y-160109771D02*
X123997002Y-160181200D01*
X123997002Y-160181200D02*
X124139859Y-160252628D01*
X124139859Y-160252628D02*
X124354145Y-160252628D01*
X123211288Y-160252628D02*
X123211288Y-159252628D01*
X123211288Y-159538342D02*
X123139859Y-159395485D01*
X123139859Y-159395485D02*
X123068431Y-159324057D01*
X123068431Y-159324057D02*
X122925573Y-159252628D01*
X122925573Y-159252628D02*
X122782716Y-159252628D01*
X129823689Y-168025028D02*
X129823689Y-166525028D01*
X129823689Y-166525028D02*
X129252260Y-166525028D01*
X129252260Y-166525028D02*
X129109403Y-166596457D01*
X129109403Y-166596457D02*
X129037974Y-166667885D01*
X129037974Y-166667885D02*
X128966546Y-166810742D01*
X128966546Y-166810742D02*
X128966546Y-167025028D01*
X128966546Y-167025028D02*
X129037974Y-167167885D01*
X129037974Y-167167885D02*
X129109403Y-167239314D01*
X129109403Y-167239314D02*
X129252260Y-167310742D01*
X129252260Y-167310742D02*
X129823689Y-167310742D01*
X127680832Y-168025028D02*
X127680832Y-167239314D01*
X127680832Y-167239314D02*
X127752260Y-167096457D01*
X127752260Y-167096457D02*
X127895117Y-167025028D01*
X127895117Y-167025028D02*
X128180832Y-167025028D01*
X128180832Y-167025028D02*
X128323689Y-167096457D01*
X127680832Y-167953600D02*
X127823689Y-168025028D01*
X127823689Y-168025028D02*
X128180832Y-168025028D01*
X128180832Y-168025028D02*
X128323689Y-167953600D01*
X128323689Y-167953600D02*
X128395117Y-167810742D01*
X128395117Y-167810742D02*
X128395117Y-167667885D01*
X128395117Y-167667885D02*
X128323689Y-167525028D01*
X128323689Y-167525028D02*
X128180832Y-167453600D01*
X128180832Y-167453600D02*
X127823689Y-167453600D01*
X127823689Y-167453600D02*
X127680832Y-167382171D01*
X126323689Y-167953600D02*
X126466546Y-168025028D01*
X126466546Y-168025028D02*
X126752260Y-168025028D01*
X126752260Y-168025028D02*
X126895117Y-167953600D01*
X126895117Y-167953600D02*
X126966546Y-167882171D01*
X126966546Y-167882171D02*
X127037974Y-167739314D01*
X127037974Y-167739314D02*
X127037974Y-167310742D01*
X127037974Y-167310742D02*
X126966546Y-167167885D01*
X126966546Y-167167885D02*
X126895117Y-167096457D01*
X126895117Y-167096457D02*
X126752260Y-167025028D01*
X126752260Y-167025028D02*
X126466546Y-167025028D01*
X126466546Y-167025028D02*
X126323689Y-167096457D01*
X125466546Y-168025028D02*
X125609403Y-167953600D01*
X125609403Y-167953600D02*
X125680832Y-167882171D01*
X125680832Y-167882171D02*
X125752260Y-167739314D01*
X125752260Y-167739314D02*
X125752260Y-167310742D01*
X125752260Y-167310742D02*
X125680832Y-167167885D01*
X125680832Y-167167885D02*
X125609403Y-167096457D01*
X125609403Y-167096457D02*
X125466546Y-167025028D01*
X125466546Y-167025028D02*
X125252260Y-167025028D01*
X125252260Y-167025028D02*
X125109403Y-167096457D01*
X125109403Y-167096457D02*
X125037975Y-167167885D01*
X125037975Y-167167885D02*
X124966546Y-167310742D01*
X124966546Y-167310742D02*
X124966546Y-167739314D01*
X124966546Y-167739314D02*
X125037975Y-167882171D01*
X125037975Y-167882171D02*
X125109403Y-167953600D01*
X125109403Y-167953600D02*
X125252260Y-168025028D01*
X125252260Y-168025028D02*
X125466546Y-168025028D01*
X123180832Y-167882171D02*
X123109403Y-167953600D01*
X123109403Y-167953600D02*
X123180832Y-168025028D01*
X123180832Y-168025028D02*
X123252260Y-167953600D01*
X123252260Y-167953600D02*
X123180832Y-167882171D01*
X123180832Y-167882171D02*
X123180832Y-168025028D01*
X123180832Y-167096457D02*
X123109403Y-167167885D01*
X123109403Y-167167885D02*
X123180832Y-167239314D01*
X123180832Y-167239314D02*
X123252260Y-167167885D01*
X123252260Y-167167885D02*
X123180832Y-167096457D01*
X123180832Y-167096457D02*
X123180832Y-167239314D01*
X122609403Y-166525028D02*
X121680831Y-166525028D01*
X121680831Y-166525028D02*
X122180831Y-167096457D01*
X122180831Y-167096457D02*
X121966546Y-167096457D01*
X121966546Y-167096457D02*
X121823689Y-167167885D01*
X121823689Y-167167885D02*
X121752260Y-167239314D01*
X121752260Y-167239314D02*
X121680831Y-167382171D01*
X121680831Y-167382171D02*
X121680831Y-167739314D01*
X121680831Y-167739314D02*
X121752260Y-167882171D01*
X121752260Y-167882171D02*
X121823689Y-167953600D01*
X121823689Y-167953600D02*
X121966546Y-168025028D01*
X121966546Y-168025028D02*
X122395117Y-168025028D01*
X122395117Y-168025028D02*
X122537974Y-167953600D01*
X122537974Y-167953600D02*
X122609403Y-167882171D01*
X106971689Y-157001198D02*
X106757403Y-157072626D01*
X106757403Y-157072626D02*
X106685974Y-157144055D01*
X106685974Y-157144055D02*
X106614546Y-157286912D01*
X106614546Y-157286912D02*
X106614546Y-157501198D01*
X106614546Y-157501198D02*
X106685974Y-157644055D01*
X106685974Y-157644055D02*
X106757403Y-157715484D01*
X106757403Y-157715484D02*
X106900260Y-157786912D01*
X106900260Y-157786912D02*
X107471689Y-157786912D01*
X107471689Y-157786912D02*
X107471689Y-156286912D01*
X107471689Y-156286912D02*
X106971689Y-156286912D01*
X106971689Y-156286912D02*
X106828832Y-156358341D01*
X106828832Y-156358341D02*
X106757403Y-156429769D01*
X106757403Y-156429769D02*
X106685974Y-156572626D01*
X106685974Y-156572626D02*
X106685974Y-156715484D01*
X106685974Y-156715484D02*
X106757403Y-156858341D01*
X106757403Y-156858341D02*
X106828832Y-156929769D01*
X106828832Y-156929769D02*
X106971689Y-157001198D01*
X106971689Y-157001198D02*
X107471689Y-157001198D01*
X105328832Y-157786912D02*
X105328832Y-157001198D01*
X105328832Y-157001198D02*
X105400260Y-156858341D01*
X105400260Y-156858341D02*
X105543117Y-156786912D01*
X105543117Y-156786912D02*
X105828832Y-156786912D01*
X105828832Y-156786912D02*
X105971689Y-156858341D01*
X105328832Y-157715484D02*
X105471689Y-157786912D01*
X105471689Y-157786912D02*
X105828832Y-157786912D01*
X105828832Y-157786912D02*
X105971689Y-157715484D01*
X105971689Y-157715484D02*
X106043117Y-157572626D01*
X106043117Y-157572626D02*
X106043117Y-157429769D01*
X106043117Y-157429769D02*
X105971689Y-157286912D01*
X105971689Y-157286912D02*
X105828832Y-157215484D01*
X105828832Y-157215484D02*
X105471689Y-157215484D01*
X105471689Y-157215484D02*
X105328832Y-157144055D01*
X104828831Y-156786912D02*
X104257403Y-156786912D01*
X104614546Y-156286912D02*
X104614546Y-157572626D01*
X104614546Y-157572626D02*
X104543117Y-157715484D01*
X104543117Y-157715484D02*
X104400260Y-157786912D01*
X104400260Y-157786912D02*
X104257403Y-157786912D01*
X103971688Y-156786912D02*
X103400260Y-156786912D01*
X103757403Y-156286912D02*
X103757403Y-157572626D01*
X103757403Y-157572626D02*
X103685974Y-157715484D01*
X103685974Y-157715484D02*
X103543117Y-157786912D01*
X103543117Y-157786912D02*
X103400260Y-157786912D01*
X102328831Y-157715484D02*
X102471688Y-157786912D01*
X102471688Y-157786912D02*
X102757403Y-157786912D01*
X102757403Y-157786912D02*
X102900260Y-157715484D01*
X102900260Y-157715484D02*
X102971688Y-157572626D01*
X102971688Y-157572626D02*
X102971688Y-157001198D01*
X102971688Y-157001198D02*
X102900260Y-156858341D01*
X102900260Y-156858341D02*
X102757403Y-156786912D01*
X102757403Y-156786912D02*
X102471688Y-156786912D01*
X102471688Y-156786912D02*
X102328831Y-156858341D01*
X102328831Y-156858341D02*
X102257403Y-157001198D01*
X102257403Y-157001198D02*
X102257403Y-157144055D01*
X102257403Y-157144055D02*
X102971688Y-157286912D01*
X101614546Y-157786912D02*
X101614546Y-156786912D01*
X101614546Y-157072626D02*
X101543117Y-156929769D01*
X101543117Y-156929769D02*
X101471689Y-156858341D01*
X101471689Y-156858341D02*
X101328831Y-156786912D01*
X101328831Y-156786912D02*
X101185974Y-156786912D01*
X100828832Y-156786912D02*
X100471689Y-157786912D01*
X100114546Y-156786912D02*
X100471689Y-157786912D01*
X100471689Y-157786912D02*
X100614546Y-158144055D01*
X100614546Y-158144055D02*
X100685975Y-158215484D01*
X100685975Y-158215484D02*
X100828832Y-158286912D01*
X98185975Y-157786912D02*
X98328832Y-157715484D01*
X98328832Y-157715484D02*
X98400261Y-157572626D01*
X98400261Y-157572626D02*
X98400261Y-156286912D01*
X97043118Y-157715484D02*
X97185975Y-157786912D01*
X97185975Y-157786912D02*
X97471690Y-157786912D01*
X97471690Y-157786912D02*
X97614547Y-157715484D01*
X97614547Y-157715484D02*
X97685975Y-157572626D01*
X97685975Y-157572626D02*
X97685975Y-157001198D01*
X97685975Y-157001198D02*
X97614547Y-156858341D01*
X97614547Y-156858341D02*
X97471690Y-156786912D01*
X97471690Y-156786912D02*
X97185975Y-156786912D01*
X97185975Y-156786912D02*
X97043118Y-156858341D01*
X97043118Y-156858341D02*
X96971690Y-157001198D01*
X96971690Y-157001198D02*
X96971690Y-157144055D01*
X96971690Y-157144055D02*
X97685975Y-157286912D01*
X96471690Y-156786912D02*
X96114547Y-157786912D01*
X96114547Y-157786912D02*
X95757404Y-156786912D01*
X94614547Y-157715484D02*
X94757404Y-157786912D01*
X94757404Y-157786912D02*
X95043119Y-157786912D01*
X95043119Y-157786912D02*
X95185976Y-157715484D01*
X95185976Y-157715484D02*
X95257404Y-157572626D01*
X95257404Y-157572626D02*
X95257404Y-157001198D01*
X95257404Y-157001198D02*
X95185976Y-156858341D01*
X95185976Y-156858341D02*
X95043119Y-156786912D01*
X95043119Y-156786912D02*
X94757404Y-156786912D01*
X94757404Y-156786912D02*
X94614547Y-156858341D01*
X94614547Y-156858341D02*
X94543119Y-157001198D01*
X94543119Y-157001198D02*
X94543119Y-157144055D01*
X94543119Y-157144055D02*
X95257404Y-157286912D01*
X93685976Y-157786912D02*
X93828833Y-157715484D01*
X93828833Y-157715484D02*
X93900262Y-157572626D01*
X93900262Y-157572626D02*
X93900262Y-156286912D01*
X107471689Y-160201828D02*
X107471689Y-159201828D01*
X107471689Y-158701828D02*
X107543117Y-158773257D01*
X107543117Y-158773257D02*
X107471689Y-158844685D01*
X107471689Y-158844685D02*
X107400260Y-158773257D01*
X107400260Y-158773257D02*
X107471689Y-158701828D01*
X107471689Y-158701828D02*
X107471689Y-158844685D01*
X106757403Y-159201828D02*
X106757403Y-160201828D01*
X106757403Y-159344685D02*
X106685974Y-159273257D01*
X106685974Y-159273257D02*
X106543117Y-159201828D01*
X106543117Y-159201828D02*
X106328831Y-159201828D01*
X106328831Y-159201828D02*
X106185974Y-159273257D01*
X106185974Y-159273257D02*
X106114546Y-159416114D01*
X106114546Y-159416114D02*
X106114546Y-160201828D01*
X104757403Y-160201828D02*
X104757403Y-158701828D01*
X104757403Y-160130400D02*
X104900260Y-160201828D01*
X104900260Y-160201828D02*
X105185974Y-160201828D01*
X105185974Y-160201828D02*
X105328831Y-160130400D01*
X105328831Y-160130400D02*
X105400260Y-160058971D01*
X105400260Y-160058971D02*
X105471688Y-159916114D01*
X105471688Y-159916114D02*
X105471688Y-159487542D01*
X105471688Y-159487542D02*
X105400260Y-159344685D01*
X105400260Y-159344685D02*
X105328831Y-159273257D01*
X105328831Y-159273257D02*
X105185974Y-159201828D01*
X105185974Y-159201828D02*
X104900260Y-159201828D01*
X104900260Y-159201828D02*
X104757403Y-159273257D01*
X104043117Y-160201828D02*
X104043117Y-159201828D01*
X104043117Y-158701828D02*
X104114545Y-158773257D01*
X104114545Y-158773257D02*
X104043117Y-158844685D01*
X104043117Y-158844685D02*
X103971688Y-158773257D01*
X103971688Y-158773257D02*
X104043117Y-158701828D01*
X104043117Y-158701828D02*
X104043117Y-158844685D01*
X102685974Y-160130400D02*
X102828831Y-160201828D01*
X102828831Y-160201828D02*
X103114545Y-160201828D01*
X103114545Y-160201828D02*
X103257402Y-160130400D01*
X103257402Y-160130400D02*
X103328831Y-160058971D01*
X103328831Y-160058971D02*
X103400259Y-159916114D01*
X103400259Y-159916114D02*
X103400259Y-159487542D01*
X103400259Y-159487542D02*
X103328831Y-159344685D01*
X103328831Y-159344685D02*
X103257402Y-159273257D01*
X103257402Y-159273257D02*
X103114545Y-159201828D01*
X103114545Y-159201828D02*
X102828831Y-159201828D01*
X102828831Y-159201828D02*
X102685974Y-159273257D01*
X101400260Y-160201828D02*
X101400260Y-159416114D01*
X101400260Y-159416114D02*
X101471688Y-159273257D01*
X101471688Y-159273257D02*
X101614545Y-159201828D01*
X101614545Y-159201828D02*
X101900260Y-159201828D01*
X101900260Y-159201828D02*
X102043117Y-159273257D01*
X101400260Y-160130400D02*
X101543117Y-160201828D01*
X101543117Y-160201828D02*
X101900260Y-160201828D01*
X101900260Y-160201828D02*
X102043117Y-160130400D01*
X102043117Y-160130400D02*
X102114545Y-159987542D01*
X102114545Y-159987542D02*
X102114545Y-159844685D01*
X102114545Y-159844685D02*
X102043117Y-159701828D01*
X102043117Y-159701828D02*
X101900260Y-159630400D01*
X101900260Y-159630400D02*
X101543117Y-159630400D01*
X101543117Y-159630400D02*
X101400260Y-159558971D01*
X100900259Y-159201828D02*
X100328831Y-159201828D01*
X100685974Y-158701828D02*
X100685974Y-159987542D01*
X100685974Y-159987542D02*
X100614545Y-160130400D01*
X100614545Y-160130400D02*
X100471688Y-160201828D01*
X100471688Y-160201828D02*
X100328831Y-160201828D01*
X99614545Y-160201828D02*
X99757402Y-160130400D01*
X99757402Y-160130400D02*
X99828831Y-160058971D01*
X99828831Y-160058971D02*
X99900259Y-159916114D01*
X99900259Y-159916114D02*
X99900259Y-159487542D01*
X99900259Y-159487542D02*
X99828831Y-159344685D01*
X99828831Y-159344685D02*
X99757402Y-159273257D01*
X99757402Y-159273257D02*
X99614545Y-159201828D01*
X99614545Y-159201828D02*
X99400259Y-159201828D01*
X99400259Y-159201828D02*
X99257402Y-159273257D01*
X99257402Y-159273257D02*
X99185974Y-159344685D01*
X99185974Y-159344685D02*
X99114545Y-159487542D01*
X99114545Y-159487542D02*
X99114545Y-159916114D01*
X99114545Y-159916114D02*
X99185974Y-160058971D01*
X99185974Y-160058971D02*
X99257402Y-160130400D01*
X99257402Y-160130400D02*
X99400259Y-160201828D01*
X99400259Y-160201828D02*
X99614545Y-160201828D01*
X98471688Y-160201828D02*
X98471688Y-159201828D01*
X98471688Y-159487542D02*
X98400259Y-159344685D01*
X98400259Y-159344685D02*
X98328831Y-159273257D01*
X98328831Y-159273257D02*
X98185973Y-159201828D01*
X98185973Y-159201828D02*
X98043116Y-159201828D01*
X104296689Y-53293228D02*
X104296689Y-51793228D01*
X104296689Y-51793228D02*
X103725260Y-51793228D01*
X103725260Y-51793228D02*
X103582403Y-51864657D01*
X103582403Y-51864657D02*
X103510974Y-51936085D01*
X103510974Y-51936085D02*
X103439546Y-52078942D01*
X103439546Y-52078942D02*
X103439546Y-52293228D01*
X103439546Y-52293228D02*
X103510974Y-52436085D01*
X103510974Y-52436085D02*
X103582403Y-52507514D01*
X103582403Y-52507514D02*
X103725260Y-52578942D01*
X103725260Y-52578942D02*
X104296689Y-52578942D01*
X102153832Y-53293228D02*
X102153832Y-52507514D01*
X102153832Y-52507514D02*
X102225260Y-52364657D01*
X102225260Y-52364657D02*
X102368117Y-52293228D01*
X102368117Y-52293228D02*
X102653832Y-52293228D01*
X102653832Y-52293228D02*
X102796689Y-52364657D01*
X102153832Y-53221800D02*
X102296689Y-53293228D01*
X102296689Y-53293228D02*
X102653832Y-53293228D01*
X102653832Y-53293228D02*
X102796689Y-53221800D01*
X102796689Y-53221800D02*
X102868117Y-53078942D01*
X102868117Y-53078942D02*
X102868117Y-52936085D01*
X102868117Y-52936085D02*
X102796689Y-52793228D01*
X102796689Y-52793228D02*
X102653832Y-52721800D01*
X102653832Y-52721800D02*
X102296689Y-52721800D01*
X102296689Y-52721800D02*
X102153832Y-52650371D01*
X100796689Y-53221800D02*
X100939546Y-53293228D01*
X100939546Y-53293228D02*
X101225260Y-53293228D01*
X101225260Y-53293228D02*
X101368117Y-53221800D01*
X101368117Y-53221800D02*
X101439546Y-53150371D01*
X101439546Y-53150371D02*
X101510974Y-53007514D01*
X101510974Y-53007514D02*
X101510974Y-52578942D01*
X101510974Y-52578942D02*
X101439546Y-52436085D01*
X101439546Y-52436085D02*
X101368117Y-52364657D01*
X101368117Y-52364657D02*
X101225260Y-52293228D01*
X101225260Y-52293228D02*
X100939546Y-52293228D01*
X100939546Y-52293228D02*
X100796689Y-52364657D01*
X99939546Y-53293228D02*
X100082403Y-53221800D01*
X100082403Y-53221800D02*
X100153832Y-53150371D01*
X100153832Y-53150371D02*
X100225260Y-53007514D01*
X100225260Y-53007514D02*
X100225260Y-52578942D01*
X100225260Y-52578942D02*
X100153832Y-52436085D01*
X100153832Y-52436085D02*
X100082403Y-52364657D01*
X100082403Y-52364657D02*
X99939546Y-52293228D01*
X99939546Y-52293228D02*
X99725260Y-52293228D01*
X99725260Y-52293228D02*
X99582403Y-52364657D01*
X99582403Y-52364657D02*
X99510975Y-52436085D01*
X99510975Y-52436085D02*
X99439546Y-52578942D01*
X99439546Y-52578942D02*
X99439546Y-53007514D01*
X99439546Y-53007514D02*
X99510975Y-53150371D01*
X99510975Y-53150371D02*
X99582403Y-53221800D01*
X99582403Y-53221800D02*
X99725260Y-53293228D01*
X99725260Y-53293228D02*
X99939546Y-53293228D01*
X97653832Y-53150371D02*
X97582403Y-53221800D01*
X97582403Y-53221800D02*
X97653832Y-53293228D01*
X97653832Y-53293228D02*
X97725260Y-53221800D01*
X97725260Y-53221800D02*
X97653832Y-53150371D01*
X97653832Y-53150371D02*
X97653832Y-53293228D01*
X97653832Y-52364657D02*
X97582403Y-52436085D01*
X97582403Y-52436085D02*
X97653832Y-52507514D01*
X97653832Y-52507514D02*
X97725260Y-52436085D01*
X97725260Y-52436085D02*
X97653832Y-52364657D01*
X97653832Y-52364657D02*
X97653832Y-52507514D01*
X97082403Y-51793228D02*
X96153831Y-51793228D01*
X96153831Y-51793228D02*
X96653831Y-52364657D01*
X96653831Y-52364657D02*
X96439546Y-52364657D01*
X96439546Y-52364657D02*
X96296689Y-52436085D01*
X96296689Y-52436085D02*
X96225260Y-52507514D01*
X96225260Y-52507514D02*
X96153831Y-52650371D01*
X96153831Y-52650371D02*
X96153831Y-53007514D01*
X96153831Y-53007514D02*
X96225260Y-53150371D01*
X96225260Y-53150371D02*
X96296689Y-53221800D01*
X96296689Y-53221800D02*
X96439546Y-53293228D01*
X96439546Y-53293228D02*
X96868117Y-53293228D01*
X96868117Y-53293228D02*
X97010974Y-53221800D01*
X97010974Y-53221800D02*
X97082403Y-53150371D01*
X106336689Y-65332598D02*
X106122403Y-65404026D01*
X106122403Y-65404026D02*
X106050974Y-65475455D01*
X106050974Y-65475455D02*
X105979546Y-65618312D01*
X105979546Y-65618312D02*
X105979546Y-65832598D01*
X105979546Y-65832598D02*
X106050974Y-65975455D01*
X106050974Y-65975455D02*
X106122403Y-66046884D01*
X106122403Y-66046884D02*
X106265260Y-66118312D01*
X106265260Y-66118312D02*
X106836689Y-66118312D01*
X106836689Y-66118312D02*
X106836689Y-64618312D01*
X106836689Y-64618312D02*
X106336689Y-64618312D01*
X106336689Y-64618312D02*
X106193832Y-64689741D01*
X106193832Y-64689741D02*
X106122403Y-64761169D01*
X106122403Y-64761169D02*
X106050974Y-64904026D01*
X106050974Y-64904026D02*
X106050974Y-65046884D01*
X106050974Y-65046884D02*
X106122403Y-65189741D01*
X106122403Y-65189741D02*
X106193832Y-65261169D01*
X106193832Y-65261169D02*
X106336689Y-65332598D01*
X106336689Y-65332598D02*
X106836689Y-65332598D01*
X104693832Y-66118312D02*
X104693832Y-65332598D01*
X104693832Y-65332598D02*
X104765260Y-65189741D01*
X104765260Y-65189741D02*
X104908117Y-65118312D01*
X104908117Y-65118312D02*
X105193832Y-65118312D01*
X105193832Y-65118312D02*
X105336689Y-65189741D01*
X104693832Y-66046884D02*
X104836689Y-66118312D01*
X104836689Y-66118312D02*
X105193832Y-66118312D01*
X105193832Y-66118312D02*
X105336689Y-66046884D01*
X105336689Y-66046884D02*
X105408117Y-65904026D01*
X105408117Y-65904026D02*
X105408117Y-65761169D01*
X105408117Y-65761169D02*
X105336689Y-65618312D01*
X105336689Y-65618312D02*
X105193832Y-65546884D01*
X105193832Y-65546884D02*
X104836689Y-65546884D01*
X104836689Y-65546884D02*
X104693832Y-65475455D01*
X104193831Y-65118312D02*
X103622403Y-65118312D01*
X103979546Y-64618312D02*
X103979546Y-65904026D01*
X103979546Y-65904026D02*
X103908117Y-66046884D01*
X103908117Y-66046884D02*
X103765260Y-66118312D01*
X103765260Y-66118312D02*
X103622403Y-66118312D01*
X103336688Y-65118312D02*
X102765260Y-65118312D01*
X103122403Y-64618312D02*
X103122403Y-65904026D01*
X103122403Y-65904026D02*
X103050974Y-66046884D01*
X103050974Y-66046884D02*
X102908117Y-66118312D01*
X102908117Y-66118312D02*
X102765260Y-66118312D01*
X101693831Y-66046884D02*
X101836688Y-66118312D01*
X101836688Y-66118312D02*
X102122403Y-66118312D01*
X102122403Y-66118312D02*
X102265260Y-66046884D01*
X102265260Y-66046884D02*
X102336688Y-65904026D01*
X102336688Y-65904026D02*
X102336688Y-65332598D01*
X102336688Y-65332598D02*
X102265260Y-65189741D01*
X102265260Y-65189741D02*
X102122403Y-65118312D01*
X102122403Y-65118312D02*
X101836688Y-65118312D01*
X101836688Y-65118312D02*
X101693831Y-65189741D01*
X101693831Y-65189741D02*
X101622403Y-65332598D01*
X101622403Y-65332598D02*
X101622403Y-65475455D01*
X101622403Y-65475455D02*
X102336688Y-65618312D01*
X100979546Y-66118312D02*
X100979546Y-65118312D01*
X100979546Y-65404026D02*
X100908117Y-65261169D01*
X100908117Y-65261169D02*
X100836689Y-65189741D01*
X100836689Y-65189741D02*
X100693831Y-65118312D01*
X100693831Y-65118312D02*
X100550974Y-65118312D01*
X100193832Y-65118312D02*
X99836689Y-66118312D01*
X99479546Y-65118312D02*
X99836689Y-66118312D01*
X99836689Y-66118312D02*
X99979546Y-66475455D01*
X99979546Y-66475455D02*
X100050975Y-66546884D01*
X100050975Y-66546884D02*
X100193832Y-66618312D01*
X97550975Y-66118312D02*
X97693832Y-66046884D01*
X97693832Y-66046884D02*
X97765261Y-65904026D01*
X97765261Y-65904026D02*
X97765261Y-64618312D01*
X96408118Y-66046884D02*
X96550975Y-66118312D01*
X96550975Y-66118312D02*
X96836690Y-66118312D01*
X96836690Y-66118312D02*
X96979547Y-66046884D01*
X96979547Y-66046884D02*
X97050975Y-65904026D01*
X97050975Y-65904026D02*
X97050975Y-65332598D01*
X97050975Y-65332598D02*
X96979547Y-65189741D01*
X96979547Y-65189741D02*
X96836690Y-65118312D01*
X96836690Y-65118312D02*
X96550975Y-65118312D01*
X96550975Y-65118312D02*
X96408118Y-65189741D01*
X96408118Y-65189741D02*
X96336690Y-65332598D01*
X96336690Y-65332598D02*
X96336690Y-65475455D01*
X96336690Y-65475455D02*
X97050975Y-65618312D01*
X95836690Y-65118312D02*
X95479547Y-66118312D01*
X95479547Y-66118312D02*
X95122404Y-65118312D01*
X93979547Y-66046884D02*
X94122404Y-66118312D01*
X94122404Y-66118312D02*
X94408119Y-66118312D01*
X94408119Y-66118312D02*
X94550976Y-66046884D01*
X94550976Y-66046884D02*
X94622404Y-65904026D01*
X94622404Y-65904026D02*
X94622404Y-65332598D01*
X94622404Y-65332598D02*
X94550976Y-65189741D01*
X94550976Y-65189741D02*
X94408119Y-65118312D01*
X94408119Y-65118312D02*
X94122404Y-65118312D01*
X94122404Y-65118312D02*
X93979547Y-65189741D01*
X93979547Y-65189741D02*
X93908119Y-65332598D01*
X93908119Y-65332598D02*
X93908119Y-65475455D01*
X93908119Y-65475455D02*
X94622404Y-65618312D01*
X93050976Y-66118312D02*
X93193833Y-66046884D01*
X93193833Y-66046884D02*
X93265262Y-65904026D01*
X93265262Y-65904026D02*
X93265262Y-64618312D01*
X106836689Y-68533228D02*
X106836689Y-67533228D01*
X106836689Y-67033228D02*
X106908117Y-67104657D01*
X106908117Y-67104657D02*
X106836689Y-67176085D01*
X106836689Y-67176085D02*
X106765260Y-67104657D01*
X106765260Y-67104657D02*
X106836689Y-67033228D01*
X106836689Y-67033228D02*
X106836689Y-67176085D01*
X106122403Y-67533228D02*
X106122403Y-68533228D01*
X106122403Y-67676085D02*
X106050974Y-67604657D01*
X106050974Y-67604657D02*
X105908117Y-67533228D01*
X105908117Y-67533228D02*
X105693831Y-67533228D01*
X105693831Y-67533228D02*
X105550974Y-67604657D01*
X105550974Y-67604657D02*
X105479546Y-67747514D01*
X105479546Y-67747514D02*
X105479546Y-68533228D01*
X104122403Y-68533228D02*
X104122403Y-67033228D01*
X104122403Y-68461800D02*
X104265260Y-68533228D01*
X104265260Y-68533228D02*
X104550974Y-68533228D01*
X104550974Y-68533228D02*
X104693831Y-68461800D01*
X104693831Y-68461800D02*
X104765260Y-68390371D01*
X104765260Y-68390371D02*
X104836688Y-68247514D01*
X104836688Y-68247514D02*
X104836688Y-67818942D01*
X104836688Y-67818942D02*
X104765260Y-67676085D01*
X104765260Y-67676085D02*
X104693831Y-67604657D01*
X104693831Y-67604657D02*
X104550974Y-67533228D01*
X104550974Y-67533228D02*
X104265260Y-67533228D01*
X104265260Y-67533228D02*
X104122403Y-67604657D01*
X103408117Y-68533228D02*
X103408117Y-67533228D01*
X103408117Y-67033228D02*
X103479545Y-67104657D01*
X103479545Y-67104657D02*
X103408117Y-67176085D01*
X103408117Y-67176085D02*
X103336688Y-67104657D01*
X103336688Y-67104657D02*
X103408117Y-67033228D01*
X103408117Y-67033228D02*
X103408117Y-67176085D01*
X102050974Y-68461800D02*
X102193831Y-68533228D01*
X102193831Y-68533228D02*
X102479545Y-68533228D01*
X102479545Y-68533228D02*
X102622402Y-68461800D01*
X102622402Y-68461800D02*
X102693831Y-68390371D01*
X102693831Y-68390371D02*
X102765259Y-68247514D01*
X102765259Y-68247514D02*
X102765259Y-67818942D01*
X102765259Y-67818942D02*
X102693831Y-67676085D01*
X102693831Y-67676085D02*
X102622402Y-67604657D01*
X102622402Y-67604657D02*
X102479545Y-67533228D01*
X102479545Y-67533228D02*
X102193831Y-67533228D01*
X102193831Y-67533228D02*
X102050974Y-67604657D01*
X100765260Y-68533228D02*
X100765260Y-67747514D01*
X100765260Y-67747514D02*
X100836688Y-67604657D01*
X100836688Y-67604657D02*
X100979545Y-67533228D01*
X100979545Y-67533228D02*
X101265260Y-67533228D01*
X101265260Y-67533228D02*
X101408117Y-67604657D01*
X100765260Y-68461800D02*
X100908117Y-68533228D01*
X100908117Y-68533228D02*
X101265260Y-68533228D01*
X101265260Y-68533228D02*
X101408117Y-68461800D01*
X101408117Y-68461800D02*
X101479545Y-68318942D01*
X101479545Y-68318942D02*
X101479545Y-68176085D01*
X101479545Y-68176085D02*
X101408117Y-68033228D01*
X101408117Y-68033228D02*
X101265260Y-67961800D01*
X101265260Y-67961800D02*
X100908117Y-67961800D01*
X100908117Y-67961800D02*
X100765260Y-67890371D01*
X100265259Y-67533228D02*
X99693831Y-67533228D01*
X100050974Y-67033228D02*
X100050974Y-68318942D01*
X100050974Y-68318942D02*
X99979545Y-68461800D01*
X99979545Y-68461800D02*
X99836688Y-68533228D01*
X99836688Y-68533228D02*
X99693831Y-68533228D01*
X98979545Y-68533228D02*
X99122402Y-68461800D01*
X99122402Y-68461800D02*
X99193831Y-68390371D01*
X99193831Y-68390371D02*
X99265259Y-68247514D01*
X99265259Y-68247514D02*
X99265259Y-67818942D01*
X99265259Y-67818942D02*
X99193831Y-67676085D01*
X99193831Y-67676085D02*
X99122402Y-67604657D01*
X99122402Y-67604657D02*
X98979545Y-67533228D01*
X98979545Y-67533228D02*
X98765259Y-67533228D01*
X98765259Y-67533228D02*
X98622402Y-67604657D01*
X98622402Y-67604657D02*
X98550974Y-67676085D01*
X98550974Y-67676085D02*
X98479545Y-67818942D01*
X98479545Y-67818942D02*
X98479545Y-68247514D01*
X98479545Y-68247514D02*
X98550974Y-68390371D01*
X98550974Y-68390371D02*
X98622402Y-68461800D01*
X98622402Y-68461800D02*
X98765259Y-68533228D01*
X98765259Y-68533228D02*
X98979545Y-68533228D01*
X97836688Y-68533228D02*
X97836688Y-67533228D01*
X97836688Y-67818942D02*
X97765259Y-67676085D01*
X97765259Y-67676085D02*
X97693831Y-67604657D01*
X97693831Y-67604657D02*
X97550973Y-67533228D01*
X97550973Y-67533228D02*
X97408116Y-67533228D01*
X104449089Y-76305628D02*
X104449089Y-74805628D01*
X104449089Y-74805628D02*
X103877660Y-74805628D01*
X103877660Y-74805628D02*
X103734803Y-74877057D01*
X103734803Y-74877057D02*
X103663374Y-74948485D01*
X103663374Y-74948485D02*
X103591946Y-75091342D01*
X103591946Y-75091342D02*
X103591946Y-75305628D01*
X103591946Y-75305628D02*
X103663374Y-75448485D01*
X103663374Y-75448485D02*
X103734803Y-75519914D01*
X103734803Y-75519914D02*
X103877660Y-75591342D01*
X103877660Y-75591342D02*
X104449089Y-75591342D01*
X102306232Y-76305628D02*
X102306232Y-75519914D01*
X102306232Y-75519914D02*
X102377660Y-75377057D01*
X102377660Y-75377057D02*
X102520517Y-75305628D01*
X102520517Y-75305628D02*
X102806232Y-75305628D01*
X102806232Y-75305628D02*
X102949089Y-75377057D01*
X102306232Y-76234200D02*
X102449089Y-76305628D01*
X102449089Y-76305628D02*
X102806232Y-76305628D01*
X102806232Y-76305628D02*
X102949089Y-76234200D01*
X102949089Y-76234200D02*
X103020517Y-76091342D01*
X103020517Y-76091342D02*
X103020517Y-75948485D01*
X103020517Y-75948485D02*
X102949089Y-75805628D01*
X102949089Y-75805628D02*
X102806232Y-75734200D01*
X102806232Y-75734200D02*
X102449089Y-75734200D01*
X102449089Y-75734200D02*
X102306232Y-75662771D01*
X100949089Y-76234200D02*
X101091946Y-76305628D01*
X101091946Y-76305628D02*
X101377660Y-76305628D01*
X101377660Y-76305628D02*
X101520517Y-76234200D01*
X101520517Y-76234200D02*
X101591946Y-76162771D01*
X101591946Y-76162771D02*
X101663374Y-76019914D01*
X101663374Y-76019914D02*
X101663374Y-75591342D01*
X101663374Y-75591342D02*
X101591946Y-75448485D01*
X101591946Y-75448485D02*
X101520517Y-75377057D01*
X101520517Y-75377057D02*
X101377660Y-75305628D01*
X101377660Y-75305628D02*
X101091946Y-75305628D01*
X101091946Y-75305628D02*
X100949089Y-75377057D01*
X100091946Y-76305628D02*
X100234803Y-76234200D01*
X100234803Y-76234200D02*
X100306232Y-76162771D01*
X100306232Y-76162771D02*
X100377660Y-76019914D01*
X100377660Y-76019914D02*
X100377660Y-75591342D01*
X100377660Y-75591342D02*
X100306232Y-75448485D01*
X100306232Y-75448485D02*
X100234803Y-75377057D01*
X100234803Y-75377057D02*
X100091946Y-75305628D01*
X100091946Y-75305628D02*
X99877660Y-75305628D01*
X99877660Y-75305628D02*
X99734803Y-75377057D01*
X99734803Y-75377057D02*
X99663375Y-75448485D01*
X99663375Y-75448485D02*
X99591946Y-75591342D01*
X99591946Y-75591342D02*
X99591946Y-76019914D01*
X99591946Y-76019914D02*
X99663375Y-76162771D01*
X99663375Y-76162771D02*
X99734803Y-76234200D01*
X99734803Y-76234200D02*
X99877660Y-76305628D01*
X99877660Y-76305628D02*
X100091946Y-76305628D01*
X97806232Y-76162771D02*
X97734803Y-76234200D01*
X97734803Y-76234200D02*
X97806232Y-76305628D01*
X97806232Y-76305628D02*
X97877660Y-76234200D01*
X97877660Y-76234200D02*
X97806232Y-76162771D01*
X97806232Y-76162771D02*
X97806232Y-76305628D01*
X97806232Y-75377057D02*
X97734803Y-75448485D01*
X97734803Y-75448485D02*
X97806232Y-75519914D01*
X97806232Y-75519914D02*
X97877660Y-75448485D01*
X97877660Y-75448485D02*
X97806232Y-75377057D01*
X97806232Y-75377057D02*
X97806232Y-75519914D01*
X97234803Y-74805628D02*
X96306231Y-74805628D01*
X96306231Y-74805628D02*
X96806231Y-75377057D01*
X96806231Y-75377057D02*
X96591946Y-75377057D01*
X96591946Y-75377057D02*
X96449089Y-75448485D01*
X96449089Y-75448485D02*
X96377660Y-75519914D01*
X96377660Y-75519914D02*
X96306231Y-75662771D01*
X96306231Y-75662771D02*
X96306231Y-76019914D01*
X96306231Y-76019914D02*
X96377660Y-76162771D01*
X96377660Y-76162771D02*
X96449089Y-76234200D01*
X96449089Y-76234200D02*
X96591946Y-76305628D01*
X96591946Y-76305628D02*
X97020517Y-76305628D01*
X97020517Y-76305628D02*
X97163374Y-76234200D01*
X97163374Y-76234200D02*
X97234803Y-76162771D01*
X129188689Y-76356428D02*
X129188689Y-74856428D01*
X129188689Y-74856428D02*
X128617260Y-74856428D01*
X128617260Y-74856428D02*
X128474403Y-74927857D01*
X128474403Y-74927857D02*
X128402974Y-74999285D01*
X128402974Y-74999285D02*
X128331546Y-75142142D01*
X128331546Y-75142142D02*
X128331546Y-75356428D01*
X128331546Y-75356428D02*
X128402974Y-75499285D01*
X128402974Y-75499285D02*
X128474403Y-75570714D01*
X128474403Y-75570714D02*
X128617260Y-75642142D01*
X128617260Y-75642142D02*
X129188689Y-75642142D01*
X127045832Y-76356428D02*
X127045832Y-75570714D01*
X127045832Y-75570714D02*
X127117260Y-75427857D01*
X127117260Y-75427857D02*
X127260117Y-75356428D01*
X127260117Y-75356428D02*
X127545832Y-75356428D01*
X127545832Y-75356428D02*
X127688689Y-75427857D01*
X127045832Y-76285000D02*
X127188689Y-76356428D01*
X127188689Y-76356428D02*
X127545832Y-76356428D01*
X127545832Y-76356428D02*
X127688689Y-76285000D01*
X127688689Y-76285000D02*
X127760117Y-76142142D01*
X127760117Y-76142142D02*
X127760117Y-75999285D01*
X127760117Y-75999285D02*
X127688689Y-75856428D01*
X127688689Y-75856428D02*
X127545832Y-75785000D01*
X127545832Y-75785000D02*
X127188689Y-75785000D01*
X127188689Y-75785000D02*
X127045832Y-75713571D01*
X125688689Y-76285000D02*
X125831546Y-76356428D01*
X125831546Y-76356428D02*
X126117260Y-76356428D01*
X126117260Y-76356428D02*
X126260117Y-76285000D01*
X126260117Y-76285000D02*
X126331546Y-76213571D01*
X126331546Y-76213571D02*
X126402974Y-76070714D01*
X126402974Y-76070714D02*
X126402974Y-75642142D01*
X126402974Y-75642142D02*
X126331546Y-75499285D01*
X126331546Y-75499285D02*
X126260117Y-75427857D01*
X126260117Y-75427857D02*
X126117260Y-75356428D01*
X126117260Y-75356428D02*
X125831546Y-75356428D01*
X125831546Y-75356428D02*
X125688689Y-75427857D01*
X124831546Y-76356428D02*
X124974403Y-76285000D01*
X124974403Y-76285000D02*
X125045832Y-76213571D01*
X125045832Y-76213571D02*
X125117260Y-76070714D01*
X125117260Y-76070714D02*
X125117260Y-75642142D01*
X125117260Y-75642142D02*
X125045832Y-75499285D01*
X125045832Y-75499285D02*
X124974403Y-75427857D01*
X124974403Y-75427857D02*
X124831546Y-75356428D01*
X124831546Y-75356428D02*
X124617260Y-75356428D01*
X124617260Y-75356428D02*
X124474403Y-75427857D01*
X124474403Y-75427857D02*
X124402975Y-75499285D01*
X124402975Y-75499285D02*
X124331546Y-75642142D01*
X124331546Y-75642142D02*
X124331546Y-76070714D01*
X124331546Y-76070714D02*
X124402975Y-76213571D01*
X124402975Y-76213571D02*
X124474403Y-76285000D01*
X124474403Y-76285000D02*
X124617260Y-76356428D01*
X124617260Y-76356428D02*
X124831546Y-76356428D01*
X122545832Y-76213571D02*
X122474403Y-76285000D01*
X122474403Y-76285000D02*
X122545832Y-76356428D01*
X122545832Y-76356428D02*
X122617260Y-76285000D01*
X122617260Y-76285000D02*
X122545832Y-76213571D01*
X122545832Y-76213571D02*
X122545832Y-76356428D01*
X122545832Y-75427857D02*
X122474403Y-75499285D01*
X122474403Y-75499285D02*
X122545832Y-75570714D01*
X122545832Y-75570714D02*
X122617260Y-75499285D01*
X122617260Y-75499285D02*
X122545832Y-75427857D01*
X122545832Y-75427857D02*
X122545832Y-75570714D01*
X121974403Y-74856428D02*
X121045831Y-74856428D01*
X121045831Y-74856428D02*
X121545831Y-75427857D01*
X121545831Y-75427857D02*
X121331546Y-75427857D01*
X121331546Y-75427857D02*
X121188689Y-75499285D01*
X121188689Y-75499285D02*
X121117260Y-75570714D01*
X121117260Y-75570714D02*
X121045831Y-75713571D01*
X121045831Y-75713571D02*
X121045831Y-76070714D01*
X121045831Y-76070714D02*
X121117260Y-76213571D01*
X121117260Y-76213571D02*
X121188689Y-76285000D01*
X121188689Y-76285000D02*
X121331546Y-76356428D01*
X121331546Y-76356428D02*
X121760117Y-76356428D01*
X121760117Y-76356428D02*
X121902974Y-76285000D01*
X121902974Y-76285000D02*
X121974403Y-76213571D01*
X131558889Y-134039598D02*
X131344603Y-134111026D01*
X131344603Y-134111026D02*
X131273174Y-134182455D01*
X131273174Y-134182455D02*
X131201746Y-134325312D01*
X131201746Y-134325312D02*
X131201746Y-134539598D01*
X131201746Y-134539598D02*
X131273174Y-134682455D01*
X131273174Y-134682455D02*
X131344603Y-134753884D01*
X131344603Y-134753884D02*
X131487460Y-134825312D01*
X131487460Y-134825312D02*
X132058889Y-134825312D01*
X132058889Y-134825312D02*
X132058889Y-133325312D01*
X132058889Y-133325312D02*
X131558889Y-133325312D01*
X131558889Y-133325312D02*
X131416032Y-133396741D01*
X131416032Y-133396741D02*
X131344603Y-133468169D01*
X131344603Y-133468169D02*
X131273174Y-133611026D01*
X131273174Y-133611026D02*
X131273174Y-133753884D01*
X131273174Y-133753884D02*
X131344603Y-133896741D01*
X131344603Y-133896741D02*
X131416032Y-133968169D01*
X131416032Y-133968169D02*
X131558889Y-134039598D01*
X131558889Y-134039598D02*
X132058889Y-134039598D01*
X129916032Y-134825312D02*
X129916032Y-134039598D01*
X129916032Y-134039598D02*
X129987460Y-133896741D01*
X129987460Y-133896741D02*
X130130317Y-133825312D01*
X130130317Y-133825312D02*
X130416032Y-133825312D01*
X130416032Y-133825312D02*
X130558889Y-133896741D01*
X129916032Y-134753884D02*
X130058889Y-134825312D01*
X130058889Y-134825312D02*
X130416032Y-134825312D01*
X130416032Y-134825312D02*
X130558889Y-134753884D01*
X130558889Y-134753884D02*
X130630317Y-134611026D01*
X130630317Y-134611026D02*
X130630317Y-134468169D01*
X130630317Y-134468169D02*
X130558889Y-134325312D01*
X130558889Y-134325312D02*
X130416032Y-134253884D01*
X130416032Y-134253884D02*
X130058889Y-134253884D01*
X130058889Y-134253884D02*
X129916032Y-134182455D01*
X129416031Y-133825312D02*
X128844603Y-133825312D01*
X129201746Y-133325312D02*
X129201746Y-134611026D01*
X129201746Y-134611026D02*
X129130317Y-134753884D01*
X129130317Y-134753884D02*
X128987460Y-134825312D01*
X128987460Y-134825312D02*
X128844603Y-134825312D01*
X128558888Y-133825312D02*
X127987460Y-133825312D01*
X128344603Y-133325312D02*
X128344603Y-134611026D01*
X128344603Y-134611026D02*
X128273174Y-134753884D01*
X128273174Y-134753884D02*
X128130317Y-134825312D01*
X128130317Y-134825312D02*
X127987460Y-134825312D01*
X126916031Y-134753884D02*
X127058888Y-134825312D01*
X127058888Y-134825312D02*
X127344603Y-134825312D01*
X127344603Y-134825312D02*
X127487460Y-134753884D01*
X127487460Y-134753884D02*
X127558888Y-134611026D01*
X127558888Y-134611026D02*
X127558888Y-134039598D01*
X127558888Y-134039598D02*
X127487460Y-133896741D01*
X127487460Y-133896741D02*
X127344603Y-133825312D01*
X127344603Y-133825312D02*
X127058888Y-133825312D01*
X127058888Y-133825312D02*
X126916031Y-133896741D01*
X126916031Y-133896741D02*
X126844603Y-134039598D01*
X126844603Y-134039598D02*
X126844603Y-134182455D01*
X126844603Y-134182455D02*
X127558888Y-134325312D01*
X126201746Y-134825312D02*
X126201746Y-133825312D01*
X126201746Y-134111026D02*
X126130317Y-133968169D01*
X126130317Y-133968169D02*
X126058889Y-133896741D01*
X126058889Y-133896741D02*
X125916031Y-133825312D01*
X125916031Y-133825312D02*
X125773174Y-133825312D01*
X125416032Y-133825312D02*
X125058889Y-134825312D01*
X124701746Y-133825312D02*
X125058889Y-134825312D01*
X125058889Y-134825312D02*
X125201746Y-135182455D01*
X125201746Y-135182455D02*
X125273175Y-135253884D01*
X125273175Y-135253884D02*
X125416032Y-135325312D01*
X122773175Y-134825312D02*
X122916032Y-134753884D01*
X122916032Y-134753884D02*
X122987461Y-134611026D01*
X122987461Y-134611026D02*
X122987461Y-133325312D01*
X121630318Y-134753884D02*
X121773175Y-134825312D01*
X121773175Y-134825312D02*
X122058890Y-134825312D01*
X122058890Y-134825312D02*
X122201747Y-134753884D01*
X122201747Y-134753884D02*
X122273175Y-134611026D01*
X122273175Y-134611026D02*
X122273175Y-134039598D01*
X122273175Y-134039598D02*
X122201747Y-133896741D01*
X122201747Y-133896741D02*
X122058890Y-133825312D01*
X122058890Y-133825312D02*
X121773175Y-133825312D01*
X121773175Y-133825312D02*
X121630318Y-133896741D01*
X121630318Y-133896741D02*
X121558890Y-134039598D01*
X121558890Y-134039598D02*
X121558890Y-134182455D01*
X121558890Y-134182455D02*
X122273175Y-134325312D01*
X121058890Y-133825312D02*
X120701747Y-134825312D01*
X120701747Y-134825312D02*
X120344604Y-133825312D01*
X119201747Y-134753884D02*
X119344604Y-134825312D01*
X119344604Y-134825312D02*
X119630319Y-134825312D01*
X119630319Y-134825312D02*
X119773176Y-134753884D01*
X119773176Y-134753884D02*
X119844604Y-134611026D01*
X119844604Y-134611026D02*
X119844604Y-134039598D01*
X119844604Y-134039598D02*
X119773176Y-133896741D01*
X119773176Y-133896741D02*
X119630319Y-133825312D01*
X119630319Y-133825312D02*
X119344604Y-133825312D01*
X119344604Y-133825312D02*
X119201747Y-133896741D01*
X119201747Y-133896741D02*
X119130319Y-134039598D01*
X119130319Y-134039598D02*
X119130319Y-134182455D01*
X119130319Y-134182455D02*
X119844604Y-134325312D01*
X118273176Y-134825312D02*
X118416033Y-134753884D01*
X118416033Y-134753884D02*
X118487462Y-134611026D01*
X118487462Y-134611026D02*
X118487462Y-133325312D01*
X132058889Y-137240228D02*
X132058889Y-136240228D01*
X132058889Y-135740228D02*
X132130317Y-135811657D01*
X132130317Y-135811657D02*
X132058889Y-135883085D01*
X132058889Y-135883085D02*
X131987460Y-135811657D01*
X131987460Y-135811657D02*
X132058889Y-135740228D01*
X132058889Y-135740228D02*
X132058889Y-135883085D01*
X131344603Y-136240228D02*
X131344603Y-137240228D01*
X131344603Y-136383085D02*
X131273174Y-136311657D01*
X131273174Y-136311657D02*
X131130317Y-136240228D01*
X131130317Y-136240228D02*
X130916031Y-136240228D01*
X130916031Y-136240228D02*
X130773174Y-136311657D01*
X130773174Y-136311657D02*
X130701746Y-136454514D01*
X130701746Y-136454514D02*
X130701746Y-137240228D01*
X129344603Y-137240228D02*
X129344603Y-135740228D01*
X129344603Y-137168800D02*
X129487460Y-137240228D01*
X129487460Y-137240228D02*
X129773174Y-137240228D01*
X129773174Y-137240228D02*
X129916031Y-137168800D01*
X129916031Y-137168800D02*
X129987460Y-137097371D01*
X129987460Y-137097371D02*
X130058888Y-136954514D01*
X130058888Y-136954514D02*
X130058888Y-136525942D01*
X130058888Y-136525942D02*
X129987460Y-136383085D01*
X129987460Y-136383085D02*
X129916031Y-136311657D01*
X129916031Y-136311657D02*
X129773174Y-136240228D01*
X129773174Y-136240228D02*
X129487460Y-136240228D01*
X129487460Y-136240228D02*
X129344603Y-136311657D01*
X128630317Y-137240228D02*
X128630317Y-136240228D01*
X128630317Y-135740228D02*
X128701745Y-135811657D01*
X128701745Y-135811657D02*
X128630317Y-135883085D01*
X128630317Y-135883085D02*
X128558888Y-135811657D01*
X128558888Y-135811657D02*
X128630317Y-135740228D01*
X128630317Y-135740228D02*
X128630317Y-135883085D01*
X127273174Y-137168800D02*
X127416031Y-137240228D01*
X127416031Y-137240228D02*
X127701745Y-137240228D01*
X127701745Y-137240228D02*
X127844602Y-137168800D01*
X127844602Y-137168800D02*
X127916031Y-137097371D01*
X127916031Y-137097371D02*
X127987459Y-136954514D01*
X127987459Y-136954514D02*
X127987459Y-136525942D01*
X127987459Y-136525942D02*
X127916031Y-136383085D01*
X127916031Y-136383085D02*
X127844602Y-136311657D01*
X127844602Y-136311657D02*
X127701745Y-136240228D01*
X127701745Y-136240228D02*
X127416031Y-136240228D01*
X127416031Y-136240228D02*
X127273174Y-136311657D01*
X125987460Y-137240228D02*
X125987460Y-136454514D01*
X125987460Y-136454514D02*
X126058888Y-136311657D01*
X126058888Y-136311657D02*
X126201745Y-136240228D01*
X126201745Y-136240228D02*
X126487460Y-136240228D01*
X126487460Y-136240228D02*
X126630317Y-136311657D01*
X125987460Y-137168800D02*
X126130317Y-137240228D01*
X126130317Y-137240228D02*
X126487460Y-137240228D01*
X126487460Y-137240228D02*
X126630317Y-137168800D01*
X126630317Y-137168800D02*
X126701745Y-137025942D01*
X126701745Y-137025942D02*
X126701745Y-136883085D01*
X126701745Y-136883085D02*
X126630317Y-136740228D01*
X126630317Y-136740228D02*
X126487460Y-136668800D01*
X126487460Y-136668800D02*
X126130317Y-136668800D01*
X126130317Y-136668800D02*
X125987460Y-136597371D01*
X125487459Y-136240228D02*
X124916031Y-136240228D01*
X125273174Y-135740228D02*
X125273174Y-137025942D01*
X125273174Y-137025942D02*
X125201745Y-137168800D01*
X125201745Y-137168800D02*
X125058888Y-137240228D01*
X125058888Y-137240228D02*
X124916031Y-137240228D01*
X124201745Y-137240228D02*
X124344602Y-137168800D01*
X124344602Y-137168800D02*
X124416031Y-137097371D01*
X124416031Y-137097371D02*
X124487459Y-136954514D01*
X124487459Y-136954514D02*
X124487459Y-136525942D01*
X124487459Y-136525942D02*
X124416031Y-136383085D01*
X124416031Y-136383085D02*
X124344602Y-136311657D01*
X124344602Y-136311657D02*
X124201745Y-136240228D01*
X124201745Y-136240228D02*
X123987459Y-136240228D01*
X123987459Y-136240228D02*
X123844602Y-136311657D01*
X123844602Y-136311657D02*
X123773174Y-136383085D01*
X123773174Y-136383085D02*
X123701745Y-136525942D01*
X123701745Y-136525942D02*
X123701745Y-136954514D01*
X123701745Y-136954514D02*
X123773174Y-137097371D01*
X123773174Y-137097371D02*
X123844602Y-137168800D01*
X123844602Y-137168800D02*
X123987459Y-137240228D01*
X123987459Y-137240228D02*
X124201745Y-137240228D01*
X123058888Y-137240228D02*
X123058888Y-136240228D01*
X123058888Y-136525942D02*
X122987459Y-136383085D01*
X122987459Y-136383085D02*
X122916031Y-136311657D01*
X122916031Y-136311657D02*
X122773173Y-136240228D01*
X122773173Y-136240228D02*
X122630316Y-136240228D01*
X106539889Y-88243398D02*
X106325603Y-88314826D01*
X106325603Y-88314826D02*
X106254174Y-88386255D01*
X106254174Y-88386255D02*
X106182746Y-88529112D01*
X106182746Y-88529112D02*
X106182746Y-88743398D01*
X106182746Y-88743398D02*
X106254174Y-88886255D01*
X106254174Y-88886255D02*
X106325603Y-88957684D01*
X106325603Y-88957684D02*
X106468460Y-89029112D01*
X106468460Y-89029112D02*
X107039889Y-89029112D01*
X107039889Y-89029112D02*
X107039889Y-87529112D01*
X107039889Y-87529112D02*
X106539889Y-87529112D01*
X106539889Y-87529112D02*
X106397032Y-87600541D01*
X106397032Y-87600541D02*
X106325603Y-87671969D01*
X106325603Y-87671969D02*
X106254174Y-87814826D01*
X106254174Y-87814826D02*
X106254174Y-87957684D01*
X106254174Y-87957684D02*
X106325603Y-88100541D01*
X106325603Y-88100541D02*
X106397032Y-88171969D01*
X106397032Y-88171969D02*
X106539889Y-88243398D01*
X106539889Y-88243398D02*
X107039889Y-88243398D01*
X104897032Y-89029112D02*
X104897032Y-88243398D01*
X104897032Y-88243398D02*
X104968460Y-88100541D01*
X104968460Y-88100541D02*
X105111317Y-88029112D01*
X105111317Y-88029112D02*
X105397032Y-88029112D01*
X105397032Y-88029112D02*
X105539889Y-88100541D01*
X104897032Y-88957684D02*
X105039889Y-89029112D01*
X105039889Y-89029112D02*
X105397032Y-89029112D01*
X105397032Y-89029112D02*
X105539889Y-88957684D01*
X105539889Y-88957684D02*
X105611317Y-88814826D01*
X105611317Y-88814826D02*
X105611317Y-88671969D01*
X105611317Y-88671969D02*
X105539889Y-88529112D01*
X105539889Y-88529112D02*
X105397032Y-88457684D01*
X105397032Y-88457684D02*
X105039889Y-88457684D01*
X105039889Y-88457684D02*
X104897032Y-88386255D01*
X104397031Y-88029112D02*
X103825603Y-88029112D01*
X104182746Y-87529112D02*
X104182746Y-88814826D01*
X104182746Y-88814826D02*
X104111317Y-88957684D01*
X104111317Y-88957684D02*
X103968460Y-89029112D01*
X103968460Y-89029112D02*
X103825603Y-89029112D01*
X103539888Y-88029112D02*
X102968460Y-88029112D01*
X103325603Y-87529112D02*
X103325603Y-88814826D01*
X103325603Y-88814826D02*
X103254174Y-88957684D01*
X103254174Y-88957684D02*
X103111317Y-89029112D01*
X103111317Y-89029112D02*
X102968460Y-89029112D01*
X101897031Y-88957684D02*
X102039888Y-89029112D01*
X102039888Y-89029112D02*
X102325603Y-89029112D01*
X102325603Y-89029112D02*
X102468460Y-88957684D01*
X102468460Y-88957684D02*
X102539888Y-88814826D01*
X102539888Y-88814826D02*
X102539888Y-88243398D01*
X102539888Y-88243398D02*
X102468460Y-88100541D01*
X102468460Y-88100541D02*
X102325603Y-88029112D01*
X102325603Y-88029112D02*
X102039888Y-88029112D01*
X102039888Y-88029112D02*
X101897031Y-88100541D01*
X101897031Y-88100541D02*
X101825603Y-88243398D01*
X101825603Y-88243398D02*
X101825603Y-88386255D01*
X101825603Y-88386255D02*
X102539888Y-88529112D01*
X101182746Y-89029112D02*
X101182746Y-88029112D01*
X101182746Y-88314826D02*
X101111317Y-88171969D01*
X101111317Y-88171969D02*
X101039889Y-88100541D01*
X101039889Y-88100541D02*
X100897031Y-88029112D01*
X100897031Y-88029112D02*
X100754174Y-88029112D01*
X100397032Y-88029112D02*
X100039889Y-89029112D01*
X99682746Y-88029112D02*
X100039889Y-89029112D01*
X100039889Y-89029112D02*
X100182746Y-89386255D01*
X100182746Y-89386255D02*
X100254175Y-89457684D01*
X100254175Y-89457684D02*
X100397032Y-89529112D01*
X97754175Y-89029112D02*
X97897032Y-88957684D01*
X97897032Y-88957684D02*
X97968461Y-88814826D01*
X97968461Y-88814826D02*
X97968461Y-87529112D01*
X96611318Y-88957684D02*
X96754175Y-89029112D01*
X96754175Y-89029112D02*
X97039890Y-89029112D01*
X97039890Y-89029112D02*
X97182747Y-88957684D01*
X97182747Y-88957684D02*
X97254175Y-88814826D01*
X97254175Y-88814826D02*
X97254175Y-88243398D01*
X97254175Y-88243398D02*
X97182747Y-88100541D01*
X97182747Y-88100541D02*
X97039890Y-88029112D01*
X97039890Y-88029112D02*
X96754175Y-88029112D01*
X96754175Y-88029112D02*
X96611318Y-88100541D01*
X96611318Y-88100541D02*
X96539890Y-88243398D01*
X96539890Y-88243398D02*
X96539890Y-88386255D01*
X96539890Y-88386255D02*
X97254175Y-88529112D01*
X96039890Y-88029112D02*
X95682747Y-89029112D01*
X95682747Y-89029112D02*
X95325604Y-88029112D01*
X94182747Y-88957684D02*
X94325604Y-89029112D01*
X94325604Y-89029112D02*
X94611319Y-89029112D01*
X94611319Y-89029112D02*
X94754176Y-88957684D01*
X94754176Y-88957684D02*
X94825604Y-88814826D01*
X94825604Y-88814826D02*
X94825604Y-88243398D01*
X94825604Y-88243398D02*
X94754176Y-88100541D01*
X94754176Y-88100541D02*
X94611319Y-88029112D01*
X94611319Y-88029112D02*
X94325604Y-88029112D01*
X94325604Y-88029112D02*
X94182747Y-88100541D01*
X94182747Y-88100541D02*
X94111319Y-88243398D01*
X94111319Y-88243398D02*
X94111319Y-88386255D01*
X94111319Y-88386255D02*
X94825604Y-88529112D01*
X93254176Y-89029112D02*
X93397033Y-88957684D01*
X93397033Y-88957684D02*
X93468462Y-88814826D01*
X93468462Y-88814826D02*
X93468462Y-87529112D01*
X107039889Y-91444028D02*
X107039889Y-90444028D01*
X107039889Y-89944028D02*
X107111317Y-90015457D01*
X107111317Y-90015457D02*
X107039889Y-90086885D01*
X107039889Y-90086885D02*
X106968460Y-90015457D01*
X106968460Y-90015457D02*
X107039889Y-89944028D01*
X107039889Y-89944028D02*
X107039889Y-90086885D01*
X106325603Y-90444028D02*
X106325603Y-91444028D01*
X106325603Y-90586885D02*
X106254174Y-90515457D01*
X106254174Y-90515457D02*
X106111317Y-90444028D01*
X106111317Y-90444028D02*
X105897031Y-90444028D01*
X105897031Y-90444028D02*
X105754174Y-90515457D01*
X105754174Y-90515457D02*
X105682746Y-90658314D01*
X105682746Y-90658314D02*
X105682746Y-91444028D01*
X104325603Y-91444028D02*
X104325603Y-89944028D01*
X104325603Y-91372600D02*
X104468460Y-91444028D01*
X104468460Y-91444028D02*
X104754174Y-91444028D01*
X104754174Y-91444028D02*
X104897031Y-91372600D01*
X104897031Y-91372600D02*
X104968460Y-91301171D01*
X104968460Y-91301171D02*
X105039888Y-91158314D01*
X105039888Y-91158314D02*
X105039888Y-90729742D01*
X105039888Y-90729742D02*
X104968460Y-90586885D01*
X104968460Y-90586885D02*
X104897031Y-90515457D01*
X104897031Y-90515457D02*
X104754174Y-90444028D01*
X104754174Y-90444028D02*
X104468460Y-90444028D01*
X104468460Y-90444028D02*
X104325603Y-90515457D01*
X103611317Y-91444028D02*
X103611317Y-90444028D01*
X103611317Y-89944028D02*
X103682745Y-90015457D01*
X103682745Y-90015457D02*
X103611317Y-90086885D01*
X103611317Y-90086885D02*
X103539888Y-90015457D01*
X103539888Y-90015457D02*
X103611317Y-89944028D01*
X103611317Y-89944028D02*
X103611317Y-90086885D01*
X102254174Y-91372600D02*
X102397031Y-91444028D01*
X102397031Y-91444028D02*
X102682745Y-91444028D01*
X102682745Y-91444028D02*
X102825602Y-91372600D01*
X102825602Y-91372600D02*
X102897031Y-91301171D01*
X102897031Y-91301171D02*
X102968459Y-91158314D01*
X102968459Y-91158314D02*
X102968459Y-90729742D01*
X102968459Y-90729742D02*
X102897031Y-90586885D01*
X102897031Y-90586885D02*
X102825602Y-90515457D01*
X102825602Y-90515457D02*
X102682745Y-90444028D01*
X102682745Y-90444028D02*
X102397031Y-90444028D01*
X102397031Y-90444028D02*
X102254174Y-90515457D01*
X100968460Y-91444028D02*
X100968460Y-90658314D01*
X100968460Y-90658314D02*
X101039888Y-90515457D01*
X101039888Y-90515457D02*
X101182745Y-90444028D01*
X101182745Y-90444028D02*
X101468460Y-90444028D01*
X101468460Y-90444028D02*
X101611317Y-90515457D01*
X100968460Y-91372600D02*
X101111317Y-91444028D01*
X101111317Y-91444028D02*
X101468460Y-91444028D01*
X101468460Y-91444028D02*
X101611317Y-91372600D01*
X101611317Y-91372600D02*
X101682745Y-91229742D01*
X101682745Y-91229742D02*
X101682745Y-91086885D01*
X101682745Y-91086885D02*
X101611317Y-90944028D01*
X101611317Y-90944028D02*
X101468460Y-90872600D01*
X101468460Y-90872600D02*
X101111317Y-90872600D01*
X101111317Y-90872600D02*
X100968460Y-90801171D01*
X100468459Y-90444028D02*
X99897031Y-90444028D01*
X100254174Y-89944028D02*
X100254174Y-91229742D01*
X100254174Y-91229742D02*
X100182745Y-91372600D01*
X100182745Y-91372600D02*
X100039888Y-91444028D01*
X100039888Y-91444028D02*
X99897031Y-91444028D01*
X99182745Y-91444028D02*
X99325602Y-91372600D01*
X99325602Y-91372600D02*
X99397031Y-91301171D01*
X99397031Y-91301171D02*
X99468459Y-91158314D01*
X99468459Y-91158314D02*
X99468459Y-90729742D01*
X99468459Y-90729742D02*
X99397031Y-90586885D01*
X99397031Y-90586885D02*
X99325602Y-90515457D01*
X99325602Y-90515457D02*
X99182745Y-90444028D01*
X99182745Y-90444028D02*
X98968459Y-90444028D01*
X98968459Y-90444028D02*
X98825602Y-90515457D01*
X98825602Y-90515457D02*
X98754174Y-90586885D01*
X98754174Y-90586885D02*
X98682745Y-90729742D01*
X98682745Y-90729742D02*
X98682745Y-91158314D01*
X98682745Y-91158314D02*
X98754174Y-91301171D01*
X98754174Y-91301171D02*
X98825602Y-91372600D01*
X98825602Y-91372600D02*
X98968459Y-91444028D01*
X98968459Y-91444028D02*
X99182745Y-91444028D01*
X98039888Y-91444028D02*
X98039888Y-90444028D01*
X98039888Y-90729742D02*
X97968459Y-90586885D01*
X97968459Y-90586885D02*
X97897031Y-90515457D01*
X97897031Y-90515457D02*
X97754173Y-90444028D01*
X97754173Y-90444028D02*
X97611316Y-90444028D01*
X104652289Y-99216428D02*
X104652289Y-97716428D01*
X104652289Y-97716428D02*
X104080860Y-97716428D01*
X104080860Y-97716428D02*
X103938003Y-97787857D01*
X103938003Y-97787857D02*
X103866574Y-97859285D01*
X103866574Y-97859285D02*
X103795146Y-98002142D01*
X103795146Y-98002142D02*
X103795146Y-98216428D01*
X103795146Y-98216428D02*
X103866574Y-98359285D01*
X103866574Y-98359285D02*
X103938003Y-98430714D01*
X103938003Y-98430714D02*
X104080860Y-98502142D01*
X104080860Y-98502142D02*
X104652289Y-98502142D01*
X102509432Y-99216428D02*
X102509432Y-98430714D01*
X102509432Y-98430714D02*
X102580860Y-98287857D01*
X102580860Y-98287857D02*
X102723717Y-98216428D01*
X102723717Y-98216428D02*
X103009432Y-98216428D01*
X103009432Y-98216428D02*
X103152289Y-98287857D01*
X102509432Y-99145000D02*
X102652289Y-99216428D01*
X102652289Y-99216428D02*
X103009432Y-99216428D01*
X103009432Y-99216428D02*
X103152289Y-99145000D01*
X103152289Y-99145000D02*
X103223717Y-99002142D01*
X103223717Y-99002142D02*
X103223717Y-98859285D01*
X103223717Y-98859285D02*
X103152289Y-98716428D01*
X103152289Y-98716428D02*
X103009432Y-98645000D01*
X103009432Y-98645000D02*
X102652289Y-98645000D01*
X102652289Y-98645000D02*
X102509432Y-98573571D01*
X101152289Y-99145000D02*
X101295146Y-99216428D01*
X101295146Y-99216428D02*
X101580860Y-99216428D01*
X101580860Y-99216428D02*
X101723717Y-99145000D01*
X101723717Y-99145000D02*
X101795146Y-99073571D01*
X101795146Y-99073571D02*
X101866574Y-98930714D01*
X101866574Y-98930714D02*
X101866574Y-98502142D01*
X101866574Y-98502142D02*
X101795146Y-98359285D01*
X101795146Y-98359285D02*
X101723717Y-98287857D01*
X101723717Y-98287857D02*
X101580860Y-98216428D01*
X101580860Y-98216428D02*
X101295146Y-98216428D01*
X101295146Y-98216428D02*
X101152289Y-98287857D01*
X100295146Y-99216428D02*
X100438003Y-99145000D01*
X100438003Y-99145000D02*
X100509432Y-99073571D01*
X100509432Y-99073571D02*
X100580860Y-98930714D01*
X100580860Y-98930714D02*
X100580860Y-98502142D01*
X100580860Y-98502142D02*
X100509432Y-98359285D01*
X100509432Y-98359285D02*
X100438003Y-98287857D01*
X100438003Y-98287857D02*
X100295146Y-98216428D01*
X100295146Y-98216428D02*
X100080860Y-98216428D01*
X100080860Y-98216428D02*
X99938003Y-98287857D01*
X99938003Y-98287857D02*
X99866575Y-98359285D01*
X99866575Y-98359285D02*
X99795146Y-98502142D01*
X99795146Y-98502142D02*
X99795146Y-98930714D01*
X99795146Y-98930714D02*
X99866575Y-99073571D01*
X99866575Y-99073571D02*
X99938003Y-99145000D01*
X99938003Y-99145000D02*
X100080860Y-99216428D01*
X100080860Y-99216428D02*
X100295146Y-99216428D01*
X98009432Y-99073571D02*
X97938003Y-99145000D01*
X97938003Y-99145000D02*
X98009432Y-99216428D01*
X98009432Y-99216428D02*
X98080860Y-99145000D01*
X98080860Y-99145000D02*
X98009432Y-99073571D01*
X98009432Y-99073571D02*
X98009432Y-99216428D01*
X98009432Y-98287857D02*
X97938003Y-98359285D01*
X97938003Y-98359285D02*
X98009432Y-98430714D01*
X98009432Y-98430714D02*
X98080860Y-98359285D01*
X98080860Y-98359285D02*
X98009432Y-98287857D01*
X98009432Y-98287857D02*
X98009432Y-98430714D01*
X97438003Y-97716428D02*
X96509431Y-97716428D01*
X96509431Y-97716428D02*
X97009431Y-98287857D01*
X97009431Y-98287857D02*
X96795146Y-98287857D01*
X96795146Y-98287857D02*
X96652289Y-98359285D01*
X96652289Y-98359285D02*
X96580860Y-98430714D01*
X96580860Y-98430714D02*
X96509431Y-98573571D01*
X96509431Y-98573571D02*
X96509431Y-98930714D01*
X96509431Y-98930714D02*
X96580860Y-99073571D01*
X96580860Y-99073571D02*
X96652289Y-99145000D01*
X96652289Y-99145000D02*
X96795146Y-99216428D01*
X96795146Y-99216428D02*
X97223717Y-99216428D01*
X97223717Y-99216428D02*
X97366574Y-99145000D01*
X97366574Y-99145000D02*
X97438003Y-99073571D01*
X106616089Y-111077998D02*
X106401803Y-111149426D01*
X106401803Y-111149426D02*
X106330374Y-111220855D01*
X106330374Y-111220855D02*
X106258946Y-111363712D01*
X106258946Y-111363712D02*
X106258946Y-111577998D01*
X106258946Y-111577998D02*
X106330374Y-111720855D01*
X106330374Y-111720855D02*
X106401803Y-111792284D01*
X106401803Y-111792284D02*
X106544660Y-111863712D01*
X106544660Y-111863712D02*
X107116089Y-111863712D01*
X107116089Y-111863712D02*
X107116089Y-110363712D01*
X107116089Y-110363712D02*
X106616089Y-110363712D01*
X106616089Y-110363712D02*
X106473232Y-110435141D01*
X106473232Y-110435141D02*
X106401803Y-110506569D01*
X106401803Y-110506569D02*
X106330374Y-110649426D01*
X106330374Y-110649426D02*
X106330374Y-110792284D01*
X106330374Y-110792284D02*
X106401803Y-110935141D01*
X106401803Y-110935141D02*
X106473232Y-111006569D01*
X106473232Y-111006569D02*
X106616089Y-111077998D01*
X106616089Y-111077998D02*
X107116089Y-111077998D01*
X104973232Y-111863712D02*
X104973232Y-111077998D01*
X104973232Y-111077998D02*
X105044660Y-110935141D01*
X105044660Y-110935141D02*
X105187517Y-110863712D01*
X105187517Y-110863712D02*
X105473232Y-110863712D01*
X105473232Y-110863712D02*
X105616089Y-110935141D01*
X104973232Y-111792284D02*
X105116089Y-111863712D01*
X105116089Y-111863712D02*
X105473232Y-111863712D01*
X105473232Y-111863712D02*
X105616089Y-111792284D01*
X105616089Y-111792284D02*
X105687517Y-111649426D01*
X105687517Y-111649426D02*
X105687517Y-111506569D01*
X105687517Y-111506569D02*
X105616089Y-111363712D01*
X105616089Y-111363712D02*
X105473232Y-111292284D01*
X105473232Y-111292284D02*
X105116089Y-111292284D01*
X105116089Y-111292284D02*
X104973232Y-111220855D01*
X104473231Y-110863712D02*
X103901803Y-110863712D01*
X104258946Y-110363712D02*
X104258946Y-111649426D01*
X104258946Y-111649426D02*
X104187517Y-111792284D01*
X104187517Y-111792284D02*
X104044660Y-111863712D01*
X104044660Y-111863712D02*
X103901803Y-111863712D01*
X103616088Y-110863712D02*
X103044660Y-110863712D01*
X103401803Y-110363712D02*
X103401803Y-111649426D01*
X103401803Y-111649426D02*
X103330374Y-111792284D01*
X103330374Y-111792284D02*
X103187517Y-111863712D01*
X103187517Y-111863712D02*
X103044660Y-111863712D01*
X101973231Y-111792284D02*
X102116088Y-111863712D01*
X102116088Y-111863712D02*
X102401803Y-111863712D01*
X102401803Y-111863712D02*
X102544660Y-111792284D01*
X102544660Y-111792284D02*
X102616088Y-111649426D01*
X102616088Y-111649426D02*
X102616088Y-111077998D01*
X102616088Y-111077998D02*
X102544660Y-110935141D01*
X102544660Y-110935141D02*
X102401803Y-110863712D01*
X102401803Y-110863712D02*
X102116088Y-110863712D01*
X102116088Y-110863712D02*
X101973231Y-110935141D01*
X101973231Y-110935141D02*
X101901803Y-111077998D01*
X101901803Y-111077998D02*
X101901803Y-111220855D01*
X101901803Y-111220855D02*
X102616088Y-111363712D01*
X101258946Y-111863712D02*
X101258946Y-110863712D01*
X101258946Y-111149426D02*
X101187517Y-111006569D01*
X101187517Y-111006569D02*
X101116089Y-110935141D01*
X101116089Y-110935141D02*
X100973231Y-110863712D01*
X100973231Y-110863712D02*
X100830374Y-110863712D01*
X100473232Y-110863712D02*
X100116089Y-111863712D01*
X99758946Y-110863712D02*
X100116089Y-111863712D01*
X100116089Y-111863712D02*
X100258946Y-112220855D01*
X100258946Y-112220855D02*
X100330375Y-112292284D01*
X100330375Y-112292284D02*
X100473232Y-112363712D01*
X97830375Y-111863712D02*
X97973232Y-111792284D01*
X97973232Y-111792284D02*
X98044661Y-111649426D01*
X98044661Y-111649426D02*
X98044661Y-110363712D01*
X96687518Y-111792284D02*
X96830375Y-111863712D01*
X96830375Y-111863712D02*
X97116090Y-111863712D01*
X97116090Y-111863712D02*
X97258947Y-111792284D01*
X97258947Y-111792284D02*
X97330375Y-111649426D01*
X97330375Y-111649426D02*
X97330375Y-111077998D01*
X97330375Y-111077998D02*
X97258947Y-110935141D01*
X97258947Y-110935141D02*
X97116090Y-110863712D01*
X97116090Y-110863712D02*
X96830375Y-110863712D01*
X96830375Y-110863712D02*
X96687518Y-110935141D01*
X96687518Y-110935141D02*
X96616090Y-111077998D01*
X96616090Y-111077998D02*
X96616090Y-111220855D01*
X96616090Y-111220855D02*
X97330375Y-111363712D01*
X96116090Y-110863712D02*
X95758947Y-111863712D01*
X95758947Y-111863712D02*
X95401804Y-110863712D01*
X94258947Y-111792284D02*
X94401804Y-111863712D01*
X94401804Y-111863712D02*
X94687519Y-111863712D01*
X94687519Y-111863712D02*
X94830376Y-111792284D01*
X94830376Y-111792284D02*
X94901804Y-111649426D01*
X94901804Y-111649426D02*
X94901804Y-111077998D01*
X94901804Y-111077998D02*
X94830376Y-110935141D01*
X94830376Y-110935141D02*
X94687519Y-110863712D01*
X94687519Y-110863712D02*
X94401804Y-110863712D01*
X94401804Y-110863712D02*
X94258947Y-110935141D01*
X94258947Y-110935141D02*
X94187519Y-111077998D01*
X94187519Y-111077998D02*
X94187519Y-111220855D01*
X94187519Y-111220855D02*
X94901804Y-111363712D01*
X93330376Y-111863712D02*
X93473233Y-111792284D01*
X93473233Y-111792284D02*
X93544662Y-111649426D01*
X93544662Y-111649426D02*
X93544662Y-110363712D01*
X107116089Y-114278628D02*
X107116089Y-113278628D01*
X107116089Y-112778628D02*
X107187517Y-112850057D01*
X107187517Y-112850057D02*
X107116089Y-112921485D01*
X107116089Y-112921485D02*
X107044660Y-112850057D01*
X107044660Y-112850057D02*
X107116089Y-112778628D01*
X107116089Y-112778628D02*
X107116089Y-112921485D01*
X106401803Y-113278628D02*
X106401803Y-114278628D01*
X106401803Y-113421485D02*
X106330374Y-113350057D01*
X106330374Y-113350057D02*
X106187517Y-113278628D01*
X106187517Y-113278628D02*
X105973231Y-113278628D01*
X105973231Y-113278628D02*
X105830374Y-113350057D01*
X105830374Y-113350057D02*
X105758946Y-113492914D01*
X105758946Y-113492914D02*
X105758946Y-114278628D01*
X104401803Y-114278628D02*
X104401803Y-112778628D01*
X104401803Y-114207200D02*
X104544660Y-114278628D01*
X104544660Y-114278628D02*
X104830374Y-114278628D01*
X104830374Y-114278628D02*
X104973231Y-114207200D01*
X104973231Y-114207200D02*
X105044660Y-114135771D01*
X105044660Y-114135771D02*
X105116088Y-113992914D01*
X105116088Y-113992914D02*
X105116088Y-113564342D01*
X105116088Y-113564342D02*
X105044660Y-113421485D01*
X105044660Y-113421485D02*
X104973231Y-113350057D01*
X104973231Y-113350057D02*
X104830374Y-113278628D01*
X104830374Y-113278628D02*
X104544660Y-113278628D01*
X104544660Y-113278628D02*
X104401803Y-113350057D01*
X103687517Y-114278628D02*
X103687517Y-113278628D01*
X103687517Y-112778628D02*
X103758945Y-112850057D01*
X103758945Y-112850057D02*
X103687517Y-112921485D01*
X103687517Y-112921485D02*
X103616088Y-112850057D01*
X103616088Y-112850057D02*
X103687517Y-112778628D01*
X103687517Y-112778628D02*
X103687517Y-112921485D01*
X102330374Y-114207200D02*
X102473231Y-114278628D01*
X102473231Y-114278628D02*
X102758945Y-114278628D01*
X102758945Y-114278628D02*
X102901802Y-114207200D01*
X102901802Y-114207200D02*
X102973231Y-114135771D01*
X102973231Y-114135771D02*
X103044659Y-113992914D01*
X103044659Y-113992914D02*
X103044659Y-113564342D01*
X103044659Y-113564342D02*
X102973231Y-113421485D01*
X102973231Y-113421485D02*
X102901802Y-113350057D01*
X102901802Y-113350057D02*
X102758945Y-113278628D01*
X102758945Y-113278628D02*
X102473231Y-113278628D01*
X102473231Y-113278628D02*
X102330374Y-113350057D01*
X101044660Y-114278628D02*
X101044660Y-113492914D01*
X101044660Y-113492914D02*
X101116088Y-113350057D01*
X101116088Y-113350057D02*
X101258945Y-113278628D01*
X101258945Y-113278628D02*
X101544660Y-113278628D01*
X101544660Y-113278628D02*
X101687517Y-113350057D01*
X101044660Y-114207200D02*
X101187517Y-114278628D01*
X101187517Y-114278628D02*
X101544660Y-114278628D01*
X101544660Y-114278628D02*
X101687517Y-114207200D01*
X101687517Y-114207200D02*
X101758945Y-114064342D01*
X101758945Y-114064342D02*
X101758945Y-113921485D01*
X101758945Y-113921485D02*
X101687517Y-113778628D01*
X101687517Y-113778628D02*
X101544660Y-113707200D01*
X101544660Y-113707200D02*
X101187517Y-113707200D01*
X101187517Y-113707200D02*
X101044660Y-113635771D01*
X100544659Y-113278628D02*
X99973231Y-113278628D01*
X100330374Y-112778628D02*
X100330374Y-114064342D01*
X100330374Y-114064342D02*
X100258945Y-114207200D01*
X100258945Y-114207200D02*
X100116088Y-114278628D01*
X100116088Y-114278628D02*
X99973231Y-114278628D01*
X99258945Y-114278628D02*
X99401802Y-114207200D01*
X99401802Y-114207200D02*
X99473231Y-114135771D01*
X99473231Y-114135771D02*
X99544659Y-113992914D01*
X99544659Y-113992914D02*
X99544659Y-113564342D01*
X99544659Y-113564342D02*
X99473231Y-113421485D01*
X99473231Y-113421485D02*
X99401802Y-113350057D01*
X99401802Y-113350057D02*
X99258945Y-113278628D01*
X99258945Y-113278628D02*
X99044659Y-113278628D01*
X99044659Y-113278628D02*
X98901802Y-113350057D01*
X98901802Y-113350057D02*
X98830374Y-113421485D01*
X98830374Y-113421485D02*
X98758945Y-113564342D01*
X98758945Y-113564342D02*
X98758945Y-113992914D01*
X98758945Y-113992914D02*
X98830374Y-114135771D01*
X98830374Y-114135771D02*
X98901802Y-114207200D01*
X98901802Y-114207200D02*
X99044659Y-114278628D01*
X99044659Y-114278628D02*
X99258945Y-114278628D01*
X98116088Y-114278628D02*
X98116088Y-113278628D01*
X98116088Y-113564342D02*
X98044659Y-113421485D01*
X98044659Y-113421485D02*
X97973231Y-113350057D01*
X97973231Y-113350057D02*
X97830373Y-113278628D01*
X97830373Y-113278628D02*
X97687516Y-113278628D01*
X130923889Y-42370998D02*
X130709603Y-42442426D01*
X130709603Y-42442426D02*
X130638174Y-42513855D01*
X130638174Y-42513855D02*
X130566746Y-42656712D01*
X130566746Y-42656712D02*
X130566746Y-42870998D01*
X130566746Y-42870998D02*
X130638174Y-43013855D01*
X130638174Y-43013855D02*
X130709603Y-43085284D01*
X130709603Y-43085284D02*
X130852460Y-43156712D01*
X130852460Y-43156712D02*
X131423889Y-43156712D01*
X131423889Y-43156712D02*
X131423889Y-41656712D01*
X131423889Y-41656712D02*
X130923889Y-41656712D01*
X130923889Y-41656712D02*
X130781032Y-41728141D01*
X130781032Y-41728141D02*
X130709603Y-41799569D01*
X130709603Y-41799569D02*
X130638174Y-41942426D01*
X130638174Y-41942426D02*
X130638174Y-42085284D01*
X130638174Y-42085284D02*
X130709603Y-42228141D01*
X130709603Y-42228141D02*
X130781032Y-42299569D01*
X130781032Y-42299569D02*
X130923889Y-42370998D01*
X130923889Y-42370998D02*
X131423889Y-42370998D01*
X129281032Y-43156712D02*
X129281032Y-42370998D01*
X129281032Y-42370998D02*
X129352460Y-42228141D01*
X129352460Y-42228141D02*
X129495317Y-42156712D01*
X129495317Y-42156712D02*
X129781032Y-42156712D01*
X129781032Y-42156712D02*
X129923889Y-42228141D01*
X129281032Y-43085284D02*
X129423889Y-43156712D01*
X129423889Y-43156712D02*
X129781032Y-43156712D01*
X129781032Y-43156712D02*
X129923889Y-43085284D01*
X129923889Y-43085284D02*
X129995317Y-42942426D01*
X129995317Y-42942426D02*
X129995317Y-42799569D01*
X129995317Y-42799569D02*
X129923889Y-42656712D01*
X129923889Y-42656712D02*
X129781032Y-42585284D01*
X129781032Y-42585284D02*
X129423889Y-42585284D01*
X129423889Y-42585284D02*
X129281032Y-42513855D01*
X128781031Y-42156712D02*
X128209603Y-42156712D01*
X128566746Y-41656712D02*
X128566746Y-42942426D01*
X128566746Y-42942426D02*
X128495317Y-43085284D01*
X128495317Y-43085284D02*
X128352460Y-43156712D01*
X128352460Y-43156712D02*
X128209603Y-43156712D01*
X127923888Y-42156712D02*
X127352460Y-42156712D01*
X127709603Y-41656712D02*
X127709603Y-42942426D01*
X127709603Y-42942426D02*
X127638174Y-43085284D01*
X127638174Y-43085284D02*
X127495317Y-43156712D01*
X127495317Y-43156712D02*
X127352460Y-43156712D01*
X126281031Y-43085284D02*
X126423888Y-43156712D01*
X126423888Y-43156712D02*
X126709603Y-43156712D01*
X126709603Y-43156712D02*
X126852460Y-43085284D01*
X126852460Y-43085284D02*
X126923888Y-42942426D01*
X126923888Y-42942426D02*
X126923888Y-42370998D01*
X126923888Y-42370998D02*
X126852460Y-42228141D01*
X126852460Y-42228141D02*
X126709603Y-42156712D01*
X126709603Y-42156712D02*
X126423888Y-42156712D01*
X126423888Y-42156712D02*
X126281031Y-42228141D01*
X126281031Y-42228141D02*
X126209603Y-42370998D01*
X126209603Y-42370998D02*
X126209603Y-42513855D01*
X126209603Y-42513855D02*
X126923888Y-42656712D01*
X125566746Y-43156712D02*
X125566746Y-42156712D01*
X125566746Y-42442426D02*
X125495317Y-42299569D01*
X125495317Y-42299569D02*
X125423889Y-42228141D01*
X125423889Y-42228141D02*
X125281031Y-42156712D01*
X125281031Y-42156712D02*
X125138174Y-42156712D01*
X124781032Y-42156712D02*
X124423889Y-43156712D01*
X124066746Y-42156712D02*
X124423889Y-43156712D01*
X124423889Y-43156712D02*
X124566746Y-43513855D01*
X124566746Y-43513855D02*
X124638175Y-43585284D01*
X124638175Y-43585284D02*
X124781032Y-43656712D01*
X122138175Y-43156712D02*
X122281032Y-43085284D01*
X122281032Y-43085284D02*
X122352461Y-42942426D01*
X122352461Y-42942426D02*
X122352461Y-41656712D01*
X120995318Y-43085284D02*
X121138175Y-43156712D01*
X121138175Y-43156712D02*
X121423890Y-43156712D01*
X121423890Y-43156712D02*
X121566747Y-43085284D01*
X121566747Y-43085284D02*
X121638175Y-42942426D01*
X121638175Y-42942426D02*
X121638175Y-42370998D01*
X121638175Y-42370998D02*
X121566747Y-42228141D01*
X121566747Y-42228141D02*
X121423890Y-42156712D01*
X121423890Y-42156712D02*
X121138175Y-42156712D01*
X121138175Y-42156712D02*
X120995318Y-42228141D01*
X120995318Y-42228141D02*
X120923890Y-42370998D01*
X120923890Y-42370998D02*
X120923890Y-42513855D01*
X120923890Y-42513855D02*
X121638175Y-42656712D01*
X120423890Y-42156712D02*
X120066747Y-43156712D01*
X120066747Y-43156712D02*
X119709604Y-42156712D01*
X118566747Y-43085284D02*
X118709604Y-43156712D01*
X118709604Y-43156712D02*
X118995319Y-43156712D01*
X118995319Y-43156712D02*
X119138176Y-43085284D01*
X119138176Y-43085284D02*
X119209604Y-42942426D01*
X119209604Y-42942426D02*
X119209604Y-42370998D01*
X119209604Y-42370998D02*
X119138176Y-42228141D01*
X119138176Y-42228141D02*
X118995319Y-42156712D01*
X118995319Y-42156712D02*
X118709604Y-42156712D01*
X118709604Y-42156712D02*
X118566747Y-42228141D01*
X118566747Y-42228141D02*
X118495319Y-42370998D01*
X118495319Y-42370998D02*
X118495319Y-42513855D01*
X118495319Y-42513855D02*
X119209604Y-42656712D01*
X117638176Y-43156712D02*
X117781033Y-43085284D01*
X117781033Y-43085284D02*
X117852462Y-42942426D01*
X117852462Y-42942426D02*
X117852462Y-41656712D01*
X131423889Y-45571628D02*
X131423889Y-44571628D01*
X131423889Y-44071628D02*
X131495317Y-44143057D01*
X131495317Y-44143057D02*
X131423889Y-44214485D01*
X131423889Y-44214485D02*
X131352460Y-44143057D01*
X131352460Y-44143057D02*
X131423889Y-44071628D01*
X131423889Y-44071628D02*
X131423889Y-44214485D01*
X130709603Y-44571628D02*
X130709603Y-45571628D01*
X130709603Y-44714485D02*
X130638174Y-44643057D01*
X130638174Y-44643057D02*
X130495317Y-44571628D01*
X130495317Y-44571628D02*
X130281031Y-44571628D01*
X130281031Y-44571628D02*
X130138174Y-44643057D01*
X130138174Y-44643057D02*
X130066746Y-44785914D01*
X130066746Y-44785914D02*
X130066746Y-45571628D01*
X128709603Y-45571628D02*
X128709603Y-44071628D01*
X128709603Y-45500200D02*
X128852460Y-45571628D01*
X128852460Y-45571628D02*
X129138174Y-45571628D01*
X129138174Y-45571628D02*
X129281031Y-45500200D01*
X129281031Y-45500200D02*
X129352460Y-45428771D01*
X129352460Y-45428771D02*
X129423888Y-45285914D01*
X129423888Y-45285914D02*
X129423888Y-44857342D01*
X129423888Y-44857342D02*
X129352460Y-44714485D01*
X129352460Y-44714485D02*
X129281031Y-44643057D01*
X129281031Y-44643057D02*
X129138174Y-44571628D01*
X129138174Y-44571628D02*
X128852460Y-44571628D01*
X128852460Y-44571628D02*
X128709603Y-44643057D01*
X127995317Y-45571628D02*
X127995317Y-44571628D01*
X127995317Y-44071628D02*
X128066745Y-44143057D01*
X128066745Y-44143057D02*
X127995317Y-44214485D01*
X127995317Y-44214485D02*
X127923888Y-44143057D01*
X127923888Y-44143057D02*
X127995317Y-44071628D01*
X127995317Y-44071628D02*
X127995317Y-44214485D01*
X126638174Y-45500200D02*
X126781031Y-45571628D01*
X126781031Y-45571628D02*
X127066745Y-45571628D01*
X127066745Y-45571628D02*
X127209602Y-45500200D01*
X127209602Y-45500200D02*
X127281031Y-45428771D01*
X127281031Y-45428771D02*
X127352459Y-45285914D01*
X127352459Y-45285914D02*
X127352459Y-44857342D01*
X127352459Y-44857342D02*
X127281031Y-44714485D01*
X127281031Y-44714485D02*
X127209602Y-44643057D01*
X127209602Y-44643057D02*
X127066745Y-44571628D01*
X127066745Y-44571628D02*
X126781031Y-44571628D01*
X126781031Y-44571628D02*
X126638174Y-44643057D01*
X125352460Y-45571628D02*
X125352460Y-44785914D01*
X125352460Y-44785914D02*
X125423888Y-44643057D01*
X125423888Y-44643057D02*
X125566745Y-44571628D01*
X125566745Y-44571628D02*
X125852460Y-44571628D01*
X125852460Y-44571628D02*
X125995317Y-44643057D01*
X125352460Y-45500200D02*
X125495317Y-45571628D01*
X125495317Y-45571628D02*
X125852460Y-45571628D01*
X125852460Y-45571628D02*
X125995317Y-45500200D01*
X125995317Y-45500200D02*
X126066745Y-45357342D01*
X126066745Y-45357342D02*
X126066745Y-45214485D01*
X126066745Y-45214485D02*
X125995317Y-45071628D01*
X125995317Y-45071628D02*
X125852460Y-45000200D01*
X125852460Y-45000200D02*
X125495317Y-45000200D01*
X125495317Y-45000200D02*
X125352460Y-44928771D01*
X124852459Y-44571628D02*
X124281031Y-44571628D01*
X124638174Y-44071628D02*
X124638174Y-45357342D01*
X124638174Y-45357342D02*
X124566745Y-45500200D01*
X124566745Y-45500200D02*
X124423888Y-45571628D01*
X124423888Y-45571628D02*
X124281031Y-45571628D01*
X123566745Y-45571628D02*
X123709602Y-45500200D01*
X123709602Y-45500200D02*
X123781031Y-45428771D01*
X123781031Y-45428771D02*
X123852459Y-45285914D01*
X123852459Y-45285914D02*
X123852459Y-44857342D01*
X123852459Y-44857342D02*
X123781031Y-44714485D01*
X123781031Y-44714485D02*
X123709602Y-44643057D01*
X123709602Y-44643057D02*
X123566745Y-44571628D01*
X123566745Y-44571628D02*
X123352459Y-44571628D01*
X123352459Y-44571628D02*
X123209602Y-44643057D01*
X123209602Y-44643057D02*
X123138174Y-44714485D01*
X123138174Y-44714485D02*
X123066745Y-44857342D01*
X123066745Y-44857342D02*
X123066745Y-45285914D01*
X123066745Y-45285914D02*
X123138174Y-45428771D01*
X123138174Y-45428771D02*
X123209602Y-45500200D01*
X123209602Y-45500200D02*
X123352459Y-45571628D01*
X123352459Y-45571628D02*
X123566745Y-45571628D01*
X122423888Y-45571628D02*
X122423888Y-44571628D01*
X122423888Y-44857342D02*
X122352459Y-44714485D01*
X122352459Y-44714485D02*
X122281031Y-44643057D01*
X122281031Y-44643057D02*
X122138173Y-44571628D01*
X122138173Y-44571628D02*
X121995316Y-44571628D01*
X106819289Y-133988798D02*
X106605003Y-134060226D01*
X106605003Y-134060226D02*
X106533574Y-134131655D01*
X106533574Y-134131655D02*
X106462146Y-134274512D01*
X106462146Y-134274512D02*
X106462146Y-134488798D01*
X106462146Y-134488798D02*
X106533574Y-134631655D01*
X106533574Y-134631655D02*
X106605003Y-134703084D01*
X106605003Y-134703084D02*
X106747860Y-134774512D01*
X106747860Y-134774512D02*
X107319289Y-134774512D01*
X107319289Y-134774512D02*
X107319289Y-133274512D01*
X107319289Y-133274512D02*
X106819289Y-133274512D01*
X106819289Y-133274512D02*
X106676432Y-133345941D01*
X106676432Y-133345941D02*
X106605003Y-133417369D01*
X106605003Y-133417369D02*
X106533574Y-133560226D01*
X106533574Y-133560226D02*
X106533574Y-133703084D01*
X106533574Y-133703084D02*
X106605003Y-133845941D01*
X106605003Y-133845941D02*
X106676432Y-133917369D01*
X106676432Y-133917369D02*
X106819289Y-133988798D01*
X106819289Y-133988798D02*
X107319289Y-133988798D01*
X105176432Y-134774512D02*
X105176432Y-133988798D01*
X105176432Y-133988798D02*
X105247860Y-133845941D01*
X105247860Y-133845941D02*
X105390717Y-133774512D01*
X105390717Y-133774512D02*
X105676432Y-133774512D01*
X105676432Y-133774512D02*
X105819289Y-133845941D01*
X105176432Y-134703084D02*
X105319289Y-134774512D01*
X105319289Y-134774512D02*
X105676432Y-134774512D01*
X105676432Y-134774512D02*
X105819289Y-134703084D01*
X105819289Y-134703084D02*
X105890717Y-134560226D01*
X105890717Y-134560226D02*
X105890717Y-134417369D01*
X105890717Y-134417369D02*
X105819289Y-134274512D01*
X105819289Y-134274512D02*
X105676432Y-134203084D01*
X105676432Y-134203084D02*
X105319289Y-134203084D01*
X105319289Y-134203084D02*
X105176432Y-134131655D01*
X104676431Y-133774512D02*
X104105003Y-133774512D01*
X104462146Y-133274512D02*
X104462146Y-134560226D01*
X104462146Y-134560226D02*
X104390717Y-134703084D01*
X104390717Y-134703084D02*
X104247860Y-134774512D01*
X104247860Y-134774512D02*
X104105003Y-134774512D01*
X103819288Y-133774512D02*
X103247860Y-133774512D01*
X103605003Y-133274512D02*
X103605003Y-134560226D01*
X103605003Y-134560226D02*
X103533574Y-134703084D01*
X103533574Y-134703084D02*
X103390717Y-134774512D01*
X103390717Y-134774512D02*
X103247860Y-134774512D01*
X102176431Y-134703084D02*
X102319288Y-134774512D01*
X102319288Y-134774512D02*
X102605003Y-134774512D01*
X102605003Y-134774512D02*
X102747860Y-134703084D01*
X102747860Y-134703084D02*
X102819288Y-134560226D01*
X102819288Y-134560226D02*
X102819288Y-133988798D01*
X102819288Y-133988798D02*
X102747860Y-133845941D01*
X102747860Y-133845941D02*
X102605003Y-133774512D01*
X102605003Y-133774512D02*
X102319288Y-133774512D01*
X102319288Y-133774512D02*
X102176431Y-133845941D01*
X102176431Y-133845941D02*
X102105003Y-133988798D01*
X102105003Y-133988798D02*
X102105003Y-134131655D01*
X102105003Y-134131655D02*
X102819288Y-134274512D01*
X101462146Y-134774512D02*
X101462146Y-133774512D01*
X101462146Y-134060226D02*
X101390717Y-133917369D01*
X101390717Y-133917369D02*
X101319289Y-133845941D01*
X101319289Y-133845941D02*
X101176431Y-133774512D01*
X101176431Y-133774512D02*
X101033574Y-133774512D01*
X100676432Y-133774512D02*
X100319289Y-134774512D01*
X99962146Y-133774512D02*
X100319289Y-134774512D01*
X100319289Y-134774512D02*
X100462146Y-135131655D01*
X100462146Y-135131655D02*
X100533575Y-135203084D01*
X100533575Y-135203084D02*
X100676432Y-135274512D01*
X98033575Y-134774512D02*
X98176432Y-134703084D01*
X98176432Y-134703084D02*
X98247861Y-134560226D01*
X98247861Y-134560226D02*
X98247861Y-133274512D01*
X96890718Y-134703084D02*
X97033575Y-134774512D01*
X97033575Y-134774512D02*
X97319290Y-134774512D01*
X97319290Y-134774512D02*
X97462147Y-134703084D01*
X97462147Y-134703084D02*
X97533575Y-134560226D01*
X97533575Y-134560226D02*
X97533575Y-133988798D01*
X97533575Y-133988798D02*
X97462147Y-133845941D01*
X97462147Y-133845941D02*
X97319290Y-133774512D01*
X97319290Y-133774512D02*
X97033575Y-133774512D01*
X97033575Y-133774512D02*
X96890718Y-133845941D01*
X96890718Y-133845941D02*
X96819290Y-133988798D01*
X96819290Y-133988798D02*
X96819290Y-134131655D01*
X96819290Y-134131655D02*
X97533575Y-134274512D01*
X96319290Y-133774512D02*
X95962147Y-134774512D01*
X95962147Y-134774512D02*
X95605004Y-133774512D01*
X94462147Y-134703084D02*
X94605004Y-134774512D01*
X94605004Y-134774512D02*
X94890719Y-134774512D01*
X94890719Y-134774512D02*
X95033576Y-134703084D01*
X95033576Y-134703084D02*
X95105004Y-134560226D01*
X95105004Y-134560226D02*
X95105004Y-133988798D01*
X95105004Y-133988798D02*
X95033576Y-133845941D01*
X95033576Y-133845941D02*
X94890719Y-133774512D01*
X94890719Y-133774512D02*
X94605004Y-133774512D01*
X94605004Y-133774512D02*
X94462147Y-133845941D01*
X94462147Y-133845941D02*
X94390719Y-133988798D01*
X94390719Y-133988798D02*
X94390719Y-134131655D01*
X94390719Y-134131655D02*
X95105004Y-134274512D01*
X93533576Y-134774512D02*
X93676433Y-134703084D01*
X93676433Y-134703084D02*
X93747862Y-134560226D01*
X93747862Y-134560226D02*
X93747862Y-133274512D01*
X107319289Y-137189428D02*
X107319289Y-136189428D01*
X107319289Y-135689428D02*
X107390717Y-135760857D01*
X107390717Y-135760857D02*
X107319289Y-135832285D01*
X107319289Y-135832285D02*
X107247860Y-135760857D01*
X107247860Y-135760857D02*
X107319289Y-135689428D01*
X107319289Y-135689428D02*
X107319289Y-135832285D01*
X106605003Y-136189428D02*
X106605003Y-137189428D01*
X106605003Y-136332285D02*
X106533574Y-136260857D01*
X106533574Y-136260857D02*
X106390717Y-136189428D01*
X106390717Y-136189428D02*
X106176431Y-136189428D01*
X106176431Y-136189428D02*
X106033574Y-136260857D01*
X106033574Y-136260857D02*
X105962146Y-136403714D01*
X105962146Y-136403714D02*
X105962146Y-137189428D01*
X104605003Y-137189428D02*
X104605003Y-135689428D01*
X104605003Y-137118000D02*
X104747860Y-137189428D01*
X104747860Y-137189428D02*
X105033574Y-137189428D01*
X105033574Y-137189428D02*
X105176431Y-137118000D01*
X105176431Y-137118000D02*
X105247860Y-137046571D01*
X105247860Y-137046571D02*
X105319288Y-136903714D01*
X105319288Y-136903714D02*
X105319288Y-136475142D01*
X105319288Y-136475142D02*
X105247860Y-136332285D01*
X105247860Y-136332285D02*
X105176431Y-136260857D01*
X105176431Y-136260857D02*
X105033574Y-136189428D01*
X105033574Y-136189428D02*
X104747860Y-136189428D01*
X104747860Y-136189428D02*
X104605003Y-136260857D01*
X103890717Y-137189428D02*
X103890717Y-136189428D01*
X103890717Y-135689428D02*
X103962145Y-135760857D01*
X103962145Y-135760857D02*
X103890717Y-135832285D01*
X103890717Y-135832285D02*
X103819288Y-135760857D01*
X103819288Y-135760857D02*
X103890717Y-135689428D01*
X103890717Y-135689428D02*
X103890717Y-135832285D01*
X102533574Y-137118000D02*
X102676431Y-137189428D01*
X102676431Y-137189428D02*
X102962145Y-137189428D01*
X102962145Y-137189428D02*
X103105002Y-137118000D01*
X103105002Y-137118000D02*
X103176431Y-137046571D01*
X103176431Y-137046571D02*
X103247859Y-136903714D01*
X103247859Y-136903714D02*
X103247859Y-136475142D01*
X103247859Y-136475142D02*
X103176431Y-136332285D01*
X103176431Y-136332285D02*
X103105002Y-136260857D01*
X103105002Y-136260857D02*
X102962145Y-136189428D01*
X102962145Y-136189428D02*
X102676431Y-136189428D01*
X102676431Y-136189428D02*
X102533574Y-136260857D01*
X101247860Y-137189428D02*
X101247860Y-136403714D01*
X101247860Y-136403714D02*
X101319288Y-136260857D01*
X101319288Y-136260857D02*
X101462145Y-136189428D01*
X101462145Y-136189428D02*
X101747860Y-136189428D01*
X101747860Y-136189428D02*
X101890717Y-136260857D01*
X101247860Y-137118000D02*
X101390717Y-137189428D01*
X101390717Y-137189428D02*
X101747860Y-137189428D01*
X101747860Y-137189428D02*
X101890717Y-137118000D01*
X101890717Y-137118000D02*
X101962145Y-136975142D01*
X101962145Y-136975142D02*
X101962145Y-136832285D01*
X101962145Y-136832285D02*
X101890717Y-136689428D01*
X101890717Y-136689428D02*
X101747860Y-136618000D01*
X101747860Y-136618000D02*
X101390717Y-136618000D01*
X101390717Y-136618000D02*
X101247860Y-136546571D01*
X100747859Y-136189428D02*
X100176431Y-136189428D01*
X100533574Y-135689428D02*
X100533574Y-136975142D01*
X100533574Y-136975142D02*
X100462145Y-137118000D01*
X100462145Y-137118000D02*
X100319288Y-137189428D01*
X100319288Y-137189428D02*
X100176431Y-137189428D01*
X99462145Y-137189428D02*
X99605002Y-137118000D01*
X99605002Y-137118000D02*
X99676431Y-137046571D01*
X99676431Y-137046571D02*
X99747859Y-136903714D01*
X99747859Y-136903714D02*
X99747859Y-136475142D01*
X99747859Y-136475142D02*
X99676431Y-136332285D01*
X99676431Y-136332285D02*
X99605002Y-136260857D01*
X99605002Y-136260857D02*
X99462145Y-136189428D01*
X99462145Y-136189428D02*
X99247859Y-136189428D01*
X99247859Y-136189428D02*
X99105002Y-136260857D01*
X99105002Y-136260857D02*
X99033574Y-136332285D01*
X99033574Y-136332285D02*
X98962145Y-136475142D01*
X98962145Y-136475142D02*
X98962145Y-136903714D01*
X98962145Y-136903714D02*
X99033574Y-137046571D01*
X99033574Y-137046571D02*
X99105002Y-137118000D01*
X99105002Y-137118000D02*
X99247859Y-137189428D01*
X99247859Y-137189428D02*
X99462145Y-137189428D01*
X98319288Y-137189428D02*
X98319288Y-136189428D01*
X98319288Y-136475142D02*
X98247859Y-136332285D01*
X98247859Y-136332285D02*
X98176431Y-136260857D01*
X98176431Y-136260857D02*
X98033573Y-136189428D01*
X98033573Y-136189428D02*
X97890716Y-136189428D01*
X128833089Y-30433228D02*
X128833089Y-28933228D01*
X128833089Y-28933228D02*
X128261660Y-28933228D01*
X128261660Y-28933228D02*
X128118803Y-29004657D01*
X128118803Y-29004657D02*
X128047374Y-29076085D01*
X128047374Y-29076085D02*
X127975946Y-29218942D01*
X127975946Y-29218942D02*
X127975946Y-29433228D01*
X127975946Y-29433228D02*
X128047374Y-29576085D01*
X128047374Y-29576085D02*
X128118803Y-29647514D01*
X128118803Y-29647514D02*
X128261660Y-29718942D01*
X128261660Y-29718942D02*
X128833089Y-29718942D01*
X126690232Y-30433228D02*
X126690232Y-29647514D01*
X126690232Y-29647514D02*
X126761660Y-29504657D01*
X126761660Y-29504657D02*
X126904517Y-29433228D01*
X126904517Y-29433228D02*
X127190232Y-29433228D01*
X127190232Y-29433228D02*
X127333089Y-29504657D01*
X126690232Y-30361800D02*
X126833089Y-30433228D01*
X126833089Y-30433228D02*
X127190232Y-30433228D01*
X127190232Y-30433228D02*
X127333089Y-30361800D01*
X127333089Y-30361800D02*
X127404517Y-30218942D01*
X127404517Y-30218942D02*
X127404517Y-30076085D01*
X127404517Y-30076085D02*
X127333089Y-29933228D01*
X127333089Y-29933228D02*
X127190232Y-29861800D01*
X127190232Y-29861800D02*
X126833089Y-29861800D01*
X126833089Y-29861800D02*
X126690232Y-29790371D01*
X125333089Y-30361800D02*
X125475946Y-30433228D01*
X125475946Y-30433228D02*
X125761660Y-30433228D01*
X125761660Y-30433228D02*
X125904517Y-30361800D01*
X125904517Y-30361800D02*
X125975946Y-30290371D01*
X125975946Y-30290371D02*
X126047374Y-30147514D01*
X126047374Y-30147514D02*
X126047374Y-29718942D01*
X126047374Y-29718942D02*
X125975946Y-29576085D01*
X125975946Y-29576085D02*
X125904517Y-29504657D01*
X125904517Y-29504657D02*
X125761660Y-29433228D01*
X125761660Y-29433228D02*
X125475946Y-29433228D01*
X125475946Y-29433228D02*
X125333089Y-29504657D01*
X124475946Y-30433228D02*
X124618803Y-30361800D01*
X124618803Y-30361800D02*
X124690232Y-30290371D01*
X124690232Y-30290371D02*
X124761660Y-30147514D01*
X124761660Y-30147514D02*
X124761660Y-29718942D01*
X124761660Y-29718942D02*
X124690232Y-29576085D01*
X124690232Y-29576085D02*
X124618803Y-29504657D01*
X124618803Y-29504657D02*
X124475946Y-29433228D01*
X124475946Y-29433228D02*
X124261660Y-29433228D01*
X124261660Y-29433228D02*
X124118803Y-29504657D01*
X124118803Y-29504657D02*
X124047375Y-29576085D01*
X124047375Y-29576085D02*
X123975946Y-29718942D01*
X123975946Y-29718942D02*
X123975946Y-30147514D01*
X123975946Y-30147514D02*
X124047375Y-30290371D01*
X124047375Y-30290371D02*
X124118803Y-30361800D01*
X124118803Y-30361800D02*
X124261660Y-30433228D01*
X124261660Y-30433228D02*
X124475946Y-30433228D01*
X122190232Y-30290371D02*
X122118803Y-30361800D01*
X122118803Y-30361800D02*
X122190232Y-30433228D01*
X122190232Y-30433228D02*
X122261660Y-30361800D01*
X122261660Y-30361800D02*
X122190232Y-30290371D01*
X122190232Y-30290371D02*
X122190232Y-30433228D01*
X122190232Y-29504657D02*
X122118803Y-29576085D01*
X122118803Y-29576085D02*
X122190232Y-29647514D01*
X122190232Y-29647514D02*
X122261660Y-29576085D01*
X122261660Y-29576085D02*
X122190232Y-29504657D01*
X122190232Y-29504657D02*
X122190232Y-29647514D01*
X121618803Y-28933228D02*
X120690231Y-28933228D01*
X120690231Y-28933228D02*
X121190231Y-29504657D01*
X121190231Y-29504657D02*
X120975946Y-29504657D01*
X120975946Y-29504657D02*
X120833089Y-29576085D01*
X120833089Y-29576085D02*
X120761660Y-29647514D01*
X120761660Y-29647514D02*
X120690231Y-29790371D01*
X120690231Y-29790371D02*
X120690231Y-30147514D01*
X120690231Y-30147514D02*
X120761660Y-30290371D01*
X120761660Y-30290371D02*
X120833089Y-30361800D01*
X120833089Y-30361800D02*
X120975946Y-30433228D01*
X120975946Y-30433228D02*
X121404517Y-30433228D01*
X121404517Y-30433228D02*
X121547374Y-30361800D01*
X121547374Y-30361800D02*
X121618803Y-30290371D01*
X129391889Y-99267228D02*
X129391889Y-97767228D01*
X129391889Y-97767228D02*
X128820460Y-97767228D01*
X128820460Y-97767228D02*
X128677603Y-97838657D01*
X128677603Y-97838657D02*
X128606174Y-97910085D01*
X128606174Y-97910085D02*
X128534746Y-98052942D01*
X128534746Y-98052942D02*
X128534746Y-98267228D01*
X128534746Y-98267228D02*
X128606174Y-98410085D01*
X128606174Y-98410085D02*
X128677603Y-98481514D01*
X128677603Y-98481514D02*
X128820460Y-98552942D01*
X128820460Y-98552942D02*
X129391889Y-98552942D01*
X127249032Y-99267228D02*
X127249032Y-98481514D01*
X127249032Y-98481514D02*
X127320460Y-98338657D01*
X127320460Y-98338657D02*
X127463317Y-98267228D01*
X127463317Y-98267228D02*
X127749032Y-98267228D01*
X127749032Y-98267228D02*
X127891889Y-98338657D01*
X127249032Y-99195800D02*
X127391889Y-99267228D01*
X127391889Y-99267228D02*
X127749032Y-99267228D01*
X127749032Y-99267228D02*
X127891889Y-99195800D01*
X127891889Y-99195800D02*
X127963317Y-99052942D01*
X127963317Y-99052942D02*
X127963317Y-98910085D01*
X127963317Y-98910085D02*
X127891889Y-98767228D01*
X127891889Y-98767228D02*
X127749032Y-98695800D01*
X127749032Y-98695800D02*
X127391889Y-98695800D01*
X127391889Y-98695800D02*
X127249032Y-98624371D01*
X125891889Y-99195800D02*
X126034746Y-99267228D01*
X126034746Y-99267228D02*
X126320460Y-99267228D01*
X126320460Y-99267228D02*
X126463317Y-99195800D01*
X126463317Y-99195800D02*
X126534746Y-99124371D01*
X126534746Y-99124371D02*
X126606174Y-98981514D01*
X126606174Y-98981514D02*
X126606174Y-98552942D01*
X126606174Y-98552942D02*
X126534746Y-98410085D01*
X126534746Y-98410085D02*
X126463317Y-98338657D01*
X126463317Y-98338657D02*
X126320460Y-98267228D01*
X126320460Y-98267228D02*
X126034746Y-98267228D01*
X126034746Y-98267228D02*
X125891889Y-98338657D01*
X125034746Y-99267228D02*
X125177603Y-99195800D01*
X125177603Y-99195800D02*
X125249032Y-99124371D01*
X125249032Y-99124371D02*
X125320460Y-98981514D01*
X125320460Y-98981514D02*
X125320460Y-98552942D01*
X125320460Y-98552942D02*
X125249032Y-98410085D01*
X125249032Y-98410085D02*
X125177603Y-98338657D01*
X125177603Y-98338657D02*
X125034746Y-98267228D01*
X125034746Y-98267228D02*
X124820460Y-98267228D01*
X124820460Y-98267228D02*
X124677603Y-98338657D01*
X124677603Y-98338657D02*
X124606175Y-98410085D01*
X124606175Y-98410085D02*
X124534746Y-98552942D01*
X124534746Y-98552942D02*
X124534746Y-98981514D01*
X124534746Y-98981514D02*
X124606175Y-99124371D01*
X124606175Y-99124371D02*
X124677603Y-99195800D01*
X124677603Y-99195800D02*
X124820460Y-99267228D01*
X124820460Y-99267228D02*
X125034746Y-99267228D01*
X122749032Y-99124371D02*
X122677603Y-99195800D01*
X122677603Y-99195800D02*
X122749032Y-99267228D01*
X122749032Y-99267228D02*
X122820460Y-99195800D01*
X122820460Y-99195800D02*
X122749032Y-99124371D01*
X122749032Y-99124371D02*
X122749032Y-99267228D01*
X122749032Y-98338657D02*
X122677603Y-98410085D01*
X122677603Y-98410085D02*
X122749032Y-98481514D01*
X122749032Y-98481514D02*
X122820460Y-98410085D01*
X122820460Y-98410085D02*
X122749032Y-98338657D01*
X122749032Y-98338657D02*
X122749032Y-98481514D01*
X122177603Y-97767228D02*
X121249031Y-97767228D01*
X121249031Y-97767228D02*
X121749031Y-98338657D01*
X121749031Y-98338657D02*
X121534746Y-98338657D01*
X121534746Y-98338657D02*
X121391889Y-98410085D01*
X121391889Y-98410085D02*
X121320460Y-98481514D01*
X121320460Y-98481514D02*
X121249031Y-98624371D01*
X121249031Y-98624371D02*
X121249031Y-98981514D01*
X121249031Y-98981514D02*
X121320460Y-99124371D01*
X121320460Y-99124371D02*
X121391889Y-99195800D01*
X121391889Y-99195800D02*
X121534746Y-99267228D01*
X121534746Y-99267228D02*
X121963317Y-99267228D01*
X121963317Y-99267228D02*
X122106174Y-99195800D01*
X122106174Y-99195800D02*
X122177603Y-99124371D01*
X105981089Y-19409398D02*
X105766803Y-19480826D01*
X105766803Y-19480826D02*
X105695374Y-19552255D01*
X105695374Y-19552255D02*
X105623946Y-19695112D01*
X105623946Y-19695112D02*
X105623946Y-19909398D01*
X105623946Y-19909398D02*
X105695374Y-20052255D01*
X105695374Y-20052255D02*
X105766803Y-20123684D01*
X105766803Y-20123684D02*
X105909660Y-20195112D01*
X105909660Y-20195112D02*
X106481089Y-20195112D01*
X106481089Y-20195112D02*
X106481089Y-18695112D01*
X106481089Y-18695112D02*
X105981089Y-18695112D01*
X105981089Y-18695112D02*
X105838232Y-18766541D01*
X105838232Y-18766541D02*
X105766803Y-18837969D01*
X105766803Y-18837969D02*
X105695374Y-18980826D01*
X105695374Y-18980826D02*
X105695374Y-19123684D01*
X105695374Y-19123684D02*
X105766803Y-19266541D01*
X105766803Y-19266541D02*
X105838232Y-19337969D01*
X105838232Y-19337969D02*
X105981089Y-19409398D01*
X105981089Y-19409398D02*
X106481089Y-19409398D01*
X104338232Y-20195112D02*
X104338232Y-19409398D01*
X104338232Y-19409398D02*
X104409660Y-19266541D01*
X104409660Y-19266541D02*
X104552517Y-19195112D01*
X104552517Y-19195112D02*
X104838232Y-19195112D01*
X104838232Y-19195112D02*
X104981089Y-19266541D01*
X104338232Y-20123684D02*
X104481089Y-20195112D01*
X104481089Y-20195112D02*
X104838232Y-20195112D01*
X104838232Y-20195112D02*
X104981089Y-20123684D01*
X104981089Y-20123684D02*
X105052517Y-19980826D01*
X105052517Y-19980826D02*
X105052517Y-19837969D01*
X105052517Y-19837969D02*
X104981089Y-19695112D01*
X104981089Y-19695112D02*
X104838232Y-19623684D01*
X104838232Y-19623684D02*
X104481089Y-19623684D01*
X104481089Y-19623684D02*
X104338232Y-19552255D01*
X103838231Y-19195112D02*
X103266803Y-19195112D01*
X103623946Y-18695112D02*
X103623946Y-19980826D01*
X103623946Y-19980826D02*
X103552517Y-20123684D01*
X103552517Y-20123684D02*
X103409660Y-20195112D01*
X103409660Y-20195112D02*
X103266803Y-20195112D01*
X102981088Y-19195112D02*
X102409660Y-19195112D01*
X102766803Y-18695112D02*
X102766803Y-19980826D01*
X102766803Y-19980826D02*
X102695374Y-20123684D01*
X102695374Y-20123684D02*
X102552517Y-20195112D01*
X102552517Y-20195112D02*
X102409660Y-20195112D01*
X101338231Y-20123684D02*
X101481088Y-20195112D01*
X101481088Y-20195112D02*
X101766803Y-20195112D01*
X101766803Y-20195112D02*
X101909660Y-20123684D01*
X101909660Y-20123684D02*
X101981088Y-19980826D01*
X101981088Y-19980826D02*
X101981088Y-19409398D01*
X101981088Y-19409398D02*
X101909660Y-19266541D01*
X101909660Y-19266541D02*
X101766803Y-19195112D01*
X101766803Y-19195112D02*
X101481088Y-19195112D01*
X101481088Y-19195112D02*
X101338231Y-19266541D01*
X101338231Y-19266541D02*
X101266803Y-19409398D01*
X101266803Y-19409398D02*
X101266803Y-19552255D01*
X101266803Y-19552255D02*
X101981088Y-19695112D01*
X100623946Y-20195112D02*
X100623946Y-19195112D01*
X100623946Y-19480826D02*
X100552517Y-19337969D01*
X100552517Y-19337969D02*
X100481089Y-19266541D01*
X100481089Y-19266541D02*
X100338231Y-19195112D01*
X100338231Y-19195112D02*
X100195374Y-19195112D01*
X99838232Y-19195112D02*
X99481089Y-20195112D01*
X99123946Y-19195112D02*
X99481089Y-20195112D01*
X99481089Y-20195112D02*
X99623946Y-20552255D01*
X99623946Y-20552255D02*
X99695375Y-20623684D01*
X99695375Y-20623684D02*
X99838232Y-20695112D01*
X97195375Y-20195112D02*
X97338232Y-20123684D01*
X97338232Y-20123684D02*
X97409661Y-19980826D01*
X97409661Y-19980826D02*
X97409661Y-18695112D01*
X96052518Y-20123684D02*
X96195375Y-20195112D01*
X96195375Y-20195112D02*
X96481090Y-20195112D01*
X96481090Y-20195112D02*
X96623947Y-20123684D01*
X96623947Y-20123684D02*
X96695375Y-19980826D01*
X96695375Y-19980826D02*
X96695375Y-19409398D01*
X96695375Y-19409398D02*
X96623947Y-19266541D01*
X96623947Y-19266541D02*
X96481090Y-19195112D01*
X96481090Y-19195112D02*
X96195375Y-19195112D01*
X96195375Y-19195112D02*
X96052518Y-19266541D01*
X96052518Y-19266541D02*
X95981090Y-19409398D01*
X95981090Y-19409398D02*
X95981090Y-19552255D01*
X95981090Y-19552255D02*
X96695375Y-19695112D01*
X95481090Y-19195112D02*
X95123947Y-20195112D01*
X95123947Y-20195112D02*
X94766804Y-19195112D01*
X93623947Y-20123684D02*
X93766804Y-20195112D01*
X93766804Y-20195112D02*
X94052519Y-20195112D01*
X94052519Y-20195112D02*
X94195376Y-20123684D01*
X94195376Y-20123684D02*
X94266804Y-19980826D01*
X94266804Y-19980826D02*
X94266804Y-19409398D01*
X94266804Y-19409398D02*
X94195376Y-19266541D01*
X94195376Y-19266541D02*
X94052519Y-19195112D01*
X94052519Y-19195112D02*
X93766804Y-19195112D01*
X93766804Y-19195112D02*
X93623947Y-19266541D01*
X93623947Y-19266541D02*
X93552519Y-19409398D01*
X93552519Y-19409398D02*
X93552519Y-19552255D01*
X93552519Y-19552255D02*
X94266804Y-19695112D01*
X92695376Y-20195112D02*
X92838233Y-20123684D01*
X92838233Y-20123684D02*
X92909662Y-19980826D01*
X92909662Y-19980826D02*
X92909662Y-18695112D01*
X106481089Y-22610028D02*
X106481089Y-21610028D01*
X106481089Y-21110028D02*
X106552517Y-21181457D01*
X106552517Y-21181457D02*
X106481089Y-21252885D01*
X106481089Y-21252885D02*
X106409660Y-21181457D01*
X106409660Y-21181457D02*
X106481089Y-21110028D01*
X106481089Y-21110028D02*
X106481089Y-21252885D01*
X105766803Y-21610028D02*
X105766803Y-22610028D01*
X105766803Y-21752885D02*
X105695374Y-21681457D01*
X105695374Y-21681457D02*
X105552517Y-21610028D01*
X105552517Y-21610028D02*
X105338231Y-21610028D01*
X105338231Y-21610028D02*
X105195374Y-21681457D01*
X105195374Y-21681457D02*
X105123946Y-21824314D01*
X105123946Y-21824314D02*
X105123946Y-22610028D01*
X103766803Y-22610028D02*
X103766803Y-21110028D01*
X103766803Y-22538600D02*
X103909660Y-22610028D01*
X103909660Y-22610028D02*
X104195374Y-22610028D01*
X104195374Y-22610028D02*
X104338231Y-22538600D01*
X104338231Y-22538600D02*
X104409660Y-22467171D01*
X104409660Y-22467171D02*
X104481088Y-22324314D01*
X104481088Y-22324314D02*
X104481088Y-21895742D01*
X104481088Y-21895742D02*
X104409660Y-21752885D01*
X104409660Y-21752885D02*
X104338231Y-21681457D01*
X104338231Y-21681457D02*
X104195374Y-21610028D01*
X104195374Y-21610028D02*
X103909660Y-21610028D01*
X103909660Y-21610028D02*
X103766803Y-21681457D01*
X103052517Y-22610028D02*
X103052517Y-21610028D01*
X103052517Y-21110028D02*
X103123945Y-21181457D01*
X103123945Y-21181457D02*
X103052517Y-21252885D01*
X103052517Y-21252885D02*
X102981088Y-21181457D01*
X102981088Y-21181457D02*
X103052517Y-21110028D01*
X103052517Y-21110028D02*
X103052517Y-21252885D01*
X101695374Y-22538600D02*
X101838231Y-22610028D01*
X101838231Y-22610028D02*
X102123945Y-22610028D01*
X102123945Y-22610028D02*
X102266802Y-22538600D01*
X102266802Y-22538600D02*
X102338231Y-22467171D01*
X102338231Y-22467171D02*
X102409659Y-22324314D01*
X102409659Y-22324314D02*
X102409659Y-21895742D01*
X102409659Y-21895742D02*
X102338231Y-21752885D01*
X102338231Y-21752885D02*
X102266802Y-21681457D01*
X102266802Y-21681457D02*
X102123945Y-21610028D01*
X102123945Y-21610028D02*
X101838231Y-21610028D01*
X101838231Y-21610028D02*
X101695374Y-21681457D01*
X100409660Y-22610028D02*
X100409660Y-21824314D01*
X100409660Y-21824314D02*
X100481088Y-21681457D01*
X100481088Y-21681457D02*
X100623945Y-21610028D01*
X100623945Y-21610028D02*
X100909660Y-21610028D01*
X100909660Y-21610028D02*
X101052517Y-21681457D01*
X100409660Y-22538600D02*
X100552517Y-22610028D01*
X100552517Y-22610028D02*
X100909660Y-22610028D01*
X100909660Y-22610028D02*
X101052517Y-22538600D01*
X101052517Y-22538600D02*
X101123945Y-22395742D01*
X101123945Y-22395742D02*
X101123945Y-22252885D01*
X101123945Y-22252885D02*
X101052517Y-22110028D01*
X101052517Y-22110028D02*
X100909660Y-22038600D01*
X100909660Y-22038600D02*
X100552517Y-22038600D01*
X100552517Y-22038600D02*
X100409660Y-21967171D01*
X99909659Y-21610028D02*
X99338231Y-21610028D01*
X99695374Y-21110028D02*
X99695374Y-22395742D01*
X99695374Y-22395742D02*
X99623945Y-22538600D01*
X99623945Y-22538600D02*
X99481088Y-22610028D01*
X99481088Y-22610028D02*
X99338231Y-22610028D01*
X98623945Y-22610028D02*
X98766802Y-22538600D01*
X98766802Y-22538600D02*
X98838231Y-22467171D01*
X98838231Y-22467171D02*
X98909659Y-22324314D01*
X98909659Y-22324314D02*
X98909659Y-21895742D01*
X98909659Y-21895742D02*
X98838231Y-21752885D01*
X98838231Y-21752885D02*
X98766802Y-21681457D01*
X98766802Y-21681457D02*
X98623945Y-21610028D01*
X98623945Y-21610028D02*
X98409659Y-21610028D01*
X98409659Y-21610028D02*
X98266802Y-21681457D01*
X98266802Y-21681457D02*
X98195374Y-21752885D01*
X98195374Y-21752885D02*
X98123945Y-21895742D01*
X98123945Y-21895742D02*
X98123945Y-22324314D01*
X98123945Y-22324314D02*
X98195374Y-22467171D01*
X98195374Y-22467171D02*
X98266802Y-22538600D01*
X98266802Y-22538600D02*
X98409659Y-22610028D01*
X98409659Y-22610028D02*
X98623945Y-22610028D01*
X97481088Y-22610028D02*
X97481088Y-21610028D01*
X97481088Y-21895742D02*
X97409659Y-21752885D01*
X97409659Y-21752885D02*
X97338231Y-21681457D01*
X97338231Y-21681457D02*
X97195373Y-21610028D01*
X97195373Y-21610028D02*
X97052516Y-21610028D01*
X104093489Y-30382428D02*
X104093489Y-28882428D01*
X104093489Y-28882428D02*
X103522060Y-28882428D01*
X103522060Y-28882428D02*
X103379203Y-28953857D01*
X103379203Y-28953857D02*
X103307774Y-29025285D01*
X103307774Y-29025285D02*
X103236346Y-29168142D01*
X103236346Y-29168142D02*
X103236346Y-29382428D01*
X103236346Y-29382428D02*
X103307774Y-29525285D01*
X103307774Y-29525285D02*
X103379203Y-29596714D01*
X103379203Y-29596714D02*
X103522060Y-29668142D01*
X103522060Y-29668142D02*
X104093489Y-29668142D01*
X101950632Y-30382428D02*
X101950632Y-29596714D01*
X101950632Y-29596714D02*
X102022060Y-29453857D01*
X102022060Y-29453857D02*
X102164917Y-29382428D01*
X102164917Y-29382428D02*
X102450632Y-29382428D01*
X102450632Y-29382428D02*
X102593489Y-29453857D01*
X101950632Y-30311000D02*
X102093489Y-30382428D01*
X102093489Y-30382428D02*
X102450632Y-30382428D01*
X102450632Y-30382428D02*
X102593489Y-30311000D01*
X102593489Y-30311000D02*
X102664917Y-30168142D01*
X102664917Y-30168142D02*
X102664917Y-30025285D01*
X102664917Y-30025285D02*
X102593489Y-29882428D01*
X102593489Y-29882428D02*
X102450632Y-29811000D01*
X102450632Y-29811000D02*
X102093489Y-29811000D01*
X102093489Y-29811000D02*
X101950632Y-29739571D01*
X100593489Y-30311000D02*
X100736346Y-30382428D01*
X100736346Y-30382428D02*
X101022060Y-30382428D01*
X101022060Y-30382428D02*
X101164917Y-30311000D01*
X101164917Y-30311000D02*
X101236346Y-30239571D01*
X101236346Y-30239571D02*
X101307774Y-30096714D01*
X101307774Y-30096714D02*
X101307774Y-29668142D01*
X101307774Y-29668142D02*
X101236346Y-29525285D01*
X101236346Y-29525285D02*
X101164917Y-29453857D01*
X101164917Y-29453857D02*
X101022060Y-29382428D01*
X101022060Y-29382428D02*
X100736346Y-29382428D01*
X100736346Y-29382428D02*
X100593489Y-29453857D01*
X99736346Y-30382428D02*
X99879203Y-30311000D01*
X99879203Y-30311000D02*
X99950632Y-30239571D01*
X99950632Y-30239571D02*
X100022060Y-30096714D01*
X100022060Y-30096714D02*
X100022060Y-29668142D01*
X100022060Y-29668142D02*
X99950632Y-29525285D01*
X99950632Y-29525285D02*
X99879203Y-29453857D01*
X99879203Y-29453857D02*
X99736346Y-29382428D01*
X99736346Y-29382428D02*
X99522060Y-29382428D01*
X99522060Y-29382428D02*
X99379203Y-29453857D01*
X99379203Y-29453857D02*
X99307775Y-29525285D01*
X99307775Y-29525285D02*
X99236346Y-29668142D01*
X99236346Y-29668142D02*
X99236346Y-30096714D01*
X99236346Y-30096714D02*
X99307775Y-30239571D01*
X99307775Y-30239571D02*
X99379203Y-30311000D01*
X99379203Y-30311000D02*
X99522060Y-30382428D01*
X99522060Y-30382428D02*
X99736346Y-30382428D01*
X97450632Y-30239571D02*
X97379203Y-30311000D01*
X97379203Y-30311000D02*
X97450632Y-30382428D01*
X97450632Y-30382428D02*
X97522060Y-30311000D01*
X97522060Y-30311000D02*
X97450632Y-30239571D01*
X97450632Y-30239571D02*
X97450632Y-30382428D01*
X97450632Y-29453857D02*
X97379203Y-29525285D01*
X97379203Y-29525285D02*
X97450632Y-29596714D01*
X97450632Y-29596714D02*
X97522060Y-29525285D01*
X97522060Y-29525285D02*
X97450632Y-29453857D01*
X97450632Y-29453857D02*
X97450632Y-29596714D01*
X96879203Y-28882428D02*
X95950631Y-28882428D01*
X95950631Y-28882428D02*
X96450631Y-29453857D01*
X96450631Y-29453857D02*
X96236346Y-29453857D01*
X96236346Y-29453857D02*
X96093489Y-29525285D01*
X96093489Y-29525285D02*
X96022060Y-29596714D01*
X96022060Y-29596714D02*
X95950631Y-29739571D01*
X95950631Y-29739571D02*
X95950631Y-30096714D01*
X95950631Y-30096714D02*
X96022060Y-30239571D01*
X96022060Y-30239571D02*
X96093489Y-30311000D01*
X96093489Y-30311000D02*
X96236346Y-30382428D01*
X96236346Y-30382428D02*
X96664917Y-30382428D01*
X96664917Y-30382428D02*
X96807774Y-30311000D01*
X96807774Y-30311000D02*
X96879203Y-30239571D01*
X131355689Y-111128798D02*
X131141403Y-111200226D01*
X131141403Y-111200226D02*
X131069974Y-111271655D01*
X131069974Y-111271655D02*
X130998546Y-111414512D01*
X130998546Y-111414512D02*
X130998546Y-111628798D01*
X130998546Y-111628798D02*
X131069974Y-111771655D01*
X131069974Y-111771655D02*
X131141403Y-111843084D01*
X131141403Y-111843084D02*
X131284260Y-111914512D01*
X131284260Y-111914512D02*
X131855689Y-111914512D01*
X131855689Y-111914512D02*
X131855689Y-110414512D01*
X131855689Y-110414512D02*
X131355689Y-110414512D01*
X131355689Y-110414512D02*
X131212832Y-110485941D01*
X131212832Y-110485941D02*
X131141403Y-110557369D01*
X131141403Y-110557369D02*
X131069974Y-110700226D01*
X131069974Y-110700226D02*
X131069974Y-110843084D01*
X131069974Y-110843084D02*
X131141403Y-110985941D01*
X131141403Y-110985941D02*
X131212832Y-111057369D01*
X131212832Y-111057369D02*
X131355689Y-111128798D01*
X131355689Y-111128798D02*
X131855689Y-111128798D01*
X129712832Y-111914512D02*
X129712832Y-111128798D01*
X129712832Y-111128798D02*
X129784260Y-110985941D01*
X129784260Y-110985941D02*
X129927117Y-110914512D01*
X129927117Y-110914512D02*
X130212832Y-110914512D01*
X130212832Y-110914512D02*
X130355689Y-110985941D01*
X129712832Y-111843084D02*
X129855689Y-111914512D01*
X129855689Y-111914512D02*
X130212832Y-111914512D01*
X130212832Y-111914512D02*
X130355689Y-111843084D01*
X130355689Y-111843084D02*
X130427117Y-111700226D01*
X130427117Y-111700226D02*
X130427117Y-111557369D01*
X130427117Y-111557369D02*
X130355689Y-111414512D01*
X130355689Y-111414512D02*
X130212832Y-111343084D01*
X130212832Y-111343084D02*
X129855689Y-111343084D01*
X129855689Y-111343084D02*
X129712832Y-111271655D01*
X129212831Y-110914512D02*
X128641403Y-110914512D01*
X128998546Y-110414512D02*
X128998546Y-111700226D01*
X128998546Y-111700226D02*
X128927117Y-111843084D01*
X128927117Y-111843084D02*
X128784260Y-111914512D01*
X128784260Y-111914512D02*
X128641403Y-111914512D01*
X128355688Y-110914512D02*
X127784260Y-110914512D01*
X128141403Y-110414512D02*
X128141403Y-111700226D01*
X128141403Y-111700226D02*
X128069974Y-111843084D01*
X128069974Y-111843084D02*
X127927117Y-111914512D01*
X127927117Y-111914512D02*
X127784260Y-111914512D01*
X126712831Y-111843084D02*
X126855688Y-111914512D01*
X126855688Y-111914512D02*
X127141403Y-111914512D01*
X127141403Y-111914512D02*
X127284260Y-111843084D01*
X127284260Y-111843084D02*
X127355688Y-111700226D01*
X127355688Y-111700226D02*
X127355688Y-111128798D01*
X127355688Y-111128798D02*
X127284260Y-110985941D01*
X127284260Y-110985941D02*
X127141403Y-110914512D01*
X127141403Y-110914512D02*
X126855688Y-110914512D01*
X126855688Y-110914512D02*
X126712831Y-110985941D01*
X126712831Y-110985941D02*
X126641403Y-111128798D01*
X126641403Y-111128798D02*
X126641403Y-111271655D01*
X126641403Y-111271655D02*
X127355688Y-111414512D01*
X125998546Y-111914512D02*
X125998546Y-110914512D01*
X125998546Y-111200226D02*
X125927117Y-111057369D01*
X125927117Y-111057369D02*
X125855689Y-110985941D01*
X125855689Y-110985941D02*
X125712831Y-110914512D01*
X125712831Y-110914512D02*
X125569974Y-110914512D01*
X125212832Y-110914512D02*
X124855689Y-111914512D01*
X124498546Y-110914512D02*
X124855689Y-111914512D01*
X124855689Y-111914512D02*
X124998546Y-112271655D01*
X124998546Y-112271655D02*
X125069975Y-112343084D01*
X125069975Y-112343084D02*
X125212832Y-112414512D01*
X122569975Y-111914512D02*
X122712832Y-111843084D01*
X122712832Y-111843084D02*
X122784261Y-111700226D01*
X122784261Y-111700226D02*
X122784261Y-110414512D01*
X121427118Y-111843084D02*
X121569975Y-111914512D01*
X121569975Y-111914512D02*
X121855690Y-111914512D01*
X121855690Y-111914512D02*
X121998547Y-111843084D01*
X121998547Y-111843084D02*
X122069975Y-111700226D01*
X122069975Y-111700226D02*
X122069975Y-111128798D01*
X122069975Y-111128798D02*
X121998547Y-110985941D01*
X121998547Y-110985941D02*
X121855690Y-110914512D01*
X121855690Y-110914512D02*
X121569975Y-110914512D01*
X121569975Y-110914512D02*
X121427118Y-110985941D01*
X121427118Y-110985941D02*
X121355690Y-111128798D01*
X121355690Y-111128798D02*
X121355690Y-111271655D01*
X121355690Y-111271655D02*
X122069975Y-111414512D01*
X120855690Y-110914512D02*
X120498547Y-111914512D01*
X120498547Y-111914512D02*
X120141404Y-110914512D01*
X118998547Y-111843084D02*
X119141404Y-111914512D01*
X119141404Y-111914512D02*
X119427119Y-111914512D01*
X119427119Y-111914512D02*
X119569976Y-111843084D01*
X119569976Y-111843084D02*
X119641404Y-111700226D01*
X119641404Y-111700226D02*
X119641404Y-111128798D01*
X119641404Y-111128798D02*
X119569976Y-110985941D01*
X119569976Y-110985941D02*
X119427119Y-110914512D01*
X119427119Y-110914512D02*
X119141404Y-110914512D01*
X119141404Y-110914512D02*
X118998547Y-110985941D01*
X118998547Y-110985941D02*
X118927119Y-111128798D01*
X118927119Y-111128798D02*
X118927119Y-111271655D01*
X118927119Y-111271655D02*
X119641404Y-111414512D01*
X118069976Y-111914512D02*
X118212833Y-111843084D01*
X118212833Y-111843084D02*
X118284262Y-111700226D01*
X118284262Y-111700226D02*
X118284262Y-110414512D01*
X131855689Y-114329428D02*
X131855689Y-113329428D01*
X131855689Y-112829428D02*
X131927117Y-112900857D01*
X131927117Y-112900857D02*
X131855689Y-112972285D01*
X131855689Y-112972285D02*
X131784260Y-112900857D01*
X131784260Y-112900857D02*
X131855689Y-112829428D01*
X131855689Y-112829428D02*
X131855689Y-112972285D01*
X131141403Y-113329428D02*
X131141403Y-114329428D01*
X131141403Y-113472285D02*
X131069974Y-113400857D01*
X131069974Y-113400857D02*
X130927117Y-113329428D01*
X130927117Y-113329428D02*
X130712831Y-113329428D01*
X130712831Y-113329428D02*
X130569974Y-113400857D01*
X130569974Y-113400857D02*
X130498546Y-113543714D01*
X130498546Y-113543714D02*
X130498546Y-114329428D01*
X129141403Y-114329428D02*
X129141403Y-112829428D01*
X129141403Y-114258000D02*
X129284260Y-114329428D01*
X129284260Y-114329428D02*
X129569974Y-114329428D01*
X129569974Y-114329428D02*
X129712831Y-114258000D01*
X129712831Y-114258000D02*
X129784260Y-114186571D01*
X129784260Y-114186571D02*
X129855688Y-114043714D01*
X129855688Y-114043714D02*
X129855688Y-113615142D01*
X129855688Y-113615142D02*
X129784260Y-113472285D01*
X129784260Y-113472285D02*
X129712831Y-113400857D01*
X129712831Y-113400857D02*
X129569974Y-113329428D01*
X129569974Y-113329428D02*
X129284260Y-113329428D01*
X129284260Y-113329428D02*
X129141403Y-113400857D01*
X128427117Y-114329428D02*
X128427117Y-113329428D01*
X128427117Y-112829428D02*
X128498545Y-112900857D01*
X128498545Y-112900857D02*
X128427117Y-112972285D01*
X128427117Y-112972285D02*
X128355688Y-112900857D01*
X128355688Y-112900857D02*
X128427117Y-112829428D01*
X128427117Y-112829428D02*
X128427117Y-112972285D01*
X127069974Y-114258000D02*
X127212831Y-114329428D01*
X127212831Y-114329428D02*
X127498545Y-114329428D01*
X127498545Y-114329428D02*
X127641402Y-114258000D01*
X127641402Y-114258000D02*
X127712831Y-114186571D01*
X127712831Y-114186571D02*
X127784259Y-114043714D01*
X127784259Y-114043714D02*
X127784259Y-113615142D01*
X127784259Y-113615142D02*
X127712831Y-113472285D01*
X127712831Y-113472285D02*
X127641402Y-113400857D01*
X127641402Y-113400857D02*
X127498545Y-113329428D01*
X127498545Y-113329428D02*
X127212831Y-113329428D01*
X127212831Y-113329428D02*
X127069974Y-113400857D01*
X125784260Y-114329428D02*
X125784260Y-113543714D01*
X125784260Y-113543714D02*
X125855688Y-113400857D01*
X125855688Y-113400857D02*
X125998545Y-113329428D01*
X125998545Y-113329428D02*
X126284260Y-113329428D01*
X126284260Y-113329428D02*
X126427117Y-113400857D01*
X125784260Y-114258000D02*
X125927117Y-114329428D01*
X125927117Y-114329428D02*
X126284260Y-114329428D01*
X126284260Y-114329428D02*
X126427117Y-114258000D01*
X126427117Y-114258000D02*
X126498545Y-114115142D01*
X126498545Y-114115142D02*
X126498545Y-113972285D01*
X126498545Y-113972285D02*
X126427117Y-113829428D01*
X126427117Y-113829428D02*
X126284260Y-113758000D01*
X126284260Y-113758000D02*
X125927117Y-113758000D01*
X125927117Y-113758000D02*
X125784260Y-113686571D01*
X125284259Y-113329428D02*
X124712831Y-113329428D01*
X125069974Y-112829428D02*
X125069974Y-114115142D01*
X125069974Y-114115142D02*
X124998545Y-114258000D01*
X124998545Y-114258000D02*
X124855688Y-114329428D01*
X124855688Y-114329428D02*
X124712831Y-114329428D01*
X123998545Y-114329428D02*
X124141402Y-114258000D01*
X124141402Y-114258000D02*
X124212831Y-114186571D01*
X124212831Y-114186571D02*
X124284259Y-114043714D01*
X124284259Y-114043714D02*
X124284259Y-113615142D01*
X124284259Y-113615142D02*
X124212831Y-113472285D01*
X124212831Y-113472285D02*
X124141402Y-113400857D01*
X124141402Y-113400857D02*
X123998545Y-113329428D01*
X123998545Y-113329428D02*
X123784259Y-113329428D01*
X123784259Y-113329428D02*
X123641402Y-113400857D01*
X123641402Y-113400857D02*
X123569974Y-113472285D01*
X123569974Y-113472285D02*
X123498545Y-113615142D01*
X123498545Y-113615142D02*
X123498545Y-114043714D01*
X123498545Y-114043714D02*
X123569974Y-114186571D01*
X123569974Y-114186571D02*
X123641402Y-114258000D01*
X123641402Y-114258000D02*
X123784259Y-114329428D01*
X123784259Y-114329428D02*
X123998545Y-114329428D01*
X122855688Y-114329428D02*
X122855688Y-113329428D01*
X122855688Y-113615142D02*
X122784259Y-113472285D01*
X122784259Y-113472285D02*
X122712831Y-113400857D01*
X122712831Y-113400857D02*
X122569973Y-113329428D01*
X122569973Y-113329428D02*
X122427116Y-113329428D01*
X104728489Y-122051028D02*
X104728489Y-120551028D01*
X104728489Y-120551028D02*
X104157060Y-120551028D01*
X104157060Y-120551028D02*
X104014203Y-120622457D01*
X104014203Y-120622457D02*
X103942774Y-120693885D01*
X103942774Y-120693885D02*
X103871346Y-120836742D01*
X103871346Y-120836742D02*
X103871346Y-121051028D01*
X103871346Y-121051028D02*
X103942774Y-121193885D01*
X103942774Y-121193885D02*
X104014203Y-121265314D01*
X104014203Y-121265314D02*
X104157060Y-121336742D01*
X104157060Y-121336742D02*
X104728489Y-121336742D01*
X102585632Y-122051028D02*
X102585632Y-121265314D01*
X102585632Y-121265314D02*
X102657060Y-121122457D01*
X102657060Y-121122457D02*
X102799917Y-121051028D01*
X102799917Y-121051028D02*
X103085632Y-121051028D01*
X103085632Y-121051028D02*
X103228489Y-121122457D01*
X102585632Y-121979600D02*
X102728489Y-122051028D01*
X102728489Y-122051028D02*
X103085632Y-122051028D01*
X103085632Y-122051028D02*
X103228489Y-121979600D01*
X103228489Y-121979600D02*
X103299917Y-121836742D01*
X103299917Y-121836742D02*
X103299917Y-121693885D01*
X103299917Y-121693885D02*
X103228489Y-121551028D01*
X103228489Y-121551028D02*
X103085632Y-121479600D01*
X103085632Y-121479600D02*
X102728489Y-121479600D01*
X102728489Y-121479600D02*
X102585632Y-121408171D01*
X101228489Y-121979600D02*
X101371346Y-122051028D01*
X101371346Y-122051028D02*
X101657060Y-122051028D01*
X101657060Y-122051028D02*
X101799917Y-121979600D01*
X101799917Y-121979600D02*
X101871346Y-121908171D01*
X101871346Y-121908171D02*
X101942774Y-121765314D01*
X101942774Y-121765314D02*
X101942774Y-121336742D01*
X101942774Y-121336742D02*
X101871346Y-121193885D01*
X101871346Y-121193885D02*
X101799917Y-121122457D01*
X101799917Y-121122457D02*
X101657060Y-121051028D01*
X101657060Y-121051028D02*
X101371346Y-121051028D01*
X101371346Y-121051028D02*
X101228489Y-121122457D01*
X100371346Y-122051028D02*
X100514203Y-121979600D01*
X100514203Y-121979600D02*
X100585632Y-121908171D01*
X100585632Y-121908171D02*
X100657060Y-121765314D01*
X100657060Y-121765314D02*
X100657060Y-121336742D01*
X100657060Y-121336742D02*
X100585632Y-121193885D01*
X100585632Y-121193885D02*
X100514203Y-121122457D01*
X100514203Y-121122457D02*
X100371346Y-121051028D01*
X100371346Y-121051028D02*
X100157060Y-121051028D01*
X100157060Y-121051028D02*
X100014203Y-121122457D01*
X100014203Y-121122457D02*
X99942775Y-121193885D01*
X99942775Y-121193885D02*
X99871346Y-121336742D01*
X99871346Y-121336742D02*
X99871346Y-121765314D01*
X99871346Y-121765314D02*
X99942775Y-121908171D01*
X99942775Y-121908171D02*
X100014203Y-121979600D01*
X100014203Y-121979600D02*
X100157060Y-122051028D01*
X100157060Y-122051028D02*
X100371346Y-122051028D01*
X98085632Y-121908171D02*
X98014203Y-121979600D01*
X98014203Y-121979600D02*
X98085632Y-122051028D01*
X98085632Y-122051028D02*
X98157060Y-121979600D01*
X98157060Y-121979600D02*
X98085632Y-121908171D01*
X98085632Y-121908171D02*
X98085632Y-122051028D01*
X98085632Y-121122457D02*
X98014203Y-121193885D01*
X98014203Y-121193885D02*
X98085632Y-121265314D01*
X98085632Y-121265314D02*
X98157060Y-121193885D01*
X98157060Y-121193885D02*
X98085632Y-121122457D01*
X98085632Y-121122457D02*
X98085632Y-121265314D01*
X97514203Y-120551028D02*
X96585631Y-120551028D01*
X96585631Y-120551028D02*
X97085631Y-121122457D01*
X97085631Y-121122457D02*
X96871346Y-121122457D01*
X96871346Y-121122457D02*
X96728489Y-121193885D01*
X96728489Y-121193885D02*
X96657060Y-121265314D01*
X96657060Y-121265314D02*
X96585631Y-121408171D01*
X96585631Y-121408171D02*
X96585631Y-121765314D01*
X96585631Y-121765314D02*
X96657060Y-121908171D01*
X96657060Y-121908171D02*
X96728489Y-121979600D01*
X96728489Y-121979600D02*
X96871346Y-122051028D01*
X96871346Y-122051028D02*
X97299917Y-122051028D01*
X97299917Y-122051028D02*
X97442774Y-121979600D01*
X97442774Y-121979600D02*
X97514203Y-121908171D01*
M02*
