M48
; DRILL file {KiCad 8.0.5} date 2024-12-11T00:13:16+0100
; FORMAT={-:-/ absolute / inch / decimal}
; #@! TF.CreationDate,2024-12-11T00:13:16+01:00
; #@! TF.GenerationSoftware,Kicad,Pcbnew,8.0.5
; #@! TF.FileFunction,Plated,1,2,PTH
FMAT,2
INCH
; #@! TA.AperFunction,Plated,PTH,ViaDrill
T1C0.0118
; #@! TA.AperFunction,Plated,PTH,ComponentDrill
T2C0.0394
%
G90
G05
T1
X3.818Y-1.072
X3.826Y-1.974
X3.832Y-2.88
X3.84Y-3.782
X3.843Y-4.681
X3.851Y-5.583
X3.857Y-6.489
X4.148Y-0.914
X4.156Y-1.816
X4.162Y-2.722
X4.17Y-3.624
X4.173Y-4.523
X4.181Y-5.425
X4.187Y-6.331
X4.792Y-1.074
X4.8Y-1.976
X4.806Y-2.882
X4.814Y-3.784
X4.817Y-4.683
X4.825Y-5.585
X4.831Y-6.491
X5.122Y-0.916
X5.13Y-1.818
X5.136Y-2.724
X5.144Y-3.626
X5.147Y-4.525
X5.155Y-5.427
X5.161Y-6.333
T2
X3.88Y-1.272
X3.888Y-2.174
X3.894Y-3.08
X3.902Y-3.982
X3.905Y-4.881
X3.913Y-5.783
X3.919Y-6.689
X3.98Y-1.272
X3.988Y-2.174
X3.994Y-3.08
X4.002Y-3.982
X4.005Y-4.881
X4.013Y-5.783
X4.019Y-6.689
X4.854Y-1.274
X4.862Y-2.176
X4.868Y-3.082
X4.876Y-3.984
X4.879Y-4.883
X4.887Y-5.785
X4.893Y-6.691
X4.954Y-1.274
X4.962Y-2.176
X4.968Y-3.082
X4.976Y-3.984
X4.979Y-4.883
X4.987Y-5.785
X4.993Y-6.691
M30
