%TF.GenerationSoftware,KiCad,Pcbnew,8.0.5*%
%TF.CreationDate,2024-12-11T00:13:19+01:00*%
%TF.ProjectId,battery-lvl-indicator-kicad.kicad_pcb-copy,62617474-6572-4792-9d6c-766c2d696e64,rev?*%
%TF.SameCoordinates,Original*%
%TF.FileFunction,Profile,NP*%
%FSLAX46Y46*%
G04 Gerber Fmt 4.6, Leading zero omitted, Abs format (unit mm)*
G04 Created by KiCad (PCBNEW 8.0.5) date 2024-12-11 00:13:19*
%MOMM*%
%LPD*%
G01*
G04 APERTURE LIST*
%TA.AperFunction,Profile*%
%ADD10C,0.050000*%
%TD*%
G04 APERTURE END LIST*
D10*
X111252000Y-62179200D02*
X113385600Y-62179200D01*
X113385600Y-79756000D01*
X111252000Y-79756000D01*
X111252000Y-62179200D01*
X91440000Y-81483200D02*
X109016800Y-81483200D01*
X109016800Y-83413600D01*
X91440000Y-83413600D01*
X91440000Y-81483200D01*
X111099600Y-39166800D02*
X113233200Y-39166800D01*
X113233200Y-56743600D01*
X111099600Y-56743600D01*
X111099600Y-39166800D01*
X116179600Y-81534000D02*
X133756400Y-81534000D01*
X133756400Y-83464400D01*
X116179600Y-83464400D01*
X116179600Y-81534000D01*
X111531400Y-107924600D02*
X113665000Y-107924600D01*
X113665000Y-125501400D01*
X111531400Y-125501400D01*
X111531400Y-107924600D01*
X91084400Y-35560000D02*
X108661200Y-35560000D01*
X108661200Y-37490400D01*
X91084400Y-37490400D01*
X91084400Y-35560000D01*
X115824000Y-35610800D02*
X133400800Y-35610800D01*
X133400800Y-37541200D01*
X115824000Y-37541200D01*
X115824000Y-35610800D01*
X110896400Y-16256000D02*
X113030000Y-16256000D01*
X113030000Y-33832800D01*
X110896400Y-33832800D01*
X110896400Y-16256000D01*
X88214200Y-14732000D02*
X136702800Y-14732000D01*
X136702800Y-173151800D01*
X88214200Y-173151800D01*
X88214200Y-14732000D01*
X91871800Y-150241000D02*
X109448600Y-150241000D01*
X109448600Y-152171400D01*
X91871800Y-152171400D01*
X91871800Y-150241000D01*
X111734600Y-130835400D02*
X113868200Y-130835400D01*
X113868200Y-148412200D01*
X111734600Y-148412200D01*
X111734600Y-130835400D01*
X91236800Y-58572400D02*
X108813600Y-58572400D01*
X108813600Y-60502800D01*
X91236800Y-60502800D01*
X91236800Y-58572400D01*
X115976400Y-58623200D02*
X133553200Y-58623200D01*
X133553200Y-60553600D01*
X115976400Y-60553600D01*
X115976400Y-58623200D01*
X116459000Y-127279400D02*
X134035800Y-127279400D01*
X134035800Y-129209800D01*
X116459000Y-129209800D01*
X116459000Y-127279400D01*
X111887000Y-153847800D02*
X114020600Y-153847800D01*
X114020600Y-171424600D01*
X111887000Y-171424600D01*
X111887000Y-153847800D01*
X116611400Y-150291800D02*
X134188200Y-150291800D01*
X134188200Y-152222200D01*
X116611400Y-152222200D01*
X116611400Y-150291800D01*
X91516200Y-104317800D02*
X109093000Y-104317800D01*
X109093000Y-106248200D01*
X91516200Y-106248200D01*
X91516200Y-104317800D01*
X111455200Y-85090000D02*
X113588800Y-85090000D01*
X113588800Y-102666800D01*
X111455200Y-102666800D01*
X111455200Y-85090000D01*
X116255800Y-104368600D02*
X133832600Y-104368600D01*
X133832600Y-106299000D01*
X116255800Y-106299000D01*
X116255800Y-104368600D01*
X91719400Y-127228600D02*
X109296200Y-127228600D01*
X109296200Y-129159000D01*
X91719400Y-129159000D01*
X91719400Y-127228600D01*
M02*
