%TF.GenerationSoftware,KiCad,Pcbnew,8.0.5*%
%TF.CreationDate,2024-12-11T00:13:19+01:00*%
%TF.ProjectId,battery-lvl-indicator-kicad.kicad_pcb-copy,62617474-6572-4792-9d6c-766c2d696e64,rev?*%
%TF.SameCoordinates,Original*%
%TF.FileFunction,Copper,L2,Bot*%
%TF.FilePolarity,Positive*%
%FSLAX46Y46*%
G04 Gerber Fmt 4.6, Leading zero omitted, Abs format (unit mm)*
G04 Created by KiCad (PCBNEW 8.0.5) date 2024-12-11 00:13:19*
%MOMM*%
%LPD*%
G01*
G04 APERTURE LIST*
%TA.AperFunction,ComponentPad*%
%ADD10O,1.700000X1.700000*%
%TD*%
%TA.AperFunction,ComponentPad*%
%ADD11R,1.700000X1.700000*%
%TD*%
%TA.AperFunction,ViaPad*%
%ADD12C,0.600000*%
%TD*%
%TA.AperFunction,Conductor*%
%ADD13C,0.200000*%
%TD*%
G04 APERTURE END LIST*
D10*
%TO.P,J1,2,Pin_2*%
%TO.N,Net-(D2-K)*%
X98552000Y-32308800D03*
D11*
%TO.P,J1,1,Pin_1*%
%TO.N,Net-(D1-K)*%
X101092000Y-32308800D03*
%TD*%
D10*
%TO.P,J1,2,Pin_2*%
%TO.N,Net-(D2-K)*%
X99390200Y-146888200D03*
D11*
%TO.P,J1,1,Pin_1*%
%TO.N,Net-(D1-K)*%
X101930200Y-146888200D03*
%TD*%
D10*
%TO.P,J1,2,Pin_2*%
%TO.N,Net-(D2-K)*%
X124129800Y-146939000D03*
D11*
%TO.P,J1,1,Pin_1*%
%TO.N,Net-(D1-K)*%
X126669800Y-146939000D03*
%TD*%
D10*
%TO.P,J1,2,Pin_2*%
%TO.N,Net-(D2-K)*%
X123850400Y-101193600D03*
D11*
%TO.P,J1,1,Pin_1*%
%TO.N,Net-(D1-K)*%
X126390400Y-101193600D03*
%TD*%
D10*
%TO.P,J1,2,Pin_2*%
%TO.N,Net-(D2-K)*%
X99187000Y-123977400D03*
D11*
%TO.P,J1,1,Pin_1*%
%TO.N,Net-(D1-K)*%
X101727000Y-123977400D03*
%TD*%
D10*
%TO.P,J1,2,Pin_2*%
%TO.N,Net-(D2-K)*%
X123291600Y-32359600D03*
D11*
%TO.P,J1,1,Pin_1*%
%TO.N,Net-(D1-K)*%
X125831600Y-32359600D03*
%TD*%
D10*
%TO.P,J1,2,Pin_2*%
%TO.N,Net-(D2-K)*%
X123926600Y-124028200D03*
D11*
%TO.P,J1,1,Pin_1*%
%TO.N,Net-(D1-K)*%
X126466600Y-124028200D03*
%TD*%
D10*
%TO.P,J1,2,Pin_2*%
%TO.N,Net-(D2-K)*%
X123494800Y-55270400D03*
D11*
%TO.P,J1,1,Pin_1*%
%TO.N,Net-(D1-K)*%
X126034800Y-55270400D03*
%TD*%
D10*
%TO.P,J1,2,Pin_2*%
%TO.N,Net-(D2-K)*%
X123647200Y-78282800D03*
D11*
%TO.P,J1,1,Pin_1*%
%TO.N,Net-(D1-K)*%
X126187200Y-78282800D03*
%TD*%
D10*
%TO.P,J1,2,Pin_2*%
%TO.N,Net-(D2-K)*%
X99542600Y-169900600D03*
D11*
%TO.P,J1,1,Pin_1*%
%TO.N,Net-(D1-K)*%
X102082600Y-169900600D03*
%TD*%
D10*
%TO.P,J1,2,Pin_2*%
%TO.N,Net-(D2-K)*%
X98755200Y-55219600D03*
D11*
%TO.P,J1,1,Pin_1*%
%TO.N,Net-(D1-K)*%
X101295200Y-55219600D03*
%TD*%
D10*
%TO.P,J1,2,Pin_2*%
%TO.N,Net-(D2-K)*%
X124282200Y-169951400D03*
D11*
%TO.P,J1,1,Pin_1*%
%TO.N,Net-(D1-K)*%
X126822200Y-169951400D03*
%TD*%
D10*
%TO.P,J1,2,Pin_2*%
%TO.N,Net-(D2-K)*%
X99110800Y-101142800D03*
D11*
%TO.P,J1,1,Pin_1*%
%TO.N,Net-(D1-K)*%
X101650800Y-101142800D03*
%TD*%
D10*
%TO.P,J1,2,Pin_2*%
%TO.N,Net-(D2-K)*%
X98907600Y-78232000D03*
D11*
%TO.P,J1,1,Pin_1*%
%TO.N,Net-(D1-K)*%
X101447600Y-78232000D03*
%TD*%
D12*
%TO.N,Net-(D2-K)*%
X97967800Y-164820600D03*
X96977200Y-27228800D03*
X106349800Y-160807400D03*
X122072400Y-73202800D03*
X122555000Y-141859000D03*
X105714800Y-69138800D03*
X122275600Y-96113600D03*
X121920000Y-50190400D03*
X122351800Y-118948200D03*
X106197400Y-137795000D03*
X130937000Y-137845800D03*
X130302000Y-46177200D03*
X130733800Y-114935000D03*
X131089400Y-160858200D03*
X105918000Y-92049600D03*
X130657600Y-92100400D03*
X130454400Y-69189600D03*
X105562400Y-46126400D03*
X122707400Y-164871400D03*
X105994200Y-114884200D03*
X130098800Y-23266400D03*
X97536000Y-96062800D03*
X105359200Y-23215600D03*
X97815400Y-141808200D03*
X97612200Y-118897400D03*
X97332800Y-73152000D03*
X97180400Y-50139600D03*
X121716800Y-27279600D03*
%TD*%
D13*
%TO.N,Net-(D2-K)*%
X126720600Y-118948200D02*
X122351800Y-118948200D01*
X101346000Y-27228800D02*
X96977200Y-27228800D01*
X126441200Y-73202800D02*
X122072400Y-73202800D01*
X101981000Y-118897400D02*
X97612200Y-118897400D01*
X126644400Y-96113600D02*
X122275600Y-96113600D01*
X101549200Y-50139600D02*
X97180400Y-50139600D01*
X105918000Y-92049600D02*
X101904800Y-96062800D01*
X130937000Y-137845800D02*
X126923800Y-141859000D01*
X106197400Y-137795000D02*
X102184200Y-141808200D01*
X126923800Y-141859000D02*
X122555000Y-141859000D01*
X131089400Y-160858200D02*
X127076200Y-164871400D01*
X105714800Y-69138800D02*
X101701600Y-73152000D01*
X127076200Y-164871400D02*
X122707400Y-164871400D01*
X106349800Y-160807400D02*
X102336600Y-164820600D01*
X130098800Y-23266400D02*
X126085600Y-27279600D01*
X126288800Y-50190400D02*
X121920000Y-50190400D01*
X101904800Y-96062800D02*
X97536000Y-96062800D01*
X130302000Y-46177200D02*
X126288800Y-50190400D01*
X105562400Y-46126400D02*
X101549200Y-50139600D01*
X126085600Y-27279600D02*
X121716800Y-27279600D01*
X102184200Y-141808200D02*
X97815400Y-141808200D01*
X102336600Y-164820600D02*
X97967800Y-164820600D01*
X130657600Y-92100400D02*
X126644400Y-96113600D01*
X130733800Y-114935000D02*
X126720600Y-118948200D01*
X130454400Y-69189600D02*
X126441200Y-73202800D01*
X101701600Y-73152000D02*
X97332800Y-73152000D01*
X105994200Y-114884200D02*
X101981000Y-118897400D01*
X105359200Y-23215600D02*
X101346000Y-27228800D01*
%TD*%
M02*
