%TF.GenerationSoftware,KiCad,Pcbnew,8.0.5*%
%TF.CreationDate,2024-12-11T00:13:19+01:00*%
%TF.ProjectId,battery-lvl-indicator-kicad.kicad_pcb-copy,62617474-6572-4792-9d6c-766c2d696e64,rev?*%
%TF.SameCoordinates,Original*%
%TF.FileFunction,Copper,L1,Top*%
%TF.FilePolarity,Positive*%
%FSLAX46Y46*%
G04 Gerber Fmt 4.6, Leading zero omitted, Abs format (unit mm)*
G04 Created by KiCad (PCBNEW 8.0.5) date 2024-12-11 00:13:19*
%MOMM*%
%LPD*%
G01*
G04 APERTURE LIST*
G04 Aperture macros list*
%AMRoundRect*
0 Rectangle with rounded corners*
0 $1 Rounding radius*
0 $2 $3 $4 $5 $6 $7 $8 $9 X,Y pos of 4 corners*
0 Add a 4 corners polygon primitive as box body*
4,1,4,$2,$3,$4,$5,$6,$7,$8,$9,$2,$3,0*
0 Add four circle primitives for the rounded corners*
1,1,$1+$1,$2,$3*
1,1,$1+$1,$4,$5*
1,1,$1+$1,$6,$7*
1,1,$1+$1,$8,$9*
0 Add four rect primitives between the rounded corners*
20,1,$1+$1,$2,$3,$4,$5,0*
20,1,$1+$1,$4,$5,$6,$7,0*
20,1,$1+$1,$6,$7,$8,$9,0*
20,1,$1+$1,$8,$9,$2,$3,0*%
G04 Aperture macros list end*
%TA.AperFunction,SMDPad,CuDef*%
%ADD10R,1.524000X1.676400*%
%TD*%
%TA.AperFunction,SMDPad,CuDef*%
%ADD11R,1.981200X0.558800*%
%TD*%
%TA.AperFunction,SMDPad,CuDef*%
%ADD12RoundRect,0.250000X-0.337500X-0.475000X0.337500X-0.475000X0.337500X0.475000X-0.337500X0.475000X0*%
%TD*%
%TA.AperFunction,SMDPad,CuDef*%
%ADD13RoundRect,0.250000X-0.325000X-0.450000X0.325000X-0.450000X0.325000X0.450000X-0.325000X0.450000X0*%
%TD*%
%TA.AperFunction,ComponentPad*%
%ADD14O,1.700000X1.700000*%
%TD*%
%TA.AperFunction,ComponentPad*%
%ADD15R,1.700000X1.700000*%
%TD*%
%TA.AperFunction,SMDPad,CuDef*%
%ADD16RoundRect,0.250000X-0.350000X-0.450000X0.350000X-0.450000X0.350000X0.450000X-0.350000X0.450000X0*%
%TD*%
%TA.AperFunction,ViaPad*%
%ADD17C,0.600000*%
%TD*%
%TA.AperFunction,Conductor*%
%ADD18C,0.200000*%
%TD*%
G04 APERTURE END LIST*
D10*
%TO.P,D1,2,A*%
%TO.N,Net-(D1-A)*%
X128295400Y-154965400D03*
%TO.P,D1,1,K*%
%TO.N,Net-(D1-K)*%
X130937000Y-154965400D03*
%TD*%
D11*
%TO.P,U1,8,VCC*%
%TO.N,Net-(D1-A)*%
X127330200Y-21971000D03*
%TO.P,U1,7,2OUT*%
%TO.N,Net-(U1-2OUT)*%
X127330200Y-23241000D03*
%TO.P,U1,6,2IN-*%
%TO.N,unconnected-(U1-2IN--Pad6)*%
X127330200Y-24511000D03*
%TO.P,U1,5,2IN+*%
%TO.N,Net-(U1-2IN+)*%
X127330200Y-25781000D03*
%TO.P,U1,4,GND*%
%TO.N,Net-(D2-K)*%
X122402600Y-25781000D03*
%TO.P,U1,3,1IN+*%
%TO.N,unconnected-(U1-1IN+-Pad3)*%
X122402600Y-24511000D03*
%TO.P,U1,2,1IN-*%
%TO.N,unconnected-(U1-1IN--Pad2)*%
X122402600Y-23241000D03*
%TO.P,U1,1,1OUT*%
%TO.N,Net-(U1-1OUT)*%
X122402600Y-21971000D03*
%TD*%
D12*
%TO.P,C2,2*%
%TO.N,Net-(D1-A)*%
X120167400Y-121335800D03*
%TO.P,C2,1*%
%TO.N,Net-(D2-K)*%
X118092400Y-121335800D03*
%TD*%
D13*
%TO.P,LEDG,2,A*%
%TO.N,Net-(D3-A)*%
X109270800Y-45364400D03*
%TO.P,LEDG,1,K*%
%TO.N,Net-(D2-K)*%
X107220800Y-45364400D03*
%TD*%
%TO.P,LEDR,2,A*%
%TO.N,Net-(D2-A)*%
X94361000Y-158673800D03*
%TO.P,LEDR,1,K*%
%TO.N,Net-(D2-K)*%
X92311000Y-158673800D03*
%TD*%
D14*
%TO.P,J1,2,Pin_2*%
%TO.N,Net-(D2-K)*%
X98552000Y-32308800D03*
D15*
%TO.P,J1,1,Pin_1*%
%TO.N,Net-(D1-K)*%
X101092000Y-32308800D03*
%TD*%
D13*
%TO.P,LEDR,2,A*%
%TO.N,Net-(D2-A)*%
X93573600Y-43992800D03*
%TO.P,LEDR,1,K*%
%TO.N,Net-(D2-K)*%
X91523600Y-43992800D03*
%TD*%
D12*
%TO.P,C1,1*%
%TO.N,Net-(D2-K)*%
X96070600Y-17170400D03*
%TO.P,C1,2*%
%TO.N,Net-(D1-A)*%
X98145600Y-17170400D03*
%TD*%
D10*
%TO.P,D1,2,A*%
%TO.N,Net-(D1-A)*%
X102920800Y-63246000D03*
%TO.P,D1,1,K*%
%TO.N,Net-(D1-K)*%
X105562400Y-63246000D03*
%TD*%
D16*
%TO.P,100R,2*%
%TO.N,Net-(D3-A)*%
X134340600Y-141097000D03*
%TO.P,100R,1*%
%TO.N,Net-(U1-2OUT)*%
X132340600Y-141097000D03*
%TD*%
D11*
%TO.P,U1,8,VCC*%
%TO.N,Net-(D1-A)*%
X103428800Y-136499600D03*
%TO.P,U1,7,2OUT*%
%TO.N,Net-(U1-2OUT)*%
X103428800Y-137769600D03*
%TO.P,U1,6,2IN-*%
%TO.N,unconnected-(U1-2IN--Pad6)*%
X103428800Y-139039600D03*
%TO.P,U1,5,2IN+*%
%TO.N,Net-(U1-2IN+)*%
X103428800Y-140309600D03*
%TO.P,U1,4,GND*%
%TO.N,Net-(D2-K)*%
X98501200Y-140309600D03*
%TO.P,U1,3,1IN+*%
%TO.N,unconnected-(U1-1IN+-Pad3)*%
X98501200Y-139039600D03*
%TO.P,U1,2,1IN-*%
%TO.N,unconnected-(U1-1IN--Pad2)*%
X98501200Y-137769600D03*
%TO.P,U1,1,1OUT*%
%TO.N,Net-(U1-1OUT)*%
X98501200Y-136499600D03*
%TD*%
D16*
%TO.P,10kR,2*%
%TO.N,Net-(D1-A)*%
X107086400Y-30327600D03*
%TO.P,10kR,1*%
%TO.N,Net-(U1-2IN+)*%
X105086400Y-30327600D03*
%TD*%
D10*
%TO.P,D1,2,A*%
%TO.N,Net-(D1-A)*%
X103124000Y-86156800D03*
%TO.P,D1,1,K*%
%TO.N,Net-(D1-K)*%
X105765600Y-86156800D03*
%TD*%
D16*
%TO.P,10kR,2*%
%TO.N,Net-(D1-A)*%
X131826000Y-30378400D03*
%TO.P,10kR,1*%
%TO.N,Net-(U1-2IN+)*%
X129826000Y-30378400D03*
%TD*%
%TO.P,10kR,2*%
%TO.N,Net-(D1-A)*%
X132816600Y-167970200D03*
%TO.P,10kR,1*%
%TO.N,Net-(U1-2IN+)*%
X130816600Y-167970200D03*
%TD*%
D11*
%TO.P,U1,8,VCC*%
%TO.N,Net-(D1-A)*%
X127889000Y-90805000D03*
%TO.P,U1,7,2OUT*%
%TO.N,Net-(U1-2OUT)*%
X127889000Y-92075000D03*
%TO.P,U1,6,2IN-*%
%TO.N,unconnected-(U1-2IN--Pad6)*%
X127889000Y-93345000D03*
%TO.P,U1,5,2IN+*%
%TO.N,Net-(U1-2IN+)*%
X127889000Y-94615000D03*
%TO.P,U1,4,GND*%
%TO.N,Net-(D2-K)*%
X122961400Y-94615000D03*
%TO.P,U1,3,1IN+*%
%TO.N,unconnected-(U1-1IN+-Pad3)*%
X122961400Y-93345000D03*
%TO.P,U1,2,1IN-*%
%TO.N,unconnected-(U1-1IN--Pad2)*%
X122961400Y-92075000D03*
%TO.P,U1,1,1OUT*%
%TO.N,Net-(U1-1OUT)*%
X122961400Y-90805000D03*
%TD*%
D14*
%TO.P,J1,2,Pin_2*%
%TO.N,Net-(D2-K)*%
X99390200Y-146888200D03*
D15*
%TO.P,J1,1,Pin_1*%
%TO.N,Net-(D1-K)*%
X101930200Y-146888200D03*
%TD*%
D11*
%TO.P,U1,8,VCC*%
%TO.N,Net-(D1-A)*%
X103149400Y-90754200D03*
%TO.P,U1,7,2OUT*%
%TO.N,Net-(U1-2OUT)*%
X103149400Y-92024200D03*
%TO.P,U1,6,2IN-*%
%TO.N,unconnected-(U1-2IN--Pad6)*%
X103149400Y-93294200D03*
%TO.P,U1,5,2IN+*%
%TO.N,Net-(U1-2IN+)*%
X103149400Y-94564200D03*
%TO.P,U1,4,GND*%
%TO.N,Net-(D2-K)*%
X98221800Y-94564200D03*
%TO.P,U1,3,1IN+*%
%TO.N,unconnected-(U1-1IN+-Pad3)*%
X98221800Y-93294200D03*
%TO.P,U1,2,1IN-*%
%TO.N,unconnected-(U1-1IN--Pad2)*%
X98221800Y-92024200D03*
%TO.P,U1,1,1OUT*%
%TO.N,Net-(U1-1OUT)*%
X98221800Y-90754200D03*
%TD*%
D13*
%TO.P,LEDG,2,A*%
%TO.N,Net-(D3-A)*%
X134797800Y-160096200D03*
%TO.P,LEDG,1,K*%
%TO.N,Net-(D2-K)*%
X132747800Y-160096200D03*
%TD*%
%TO.P,LEDG,2,A*%
%TO.N,Net-(D3-A)*%
X109067600Y-22453600D03*
%TO.P,LEDG,1,K*%
%TO.N,Net-(D2-K)*%
X107017600Y-22453600D03*
%TD*%
%TO.P,LEDR,2,A*%
%TO.N,Net-(D2-A)*%
X118948200Y-135712200D03*
%TO.P,LEDR,1,K*%
%TO.N,Net-(D2-K)*%
X116898200Y-135712200D03*
%TD*%
D14*
%TO.P,J1,2,Pin_2*%
%TO.N,Net-(D2-K)*%
X124129800Y-146939000D03*
D15*
%TO.P,J1,1,Pin_1*%
%TO.N,Net-(D1-K)*%
X126669800Y-146939000D03*
%TD*%
D12*
%TO.P,C2,2*%
%TO.N,Net-(D1-A)*%
X119735600Y-52578000D03*
%TO.P,C2,1*%
%TO.N,Net-(D2-K)*%
X117660600Y-52578000D03*
%TD*%
D14*
%TO.P,J1,2,Pin_2*%
%TO.N,Net-(D2-K)*%
X123850400Y-101193600D03*
D15*
%TO.P,J1,1,Pin_1*%
%TO.N,Net-(D1-K)*%
X126390400Y-101193600D03*
%TD*%
D16*
%TO.P,100R,2*%
%TO.N,Net-(D2-A)*%
X93167200Y-25552400D03*
%TO.P,100R,1*%
%TO.N,Net-(U1-1OUT)*%
X91167200Y-25552400D03*
%TD*%
D11*
%TO.P,U1,8,VCC*%
%TO.N,Net-(D1-A)*%
X128168400Y-136550400D03*
%TO.P,U1,7,2OUT*%
%TO.N,Net-(U1-2OUT)*%
X128168400Y-137820400D03*
%TO.P,U1,6,2IN-*%
%TO.N,unconnected-(U1-2IN--Pad6)*%
X128168400Y-139090400D03*
%TO.P,U1,5,2IN+*%
%TO.N,Net-(U1-2IN+)*%
X128168400Y-140360400D03*
%TO.P,U1,4,GND*%
%TO.N,Net-(D2-K)*%
X123240800Y-140360400D03*
%TO.P,U1,3,1IN+*%
%TO.N,unconnected-(U1-1IN+-Pad3)*%
X123240800Y-139090400D03*
%TO.P,U1,2,1IN-*%
%TO.N,unconnected-(U1-1IN--Pad2)*%
X123240800Y-137820400D03*
%TO.P,U1,1,1OUT*%
%TO.N,Net-(U1-1OUT)*%
X123240800Y-136550400D03*
%TD*%
D16*
%TO.P,10kR,2*%
%TO.N,Net-(D1-A)*%
X132664200Y-144957800D03*
%TO.P,10kR,1*%
%TO.N,Net-(U1-2IN+)*%
X130664200Y-144957800D03*
%TD*%
D14*
%TO.P,J1,2,Pin_2*%
%TO.N,Net-(D2-K)*%
X99187000Y-123977400D03*
D15*
%TO.P,J1,1,Pin_1*%
%TO.N,Net-(D1-K)*%
X101727000Y-123977400D03*
%TD*%
D16*
%TO.P,10kR,2*%
%TO.N,Net-(D1-A)*%
X132029200Y-53289200D03*
%TO.P,10kR,1*%
%TO.N,Net-(U1-2IN+)*%
X130029200Y-53289200D03*
%TD*%
D11*
%TO.P,U1,8,VCC*%
%TO.N,Net-(D1-A)*%
X127685800Y-67894200D03*
%TO.P,U1,7,2OUT*%
%TO.N,Net-(U1-2OUT)*%
X127685800Y-69164200D03*
%TO.P,U1,6,2IN-*%
%TO.N,unconnected-(U1-2IN--Pad6)*%
X127685800Y-70434200D03*
%TO.P,U1,5,2IN+*%
%TO.N,Net-(U1-2IN+)*%
X127685800Y-71704200D03*
%TO.P,U1,4,GND*%
%TO.N,Net-(D2-K)*%
X122758200Y-71704200D03*
%TO.P,U1,3,1IN+*%
%TO.N,unconnected-(U1-1IN+-Pad3)*%
X122758200Y-70434200D03*
%TO.P,U1,2,1IN-*%
%TO.N,unconnected-(U1-1IN--Pad2)*%
X122758200Y-69164200D03*
%TO.P,U1,1,1OUT*%
%TO.N,Net-(U1-1OUT)*%
X122758200Y-67894200D03*
%TD*%
D12*
%TO.P,C1,2*%
%TO.N,Net-(D1-A)*%
X98704400Y-86004400D03*
%TO.P,C1,1*%
%TO.N,Net-(D2-K)*%
X96629400Y-86004400D03*
%TD*%
D16*
%TO.P,100R,2*%
%TO.N,Net-(D3-A)*%
X133705600Y-49428400D03*
%TO.P,100R,1*%
%TO.N,Net-(U1-2OUT)*%
X131705600Y-49428400D03*
%TD*%
D14*
%TO.P,J1,2,Pin_2*%
%TO.N,Net-(D2-K)*%
X123291600Y-32359600D03*
D15*
%TO.P,J1,1,Pin_1*%
%TO.N,Net-(D1-K)*%
X125831600Y-32359600D03*
%TD*%
D12*
%TO.P,C1,2*%
%TO.N,Net-(D1-A)*%
X123088400Y-40132000D03*
%TO.P,C1,1*%
%TO.N,Net-(D2-K)*%
X121013400Y-40132000D03*
%TD*%
D11*
%TO.P,U1,8,VCC*%
%TO.N,Net-(D1-A)*%
X102946200Y-67843400D03*
%TO.P,U1,7,2OUT*%
%TO.N,Net-(U1-2OUT)*%
X102946200Y-69113400D03*
%TO.P,U1,6,2IN-*%
%TO.N,unconnected-(U1-2IN--Pad6)*%
X102946200Y-70383400D03*
%TO.P,U1,5,2IN+*%
%TO.N,Net-(U1-2IN+)*%
X102946200Y-71653400D03*
%TO.P,U1,4,GND*%
%TO.N,Net-(D2-K)*%
X98018600Y-71653400D03*
%TO.P,U1,3,1IN+*%
%TO.N,unconnected-(U1-1IN+-Pad3)*%
X98018600Y-70383400D03*
%TO.P,U1,2,1IN-*%
%TO.N,unconnected-(U1-1IN--Pad2)*%
X98018600Y-69113400D03*
%TO.P,U1,1,1OUT*%
%TO.N,Net-(U1-1OUT)*%
X98018600Y-67843400D03*
%TD*%
D10*
%TO.P,D1,2,A*%
%TO.N,Net-(D1-A)*%
X127508000Y-40284400D03*
%TO.P,D1,1,K*%
%TO.N,Net-(D1-K)*%
X130149600Y-40284400D03*
%TD*%
D16*
%TO.P,100R,2*%
%TO.N,Net-(D3-A)*%
X134137400Y-118186200D03*
%TO.P,100R,1*%
%TO.N,Net-(U1-2OUT)*%
X132137400Y-118186200D03*
%TD*%
%TO.P,100R,2*%
%TO.N,Net-(D3-A)*%
X134493000Y-164109400D03*
%TO.P,100R,1*%
%TO.N,Net-(U1-2OUT)*%
X132493000Y-164109400D03*
%TD*%
D10*
%TO.P,D1,2,A*%
%TO.N,Net-(D1-A)*%
X102768400Y-40233600D03*
%TO.P,D1,1,K*%
%TO.N,Net-(D1-K)*%
X105410000Y-40233600D03*
%TD*%
D13*
%TO.P,LEDG,2,A*%
%TO.N,Net-(D3-A)*%
X109423200Y-68376800D03*
%TO.P,LEDG,1,K*%
%TO.N,Net-(D2-K)*%
X107373200Y-68376800D03*
%TD*%
D11*
%TO.P,U1,8,VCC*%
%TO.N,Net-(D1-A)*%
X102590600Y-21920200D03*
%TO.P,U1,7,2OUT*%
%TO.N,Net-(U1-2OUT)*%
X102590600Y-23190200D03*
%TO.P,U1,6,2IN-*%
%TO.N,unconnected-(U1-2IN--Pad6)*%
X102590600Y-24460200D03*
%TO.P,U1,5,2IN+*%
%TO.N,Net-(U1-2IN+)*%
X102590600Y-25730200D03*
%TO.P,U1,4,GND*%
%TO.N,Net-(D2-K)*%
X97663000Y-25730200D03*
%TO.P,U1,3,1IN+*%
%TO.N,unconnected-(U1-1IN+-Pad3)*%
X97663000Y-24460200D03*
%TO.P,U1,2,1IN-*%
%TO.N,unconnected-(U1-1IN--Pad2)*%
X97663000Y-23190200D03*
%TO.P,U1,1,1OUT*%
%TO.N,Net-(U1-1OUT)*%
X97663000Y-21920200D03*
%TD*%
%TO.P,U1,8,VCC*%
%TO.N,Net-(D1-A)*%
X103581200Y-159512000D03*
%TO.P,U1,7,2OUT*%
%TO.N,Net-(U1-2OUT)*%
X103581200Y-160782000D03*
%TO.P,U1,6,2IN-*%
%TO.N,unconnected-(U1-2IN--Pad6)*%
X103581200Y-162052000D03*
%TO.P,U1,5,2IN+*%
%TO.N,Net-(U1-2IN+)*%
X103581200Y-163322000D03*
%TO.P,U1,4,GND*%
%TO.N,Net-(D2-K)*%
X98653600Y-163322000D03*
%TO.P,U1,3,1IN+*%
%TO.N,unconnected-(U1-1IN+-Pad3)*%
X98653600Y-162052000D03*
%TO.P,U1,2,1IN-*%
%TO.N,unconnected-(U1-1IN--Pad2)*%
X98653600Y-160782000D03*
%TO.P,U1,1,1OUT*%
%TO.N,Net-(U1-1OUT)*%
X98653600Y-159512000D03*
%TD*%
D14*
%TO.P,J1,2,Pin_2*%
%TO.N,Net-(D2-K)*%
X123926600Y-124028200D03*
D15*
%TO.P,J1,1,Pin_1*%
%TO.N,Net-(D1-K)*%
X126466600Y-124028200D03*
%TD*%
D10*
%TO.P,D1,1,K*%
%TO.N,Net-(D1-K)*%
X129946400Y-17373600D03*
%TO.P,D1,2,A*%
%TO.N,Net-(D1-A)*%
X127304800Y-17373600D03*
%TD*%
D16*
%TO.P,100R,2*%
%TO.N,Net-(D2-A)*%
X93370400Y-48463200D03*
%TO.P,100R,1*%
%TO.N,Net-(U1-1OUT)*%
X91370400Y-48463200D03*
%TD*%
%TO.P,100R,2*%
%TO.N,Net-(D2-A)*%
X94005400Y-140131800D03*
%TO.P,100R,1*%
%TO.N,Net-(U1-1OUT)*%
X92005400Y-140131800D03*
%TD*%
%TO.P,100R,2*%
%TO.N,Net-(D2-A)*%
X118262400Y-71526400D03*
%TO.P,100R,1*%
%TO.N,Net-(U1-1OUT)*%
X116262400Y-71526400D03*
%TD*%
%TO.P,10kR,2*%
%TO.N,Net-(D1-A)*%
X132384800Y-99212400D03*
%TO.P,10kR,1*%
%TO.N,Net-(U1-2IN+)*%
X130384800Y-99212400D03*
%TD*%
D12*
%TO.P,C2,2*%
%TO.N,Net-(D1-A)*%
X120091200Y-98501200D03*
%TO.P,C2,1*%
%TO.N,Net-(D2-K)*%
X118016200Y-98501200D03*
%TD*%
D16*
%TO.P,100R,2*%
%TO.N,Net-(D3-A)*%
X109397800Y-118135400D03*
%TO.P,100R,1*%
%TO.N,Net-(U1-2OUT)*%
X107397800Y-118135400D03*
%TD*%
D12*
%TO.P,C1,2*%
%TO.N,Net-(D1-A)*%
X98348800Y-40081200D03*
%TO.P,C1,1*%
%TO.N,Net-(D2-K)*%
X96273800Y-40081200D03*
%TD*%
D14*
%TO.P,J1,2,Pin_2*%
%TO.N,Net-(D2-K)*%
X123494800Y-55270400D03*
D15*
%TO.P,J1,1,Pin_1*%
%TO.N,Net-(D1-K)*%
X126034800Y-55270400D03*
%TD*%
D13*
%TO.P,LEDR,2,A*%
%TO.N,Net-(D2-A)*%
X94208600Y-135661400D03*
%TO.P,LEDR,1,K*%
%TO.N,Net-(D2-K)*%
X92158600Y-135661400D03*
%TD*%
D16*
%TO.P,100R,2*%
%TO.N,Net-(D3-A)*%
X109321600Y-95300800D03*
%TO.P,100R,1*%
%TO.N,Net-(U1-2OUT)*%
X107321600Y-95300800D03*
%TD*%
%TO.P,100R,2*%
%TO.N,Net-(D2-A)*%
X93802200Y-117221000D03*
%TO.P,100R,1*%
%TO.N,Net-(U1-1OUT)*%
X91802200Y-117221000D03*
%TD*%
%TO.P,10kR,2*%
%TO.N,Net-(D1-A)*%
X132461000Y-122047000D03*
%TO.P,10kR,1*%
%TO.N,Net-(U1-2IN+)*%
X130461000Y-122047000D03*
%TD*%
D13*
%TO.P,LEDG,2,A*%
%TO.N,Net-(D3-A)*%
X134162800Y-68427600D03*
%TO.P,LEDG,1,K*%
%TO.N,Net-(D2-K)*%
X132112800Y-68427600D03*
%TD*%
D16*
%TO.P,100R,2*%
%TO.N,Net-(D3-A)*%
X133858000Y-72440800D03*
%TO.P,100R,1*%
%TO.N,Net-(U1-2OUT)*%
X131858000Y-72440800D03*
%TD*%
%TO.P,100R,2*%
%TO.N,Net-(D3-A)*%
X108966000Y-49377600D03*
%TO.P,100R,1*%
%TO.N,Net-(U1-2OUT)*%
X106966000Y-49377600D03*
%TD*%
D13*
%TO.P,LEDR,2,A*%
%TO.N,Net-(D2-A)*%
X94005400Y-112750600D03*
%TO.P,LEDR,1,K*%
%TO.N,Net-(D2-K)*%
X91955400Y-112750600D03*
%TD*%
D16*
%TO.P,100R,2*%
%TO.N,Net-(D2-A)*%
X118745000Y-140182600D03*
%TO.P,100R,1*%
%TO.N,Net-(U1-1OUT)*%
X116745000Y-140182600D03*
%TD*%
D12*
%TO.P,C2,2*%
%TO.N,Net-(D1-A)*%
X95148400Y-75539600D03*
%TO.P,C2,1*%
%TO.N,Net-(D2-K)*%
X93073400Y-75539600D03*
%TD*%
D16*
%TO.P,100R,2*%
%TO.N,Net-(D2-A)*%
X118897400Y-163195000D03*
%TO.P,100R,1*%
%TO.N,Net-(U1-1OUT)*%
X116897400Y-163195000D03*
%TD*%
D13*
%TO.P,LEDR,2,A*%
%TO.N,Net-(D2-A)*%
X118110000Y-21132800D03*
%TO.P,LEDR,1,K*%
%TO.N,Net-(D2-K)*%
X116060000Y-21132800D03*
%TD*%
D10*
%TO.P,D1,2,A*%
%TO.N,Net-(D1-A)*%
X103200200Y-108991400D03*
%TO.P,D1,1,K*%
%TO.N,Net-(D1-K)*%
X105841800Y-108991400D03*
%TD*%
D16*
%TO.P,10kR,2*%
%TO.N,Net-(D1-A)*%
X107442000Y-76250800D03*
%TO.P,10kR,1*%
%TO.N,Net-(U1-2IN+)*%
X105442000Y-76250800D03*
%TD*%
D12*
%TO.P,C2,2*%
%TO.N,Net-(D1-A)*%
X119888000Y-75590400D03*
%TO.P,C2,1*%
%TO.N,Net-(D2-K)*%
X117813000Y-75590400D03*
%TD*%
D10*
%TO.P,D1,1,K*%
%TO.N,Net-(D1-K)*%
X105206800Y-17322800D03*
%TO.P,D1,2,A*%
%TO.N,Net-(D1-A)*%
X102565200Y-17322800D03*
%TD*%
D13*
%TO.P,LEDR,2,A*%
%TO.N,Net-(D2-A)*%
X93726000Y-67005200D03*
%TO.P,LEDR,1,K*%
%TO.N,Net-(D2-K)*%
X91676000Y-67005200D03*
%TD*%
D12*
%TO.P,C1,2*%
%TO.N,Net-(D1-A)*%
X98983800Y-131749800D03*
%TO.P,C1,1*%
%TO.N,Net-(D2-K)*%
X96908800Y-131749800D03*
%TD*%
%TO.P,C2,2*%
%TO.N,Net-(D1-A)*%
X95351600Y-98450400D03*
%TO.P,C2,1*%
%TO.N,Net-(D2-K)*%
X93276600Y-98450400D03*
%TD*%
D13*
%TO.P,LEDG,2,A*%
%TO.N,Net-(D3-A)*%
X134366000Y-91338400D03*
%TO.P,LEDG,1,K*%
%TO.N,Net-(D2-K)*%
X132316000Y-91338400D03*
%TD*%
D16*
%TO.P,100R,2*%
%TO.N,Net-(D3-A)*%
X108762800Y-26466800D03*
%TO.P,100R,1*%
%TO.N,Net-(U1-2OUT)*%
X106762800Y-26466800D03*
%TD*%
D13*
%TO.P,LEDR,2,A*%
%TO.N,Net-(D2-A)*%
X118465600Y-67056000D03*
%TO.P,LEDR,1,K*%
%TO.N,Net-(D2-K)*%
X116415600Y-67056000D03*
%TD*%
D11*
%TO.P,U1,8,VCC*%
%TO.N,Net-(D1-A)*%
X103225600Y-113588800D03*
%TO.P,U1,7,2OUT*%
%TO.N,Net-(U1-2OUT)*%
X103225600Y-114858800D03*
%TO.P,U1,6,2IN-*%
%TO.N,unconnected-(U1-2IN--Pad6)*%
X103225600Y-116128800D03*
%TO.P,U1,5,2IN+*%
%TO.N,Net-(U1-2IN+)*%
X103225600Y-117398800D03*
%TO.P,U1,4,GND*%
%TO.N,Net-(D2-K)*%
X98298000Y-117398800D03*
%TO.P,U1,3,1IN+*%
%TO.N,unconnected-(U1-1IN+-Pad3)*%
X98298000Y-116128800D03*
%TO.P,U1,2,1IN-*%
%TO.N,unconnected-(U1-1IN--Pad2)*%
X98298000Y-114858800D03*
%TO.P,U1,1,1OUT*%
%TO.N,Net-(U1-1OUT)*%
X98298000Y-113588800D03*
%TD*%
D13*
%TO.P,LEDG,2,A*%
%TO.N,Net-(D3-A)*%
X134645400Y-137083800D03*
%TO.P,LEDG,1,K*%
%TO.N,Net-(D2-K)*%
X132595400Y-137083800D03*
%TD*%
D16*
%TO.P,10kR,2*%
%TO.N,Net-(D1-A)*%
X107645200Y-99161600D03*
%TO.P,10kR,1*%
%TO.N,Net-(U1-2IN+)*%
X105645200Y-99161600D03*
%TD*%
D12*
%TO.P,C2,2*%
%TO.N,Net-(D1-A)*%
X120523000Y-167259000D03*
%TO.P,C2,1*%
%TO.N,Net-(D2-K)*%
X118448000Y-167259000D03*
%TD*%
D13*
%TO.P,LEDG,2,A*%
%TO.N,Net-(D3-A)*%
X134010400Y-45415200D03*
%TO.P,LEDG,1,K*%
%TO.N,Net-(D2-K)*%
X131960400Y-45415200D03*
%TD*%
D14*
%TO.P,J1,2,Pin_2*%
%TO.N,Net-(D2-K)*%
X123647200Y-78282800D03*
D15*
%TO.P,J1,1,Pin_1*%
%TO.N,Net-(D1-K)*%
X126187200Y-78282800D03*
%TD*%
D16*
%TO.P,100R,2*%
%TO.N,Net-(D2-A)*%
X94157800Y-163144200D03*
%TO.P,100R,1*%
%TO.N,Net-(U1-1OUT)*%
X92157800Y-163144200D03*
%TD*%
D13*
%TO.P,LEDR,2,A*%
%TO.N,Net-(D2-A)*%
X118745000Y-112801400D03*
%TO.P,LEDR,1,K*%
%TO.N,Net-(D2-K)*%
X116695000Y-112801400D03*
%TD*%
D11*
%TO.P,U1,8,VCC*%
%TO.N,Net-(D1-A)*%
X127533400Y-44881800D03*
%TO.P,U1,7,2OUT*%
%TO.N,Net-(U1-2OUT)*%
X127533400Y-46151800D03*
%TO.P,U1,6,2IN-*%
%TO.N,unconnected-(U1-2IN--Pad6)*%
X127533400Y-47421800D03*
%TO.P,U1,5,2IN+*%
%TO.N,Net-(U1-2IN+)*%
X127533400Y-48691800D03*
%TO.P,U1,4,GND*%
%TO.N,Net-(D2-K)*%
X122605800Y-48691800D03*
%TO.P,U1,3,1IN+*%
%TO.N,unconnected-(U1-1IN+-Pad3)*%
X122605800Y-47421800D03*
%TO.P,U1,2,1IN-*%
%TO.N,unconnected-(U1-1IN--Pad2)*%
X122605800Y-46151800D03*
%TO.P,U1,1,1OUT*%
%TO.N,Net-(U1-1OUT)*%
X122605800Y-44881800D03*
%TD*%
D12*
%TO.P,C1,2*%
%TO.N,Net-(D1-A)*%
X123240800Y-63144400D03*
%TO.P,C1,1*%
%TO.N,Net-(D2-K)*%
X121165800Y-63144400D03*
%TD*%
D16*
%TO.P,100R,2*%
%TO.N,Net-(D2-A)*%
X118465600Y-94437200D03*
%TO.P,100R,1*%
%TO.N,Net-(U1-1OUT)*%
X116465600Y-94437200D03*
%TD*%
%TO.P,100R,2*%
%TO.N,Net-(D2-A)*%
X93726000Y-94386400D03*
%TO.P,100R,1*%
%TO.N,Net-(U1-1OUT)*%
X91726000Y-94386400D03*
%TD*%
D10*
%TO.P,D1,2,A*%
%TO.N,Net-(D1-A)*%
X127660400Y-63296800D03*
%TO.P,D1,1,K*%
%TO.N,Net-(D1-K)*%
X130302000Y-63296800D03*
%TD*%
D12*
%TO.P,C2,2*%
%TO.N,Net-(D1-A)*%
X94996000Y-52527200D03*
%TO.P,C2,1*%
%TO.N,Net-(D2-K)*%
X92921000Y-52527200D03*
%TD*%
D16*
%TO.P,10kR,2*%
%TO.N,Net-(D1-A)*%
X107924600Y-144907000D03*
%TO.P,10kR,1*%
%TO.N,Net-(U1-2IN+)*%
X105924600Y-144907000D03*
%TD*%
%TO.P,100R,2*%
%TO.N,Net-(D3-A)*%
X109753400Y-164058600D03*
%TO.P,100R,1*%
%TO.N,Net-(U1-2OUT)*%
X107753400Y-164058600D03*
%TD*%
%TO.P,100R,2*%
%TO.N,Net-(D2-A)*%
X118110000Y-48514000D03*
%TO.P,100R,1*%
%TO.N,Net-(U1-1OUT)*%
X116110000Y-48514000D03*
%TD*%
D12*
%TO.P,C2,2*%
%TO.N,Net-(D1-A)*%
X95783400Y-167208200D03*
%TO.P,C2,1*%
%TO.N,Net-(D2-K)*%
X93708400Y-167208200D03*
%TD*%
D10*
%TO.P,D1,2,A*%
%TO.N,Net-(D1-A)*%
X128143000Y-131953000D03*
%TO.P,D1,1,K*%
%TO.N,Net-(D1-K)*%
X130784600Y-131953000D03*
%TD*%
D14*
%TO.P,J1,2,Pin_2*%
%TO.N,Net-(D2-K)*%
X99542600Y-169900600D03*
D15*
%TO.P,J1,1,Pin_1*%
%TO.N,Net-(D1-K)*%
X102082600Y-169900600D03*
%TD*%
D16*
%TO.P,10kR,2*%
%TO.N,Net-(D1-A)*%
X132181600Y-76301600D03*
%TO.P,10kR,1*%
%TO.N,Net-(U1-2IN+)*%
X130181600Y-76301600D03*
%TD*%
D14*
%TO.P,J1,2,Pin_2*%
%TO.N,Net-(D2-K)*%
X98755200Y-55219600D03*
D15*
%TO.P,J1,1,Pin_1*%
%TO.N,Net-(D1-K)*%
X101295200Y-55219600D03*
%TD*%
D16*
%TO.P,10kR,2*%
%TO.N,Net-(D1-A)*%
X108077000Y-167919400D03*
%TO.P,10kR,1*%
%TO.N,Net-(U1-2IN+)*%
X106077000Y-167919400D03*
%TD*%
%TO.P,100R,2*%
%TO.N,Net-(D3-A)*%
X134061200Y-95351600D03*
%TO.P,100R,1*%
%TO.N,Net-(U1-2OUT)*%
X132061200Y-95351600D03*
%TD*%
D12*
%TO.P,C1,2*%
%TO.N,Net-(D1-A)*%
X99136200Y-154762200D03*
%TO.P,C1,1*%
%TO.N,Net-(D2-K)*%
X97061200Y-154762200D03*
%TD*%
D16*
%TO.P,100R,2*%
%TO.N,Net-(D3-A)*%
X133502400Y-26517600D03*
%TO.P,100R,1*%
%TO.N,Net-(U1-2OUT)*%
X131502400Y-26517600D03*
%TD*%
D13*
%TO.P,LEDR,2,A*%
%TO.N,Net-(D2-A)*%
X93929200Y-89916000D03*
%TO.P,LEDR,1,K*%
%TO.N,Net-(D2-K)*%
X91879200Y-89916000D03*
%TD*%
D16*
%TO.P,100R,2*%
%TO.N,Net-(D2-A)*%
X93522800Y-71475600D03*
%TO.P,100R,1*%
%TO.N,Net-(U1-1OUT)*%
X91522800Y-71475600D03*
%TD*%
%TO.P,10kR,2*%
%TO.N,Net-(D1-A)*%
X107721400Y-121996200D03*
%TO.P,10kR,1*%
%TO.N,Net-(U1-2IN+)*%
X105721400Y-121996200D03*
%TD*%
D13*
%TO.P,LEDG,2,A*%
%TO.N,Net-(D3-A)*%
X110058200Y-160045400D03*
%TO.P,LEDG,1,K*%
%TO.N,Net-(D2-K)*%
X108008200Y-160045400D03*
%TD*%
%TO.P,LEDG,2,A*%
%TO.N,Net-(D3-A)*%
X109702600Y-114122200D03*
%TO.P,LEDG,1,K*%
%TO.N,Net-(D2-K)*%
X107652600Y-114122200D03*
%TD*%
%TO.P,LEDG,2,A*%
%TO.N,Net-(D3-A)*%
X133807200Y-22504400D03*
%TO.P,LEDG,1,K*%
%TO.N,Net-(D2-K)*%
X131757200Y-22504400D03*
%TD*%
D12*
%TO.P,C1,2*%
%TO.N,Net-(D1-A)*%
X123875800Y-154813000D03*
%TO.P,C1,1*%
%TO.N,Net-(D2-K)*%
X121800800Y-154813000D03*
%TD*%
%TO.P,C2,2*%
%TO.N,Net-(D1-A)*%
X119532400Y-29667200D03*
%TO.P,C2,1*%
%TO.N,Net-(D2-K)*%
X117457400Y-29667200D03*
%TD*%
%TO.P,C2,2*%
%TO.N,Net-(D1-A)*%
X94792800Y-29616400D03*
%TO.P,C2,1*%
%TO.N,Net-(D2-K)*%
X92717800Y-29616400D03*
%TD*%
D16*
%TO.P,100R,2*%
%TO.N,Net-(D3-A)*%
X109118400Y-72390000D03*
%TO.P,100R,1*%
%TO.N,Net-(U1-2OUT)*%
X107118400Y-72390000D03*
%TD*%
D13*
%TO.P,LEDG,2,A*%
%TO.N,Net-(D3-A)*%
X109626400Y-91287600D03*
%TO.P,LEDG,1,K*%
%TO.N,Net-(D2-K)*%
X107576400Y-91287600D03*
%TD*%
D14*
%TO.P,J1,2,Pin_2*%
%TO.N,Net-(D2-K)*%
X124282200Y-169951400D03*
D15*
%TO.P,J1,1,Pin_1*%
%TO.N,Net-(D1-K)*%
X126822200Y-169951400D03*
%TD*%
D13*
%TO.P,LEDR,2,A*%
%TO.N,Net-(D2-A)*%
X118668800Y-89966800D03*
%TO.P,LEDR,1,K*%
%TO.N,Net-(D2-K)*%
X116618800Y-89966800D03*
%TD*%
%TO.P,LEDR,2,A*%
%TO.N,Net-(D2-A)*%
X118313200Y-44043600D03*
%TO.P,LEDR,1,K*%
%TO.N,Net-(D2-K)*%
X116263200Y-44043600D03*
%TD*%
%TO.P,LEDR,2,A*%
%TO.N,Net-(D2-A)*%
X93370400Y-21082000D03*
%TO.P,LEDR,1,K*%
%TO.N,Net-(D2-K)*%
X91320400Y-21082000D03*
%TD*%
D16*
%TO.P,100R,2*%
%TO.N,Net-(D2-A)*%
X118541800Y-117271800D03*
%TO.P,100R,1*%
%TO.N,Net-(U1-1OUT)*%
X116541800Y-117271800D03*
%TD*%
D12*
%TO.P,C1,2*%
%TO.N,Net-(D1-A)*%
X98780600Y-108839000D03*
%TO.P,C1,1*%
%TO.N,Net-(D2-K)*%
X96705600Y-108839000D03*
%TD*%
D11*
%TO.P,U1,8,VCC*%
%TO.N,Net-(D1-A)*%
X127965200Y-113639600D03*
%TO.P,U1,7,2OUT*%
%TO.N,Net-(U1-2OUT)*%
X127965200Y-114909600D03*
%TO.P,U1,6,2IN-*%
%TO.N,unconnected-(U1-2IN--Pad6)*%
X127965200Y-116179600D03*
%TO.P,U1,5,2IN+*%
%TO.N,Net-(U1-2IN+)*%
X127965200Y-117449600D03*
%TO.P,U1,4,GND*%
%TO.N,Net-(D2-K)*%
X123037600Y-117449600D03*
%TO.P,U1,3,1IN+*%
%TO.N,unconnected-(U1-1IN+-Pad3)*%
X123037600Y-116179600D03*
%TO.P,U1,2,1IN-*%
%TO.N,unconnected-(U1-1IN--Pad2)*%
X123037600Y-114909600D03*
%TO.P,U1,1,1OUT*%
%TO.N,Net-(U1-1OUT)*%
X123037600Y-113639600D03*
%TD*%
D12*
%TO.P,C2,2*%
%TO.N,Net-(D1-A)*%
X95631000Y-144195800D03*
%TO.P,C2,1*%
%TO.N,Net-(D2-K)*%
X93556000Y-144195800D03*
%TD*%
D14*
%TO.P,J1,2,Pin_2*%
%TO.N,Net-(D2-K)*%
X99110800Y-101142800D03*
D15*
%TO.P,J1,1,Pin_1*%
%TO.N,Net-(D1-K)*%
X101650800Y-101142800D03*
%TD*%
D12*
%TO.P,C2,2*%
%TO.N,Net-(D1-A)*%
X95427800Y-121285000D03*
%TO.P,C2,1*%
%TO.N,Net-(D2-K)*%
X93352800Y-121285000D03*
%TD*%
D10*
%TO.P,D1,2,A*%
%TO.N,Net-(D1-A)*%
X103555800Y-154914600D03*
%TO.P,D1,1,K*%
%TO.N,Net-(D1-K)*%
X106197400Y-154914600D03*
%TD*%
D11*
%TO.P,U1,8,VCC*%
%TO.N,Net-(D1-A)*%
X128320800Y-159562800D03*
%TO.P,U1,7,2OUT*%
%TO.N,Net-(U1-2OUT)*%
X128320800Y-160832800D03*
%TO.P,U1,6,2IN-*%
%TO.N,unconnected-(U1-2IN--Pad6)*%
X128320800Y-162102800D03*
%TO.P,U1,5,2IN+*%
%TO.N,Net-(U1-2IN+)*%
X128320800Y-163372800D03*
%TO.P,U1,4,GND*%
%TO.N,Net-(D2-K)*%
X123393200Y-163372800D03*
%TO.P,U1,3,1IN+*%
%TO.N,unconnected-(U1-1IN+-Pad3)*%
X123393200Y-162102800D03*
%TO.P,U1,2,1IN-*%
%TO.N,unconnected-(U1-1IN--Pad2)*%
X123393200Y-160832800D03*
%TO.P,U1,1,1OUT*%
%TO.N,Net-(U1-1OUT)*%
X123393200Y-159562800D03*
%TD*%
D12*
%TO.P,C1,2*%
%TO.N,Net-(D1-A)*%
X123444000Y-86055200D03*
%TO.P,C1,1*%
%TO.N,Net-(D2-K)*%
X121369000Y-86055200D03*
%TD*%
%TO.P,C1,2*%
%TO.N,Net-(D1-A)*%
X123723400Y-131800600D03*
%TO.P,C1,1*%
%TO.N,Net-(D2-K)*%
X121648400Y-131800600D03*
%TD*%
%TO.P,C2,2*%
%TO.N,Net-(D1-A)*%
X120370600Y-144246600D03*
%TO.P,C2,1*%
%TO.N,Net-(D2-K)*%
X118295600Y-144246600D03*
%TD*%
D11*
%TO.P,U1,8,VCC*%
%TO.N,Net-(D1-A)*%
X102793800Y-44831000D03*
%TO.P,U1,7,2OUT*%
%TO.N,Net-(U1-2OUT)*%
X102793800Y-46101000D03*
%TO.P,U1,6,2IN-*%
%TO.N,unconnected-(U1-2IN--Pad6)*%
X102793800Y-47371000D03*
%TO.P,U1,5,2IN+*%
%TO.N,Net-(U1-2IN+)*%
X102793800Y-48641000D03*
%TO.P,U1,4,GND*%
%TO.N,Net-(D2-K)*%
X97866200Y-48641000D03*
%TO.P,U1,3,1IN+*%
%TO.N,unconnected-(U1-1IN+-Pad3)*%
X97866200Y-47371000D03*
%TO.P,U1,2,1IN-*%
%TO.N,unconnected-(U1-1IN--Pad2)*%
X97866200Y-46101000D03*
%TO.P,U1,1,1OUT*%
%TO.N,Net-(U1-1OUT)*%
X97866200Y-44831000D03*
%TD*%
D16*
%TO.P,100R,2*%
%TO.N,Net-(D3-A)*%
X109601000Y-141046200D03*
%TO.P,100R,1*%
%TO.N,Net-(U1-2OUT)*%
X107601000Y-141046200D03*
%TD*%
D13*
%TO.P,LEDG,2,A*%
%TO.N,Net-(D3-A)*%
X134442200Y-114173000D03*
%TO.P,LEDG,1,K*%
%TO.N,Net-(D2-K)*%
X132392200Y-114173000D03*
%TD*%
D14*
%TO.P,J1,2,Pin_2*%
%TO.N,Net-(D2-K)*%
X98907600Y-78232000D03*
D15*
%TO.P,J1,1,Pin_1*%
%TO.N,Net-(D1-K)*%
X101447600Y-78232000D03*
%TD*%
D10*
%TO.P,D1,2,A*%
%TO.N,Net-(D1-A)*%
X127863600Y-86207600D03*
%TO.P,D1,1,K*%
%TO.N,Net-(D1-K)*%
X130505200Y-86207600D03*
%TD*%
D12*
%TO.P,C1,1*%
%TO.N,Net-(D2-K)*%
X120810200Y-17221200D03*
%TO.P,C1,2*%
%TO.N,Net-(D1-A)*%
X122885200Y-17221200D03*
%TD*%
D13*
%TO.P,LEDG,2,A*%
%TO.N,Net-(D3-A)*%
X109905800Y-137033000D03*
%TO.P,LEDG,1,K*%
%TO.N,Net-(D2-K)*%
X107855800Y-137033000D03*
%TD*%
%TO.P,LEDR,2,A*%
%TO.N,Net-(D2-A)*%
X119100600Y-158724600D03*
%TO.P,LEDR,1,K*%
%TO.N,Net-(D2-K)*%
X117050600Y-158724600D03*
%TD*%
D16*
%TO.P,10kR,2*%
%TO.N,Net-(D1-A)*%
X107289600Y-53238400D03*
%TO.P,10kR,1*%
%TO.N,Net-(U1-2IN+)*%
X105289600Y-53238400D03*
%TD*%
D10*
%TO.P,D1,2,A*%
%TO.N,Net-(D1-A)*%
X103403400Y-131902200D03*
%TO.P,D1,1,K*%
%TO.N,Net-(D1-K)*%
X106045000Y-131902200D03*
%TD*%
D12*
%TO.P,C1,2*%
%TO.N,Net-(D1-A)*%
X123520200Y-108889800D03*
%TO.P,C1,1*%
%TO.N,Net-(D2-K)*%
X121445200Y-108889800D03*
%TD*%
D16*
%TO.P,100R,2*%
%TO.N,Net-(D2-A)*%
X117906800Y-25603200D03*
%TO.P,100R,1*%
%TO.N,Net-(U1-1OUT)*%
X115906800Y-25603200D03*
%TD*%
D10*
%TO.P,D1,2,A*%
%TO.N,Net-(D1-A)*%
X127939800Y-109042200D03*
%TO.P,D1,1,K*%
%TO.N,Net-(D1-K)*%
X130581400Y-109042200D03*
%TD*%
D12*
%TO.P,C1,2*%
%TO.N,Net-(D1-A)*%
X98501200Y-63093600D03*
%TO.P,C1,1*%
%TO.N,Net-(D2-K)*%
X96426200Y-63093600D03*
%TD*%
D17*
%TO.N,Net-(D2-K)*%
X97967800Y-164820600D03*
X96977200Y-27228800D03*
X106349800Y-160807400D03*
X122072400Y-73202800D03*
X122555000Y-141859000D03*
X105714800Y-69138800D03*
X122275600Y-96113600D03*
X121920000Y-50190400D03*
X122351800Y-118948200D03*
X106197400Y-137795000D03*
X130937000Y-137845800D03*
X130302000Y-46177200D03*
X130733800Y-114935000D03*
X131089400Y-160858200D03*
X105918000Y-92049600D03*
X130657600Y-92100400D03*
X130454400Y-69189600D03*
X105562400Y-46126400D03*
X122707400Y-164871400D03*
X105994200Y-114884200D03*
X130098800Y-23266400D03*
X97536000Y-96062800D03*
X105359200Y-23215600D03*
X97815400Y-141808200D03*
X97612200Y-118897400D03*
X97332800Y-73152000D03*
X97180400Y-50139600D03*
X121716800Y-27279600D03*
%TD*%
D18*
%TO.N,Net-(D1-A)*%
X105841800Y-135051800D02*
X105597400Y-135296200D01*
X108297800Y-121419800D02*
X107721400Y-121996200D01*
X132402400Y-25832856D02*
X132402400Y-29802000D01*
X95850000Y-52527200D02*
X100787200Y-47590000D01*
X103124000Y-86156800D02*
X98856800Y-86156800D01*
X126314200Y-159740600D02*
X126466600Y-159740600D01*
X101295200Y-90932000D02*
X101473000Y-90754200D01*
X101142800Y-93513200D02*
X101142800Y-90932000D01*
X119888000Y-75590400D02*
X120742000Y-75590400D01*
X99288600Y-154914600D02*
X99136200Y-154762200D01*
X127609600Y-20523200D02*
X129743200Y-20523200D01*
X105003600Y-20472400D02*
X104759200Y-20716800D01*
X95427800Y-121285000D02*
X96281800Y-121285000D01*
X103225600Y-113588800D02*
X103225600Y-112420400D01*
X107662800Y-25782056D02*
X107662800Y-29751200D01*
X130873458Y-69871514D02*
X132758000Y-71756056D01*
X132758000Y-75725200D02*
X132181600Y-76301600D01*
X130098800Y-66446400D02*
X129854400Y-66690800D01*
X133240600Y-144381400D02*
X132664200Y-144957800D01*
X123840071Y-108889800D02*
X127142071Y-112191800D01*
X123408271Y-40132000D02*
X126710271Y-43434000D01*
X127685800Y-67894200D02*
X127685800Y-66725800D01*
X96637400Y-167208200D02*
X101574600Y-162271000D01*
X96485000Y-144195800D02*
X101422200Y-139258600D01*
X132961200Y-94666856D02*
X132961200Y-98636000D01*
X120589600Y-52578000D02*
X125526800Y-47640800D01*
X108221600Y-94616056D02*
X108221600Y-98585200D01*
X126288800Y-113639600D02*
X127965200Y-113639600D01*
X103149400Y-89585800D02*
X103428800Y-89306400D01*
X104962400Y-46808314D02*
X105981458Y-46808314D01*
X123672600Y-109042200D02*
X123520200Y-108889800D01*
X129498800Y-23948314D02*
X130517858Y-23948314D01*
X105994200Y-158064200D02*
X105749800Y-158308600D01*
X100914200Y-21920200D02*
X102590600Y-21920200D01*
X102920800Y-63246000D02*
X98653600Y-63246000D01*
X101117400Y-44831000D02*
X102793800Y-44831000D01*
X120742000Y-75590400D02*
X125679200Y-70653200D01*
X101767471Y-20472400D02*
X102870000Y-20472400D01*
X105318000Y-89550800D02*
X105318000Y-92731514D01*
X103225600Y-66395600D02*
X105359200Y-66395600D01*
X123088400Y-40132000D02*
X123408271Y-40132000D01*
X129498800Y-20767600D02*
X129498800Y-23948314D01*
X126507071Y-20523200D02*
X127609600Y-20523200D01*
X125831600Y-68072000D02*
X126009400Y-67894200D01*
X107866000Y-48692856D02*
X107866000Y-52662000D01*
X100787200Y-47590000D02*
X100787200Y-45008800D01*
X103428800Y-89306400D02*
X105562400Y-89306400D01*
X108653400Y-163373856D02*
X108653400Y-167343000D01*
X130489400Y-161540114D02*
X131508458Y-161540114D01*
X102768400Y-40233600D02*
X98501200Y-40233600D01*
X127660400Y-63296800D02*
X123393200Y-63296800D01*
X120091200Y-98501200D02*
X120945200Y-98501200D01*
X99456071Y-154762200D02*
X102758071Y-158064200D01*
X98501200Y-40233600D02*
X98348800Y-40081200D01*
X128600200Y-158115000D02*
X130733800Y-158115000D01*
X108501000Y-140361456D02*
X108501000Y-144330600D01*
X122885200Y-17526000D02*
X122885200Y-17221200D01*
X103200200Y-108991400D02*
X98933000Y-108991400D01*
X127330200Y-21971000D02*
X127330200Y-20802600D01*
X126161800Y-136728200D02*
X126314200Y-136728200D01*
X126492000Y-136550400D02*
X128168400Y-136550400D01*
X126111000Y-113817400D02*
X126288800Y-113639600D01*
X128447800Y-135102600D02*
X130581400Y-135102600D01*
X129946400Y-43434000D02*
X129702000Y-43678400D01*
X123444000Y-86055200D02*
X123763871Y-86055200D01*
X125857000Y-44881800D02*
X127533400Y-44881800D01*
X129854400Y-66690800D02*
X129854400Y-69871514D01*
X99136200Y-154762200D02*
X99456071Y-154762200D01*
X130133800Y-115616914D02*
X131152858Y-115616914D01*
X125958600Y-116398600D02*
X125958600Y-113817400D01*
X128295400Y-154965400D02*
X124028200Y-154965400D01*
X125958600Y-113817400D02*
X126111000Y-113817400D01*
X127533400Y-43713400D02*
X127812800Y-43434000D01*
X125679200Y-70653200D02*
X125679200Y-68072000D01*
X105749800Y-158308600D02*
X105749800Y-161489314D01*
X127497671Y-158115000D02*
X128600200Y-158115000D01*
X103505000Y-112141000D02*
X105638600Y-112141000D01*
X95351600Y-98450400D02*
X96205600Y-98450400D01*
X104759200Y-23897514D02*
X105778258Y-23897514D01*
X101219000Y-116347800D02*
X101219000Y-113766600D01*
X130378200Y-112191800D02*
X130133800Y-112436200D01*
X123205071Y-17221200D02*
X126507071Y-20523200D01*
X108297800Y-117450656D02*
X108297800Y-121419800D01*
X101142800Y-90932000D02*
X101295200Y-90932000D01*
X123520200Y-109194600D02*
X123520200Y-108889800D01*
X130337000Y-138527714D02*
X131356058Y-138527714D01*
X102605671Y-135051800D02*
X103708200Y-135051800D01*
X103428800Y-136499600D02*
X103428800Y-135331200D01*
X101422200Y-136677400D02*
X101574600Y-136677400D01*
X125882400Y-90982800D02*
X126034800Y-90982800D01*
X132605600Y-48743656D02*
X132605600Y-52712800D01*
X125323600Y-24730000D02*
X125323600Y-22148800D01*
X125526800Y-47640800D02*
X125526800Y-45059600D01*
X123240800Y-63144400D02*
X123560671Y-63144400D01*
X106133858Y-69820714D02*
X108018400Y-71705256D01*
X126034800Y-90982800D02*
X126212600Y-90805000D01*
X98668671Y-40081200D02*
X101970671Y-43383200D01*
X99136200Y-131902200D02*
X98983800Y-131749800D01*
X95646800Y-29616400D02*
X100584000Y-24679200D01*
X95631000Y-144195800D02*
X96485000Y-144195800D01*
X108018400Y-71705256D02*
X108018400Y-75674400D01*
X98501200Y-63398400D02*
X98501200Y-63093600D01*
X130057600Y-89601600D02*
X130057600Y-92782314D01*
X127508000Y-40284400D02*
X123240800Y-40284400D01*
X126466600Y-159740600D02*
X126644400Y-159562800D01*
X106337058Y-92731514D02*
X108221600Y-94616056D01*
X107866000Y-52662000D02*
X107289600Y-53238400D01*
X128320800Y-159562800D02*
X128320800Y-158394400D01*
X101549200Y-113588800D02*
X103225600Y-113588800D01*
X102946200Y-66675000D02*
X103225600Y-66395600D01*
X105638600Y-112141000D02*
X105394200Y-112385400D01*
X119735600Y-52578000D02*
X120589600Y-52578000D01*
X100939600Y-70602400D02*
X100939600Y-68021200D01*
X102402471Y-112141000D02*
X103505000Y-112141000D01*
X108221600Y-98585200D02*
X107645200Y-99161600D01*
X124195671Y-154813000D02*
X127497671Y-158115000D01*
X101574600Y-162271000D02*
X101574600Y-159689800D01*
X126644400Y-159562800D02*
X128320800Y-159562800D01*
X125476000Y-22148800D02*
X125653800Y-21971000D01*
X123444000Y-86360000D02*
X123444000Y-86055200D01*
X124043271Y-131800600D02*
X127345271Y-135102600D01*
X98348800Y-40081200D02*
X98668671Y-40081200D01*
X103403400Y-131902200D02*
X99136200Y-131902200D01*
X103581200Y-158343600D02*
X103860600Y-158064200D01*
X101904800Y-159512000D02*
X103581200Y-159512000D01*
X121377000Y-167259000D02*
X126314200Y-162321800D01*
X105394200Y-115566114D02*
X106413258Y-115566114D01*
X127965200Y-112471200D02*
X128244600Y-112191800D01*
X102590600Y-21920200D02*
X102590600Y-20751800D01*
X120386400Y-29667200D02*
X125323600Y-24730000D01*
X128143000Y-131953000D02*
X123875800Y-131953000D01*
X127965200Y-113639600D02*
X127965200Y-112471200D01*
X123875800Y-155117800D02*
X123875800Y-154813000D01*
X127330200Y-20802600D02*
X127609600Y-20523200D01*
X133393000Y-167393800D02*
X132816600Y-167970200D01*
X105778258Y-23897514D02*
X107662800Y-25782056D01*
X127533400Y-44881800D02*
X127533400Y-43713400D01*
X123875800Y-154813000D02*
X124195671Y-154813000D01*
X98501200Y-63093600D02*
X98821071Y-63093600D01*
X128168400Y-135382000D02*
X128447800Y-135102600D01*
X127889000Y-90805000D02*
X127889000Y-89636600D01*
X96281800Y-121285000D02*
X101219000Y-116347800D01*
X98145600Y-17475200D02*
X98145600Y-17170400D01*
X98348800Y-40386000D02*
X98348800Y-40081200D01*
X120370600Y-144246600D02*
X121224600Y-144246600D01*
X105981458Y-46808314D02*
X107866000Y-48692856D01*
X104962400Y-43627600D02*
X104962400Y-46808314D01*
X122885200Y-17221200D02*
X123205071Y-17221200D01*
X105597400Y-138476914D02*
X106616458Y-138476914D01*
X120523000Y-167259000D02*
X121377000Y-167259000D01*
X131508458Y-161540114D02*
X133393000Y-163424656D01*
X123560671Y-63144400D02*
X126862671Y-66446400D01*
X108501000Y-144330600D02*
X107924600Y-144907000D01*
X130302000Y-89357200D02*
X130057600Y-89601600D01*
X98704400Y-86309200D02*
X98704400Y-86004400D01*
X101970671Y-43383200D02*
X103073200Y-43383200D01*
X130581400Y-135102600D02*
X130337000Y-135347000D01*
X105114800Y-66640000D02*
X105114800Y-69820714D01*
X101371400Y-113766600D02*
X101549200Y-113588800D01*
X107662800Y-29751200D02*
X107086400Y-30327600D01*
X125882400Y-93564000D02*
X125882400Y-90982800D01*
X121224600Y-144246600D02*
X126161800Y-139309400D01*
X123037600Y-17373600D02*
X122885200Y-17221200D01*
X98933000Y-108991400D02*
X98780600Y-108839000D01*
X131152858Y-115616914D02*
X133037400Y-117501456D01*
X123088400Y-40436800D02*
X123088400Y-40132000D01*
X103073200Y-43383200D02*
X105206800Y-43383200D01*
X99024271Y-86004400D02*
X102326271Y-89306400D01*
X120167400Y-121335800D02*
X121021400Y-121335800D01*
X105114800Y-69820714D02*
X106133858Y-69820714D01*
X102758071Y-158064200D02*
X103860600Y-158064200D01*
X105562400Y-89306400D02*
X105318000Y-89550800D01*
X127685800Y-66725800D02*
X127965200Y-66446400D01*
X132961200Y-98636000D02*
X132384800Y-99212400D01*
X98821071Y-63093600D02*
X102123071Y-66395600D01*
X126009400Y-67894200D02*
X127685800Y-67894200D01*
X105394200Y-112385400D02*
X105394200Y-115566114D01*
X127812800Y-43434000D02*
X129946400Y-43434000D01*
X125679200Y-68072000D02*
X125831600Y-68072000D01*
X123520200Y-108889800D02*
X123840071Y-108889800D01*
X102946200Y-67843400D02*
X102946200Y-66675000D01*
X103708200Y-135051800D02*
X105841800Y-135051800D01*
X105206800Y-43383200D02*
X104962400Y-43627600D01*
X123596400Y-86207600D02*
X123444000Y-86055200D01*
X129702000Y-46859114D02*
X130721058Y-46859114D01*
X130733800Y-158115000D02*
X130489400Y-158359400D01*
X101473000Y-90754200D02*
X103149400Y-90754200D01*
X103555800Y-154914600D02*
X99288600Y-154914600D01*
X102793800Y-43662600D02*
X103073200Y-43383200D01*
X105597400Y-135296200D02*
X105597400Y-138476914D01*
X132758000Y-71756056D02*
X132758000Y-75725200D01*
X130337000Y-135347000D02*
X130337000Y-138527714D01*
X127965200Y-66446400D02*
X130098800Y-66446400D01*
X98465471Y-17170400D02*
X101767471Y-20472400D01*
X102123071Y-66395600D02*
X103225600Y-66395600D01*
X105359200Y-66395600D02*
X105114800Y-66640000D01*
X128244600Y-112191800D02*
X130378200Y-112191800D01*
X101752400Y-136499600D02*
X103428800Y-136499600D01*
X129743200Y-20523200D02*
X129498800Y-20767600D01*
X127304800Y-17373600D02*
X123037600Y-17373600D01*
X126314200Y-136728200D02*
X126492000Y-136550400D01*
X98780600Y-109143800D02*
X98780600Y-108839000D01*
X129702000Y-43678400D02*
X129702000Y-46859114D01*
X130057600Y-92782314D02*
X131076658Y-92782314D01*
X99303671Y-131749800D02*
X102605671Y-135051800D01*
X100939600Y-45008800D02*
X101117400Y-44831000D01*
X126862671Y-66446400D02*
X127965200Y-66446400D01*
X128168400Y-89357200D02*
X130302000Y-89357200D01*
X126710271Y-43434000D02*
X127812800Y-43434000D01*
X105318000Y-92731514D02*
X106337058Y-92731514D01*
X133393000Y-163424656D02*
X133393000Y-167393800D01*
X133037400Y-121470600D02*
X132461000Y-122047000D01*
X103149400Y-90754200D02*
X103149400Y-89585800D01*
X105749800Y-161489314D02*
X106768858Y-161489314D01*
X102590600Y-20751800D02*
X102870000Y-20472400D01*
X126314200Y-162321800D02*
X126314200Y-159740600D01*
X102793800Y-44831000D02*
X102793800Y-43662600D01*
X103581200Y-159512000D02*
X103581200Y-158343600D01*
X125679200Y-45059600D02*
X125857000Y-44881800D01*
X126212600Y-90805000D02*
X127889000Y-90805000D01*
X101219000Y-113766600D02*
X101371400Y-113766600D01*
X99136200Y-155067000D02*
X99136200Y-154762200D01*
X106616458Y-138476914D02*
X108501000Y-140361456D01*
X123723400Y-131800600D02*
X124043271Y-131800600D01*
X132605600Y-52712800D02*
X132029200Y-53289200D01*
X123240800Y-40284400D02*
X123088400Y-40132000D01*
X128320800Y-158394400D02*
X128600200Y-158115000D01*
X108653400Y-167343000D02*
X108077000Y-167919400D01*
X125653800Y-21971000D02*
X127330200Y-21971000D01*
X98145600Y-17170400D02*
X98465471Y-17170400D01*
X126161800Y-139309400D02*
X126161800Y-136728200D01*
X100939600Y-68021200D02*
X101092000Y-68021200D01*
X102565200Y-17322800D02*
X98298000Y-17322800D01*
X95783400Y-167208200D02*
X96637400Y-167208200D01*
X106413258Y-115566114D02*
X108297800Y-117450656D01*
X131356058Y-138527714D02*
X133240600Y-140412256D01*
X108018400Y-75674400D02*
X107442000Y-76250800D01*
X100584000Y-22098000D02*
X100736400Y-22098000D01*
X101574600Y-159689800D02*
X101727000Y-159689800D01*
X123763871Y-86055200D02*
X127065871Y-89357200D01*
X124028200Y-154965400D02*
X123875800Y-154813000D01*
X98653600Y-63246000D02*
X98501200Y-63093600D01*
X123393200Y-63296800D02*
X123240800Y-63144400D01*
X96002400Y-75539600D02*
X100939600Y-70602400D01*
X103225600Y-112420400D02*
X103505000Y-112141000D01*
X106768858Y-161489314D02*
X108653400Y-163373856D01*
X123875800Y-131953000D02*
X123723400Y-131800600D01*
X120945200Y-98501200D02*
X125882400Y-93564000D01*
X95148400Y-75539600D02*
X96002400Y-75539600D01*
X98780600Y-108839000D02*
X99100471Y-108839000D01*
X130489400Y-158359400D02*
X130489400Y-161540114D01*
X127345271Y-135102600D02*
X128447800Y-135102600D01*
X128168400Y-136550400D02*
X128168400Y-135382000D01*
X127065871Y-89357200D02*
X128168400Y-89357200D01*
X131076658Y-92782314D02*
X132961200Y-94666856D01*
X104759200Y-20716800D02*
X104759200Y-23897514D01*
X127889000Y-89636600D02*
X128168400Y-89357200D01*
X130133800Y-112436200D02*
X130133800Y-115616914D01*
X121021400Y-121335800D02*
X125958600Y-116398600D01*
X123723400Y-132105400D02*
X123723400Y-131800600D01*
X133240600Y-140412256D02*
X133240600Y-144381400D01*
X129854400Y-69871514D02*
X130873458Y-69871514D01*
X102326271Y-89306400D02*
X103428800Y-89306400D01*
X103860600Y-158064200D02*
X105994200Y-158064200D01*
X125526800Y-45059600D02*
X125679200Y-45059600D01*
X98983800Y-132054600D02*
X98983800Y-131749800D01*
X127142071Y-112191800D02*
X128244600Y-112191800D01*
X94996000Y-52527200D02*
X95850000Y-52527200D01*
X101092000Y-68021200D02*
X101269800Y-67843400D01*
X125323600Y-22148800D02*
X125476000Y-22148800D01*
X94792800Y-29616400D02*
X95646800Y-29616400D01*
X130517858Y-23948314D02*
X132402400Y-25832856D01*
X101422200Y-139258600D02*
X101422200Y-136677400D01*
X98298000Y-17322800D02*
X98145600Y-17170400D01*
X98983800Y-131749800D02*
X99303671Y-131749800D01*
X96205600Y-98450400D02*
X101142800Y-93513200D01*
X101574600Y-136677400D02*
X101752400Y-136499600D01*
X102870000Y-20472400D02*
X105003600Y-20472400D01*
X100584000Y-24679200D02*
X100584000Y-22098000D01*
X100736400Y-22098000D02*
X100914200Y-21920200D01*
X101269800Y-67843400D02*
X102946200Y-67843400D01*
X98856800Y-86156800D02*
X98704400Y-86004400D01*
X133037400Y-117501456D02*
X133037400Y-121470600D01*
X127939800Y-109042200D02*
X123672600Y-109042200D01*
X119532400Y-29667200D02*
X120386400Y-29667200D01*
X130721058Y-46859114D02*
X132605600Y-48743656D01*
X127863600Y-86207600D02*
X123596400Y-86207600D01*
X98704400Y-86004400D02*
X99024271Y-86004400D01*
X123240800Y-63449200D02*
X123240800Y-63144400D01*
X99100471Y-108839000D02*
X102402471Y-112141000D01*
X132402400Y-29802000D02*
X131826000Y-30378400D01*
X101727000Y-159689800D02*
X101904800Y-159512000D01*
X100787200Y-45008800D02*
X100939600Y-45008800D01*
X103428800Y-135331200D02*
X103708200Y-135051800D01*
%TO.N,Net-(D2-K)*%
X120497600Y-48209200D02*
X120497600Y-46278800D01*
X95758000Y-48158400D02*
X95758000Y-46228000D01*
X97210600Y-137079000D02*
X99791800Y-137079000D01*
X99588600Y-114168200D02*
X99588600Y-111722000D01*
X97332800Y-72339200D02*
X98018600Y-71653400D01*
X92921000Y-50995400D02*
X95758000Y-48158400D01*
X93556000Y-142664000D02*
X96393000Y-139827000D01*
X91643200Y-51257200D02*
X89509600Y-49123600D01*
X92749448Y-108839000D02*
X96705600Y-108839000D01*
X122961400Y-94615000D02*
X122250200Y-94615000D01*
X93105048Y-154762200D02*
X97061200Y-154762200D01*
X123037600Y-117449600D02*
X122326400Y-117449600D01*
X98298000Y-117398800D02*
X97586800Y-117398800D01*
X115382499Y-163509501D02*
X115382499Y-158141864D01*
X95961200Y-63558600D02*
X96426200Y-63093600D01*
X96393000Y-139827000D02*
X96393000Y-137896600D01*
X121902400Y-94615000D02*
X122961400Y-94615000D01*
X121503370Y-169951400D02*
X120334970Y-168783000D01*
X116209903Y-156447745D02*
X117844648Y-154813000D01*
X131960400Y-45415200D02*
X131960400Y-45839600D01*
X116057503Y-133435345D02*
X117692248Y-131800600D01*
X91440000Y-28346400D02*
X89306400Y-26212800D01*
X119903170Y-100025200D02*
X116738400Y-100025200D01*
X115422503Y-41766745D02*
X117057248Y-40132000D01*
X95808800Y-40546200D02*
X96273800Y-40081200D01*
X118016200Y-98501200D02*
X121902400Y-94615000D01*
X121071570Y-101193600D02*
X119903170Y-100025200D01*
X91879200Y-89916000D02*
X95790800Y-86004400D01*
X107652600Y-114122200D02*
X107652600Y-114546600D01*
X89855499Y-43410064D02*
X90682903Y-42582660D01*
X96128770Y-78232000D02*
X94960370Y-77063600D01*
X90835303Y-65595060D02*
X90835303Y-64728345D01*
X130860800Y-22504400D02*
X130098800Y-23266400D01*
X114681000Y-117932200D02*
X115026899Y-117586301D01*
X117017800Y-142976600D02*
X114884200Y-140843000D01*
X121699200Y-71704200D02*
X122758200Y-71704200D01*
X95554800Y-25247600D02*
X95554800Y-23317200D01*
X122707400Y-164058600D02*
X123393200Y-163372800D01*
X121950200Y-137129800D02*
X124531400Y-137129800D01*
X116209903Y-157314460D02*
X116209903Y-156447745D01*
X96443800Y-132214800D02*
X96908800Y-131749800D01*
X95867000Y-108839000D02*
X96705600Y-108839000D01*
X116060000Y-21132800D02*
X119971600Y-17221200D01*
X132747800Y-160096200D02*
X132747800Y-160520600D01*
X121716800Y-27279600D02*
X121716800Y-26466800D01*
X120650000Y-71221600D02*
X120650000Y-69291200D01*
X96070200Y-131749800D02*
X96908800Y-131749800D01*
X124683800Y-157696000D02*
X121800800Y-154813000D01*
X96240600Y-109304000D02*
X96705600Y-108839000D01*
X96393000Y-137896600D02*
X97210600Y-137079000D01*
X96977200Y-27228800D02*
X96977200Y-26416000D01*
X90144600Y-140792200D02*
X90490499Y-140446301D01*
X121343600Y-25781000D02*
X122402600Y-25781000D01*
X107855800Y-137033000D02*
X106959400Y-137033000D01*
X121132600Y-137947400D02*
X121950200Y-137129800D01*
X115036600Y-163855400D02*
X115382499Y-163509501D01*
X95773170Y-32308800D02*
X94604770Y-31140400D01*
X121920000Y-49377600D02*
X122605800Y-48691800D01*
X117813000Y-75590400D02*
X117813000Y-74058600D01*
X118092400Y-121335800D02*
X121978600Y-117449600D01*
X115574903Y-64779145D02*
X117209648Y-63144400D01*
X116695000Y-112801400D02*
X120606600Y-108889800D01*
X120853200Y-92202000D02*
X121670800Y-91384400D01*
X122351800Y-118135400D02*
X123037600Y-117449600D01*
X99110800Y-101142800D02*
X96331970Y-101142800D01*
X107111800Y-160045400D02*
X106349800Y-160807400D01*
X122402600Y-25781000D02*
X121691400Y-25781000D01*
X93556000Y-144195800D02*
X93556000Y-142664000D01*
X95163570Y-99974400D02*
X91998800Y-99974400D01*
X115778103Y-88556660D02*
X115778103Y-87689945D01*
X90007899Y-71790101D02*
X90007899Y-66422464D01*
X122102600Y-160142200D02*
X124683800Y-160142200D01*
X90835303Y-64728345D02*
X92470048Y-63093600D01*
X121350970Y-146939000D02*
X120182570Y-145770600D01*
X120650000Y-69291200D02*
X121467600Y-68473600D01*
X115026899Y-112218664D02*
X115854303Y-111391260D01*
X132316000Y-91338400D02*
X131419600Y-91338400D01*
X95758000Y-46228000D02*
X96575600Y-45410400D01*
X116854048Y-17221200D02*
X120810200Y-17221200D01*
X95910400Y-71170800D02*
X95910400Y-69240400D01*
X118448000Y-165727200D02*
X121285000Y-162890200D01*
X117813000Y-74058600D02*
X120650000Y-71221600D01*
X114595099Y-48828501D02*
X114595099Y-43460864D01*
X114604800Y-95097600D02*
X114950699Y-94751701D01*
X107220800Y-45364400D02*
X107220800Y-45788800D01*
X117170200Y-165989000D02*
X115036600Y-163855400D01*
X107576400Y-91287600D02*
X107576400Y-91712000D01*
X99156800Y-45410400D02*
X99156800Y-42964200D01*
X117692248Y-131800600D02*
X121648400Y-131800600D01*
X99542600Y-169900600D02*
X96763770Y-169900600D01*
X117457400Y-29667200D02*
X121343600Y-25781000D01*
X98953600Y-22499600D02*
X98953600Y-20053400D01*
X99512400Y-88887400D02*
X96629400Y-86004400D01*
X91795600Y-74269600D02*
X89662000Y-72136000D01*
X91038503Y-88505860D02*
X91038503Y-87639145D01*
X97332800Y-73152000D02*
X97332800Y-72339200D01*
X121132600Y-139877800D02*
X121132600Y-137947400D01*
X121467600Y-68473600D02*
X124048800Y-68473600D01*
X115382499Y-158141864D02*
X116209903Y-157314460D01*
X131757200Y-22504400D02*
X131757200Y-22928800D01*
X90297000Y-163804600D02*
X90642899Y-163458701D01*
X93352800Y-119753200D02*
X96189800Y-116916200D01*
X97536000Y-95250000D02*
X98221800Y-94564200D01*
X117660600Y-51046200D02*
X120497600Y-48209200D01*
X120327200Y-63144400D02*
X121165800Y-63144400D01*
X132747800Y-160096200D02*
X131851400Y-160096200D01*
X99791800Y-134632800D02*
X96908800Y-131749800D01*
X96959600Y-71653400D02*
X98018600Y-71653400D01*
X99156800Y-42964200D02*
X96273800Y-40081200D01*
X94604770Y-31140400D02*
X91440000Y-31140400D01*
X90490499Y-135078664D02*
X91317903Y-134251260D01*
X132595400Y-137083800D02*
X131699000Y-137083800D01*
X132392200Y-114173000D02*
X131495800Y-114173000D01*
X89652299Y-20499264D02*
X90479703Y-19671860D01*
X120530400Y-86055200D02*
X121369000Y-86055200D01*
X123693200Y-22550400D02*
X123693200Y-20104200D01*
X117457400Y-29667200D02*
X117457400Y-28135400D01*
X96189800Y-116916200D02*
X96189800Y-114985800D01*
X119699970Y-77114400D02*
X116535200Y-77114400D01*
X92114448Y-17170400D02*
X96070600Y-17170400D01*
X96575600Y-45410400D02*
X99156800Y-45410400D01*
X95587600Y-63093600D02*
X96426200Y-63093600D01*
X120929400Y-116967000D02*
X120929400Y-115036600D01*
X91795600Y-77063600D02*
X91795600Y-74269600D01*
X122555000Y-141859000D02*
X122555000Y-141046200D01*
X91440000Y-31140400D02*
X91440000Y-28346400D01*
X118295600Y-144246600D02*
X122181800Y-140360400D01*
X91955400Y-112750600D02*
X95867000Y-108839000D01*
X95790800Y-86004400D02*
X96629400Y-86004400D01*
X91676000Y-67005200D02*
X95587600Y-63093600D01*
X97442200Y-140309600D02*
X98501200Y-140309600D01*
X96931200Y-91333600D02*
X99512400Y-91333600D01*
X95232000Y-17170400D02*
X96070600Y-17170400D01*
X123896400Y-43015000D02*
X121013400Y-40132000D01*
X118016200Y-98501200D02*
X118016200Y-96969400D01*
X92075000Y-122809000D02*
X92075000Y-120015000D01*
X117170200Y-168783000D02*
X117170200Y-165989000D01*
X92430600Y-168732200D02*
X92430600Y-165938200D01*
X90211099Y-89333264D02*
X91038503Y-88505860D01*
X131495800Y-114173000D02*
X130733800Y-114935000D01*
X97536000Y-96062800D02*
X97536000Y-95250000D01*
X90479703Y-19671860D02*
X90479703Y-18805145D01*
X117660600Y-52578000D02*
X121546800Y-48691800D01*
X115854303Y-111391260D02*
X115854303Y-110524545D01*
X120294400Y-23368000D02*
X121112000Y-22550400D01*
X124048800Y-66027400D02*
X121165800Y-63144400D01*
X99588600Y-111722000D02*
X96705600Y-108839000D01*
X97866200Y-48641000D02*
X97155000Y-48641000D01*
X92278200Y-142925800D02*
X90144600Y-140792200D01*
X117057248Y-40132000D02*
X121013400Y-40132000D01*
X97007400Y-114168200D02*
X99588600Y-114168200D01*
X119547570Y-54102000D02*
X116382800Y-54102000D01*
X131960400Y-45415200D02*
X131064000Y-45415200D01*
X121978600Y-117449600D02*
X123037600Y-117449600D01*
X89941400Y-117881400D02*
X90287299Y-117535501D01*
X121335800Y-155278000D02*
X121800800Y-154813000D01*
X124252000Y-88938200D02*
X121369000Y-86055200D01*
X94960370Y-77063600D02*
X91795600Y-77063600D01*
X106680000Y-91287600D02*
X105918000Y-92049600D01*
X93352800Y-121285000D02*
X93352800Y-119753200D01*
X118295600Y-144246600D02*
X118295600Y-142714800D01*
X118295600Y-142714800D02*
X121132600Y-139877800D01*
X123647200Y-78282800D02*
X120868370Y-78282800D01*
X96596200Y-155227200D02*
X97061200Y-154762200D01*
X93073400Y-75539600D02*
X96959600Y-71653400D01*
X93556000Y-144195800D02*
X97442200Y-140309600D01*
X96113600Y-94081600D02*
X96113600Y-92151200D01*
X99309200Y-68422800D02*
X99309200Y-65976600D01*
X95554800Y-23317200D02*
X96372400Y-22499600D01*
X121285000Y-160959800D02*
X122102600Y-160142200D01*
X122555000Y-141046200D02*
X123240800Y-140360400D01*
X120868370Y-78282800D02*
X119699970Y-77114400D01*
X132595400Y-137083800D02*
X132595400Y-137508200D01*
X98653600Y-163322000D02*
X97942400Y-163322000D01*
X106756200Y-114122200D02*
X105994200Y-114884200D01*
X95605600Y-17635400D02*
X96070600Y-17170400D01*
X120715970Y-55270400D02*
X119547570Y-54102000D01*
X97612200Y-118084600D02*
X98298000Y-117398800D01*
X107373200Y-68376800D02*
X107373200Y-68801200D01*
X132392200Y-114173000D02*
X132392200Y-114597400D01*
X99187000Y-123977400D02*
X96408170Y-123977400D01*
X120904000Y-86520200D02*
X121369000Y-86055200D01*
X97967800Y-164007800D02*
X98653600Y-163322000D01*
X121183400Y-132265600D02*
X121648400Y-131800600D01*
X97815400Y-140995400D02*
X98501200Y-140309600D01*
X97162800Y-94564200D02*
X98221800Y-94564200D01*
X93276600Y-98450400D02*
X97162800Y-94564200D01*
X99512400Y-91333600D02*
X99512400Y-88887400D01*
X98552000Y-32308800D02*
X95773170Y-32308800D01*
X114747499Y-71840901D02*
X114747499Y-66473264D01*
X91998800Y-97180400D02*
X89865200Y-95046800D01*
X118448000Y-167259000D02*
X122334200Y-163372800D01*
X96331970Y-101142800D02*
X95163570Y-99974400D01*
X114884200Y-140843000D02*
X115230099Y-140497101D01*
X120962200Y-154813000D02*
X121800800Y-154813000D01*
X91470303Y-156396945D02*
X93105048Y-154762200D01*
X92717800Y-29616400D02*
X96604000Y-25730200D01*
X89855499Y-48777701D02*
X89855499Y-43410064D01*
X115026899Y-117586301D02*
X115026899Y-112218664D01*
X123693200Y-20104200D02*
X120810200Y-17221200D01*
X92470048Y-63093600D02*
X96426200Y-63093600D01*
X114950699Y-89384064D02*
X115778103Y-88556660D01*
X93073400Y-75539600D02*
X93073400Y-74007800D01*
X122707400Y-164871400D02*
X122707400Y-164058600D01*
X97663000Y-25730200D02*
X96951800Y-25730200D01*
X117412848Y-86055200D02*
X121369000Y-86055200D01*
X121147770Y-124028200D02*
X119979370Y-122859800D01*
X93708400Y-167208200D02*
X97594600Y-163322000D01*
X115230099Y-135129464D02*
X116057503Y-134302060D01*
X91038503Y-87639145D02*
X92673248Y-86004400D01*
X114391899Y-25917701D02*
X114391899Y-20550064D01*
X124531400Y-137129800D02*
X124531400Y-134683600D01*
X92717800Y-29616400D02*
X92717800Y-28084600D01*
X108008200Y-160045400D02*
X107111800Y-160045400D01*
X120548400Y-40597000D02*
X121013400Y-40132000D01*
X124282200Y-169951400D02*
X121503370Y-169951400D01*
X96611370Y-146888200D02*
X95442970Y-145719800D01*
X114249200Y-49174400D02*
X114595099Y-48828501D01*
X91317903Y-134251260D02*
X91317903Y-133384545D01*
X107017600Y-22453600D02*
X106121200Y-22453600D01*
X120182570Y-145770600D02*
X117017800Y-145770600D01*
X116415600Y-67056000D02*
X120327200Y-63144400D01*
X96807200Y-48641000D02*
X97866200Y-48641000D01*
X120294400Y-25298400D02*
X120294400Y-23368000D01*
X118092400Y-119804000D02*
X120929400Y-116967000D01*
X115219303Y-18855945D02*
X116854048Y-17221200D01*
X122758200Y-71704200D02*
X122047000Y-71704200D01*
X132112800Y-68427600D02*
X131216400Y-68427600D01*
X96604000Y-25730200D02*
X97663000Y-25730200D01*
X96372400Y-22499600D02*
X98953600Y-22499600D01*
X120497600Y-46278800D02*
X121315200Y-45461200D01*
X95976370Y-55219600D02*
X94807970Y-54051200D01*
X117209648Y-63144400D02*
X121165800Y-63144400D01*
X92158600Y-135661400D02*
X96070200Y-131749800D01*
X90682903Y-42582660D02*
X90682903Y-41715945D01*
X116535200Y-74320400D02*
X114401600Y-72186800D01*
X121920000Y-50190400D02*
X121920000Y-49377600D01*
X97612200Y-118897400D02*
X97612200Y-118084600D01*
X115574903Y-65645860D02*
X115574903Y-64779145D01*
X90007899Y-66422464D02*
X90835303Y-65595060D01*
X132316000Y-91338400D02*
X132316000Y-91762800D01*
X114595099Y-43460864D02*
X115422503Y-42633460D01*
X90287299Y-112167864D02*
X91114703Y-111340460D01*
X96189800Y-114985800D02*
X97007400Y-114168200D01*
X114747499Y-66473264D02*
X115574903Y-65645860D01*
X97180400Y-49326800D02*
X97866200Y-48641000D01*
X90490499Y-140446301D02*
X90490499Y-135078664D01*
X98501200Y-140309600D02*
X97790000Y-140309600D01*
X95595370Y-168732200D02*
X92430600Y-168732200D01*
X122072400Y-72390000D02*
X122758200Y-71704200D01*
X116738400Y-97231200D02*
X114604800Y-95097600D01*
X106324400Y-45364400D02*
X105562400Y-46126400D01*
X120334970Y-168783000D02*
X117170200Y-168783000D01*
X120512770Y-32359600D02*
X119344370Y-31191200D01*
X123850400Y-101193600D02*
X121071570Y-101193600D01*
X95435200Y-40081200D02*
X96273800Y-40081200D01*
X92717800Y-28084600D02*
X95554800Y-25247600D01*
X99944200Y-160091400D02*
X99944200Y-157645200D01*
X96545400Y-162839400D02*
X96545400Y-160909000D01*
X89509600Y-49123600D02*
X89855499Y-48777701D01*
X92278200Y-145719800D02*
X92278200Y-142925800D01*
X121670800Y-91384400D02*
X124252000Y-91384400D01*
X107017600Y-22453600D02*
X107017600Y-22878000D01*
X131851400Y-160096200D02*
X131089400Y-160858200D01*
X115219303Y-19722660D02*
X115219303Y-18855945D01*
X116179600Y-28397200D02*
X114046000Y-26263600D01*
X89652299Y-25866901D02*
X89652299Y-20499264D01*
X116898200Y-135712200D02*
X120809800Y-131800600D01*
X117489048Y-108889800D02*
X121445200Y-108889800D01*
X92430600Y-165938200D02*
X90297000Y-163804600D01*
X122605800Y-48691800D02*
X121894600Y-48691800D01*
X124252000Y-91384400D02*
X124252000Y-88938200D01*
X90642899Y-158091064D02*
X91470303Y-157263660D01*
X117660600Y-52578000D02*
X117660600Y-51046200D01*
X97363000Y-160091400D02*
X99944200Y-160091400D01*
X120345200Y-17686200D02*
X120810200Y-17221200D01*
X123896400Y-45461200D02*
X123896400Y-43015000D01*
X123393200Y-163372800D02*
X122682000Y-163372800D01*
X93352800Y-121285000D02*
X97239000Y-117398800D01*
X117813000Y-75590400D02*
X121699200Y-71704200D01*
X93073400Y-74007800D02*
X95910400Y-71170800D01*
X118016200Y-96969400D02*
X120853200Y-94132400D01*
X99791800Y-137079000D02*
X99791800Y-134632800D01*
X116814600Y-120065800D02*
X114681000Y-117932200D01*
X132112800Y-68427600D02*
X132112800Y-68852000D01*
X122351800Y-118948200D02*
X122351800Y-118135400D01*
X90287299Y-117535501D02*
X90287299Y-112167864D01*
X90642899Y-163458701D02*
X90642899Y-158091064D01*
X96763770Y-169900600D02*
X95595370Y-168732200D01*
X121112000Y-22550400D02*
X123693200Y-22550400D01*
X108008200Y-160045400D02*
X108008200Y-160469800D01*
X90682903Y-41715945D02*
X92317648Y-40081200D01*
X120980200Y-109354800D02*
X121445200Y-108889800D01*
X91643200Y-54051200D02*
X91643200Y-51257200D01*
X117844648Y-154813000D02*
X121800800Y-154813000D01*
X97967800Y-164820600D02*
X97967800Y-164007800D01*
X95910400Y-69240400D02*
X96728000Y-68422800D01*
X93708400Y-165676400D02*
X96545400Y-162839400D01*
X97815400Y-141808200D02*
X97815400Y-140995400D01*
X91114703Y-110473745D02*
X92749448Y-108839000D01*
X119971600Y-17221200D02*
X120810200Y-17221200D01*
X121716800Y-26466800D02*
X122402600Y-25781000D01*
X123240800Y-140360400D02*
X122529600Y-140360400D01*
X97594600Y-163322000D02*
X98653600Y-163322000D01*
X92075000Y-120015000D02*
X89941400Y-117881400D01*
X92673248Y-86004400D02*
X96629400Y-86004400D01*
X131757200Y-22504400D02*
X130860800Y-22504400D01*
X124531400Y-134683600D02*
X121648400Y-131800600D01*
X97239000Y-117398800D02*
X98298000Y-117398800D01*
X96728000Y-68422800D02*
X99309200Y-68422800D01*
X131216400Y-68427600D02*
X130454400Y-69189600D01*
X107855800Y-137033000D02*
X107855800Y-137457400D01*
X94807970Y-54051200D02*
X91643200Y-54051200D01*
X98907600Y-78232000D02*
X96128770Y-78232000D01*
X116738400Y-100025200D02*
X116738400Y-97231200D01*
X120809800Y-131800600D02*
X121648400Y-131800600D01*
X124129800Y-146939000D02*
X121350970Y-146939000D01*
X122334200Y-163372800D02*
X123393200Y-163372800D01*
X95442970Y-145719800D02*
X92278200Y-145719800D01*
X98953600Y-20053400D02*
X96070600Y-17170400D01*
X122072400Y-73202800D02*
X122072400Y-72390000D01*
X106959400Y-137033000D02*
X106197400Y-137795000D01*
X98755200Y-55219600D02*
X95976370Y-55219600D01*
X90479703Y-18805145D02*
X92114448Y-17170400D01*
X120606600Y-108889800D02*
X121445200Y-108889800D01*
X116618800Y-89966800D02*
X120530400Y-86055200D01*
X120174800Y-40132000D02*
X121013400Y-40132000D01*
X131419600Y-91338400D02*
X130657600Y-92100400D01*
X114950699Y-94751701D02*
X114950699Y-89384064D01*
X122181800Y-140360400D02*
X123240800Y-140360400D01*
X131064000Y-45415200D02*
X130302000Y-46177200D01*
X91998800Y-99974400D02*
X91998800Y-97180400D01*
X116263200Y-44043600D02*
X120174800Y-40132000D01*
X115778103Y-87689945D02*
X117412848Y-86055200D01*
X99944200Y-157645200D02*
X97061200Y-154762200D01*
X121285000Y-162890200D02*
X121285000Y-160959800D01*
X131699000Y-137083800D02*
X130937000Y-137845800D01*
X107576400Y-91287600D02*
X106680000Y-91287600D01*
X116535200Y-77114400D02*
X116535200Y-74320400D01*
X93276600Y-96918600D02*
X96113600Y-94081600D01*
X114046000Y-26263600D02*
X114391899Y-25917701D01*
X89662000Y-72136000D02*
X90007899Y-71790101D01*
X90211099Y-94700901D02*
X90211099Y-89333264D01*
X115422503Y-42633460D02*
X115422503Y-41766745D01*
X120853200Y-94132400D02*
X120853200Y-92202000D01*
X98018600Y-71653400D02*
X97307400Y-71653400D01*
X106121200Y-22453600D02*
X105359200Y-23215600D01*
X89306400Y-26212800D02*
X89652299Y-25866901D01*
X107220800Y-45364400D02*
X106324400Y-45364400D01*
X120700800Y-63609400D02*
X121165800Y-63144400D01*
X99390200Y-146888200D02*
X96611370Y-146888200D01*
X124328200Y-114219000D02*
X124328200Y-111772800D01*
X96222600Y-154762200D02*
X97061200Y-154762200D01*
X107373200Y-68376800D02*
X106476800Y-68376800D01*
X119979370Y-122859800D02*
X116814600Y-122859800D01*
X124683800Y-160142200D02*
X124683800Y-157696000D01*
X96164400Y-86469400D02*
X96629400Y-86004400D01*
X120929400Y-115036600D02*
X121747000Y-114219000D01*
X92921000Y-52527200D02*
X96807200Y-48641000D01*
X117017800Y-145770600D02*
X117017800Y-142976600D01*
X93276600Y-98450400D02*
X93276600Y-96918600D01*
X117457400Y-28135400D02*
X120294400Y-25298400D01*
X92952648Y-131749800D02*
X96908800Y-131749800D01*
X92921000Y-52527200D02*
X92921000Y-50995400D01*
X91523600Y-43992800D02*
X95435200Y-40081200D01*
X107652600Y-114122200D02*
X106756200Y-114122200D01*
X99309200Y-65976600D02*
X96426200Y-63093600D01*
X123291600Y-32359600D02*
X120512770Y-32359600D01*
X124048800Y-68473600D02*
X124048800Y-66027400D01*
X92311000Y-158673800D02*
X96222600Y-154762200D01*
X121546800Y-48691800D02*
X122605800Y-48691800D01*
X91114703Y-111340460D02*
X91114703Y-110473745D01*
X92317648Y-40081200D02*
X96273800Y-40081200D01*
X97180400Y-50139600D02*
X97180400Y-49326800D01*
X106476800Y-68376800D02*
X105714800Y-69138800D01*
X116057503Y-134302060D02*
X116057503Y-133435345D01*
X91470303Y-157263660D02*
X91470303Y-156396945D01*
X119344370Y-31191200D02*
X116179600Y-31191200D01*
X124328200Y-111772800D02*
X121445200Y-108889800D01*
X117050600Y-158724600D02*
X120962200Y-154813000D01*
X96408170Y-123977400D02*
X95239770Y-122809000D01*
X95239770Y-122809000D02*
X92075000Y-122809000D01*
X115230099Y-140497101D02*
X115230099Y-135129464D01*
X123494800Y-55270400D02*
X120715970Y-55270400D01*
X118092400Y-121335800D02*
X118092400Y-119804000D01*
X116382800Y-54102000D02*
X116382800Y-51308000D01*
X114391899Y-20550064D02*
X115219303Y-19722660D01*
X122275600Y-96113600D02*
X122275600Y-95300800D01*
X93708400Y-167208200D02*
X93708400Y-165676400D01*
X91317903Y-133384545D02*
X92952648Y-131749800D01*
X96545400Y-160909000D02*
X97363000Y-160091400D01*
X122275600Y-95300800D02*
X122961400Y-94615000D01*
X121315200Y-45461200D02*
X123896400Y-45461200D01*
X116179600Y-31191200D02*
X116179600Y-28397200D01*
X91320400Y-21082000D02*
X95232000Y-17170400D01*
X116814600Y-122859800D02*
X116814600Y-120065800D01*
X123926600Y-124028200D02*
X121147770Y-124028200D01*
X96113600Y-92151200D02*
X96931200Y-91333600D01*
X115854303Y-110524545D02*
X117489048Y-108889800D01*
X121747000Y-114219000D02*
X124328200Y-114219000D01*
X118448000Y-167259000D02*
X118448000Y-165727200D01*
X89865200Y-95046800D02*
X90211099Y-94700901D01*
X114401600Y-72186800D02*
X114747499Y-71840901D01*
X96977200Y-26416000D02*
X97663000Y-25730200D01*
X116382800Y-51308000D02*
X114249200Y-49174400D01*
X98221800Y-94564200D02*
X97510600Y-94564200D01*
%TO.N,Net-(D1-K)*%
X130352800Y-17373600D02*
X129946400Y-17373600D01*
X110145800Y-44563000D02*
X105816400Y-40233600D01*
X110145800Y-51966944D02*
X110145800Y-44563000D01*
X135241000Y-90537000D02*
X130911600Y-86207600D01*
X109942600Y-29056144D02*
X109942600Y-21652200D01*
X131785144Y-78282800D02*
X135037800Y-75030144D01*
X106451400Y-131902200D02*
X106045000Y-131902200D01*
X134885400Y-52017744D02*
X134885400Y-44613800D01*
X110501400Y-90486200D02*
X106172000Y-86156800D01*
X131988344Y-101193600D02*
X135241000Y-97940944D01*
X105613200Y-17322800D02*
X105206800Y-17322800D01*
X135672800Y-159294800D02*
X131343400Y-154965400D01*
X106893144Y-55219600D02*
X110145800Y-51966944D01*
X134682200Y-29106944D02*
X134682200Y-21703000D01*
X109942600Y-21652200D02*
X105613200Y-17322800D01*
X126034800Y-55270400D02*
X131632744Y-55270400D01*
X126187200Y-78282800D02*
X131785144Y-78282800D01*
X105816400Y-40233600D02*
X105410000Y-40233600D01*
X130556000Y-40284400D02*
X130149600Y-40284400D01*
X132420144Y-169951400D02*
X135672800Y-166698744D01*
X135672800Y-166698744D02*
X135672800Y-159294800D01*
X135241000Y-97940944D02*
X135241000Y-90537000D01*
X126466600Y-124028200D02*
X132064544Y-124028200D01*
X110933200Y-166647944D02*
X110933200Y-159244000D01*
X101930200Y-146888200D02*
X107528144Y-146888200D01*
X107045544Y-78232000D02*
X110298200Y-74979344D01*
X126669800Y-146939000D02*
X132267744Y-146939000D01*
X110298200Y-74979344D02*
X110298200Y-67575400D01*
X131429544Y-32359600D02*
X134682200Y-29106944D01*
X110780800Y-143635544D02*
X110780800Y-136231600D01*
X130911600Y-86207600D02*
X130505200Y-86207600D01*
X135317200Y-113371600D02*
X130987800Y-109042200D01*
X131632744Y-55270400D02*
X134885400Y-52017744D01*
X131343400Y-154965400D02*
X130937000Y-154965400D01*
X101447600Y-78232000D02*
X107045544Y-78232000D01*
X102082600Y-169900600D02*
X107680544Y-169900600D01*
X135520400Y-136282400D02*
X131191000Y-131953000D01*
X106172000Y-86156800D02*
X105765600Y-86156800D01*
X134885400Y-44613800D02*
X130556000Y-40284400D01*
X132267744Y-146939000D02*
X135520400Y-143686344D01*
X105968800Y-63246000D02*
X105562400Y-63246000D01*
X130987800Y-109042200D02*
X130581400Y-109042200D01*
X131191000Y-131953000D02*
X130784600Y-131953000D01*
X125831600Y-32359600D02*
X131429544Y-32359600D01*
X107680544Y-169900600D02*
X110933200Y-166647944D01*
X130708400Y-63296800D02*
X130302000Y-63296800D01*
X134682200Y-21703000D02*
X130352800Y-17373600D01*
X101650800Y-101142800D02*
X107248744Y-101142800D01*
X126822200Y-169951400D02*
X132420144Y-169951400D01*
X135037800Y-75030144D02*
X135037800Y-67626200D01*
X126390400Y-101193600D02*
X131988344Y-101193600D01*
X106603800Y-154914600D02*
X106197400Y-154914600D01*
X110780800Y-136231600D02*
X106451400Y-131902200D01*
X106689944Y-32308800D02*
X109942600Y-29056144D01*
X110577600Y-120724744D02*
X110577600Y-113320800D01*
X135037800Y-67626200D02*
X130708400Y-63296800D01*
X106248200Y-108991400D02*
X105841800Y-108991400D01*
X110501400Y-97890144D02*
X110501400Y-90486200D01*
X135317200Y-120775544D02*
X135317200Y-113371600D01*
X107528144Y-146888200D02*
X110780800Y-143635544D01*
X135520400Y-143686344D02*
X135520400Y-136282400D01*
X101727000Y-123977400D02*
X107324944Y-123977400D01*
X107248744Y-101142800D02*
X110501400Y-97890144D01*
X110577600Y-113320800D02*
X106248200Y-108991400D01*
X107324944Y-123977400D02*
X110577600Y-120724744D01*
X101295200Y-55219600D02*
X106893144Y-55219600D01*
X101092000Y-32308800D02*
X106689944Y-32308800D01*
X110933200Y-159244000D02*
X106603800Y-154914600D01*
X132064544Y-124028200D02*
X135317200Y-120775544D01*
X110298200Y-67575400D02*
X105968800Y-63246000D01*
%TO.N,Net-(D2-A)*%
X91257800Y-161777000D02*
X94361000Y-158673800D01*
X92522800Y-72475600D02*
X90938056Y-72475600D01*
X115845000Y-138815400D02*
X118948200Y-135712200D01*
X117465600Y-95437200D02*
X115880856Y-95437200D01*
X115677656Y-72526400D02*
X115362400Y-72211144D01*
X90470400Y-49147944D02*
X90470400Y-47096000D01*
X117110000Y-49514000D02*
X115525256Y-49514000D01*
X93522800Y-71475600D02*
X92522800Y-72475600D01*
X90622800Y-72160344D02*
X90622800Y-70108400D01*
X91105400Y-138764600D02*
X94208600Y-135661400D01*
X118465600Y-94437200D02*
X117465600Y-95437200D01*
X92726000Y-95386400D02*
X91141256Y-95386400D01*
X93726000Y-94386400D02*
X92726000Y-95386400D01*
X115006800Y-24236000D02*
X118110000Y-21132800D01*
X93157800Y-164144200D02*
X91573056Y-164144200D01*
X115362400Y-70159200D02*
X118465600Y-67056000D01*
X92370400Y-49463200D02*
X90785656Y-49463200D01*
X115565600Y-93070000D02*
X118668800Y-89966800D01*
X115210000Y-49198744D02*
X115210000Y-47146800D01*
X116160256Y-141182600D02*
X115845000Y-140867344D01*
X115957056Y-118271800D02*
X115641800Y-117956544D01*
X116906800Y-26603200D02*
X115322056Y-26603200D01*
X93167200Y-25552400D02*
X92167200Y-26552400D01*
X115641800Y-117956544D02*
X115641800Y-115904600D01*
X92802200Y-118221000D02*
X91217456Y-118221000D01*
X118897400Y-163195000D02*
X117897400Y-164195000D01*
X115210000Y-47146800D02*
X118313200Y-44043600D01*
X115997400Y-161827800D02*
X119100600Y-158724600D01*
X90902200Y-117905744D02*
X90902200Y-115853800D01*
X90785656Y-49463200D02*
X90470400Y-49147944D01*
X90902200Y-115853800D02*
X94005400Y-112750600D01*
X91217456Y-118221000D02*
X90902200Y-117905744D01*
X115641800Y-115904600D02*
X118745000Y-112801400D01*
X118745000Y-140182600D02*
X117745000Y-141182600D01*
X117906800Y-25603200D02*
X116906800Y-26603200D01*
X117262400Y-72526400D02*
X115677656Y-72526400D01*
X115997400Y-163879744D02*
X115997400Y-161827800D01*
X91141256Y-95386400D02*
X90826000Y-95071144D01*
X91105400Y-140816544D02*
X91105400Y-138764600D01*
X117541800Y-118271800D02*
X115957056Y-118271800D01*
X117897400Y-164195000D02*
X116312656Y-164195000D01*
X90582456Y-26552400D02*
X90267200Y-26237144D01*
X91573056Y-164144200D02*
X91257800Y-163828944D01*
X91420656Y-141131800D02*
X91105400Y-140816544D01*
X93370400Y-48463200D02*
X92370400Y-49463200D01*
X115525256Y-49514000D02*
X115210000Y-49198744D01*
X90826000Y-95071144D02*
X90826000Y-93019200D01*
X94157800Y-163144200D02*
X93157800Y-164144200D01*
X115006800Y-26287944D02*
X115006800Y-24236000D01*
X118262400Y-71526400D02*
X117262400Y-72526400D01*
X90470400Y-47096000D02*
X93573600Y-43992800D01*
X115845000Y-140867344D02*
X115845000Y-138815400D01*
X115362400Y-72211144D02*
X115362400Y-70159200D01*
X93802200Y-117221000D02*
X92802200Y-118221000D01*
X90826000Y-93019200D02*
X93929200Y-89916000D01*
X116312656Y-164195000D02*
X115997400Y-163879744D01*
X90938056Y-72475600D02*
X90622800Y-72160344D01*
X92167200Y-26552400D02*
X90582456Y-26552400D01*
X93005400Y-141131800D02*
X91420656Y-141131800D01*
X115322056Y-26603200D02*
X115006800Y-26287944D01*
X90267200Y-24185200D02*
X93370400Y-21082000D01*
X115565600Y-95121944D02*
X115565600Y-93070000D01*
X117745000Y-141182600D02*
X116160256Y-141182600D01*
X90622800Y-70108400D02*
X93726000Y-67005200D01*
X91257800Y-163828944D02*
X91257800Y-161777000D01*
X115880856Y-95437200D02*
X115565600Y-95121944D01*
X94005400Y-140131800D02*
X93005400Y-141131800D01*
X90267200Y-26237144D02*
X90267200Y-24185200D01*
X118110000Y-48514000D02*
X117110000Y-49514000D01*
X118541800Y-117271800D02*
X117541800Y-118271800D01*
%TO.N,Net-(D3-A)*%
X108762800Y-22758400D02*
X109067600Y-22453600D01*
X109397800Y-114427000D02*
X109702600Y-114122200D01*
X134137400Y-118186200D02*
X134137400Y-114477800D01*
X108966000Y-45669200D02*
X109270800Y-45364400D01*
X134493000Y-164109400D02*
X134493000Y-160401000D01*
X109753400Y-164058600D02*
X109753400Y-160350200D01*
X134340600Y-137388600D02*
X134645400Y-137083800D01*
X109397800Y-118135400D02*
X109397800Y-114427000D01*
X134493000Y-160401000D02*
X134797800Y-160096200D01*
X134061200Y-91643200D02*
X134366000Y-91338400D01*
X109321600Y-95300800D02*
X109321600Y-91592400D01*
X133502400Y-26517600D02*
X133502400Y-22809200D01*
X108966000Y-49377600D02*
X108966000Y-45669200D01*
X109601000Y-141046200D02*
X109601000Y-137337800D01*
X109601000Y-137337800D02*
X109905800Y-137033000D01*
X109118400Y-72390000D02*
X109118400Y-68681600D01*
X134340600Y-141097000D02*
X134340600Y-137388600D01*
X134137400Y-114477800D02*
X134442200Y-114173000D01*
X133858000Y-72440800D02*
X133858000Y-68732400D01*
X134061200Y-95351600D02*
X134061200Y-91643200D01*
X109753400Y-160350200D02*
X110058200Y-160045400D01*
X133705600Y-45720000D02*
X134010400Y-45415200D01*
X109321600Y-91592400D02*
X109626400Y-91287600D01*
X133705600Y-49428400D02*
X133705600Y-45720000D01*
X108762800Y-26466800D02*
X108762800Y-22758400D01*
X133858000Y-68732400D02*
X134162800Y-68427600D01*
X133502400Y-22809200D02*
X133807200Y-22504400D01*
X109118400Y-68681600D02*
X109423200Y-68376800D01*
%TO.N,Net-(U1-2OUT)*%
X128225800Y-23241000D02*
X131502400Y-26517600D01*
X128581400Y-69164200D02*
X131858000Y-72440800D01*
X103689400Y-46101000D02*
X106966000Y-49377600D01*
X103428800Y-137769600D02*
X104324400Y-137769600D01*
X104324400Y-137769600D02*
X107601000Y-141046200D01*
X128168400Y-137820400D02*
X129064000Y-137820400D01*
X102793800Y-46101000D02*
X103689400Y-46101000D01*
X127889000Y-92075000D02*
X128784600Y-92075000D01*
X128429000Y-46151800D02*
X131705600Y-49428400D01*
X104121200Y-114858800D02*
X107397800Y-118135400D01*
X102946200Y-69113400D02*
X103841800Y-69113400D01*
X128784600Y-92075000D02*
X132061200Y-95351600D01*
X128320800Y-160832800D02*
X129216400Y-160832800D01*
X129216400Y-160832800D02*
X132493000Y-164109400D01*
X103486200Y-23190200D02*
X106762800Y-26466800D01*
X127965200Y-114909600D02*
X128860800Y-114909600D01*
X103225600Y-114858800D02*
X104121200Y-114858800D01*
X102590600Y-23190200D02*
X103486200Y-23190200D01*
X104045000Y-92024200D02*
X107321600Y-95300800D01*
X127685800Y-69164200D02*
X128581400Y-69164200D01*
X103581200Y-160782000D02*
X104476800Y-160782000D01*
X103841800Y-69113400D02*
X107118400Y-72390000D01*
X128860800Y-114909600D02*
X132137400Y-118186200D01*
X129064000Y-137820400D02*
X132340600Y-141097000D01*
X127533400Y-46151800D02*
X128429000Y-46151800D01*
X103149400Y-92024200D02*
X104045000Y-92024200D01*
X127330200Y-23241000D02*
X128225800Y-23241000D01*
X104476800Y-160782000D02*
X107753400Y-164058600D01*
%TO.N,Net-(U1-1OUT)*%
X91726000Y-94386400D02*
X95358200Y-90754200D01*
X120097800Y-90805000D02*
X122961400Y-90805000D01*
X95002600Y-44831000D02*
X97866200Y-44831000D01*
X95155000Y-67843400D02*
X98018600Y-67843400D01*
X91167200Y-25552400D02*
X94799400Y-21920200D01*
X95790000Y-159512000D02*
X98653600Y-159512000D01*
X115906800Y-25603200D02*
X119539000Y-21971000D01*
X95434400Y-113588800D02*
X98298000Y-113588800D01*
X120174000Y-113639600D02*
X123037600Y-113639600D01*
X116745000Y-140182600D02*
X120377200Y-136550400D01*
X92157800Y-163144200D02*
X95790000Y-159512000D01*
X116262400Y-71526400D02*
X119894600Y-67894200D01*
X119894600Y-67894200D02*
X122758200Y-67894200D01*
X116541800Y-117271800D02*
X120174000Y-113639600D01*
X120529600Y-159562800D02*
X123393200Y-159562800D01*
X94799400Y-21920200D02*
X97663000Y-21920200D01*
X91802200Y-117221000D02*
X95434400Y-113588800D01*
X95637600Y-136499600D02*
X98501200Y-136499600D01*
X119539000Y-21971000D02*
X122402600Y-21971000D01*
X95358200Y-90754200D02*
X98221800Y-90754200D01*
X91370400Y-48463200D02*
X95002600Y-44831000D01*
X116465600Y-94437200D02*
X120097800Y-90805000D01*
X92005400Y-140131800D02*
X95637600Y-136499600D01*
X116897400Y-163195000D02*
X120529600Y-159562800D01*
X91522800Y-71475600D02*
X95155000Y-67843400D01*
X119742200Y-44881800D02*
X122605800Y-44881800D01*
X116110000Y-48514000D02*
X119742200Y-44881800D01*
X120377200Y-136550400D02*
X123240800Y-136550400D01*
%TO.N,Net-(U1-2IN+)*%
X130461000Y-119945400D02*
X127965200Y-117449600D01*
X105086400Y-28226000D02*
X102590600Y-25730200D01*
X130384800Y-99212400D02*
X130384800Y-97110800D01*
X106077000Y-165817800D02*
X103581200Y-163322000D01*
X129826000Y-30378400D02*
X129826000Y-28276800D01*
X105721400Y-121996200D02*
X105721400Y-119894600D01*
X129826000Y-28276800D02*
X127330200Y-25781000D01*
X105289600Y-51136800D02*
X102793800Y-48641000D01*
X105442000Y-76250800D02*
X105442000Y-74149200D01*
X106077000Y-167919400D02*
X106077000Y-165817800D01*
X130029200Y-51187600D02*
X127533400Y-48691800D01*
X130816600Y-165868600D02*
X128320800Y-163372800D01*
X130816600Y-167970200D02*
X130816600Y-165868600D01*
X105289600Y-53238400D02*
X105289600Y-51136800D01*
X105721400Y-119894600D02*
X103225600Y-117398800D01*
X105086400Y-30327600D02*
X105086400Y-28226000D01*
X105924600Y-144907000D02*
X105924600Y-142805400D01*
X105645200Y-99161600D02*
X105645200Y-97060000D01*
X130181600Y-74200000D02*
X127685800Y-71704200D01*
X105442000Y-74149200D02*
X102946200Y-71653400D01*
X130181600Y-76301600D02*
X130181600Y-74200000D01*
X130029200Y-53289200D02*
X130029200Y-51187600D01*
X105645200Y-97060000D02*
X103149400Y-94564200D01*
X130384800Y-97110800D02*
X127889000Y-94615000D01*
X130664200Y-144957800D02*
X130664200Y-142856200D01*
X130461000Y-122047000D02*
X130461000Y-119945400D01*
X130664200Y-142856200D02*
X128168400Y-140360400D01*
X105924600Y-142805400D02*
X103428800Y-140309600D01*
%TD*%
M02*
